<?xml version="1.0" encoding="iso-8859-1"?>
<!-- Generator: Adobe Illustrator 16.0.0, SVG Export Plug-In . SVG Version: 6.00 Build 0)  -->
<!DOCTYPE svg PUBLIC "-//W3C//DTD SVG 1.1//EN" "http://www.w3.org/Graphics/SVG/1.1/DTD/svg11.dtd">
<svg version="1.1" id="Capa_1" xmlns="http://www.w3.org/2000/svg" xmlns:xlink="http://www.w3.org/1999/xlink" x="0px" y="0px"
	 width="31.64px" height="31.64px" viewBox="0 0 31.64 31.64" style="enable-background:new 0 0 31.64 31.64;" xml:space="preserve"
	>
<g>
	<g>
		<g>
			<path d="M21.811,5.473c0.904-0.579,2.441,1.382,3.709,3.36c1.266,1.977,2.403,4.196,1.498,4.774
				c-1.295,0.83-2.365,1.283-0.996,4.038c1.369,2.756,3.113,1.363,4.274,0.43c1.375-1.107,1.295-5.604-2.121-10.941
				c-3.419-5.337-7.392-7.327-9.05-6.507c-1.336,0.66-3.329,1.665-1.398,4.061C19.654,7.083,20.514,6.302,21.811,5.473z
				 M28.225,16.559c0.109-0.011,0.248-0.027,0.41-0.058c0.312-0.063,0.704-0.208,0.988-0.566l0.104-0.136l0.088-0.154
				c0.063-0.099,0.098-0.215,0.145-0.324c0.045-0.11,0.064-0.225,0.098-0.333c0.035-0.108,0.041-0.212,0.059-0.311
				c0.039-0.193,0.041-0.37,0.051-0.487c0.007-0.12,0.011-0.187,0.011-0.187s0.019,0.065,0.054,0.18
				c0.031,0.116,0.09,0.273,0.123,0.482c0.018,0.104,0.051,0.218,0.057,0.34c0.009,0.121,0.031,0.251,0.025,0.39
				c-0.006,0.137,0.002,0.284-0.027,0.431l-0.036,0.228l-0.067,0.228c-0.046,0.153-0.119,0.303-0.199,0.445
				c-0.082,0.143-0.179,0.274-0.285,0.395c-0.104,0.117-0.217,0.229-0.329,0.317c-0.112,0.096-0.224,0.167-0.329,0.238
				c-0.208,0.129-0.387,0.22-0.502,0.277c-0.11,0.055-0.172,0.087-0.172,0.087l-0.446-1.46
				C28.042,16.581,28.107,16.573,28.225,16.559z M18.288,2.222c0.024-0.018,0.052-0.032,0.104-0.074
				c0.096-0.07,0.252-0.193,0.461-0.329c0.108-0.066,0.226-0.137,0.363-0.2c0.137-0.064,0.286-0.124,0.447-0.162
				c0.16-0.046,0.33-0.061,0.499-0.073c0.17,0.006,0.338,0.009,0.497,0.049c0.162,0.023,0.308,0.084,0.453,0.134
				c0.139,0.055,0.266,0.128,0.39,0.189c0.235,0.145,0.44,0.29,0.603,0.43c0.168,0.129,0.279,0.257,0.371,0.339
				c0.086,0.083,0.135,0.131,0.135,0.131s-0.062-0.028-0.172-0.078c-0.111-0.044-0.268-0.13-0.459-0.189
				c-0.187-0.073-0.412-0.131-0.647-0.182c-0.12-0.012-0.239-0.035-0.36-0.037c-0.119,0.004-0.236-0.004-0.349,0.023
				c-0.112,0.01-0.215,0.053-0.312,0.082c-0.092,0.048-0.18,0.087-0.252,0.147c-0.078,0.053-0.144,0.115-0.203,0.178
				c-0.06,0.062-0.112,0.131-0.162,0.194c-0.098,0.134-0.176,0.256-0.242,0.359c-0.037,0.053-0.066,0.096-0.086,0.125
				c-0.021,0.03-0.033,0.045-0.033,0.045l-1.08-1.079C18.253,2.246,18.266,2.239,18.288,2.222z"/>
		</g>
		<g>
			<path d="M30.459,19.15c-0.699,0.474-1.57,1.062-2.57,1.062c-0.188,0-0.369-0.027-0.547-0.067
				c-0.792,2.113-2.156,3.979-3.965,5.381c-0.098,0.075-0.225,0.098-0.34,0.06c-0.116-0.038-0.206-0.131-0.24-0.249l-0.398-1.396
				c-0.106-0.375-0.58-0.493-0.851-0.213l-3.688,3.811l-1.416,1.46c-0.271,0.28-0.137,0.75,0.242,0.844l1.172,0.293l5.939,1.489
				c0.378,0.095,0.717-0.255,0.61-0.632l-0.519-1.814c-0.045-0.157,0.02-0.324,0.157-0.412c3.547-2.252,5.981-5.819,6.804-9.878
				c-0.008,0.005-0.014,0.013-0.021,0.019C30.709,18.982,30.586,19.065,30.459,19.15z"/>
		</g>
		<g>
			<polygon points="14.731,16 14.731,16.016 15.834,16.016 15.882,14.112 15.866,14.112 			"/>
		</g>
		<g>
			<path d="M12.022,27.502c-4.915-1.604-8.475-6.234-8.475-11.68c0-3.851,1.781-7.408,4.751-9.709
				c0.098-0.075,0.224-0.097,0.341-0.059c0.117,0.038,0.206,0.131,0.239,0.249l0.398,1.396c0.107,0.375,0.58,0.493,0.852,0.213
				l3.682-3.806l1.416-1.46c0.271-0.281,0.137-0.749-0.242-0.844L13.81,1.509L7.877,0.016c-0.378-0.095-0.717,0.255-0.61,0.63
				l0.491,1.725C7.82,2.586,7.729,2.812,7.542,2.934C3.17,5.741,0.51,10.557,0.51,15.822c0,6.792,4.442,12.566,10.576,14.574
				c0.55,0.181,1.158,0.033,1.56-0.382l0.026-0.026C13.455,29.175,13.094,27.851,12.022,27.502z"/>
		</g>
		<g>
			<path d="M24.041,15.82c0-4.53-3.673-8.203-8.204-8.203c-4.53,0-8.203,3.673-8.203,8.203c0,4.53,3.673,8.204,8.203,8.204
				C20.368,24.022,24.041,20.35,24.041,15.82z M12.729,18.541H8.8c-0.04-0.223-0.063-0.421-0.063-0.611
				c0-2.096,2.453-2.469,2.453-3.286c0-0.396-0.318-0.563-0.611-0.563c-0.54,0-0.841,0.603-0.841,0.603l-1.032-0.69
				c0,0,0.523-1.221,2-1.221c0.929,0,1.937,0.531,1.937,1.738c0,1.771-2.286,2.111-2.326,2.841h2.413L12.729,18.541L12.729,18.541z
				 M17.883,17.167h-0.675v1.374h-1.374v-1.374h-2.516v-0.841l2.191-3.461h1.699v3.151h0.675V17.167z M21.04,15.604
				c-0.421,0-0.699,0.246-0.817,0.604c-0.057,0.158-0.072,0.333-0.072,0.523v1.811h-1.373v-5.676h1.373v1.794
				c0,0.206-0.017,0.35-0.017,0.35h0.017c0.229-0.405,0.707-0.651,1.246-0.651c0.826,0,1.469,0.381,1.469,1.532v2.652h-1.373v-2.397
				C21.492,15.763,21.341,15.604,21.04,15.604z"/>
		</g>
	</g>
</g>

</svg>
