<?xml version="1.0" encoding="iso-8859-1"?>
<!-- Generator: Adobe Illustrator 19.1.0, SVG Export Plug-In . SVG Version: 6.00 Build 0)  -->
<svg version="1.1"  xmlns="http://www.w3.org/2000/svg" xmlns:xlink="http://www.w3.org/1999/xlink" x="0px" y="0px"
	 width="35px" height="35px" viewBox="0 0 486 486" style="enable-background:new 0 0 486 486;" xml:space="preserve">
<g>
	<g>
		<path d="M398.1,263.738v94.7l-155.5,46.8v-324.2l42.5,12.8c5.9-14.2,14.5-27,25-38l-82.9-24.9c-0.4-0.1-0.8-0.2-1.2-0.3
			s-0.8-0.2-1.2-0.3c-2.6-0.5-5.2-0.5-7.8,0c-0.4,0.1-0.8,0.2-1.2,0.3s-0.8,0.1-1.2,0.3l-44.6,13.4l-44.2,13.3v111.4l-49.2,9.3v-106
			l-43,12.9l0,0l-18.1,5.4c-9.2,2.8-15.5,11.2-15.5,20.8v263c0,9.6,6.3,18.1,15.5,20.8l199,59.9c2,0.6,4.2,0.9,6.3,0.9
			s4.2-0.3,6.3-0.9l199-59.9c9.2-2.8,15.5-11.2,15.5-20.8v-118.7c-13.4,5.1-27.9,8-43.1,8
			C398.3,263.738,398.2,263.738,398.1,263.738z"/>
		<path d="M398.5,53.338c-48.4,0-87.5,39.2-87.5,87.5c0,48.4,39.2,87.5,87.5,87.5s87.5-39.2,87.5-87.5S446.8,53.338,398.5,53.338z
			 M404,160.038l-16.8,16.7l-16.7-16.8l-16.1-16.2l16.8-16.7l16.1,16.2l38.6-38.4l16.7,16.8L404,160.038z"/>
	</g>
</g>

</svg>
