
<svg version="1.1" xmlns="http://www.w3.org/2000/svg" xmlns:xlink="http://www.w3.org/1999/xlink" x="0px" y="0px"
	width="100" height="100" viewBox="0 0 297 297" style="enable-background:new 0 0 297 297;" xml:space="preserve">
<g>
	<path d="M188.887,169.646h48.704c2.884,0,5.222-2.338,5.222-5.222v-9.894c0-2.884-2.338-5.222-5.222-5.222h-48.704
		c-2.884,0-5.222,2.338-5.222,5.222v9.894C183.665,167.308,186.003,169.646,188.887,169.646z"/>
	<path d="M112.531,77.578c13.231-21.168,25.004-35.85,33.029-46.812l36.864,102.047c0.534,1.479,1.938,2.464,3.51,2.464h13.327
		c2.586,0,4.389-2.566,3.511-4.999L158.16,6.623c-1.226-3.4-4.189-5.877-7.753-6.481c-3.558-0.608-7.175,0.757-9.455,3.564
		c-0.896,1.103-21.126,28.217-46.775,69.947c-1.528,2.486,0.261,5.691,3.179,5.691h12.006
		C110.65,79.344,111.848,78.67,112.531,77.578z"/>
	<path d="M108.113,91.11H59.41c-2.884,0-5.222,2.338-5.222,5.222v9.894c0,2.884,2.338,5.222,5.222,5.222h48.704
		c2.884,0,5.222-2.338,5.222-5.222v-9.894C113.335,93.448,110.997,91.11,108.113,91.11z"/>
	<path d="M271.99,236.949c-0.006-0.04-0.011-0.08-0.016-0.121l-4.764-38.049c-1.488-10.214-10.38-17.91-20.707-17.91H181.45
		c-10.771,0-19.911,8.386-20.846,19.108l-3.899,66.489c-0.47,8.012,2.304,15.641,7.812,21.48c5.507,5.838,12.959,9.054,20.984,9.054
		h38.47c4.814,0,9.278-1.934,12.569-5.445c3.293-3.511,4.935-8.091,4.626-12.893l-3.727-68.352
		c-0.212-3.869,2.754-7.176,6.623-7.387c3.851-0.234,7.176,2.754,7.387,6.623l1.918,35.183h11.877c2.005,0,3.835-0.835,5.148-2.35
		C271.706,240.863,272.274,238.935,271.99,236.949z"/>
	<path d="M136.396,141.778c-0.935-10.721-10.076-19.108-20.846-19.108H50.497c-10.327,0-19.219,7.695-20.707,17.91l-4.764,38.05
		c-0.005,0.041-0.01,0.081-0.016,0.121c-0.284,1.986,0.284,3.914,1.598,5.429c1.314,1.515,3.143,2.35,5.148,2.35h11.876
		l1.918-35.183c0.204-3.739,3.299-6.634,6.999-6.634c0.128,0,0.257,0.003,0.388,0.011c3.869,0.211,6.835,3.518,6.623,7.387
		l-3.723,68.284c-0.313,4.872,1.329,9.451,4.622,12.962c3.292,3.511,7.756,5.445,12.569,5.445h38.47
		c8.026,0,15.478-3.215,20.985-9.055c5.507-5.839,8.28-13.468,7.811-21.479L136.396,141.778z"/>
</g>

</svg>
