<?xml version='1.0' encoding='utf-8'?>
<!DOCTYPE svg PUBLIC '-//W3C//DTD SVG 1.1//EN' 'http://www.w3.org/Graphics/SVG/1.1/DTD/svg11.dtd'>
<svg version="1.1" xmlns="http://www.w3.org/2000/svg" viewBox="0 0 512 512" xmlns:xlink="http://www.w3.org/1999/xlink" enable-background="new 0 0 512 512">
  <g>
    <g>
      <path d="m388.6,86.7h-35v63.3c0,33.8-27.5,61.3-61.2,61.3h-164.8c-33.8,0-61.2-27.5-61.2-61.3v-63.3h-35c-11.3,0-20.4,9.1-20.4,20.4v373.5c0,11.3 9.1,20.4 20.4,20.4h357.1c11.3,0 20.4-9.1 20.4-20.4v-157.9c-67.2,36.2-118.1,91.9-118.8,92.7-3.9,4.3-13.5,7.7-18.5,6.5-6.7-1.7-12.7-5.7-15.4-12l-4.1-9.4h-124.5c-11.3,0-20.4-9.1-20.4-20.4 0-11.3 9.1-20.4 20.4-20.4h106.9l-11.9-27.4c-4.5-10.3 0.3-22.4 10.6-26.8 10.3-4.5 22.4,0.3 26.9,10.6l21.6,50c25.8-24.3 72.1-63.2 127.2-88.8v-170c0.1-11.5-9.1-20.6-20.3-20.6zm-96.2,198.6h-164.8c-11.3,0-20.4-9.1-20.4-20.4 0-11.3 9.1-20.4 20.4-20.4h164.7c11.3,0 20.4,9.1 20.4,20.4 0.1,11.2-9.1,20.4-20.3,20.4z"/>
      <path d="m127.6,170.4h164.7c11.3,0 20.4-9.1 20.4-20.4v-86.1c0-11.3-9.1-20.4-20.4-20.4h-61.9v-12.1c0-11.3-9.1-20.4-20.4-20.4-11.3,0-20.4,9.1-20.4,20.4v12.1h-61.9c-11.3,0-20.4,9.1-20.4,20.4v86.1c-0.1,11.3 9,20.4 20.3,20.4z"/>
      <path d="m500.7,271.3c-2-11.1-12.6-18.5-23.7-16.5-9.2,1.7-18.2,4-27.2,6.6v42.9c11.3-4 22.8-7.3 34.4-9.3 11.1-2 18.5-12.6 16.5-23.7z"/>
    </g>
  </g>
</svg>
