<?xml version="1.0" encoding="UTF-8" standalone="no"?>
<svg
   xmlns:dc="http://purl.org/dc/elements/1.1/"
   xmlns:cc="http://creativecommons.org/ns#"
   xmlns:rdf="http://www.w3.org/1999/02/22-rdf-syntax-ns#"
   xmlns:svg="http://www.w3.org/2000/svg"
   xmlns="http://www.w3.org/2000/svg"
   xmlns:sodipodi="http://sodipodi.sourceforge.net/DTD/sodipodi-0.dtd"
   xmlns:inkscape="http://www.inkscape.org/namespaces/inkscape"
   xml:space="preserve"
   style="enable-background:new 0 0 236.562 236.561;"
   viewBox="0 0 236.562 236.561"
   height="100px"
   width="100px"
   y="0px"
   x="0px"
   version="1.1"
   id="svg6"
   sodipodi:docname="cor-icon.svg"
   inkscape:version="0.92.4 (5da689c313, 2019-01-14)"><metadata
   id="metadata12"><rdf:RDF><cc:Work
       rdf:about=""><dc:format>image/svg+xml</dc:format><dc:type
         rdf:resource="http://purl.org/dc/dcmitype/StillImage" /><dc:title></dc:title></cc:Work></rdf:RDF></metadata><defs
   id="defs10" /><sodipodi:namedview
   pagecolor="#ffffff"
   bordercolor="#666666"
   borderopacity="1"
   objecttolerance="10"
   gridtolerance="10"
   guidetolerance="10"
   inkscape:pageopacity="0"
   inkscape:pageshadow="2"
   inkscape:window-width="1310"
   inkscape:window-height="704"
   id="namedview8"
   showgrid="false"
   inkscape:zoom="3.337544"
   inkscape:cx="73.354902"
   inkscape:cy="41.408623"
   inkscape:window-x="1736"
   inkscape:window-y="225"
   inkscape:window-maximized="1"
   inkscape:current-layer="svg6" />
<path
   d="m 218.78372,118.27889 c 0,55.51697 -45.00324,100.5194 -100.52462,100.5194 -55.513355,0 -100.520601,-45.00243 -100.520601,-100.5194 0,-55.518569 45.007246,-100.520596 100.520601,-100.520596 55.52138,0 100.52462,45.002027 100.52462,100.520596"
   style="fill:#ff5400;fill-opacity:1;fill-rule:nonzero;stroke:none;stroke-width:0.40145612"
   id="path98" /><path
   d="m 73.312069,14.675111 c -0.814956,0 -1.585752,-0.478135 -1.922975,-1.27342 -0.45766,-1.067873 0.04013,-2.295927 1.104006,-2.749171 14.492565,-6.1707821 29.89242,-9.2977237 45.766,-9.2977237 7.15796,0 14.32396,0.6491537 21.30127,1.9354194 1.13611,0.2083558 1.89085,1.2999149 1.67809,2.4368385 -0.20875,1.1353187 -1.29671,1.9053117 -2.43284,1.6808972 -6.73241,-1.2356815 -13.64549,-1.8627562 -20.54652,-1.8627562 -15.30752,0 -30.153373,3.010921 -44.12806,8.9605008 z M 204.40356,44.447097 c -0.57409,0 -1.15619,-0.241265 -1.56567,-0.710176 -5.95762,-6.749682 -12.71413,-12.78718 -20.09288,-17.946695 -0.94745,-0.656782 -1.18029,-1.966332 -0.51788,-2.913368 0.66239,-0.944224 1.96713,-1.184295 2.91457,-0.517476 7.65175,5.34579 14.66117,11.606097 20.83557,18.606287 0.76277,0.871963 0.68247,2.192351 -0.1887,2.959133 -0.39343,0.349667 -0.88722,0.522295 -1.38502,0.522295 z M 13.555326,73.159237 12.69621,72.970955 c -1.055829,-0.475324 -1.521519,-1.715824 -1.047801,-2.770851 2.553261,-5.648888 5.584255,-11.143618 9.016704,-16.331232 0.634302,-0.967512 1.93502,-1.232473 2.902529,-0.58974 0.963495,0.633497 1.228455,1.93502 0.590141,2.89811 -3.307999,5.002547 -6.234615,10.301364 -8.691526,15.749125 -0.349266,0.774811 -1.112034,1.23287 -1.910931,1.23287 z m 210.354984,2.143375 c -0.81094,0 -1.58977,-0.473316 -1.931,-1.2686 -2.3405,-5.491519 -5.15069,-10.843732 -8.35431,-15.909306 -0.61824,-0.975135 -0.32919,-2.27224 0.65037,-2.891688 0.98357,-0.617842 2.27625,-0.324376 2.88647,0.655579 3.32405,5.250243 6.24264,10.803183 8.67144,16.499043 0.45767,1.064663 -0.0361,2.297132 -1.104,2.745961 z M 3.4667333,117.55908 H 3.4145493 C 2.262365,117.53108 1.3430338,116.5727 1.3711369,115.41531 1.5999706,106.04572 2.9408309,96.744787 5.3575978,87.768227 5.6627042,86.64696 6.8068534,85.985361 7.9269165,86.29127 9.042964,86.592362 9.701353,87.743337 9.4042753,88.859787 7.0678007,97.511567 5.7791257,106.4801 5.5583246,115.51567 c -0.02809,1.14014 -0.9554656,2.04341 -2.0915861,2.04341 z M 213.98632,183.81661 c -0.39745,0 -0.7989,-0.11277 -1.1562,-0.34967 -0.96349,-0.63831 -1.22846,-1.93984 -0.58612,-2.90253 12.26849,-18.47501 18.75201,-40.01233 18.75201,-62.28552 0,-1.16021 0.9394,-2.0964 2.0956,-2.0964 1.1562,0 2.09159,0.93619 2.09159,2.0964 0,23.09498 -6.72439,45.43681 -19.45054,64.60153 -0.40547,0.607 -1.06788,0.93619 -1.74634,0.93619 z M 54.913338,216.16514 c -0.397442,0 -0.798901,-0.11276 -1.152181,-0.34967 -19.245807,-12.74944 -34.171945,-30.6861 -43.168577,-51.86773 -0.453646,-1.06305 0.04416,-2.29271 1.108018,-2.74917 1.05583,-0.442 2.29633,0.0442 2.749975,1.11203 8.671452,20.42569 23.067668,37.71961 41.622971,50.01261 0.963496,0.64313 1.228456,1.93984 0.590141,2.90734 -0.401454,0.6054 -1.071888,0.93459 -1.750347,0.93459 z m 99.512952,13.22799 c -0.87919,0 -1.69415,-0.55361 -1.98721,-1.43682 -0.36131,-1.09597 0.23283,-2.27987 1.32882,-2.6452 8.53094,-2.82585 16.72466,-6.69307 24.36438,-11.48566 0.98355,-0.61944 2.26821,-0.32155 2.88244,0.65719 0.61825,0.97995 0.32116,2.27224 -0.65838,2.88688 -7.91671,4.97444 -16.41956,8.98418 -25.27167,11.9152 z m -36.04274,5.81308 c -1.15619,0 -2.0956,-0.93459 -2.0956,-2.09199 -0.004,-1.1558 0.93539,-2.0952 2.09159,-2.0952 6.02184,-0.008 12.05172,-0.49379 17.92904,-1.44083 1.13611,-0.18066 2.21202,0.59416 2.39668,1.73429 0.18466,1.14455 -0.59013,2.22045 -1.73027,2.40072 -6.09812,0.98355 -12.35281,1.48538 -18.59144,1.49301"
   style="fill:#ff5400;fill-opacity:1;fill-rule:nonzero;stroke:none;stroke-width:0.40145612"
   id="path100" /><path
   inkscape:connector-curvature="0"
   id="path4"
   style="fill:#ffffff;fill-rule:evenodd;stroke-width:0.38839069"
   d="m 92.887632,42.930953 c 16.592408,-5.970458 35.159078,-6.228 51.920458,-0.762533 14.90034,4.828708 28.30448,14.156337 38.00516,26.451783 -4.97711,4.972908 -9.96448,9.941784 -14.92301,14.935369 -1.78478,-2.256708 -3.56742,-4.527864 -5.62422,-6.547527 -8.37763,-8.598116 -19.43437,-14.552031 -31.23302,-16.771607 -9.49258,-1.782754 -19.43022,-1.261296 -28.65278,1.630108 -8.662008,2.683315 -16.672728,7.413142 -23.238784,13.661807 -7.285272,6.906089 -12.796158,15.681383 -15.79069,25.266627 -2.990375,9.4802 -3.52413,19.71879 -1.553908,29.46068 1.630197,8.1571 5.026549,15.94935 9.867645,22.71119 4.486611,6.29193 10.211766,11.69565 16.748926,15.81745 6.681489,4.22277 14.218251,7.07714 22.018771,8.34876 8.91547,1.41789 18.16273,0.85112 26.79795,-1.80746 11.2732,-3.41488 21.43341,-10.32513 28.83206,-19.47969 0.63681,-0.74804 1.17262,-1.57862 1.83832,-2.30203 4.95029,4.99979 9.94185,9.9583 14.91475,14.93541 -10.15816,12.86214 -24.36401,22.48036 -40.09694,27.09266 -13.9729,4.13011 -29.07322,4.35266 -43.163617,0.65538 -14.65305,-3.81268 -28.141657,-11.92644 -38.413195,-23.04299 -10.8507,-11.61736 -18.109181,-26.5424 -20.501946,-42.26298 -1.426128,-9.34207 -1.242692,-18.94181 0.614167,-28.20967 2.819327,-14.253242 9.659466,-27.669757 19.483809,-38.367903 8.765054,-9.60588 19.900098,-17.039554 32.150094,-21.412834 z M 89.00493,100.54568 c 3.101649,-5.346034 7.619179,-9.857361 12.96102,-12.965187 5.87981,5.885992 11.76984,11.761594 17.64137,17.655787 0.14018,0.12365 0.35654,0.44516 0.53789,0.16901 5.67163,-5.66957 11.33913,-11.339132 17.00452,-17.012781 0.28853,-0.249384 0.50906,-0.626551 0.88005,-0.75228 5.33362,3.060479 9.76869,7.600659 12.89507,12.884821 -5.98692,6.02196 -12.00274,12.01301 -18.00197,18.02261 5.99721,6.01163 12.02328,11.99856 18.00197,18.03085 -3.13877,5.30685 -7.60888,9.82438 -12.94454,12.93015 -6.04053,-5.96836 -11.98622,-12.03153 -18.03707,-17.98758 -5.98278,6.0096 -11.98619,11.99653 -17.97931,17.99581 -5.337801,-3.11194 -9.859407,-7.61917 -12.956944,-12.9693 6.019944,-5.98483 11.996544,-12.013 18.014334,-17.99993 -6.01779,-5.98692 -11.996527,-12.01506 -18.01639,-18.00198 z" /></svg>