<?xml version="1.0" encoding="iso-8859-1"?>
<!-- Generator: Adobe Illustrator 16.0.0, SVG Export Plug-In . SVG Version: 6.00 Build 0)  -->
<!DOCTYPE svg PUBLIC "-//W3C//DTD SVG 1.1//EN" "http://www.w3.org/Graphics/SVG/1.1/DTD/svg11.dtd">
<svg version="1.1" id="Capa_1" xmlns="http://www.w3.org/2000/svg" xmlns:xlink="http://www.w3.org/1999/xlink" x="0px" y="0px"
	 width="98.062px" height="98.062px" viewBox="0 0 98.062 98.062" style="enable-background:new 0 0 98.062 98.062;"
	 xml:space="preserve">
<g>
	<g>
		<path d="M65.541,16.888c0.705,1.451,1.438,2.887,2.231,4.278c0.188,0.33,0.315,0.662,0.486,0.993
			c11.662,6.693,19.558,19.23,19.558,33.615c0,21.389-17.402,38.791-38.769,38.791c-0.044,0-4.671-0.113-6.546-3.289
			c-1.673-2.834-0.847-7.57,2.387-13.702c2.223-1.328,4.541-2.984,6.83-5.003c3.687-3.32,7.115-7.563,9.764-12.475
			c2.772-4.862,4.575-10.44,5.503-16.267c0.855-5.811,0.818-11.9-0.534-17.728c-1.218-5.808-3.647-11.369-6.864-15.797
			c-3.23-4.417-7.234-7.577-10.426-8.968c-1.504-0.782-3.056-0.996-3.946-1.164C44.283,0.056,43.785,0,43.785,0
			s-0.098,0.474-0.318,1.367c-0.19,0.838-0.803,2.163-1.254,3.434c-1.157,2.722-2.955,5.821-4.958,9.182
			c-3.881,6.651-7.587,14.827-8.864,24.025c-0.638,4.563-0.917,9.289-0.469,13.995c0.348,4.675,1.254,9.277,2.438,13.421
			c1.097,3.703,3.511,12.184,4.704,14.62c2.098-3.162,4.17-6.444,5.936-9.938c1.378-2.398,2.384-4.941,3.504-7.398
			c1.118-2.467,1.802-5.037,2.699-7.467c0.672-2.478,1.149-4.925,1.688-7.221c0.225-2.354,0.438-4.587,0.646-6.641
			c-0.116-2.067-0.218-3.963-0.295-5.638c0.027-1.721-0.588-3.093-0.774-4.286c-0.55-2.375-0.866-3.735-0.866-3.735
			s0.414,1.335,1.14,3.658c0.277,1.181,0.999,2.559,1.097,4.276c0.218,1.692,0.448,3.622,0.716,5.722
			c-0.05,2.117-0.097,4.41-0.154,6.837c-0.38,2.38-0.691,4.937-1.199,7.534c-0.732,2.547-1.251,5.264-2.211,7.878
			c-0.964,2.614-1.819,5.325-3.046,7.871c-0.655,1.509-1.342,2.991-2.053,4.456l-0.081-0.045c-0.568,1.071-1.047,2.104-1.482,3.104
			c-0.183,0.35-0.354,0.713-0.541,1.062c0.043-0.021,0.087-0.034,0.133-0.052c-2.166,5.445-2.331,9.839-0.411,13.056
			c2.902,4.866,9.238,4.983,9.525,4.986c23.32,0,42.293-18.973,42.293-42.295C91.317,38.313,80.674,23.329,65.541,16.888z"/>
		<path d="M26.726,79.49c-2.331-3.661-6.882-5.062-10.789-3.552c-3.708-6.064-5.701-13.015-5.701-20.167
			c0-14.917,8.477-27.877,20.86-34.365c0.351-1.675,0.949-3.236,1.728-4.69c-15.3,6.372-26.089,21.471-26.089,39.056
			c0,7.819,2.161,15.427,6.227,22.06c-3.028,2.901-3.705,7.628-1.374,11.289l0.939,1.479l2.618-1.656l2.816,4.436l2.955-1.879
			l-2.818-4.438l3.361-2.136l2.818,4.438l2.96-1.879l-2.82-4.438l3.255-2.07L26.726,79.49z M13.844,85.609
			c-0.539-2.211,0.351-4.624,2.375-5.914c2.033-1.29,4.591-1.074,6.369,0.356L13.844,85.609z"/>
	</g>
</g>
<g>
</g>
<g>
</g>
<g>
</g>
<g>
</g>
<g>
</g>
<g>
</g>
<g>
</g>
<g>
</g>
<g>
</g>
<g>
</g>
<g>
</g>
<g>
</g>
<g>
</g>
<g>
</g>
<g>
</g>
</svg>
