<?xml version="1.0" encoding="iso-8859-1"?>
<!-- Generator: Adobe Illustrator 16.0.0, SVG Export Plug-In . SVG Version: 6.00 Build 0)  -->
<!DOCTYPE svg PUBLIC "-//W3C//DTD SVG 1.1//EN" "http://www.w3.org/Graphics/SVG/1.1/DTD/svg11.dtd">
<svg version="1.1" id="Capa_1" xmlns="http://www.w3.org/2000/svg" xmlns:xlink="http://www.w3.org/1999/xlink" x="0px" y="0px"
	 width="106.048px" height="106.048px" viewBox="0 0 106.048 106.048" style="enable-background:new 0 0 106.048 106.048;"
	 xml:space="preserve">
<g>
	<path style="fill:#010002;" d="M84.838,0H21.209C9.543,0,0,9.543,0,21.209v63.629c0,11.666,9.543,21.21,21.209,21.21h63.628
		c11.667,0,21.21-9.544,21.21-21.21V21.209C106.048,9.543,96.505,0,84.838,0z M75.403,48.05c4.691,6.393,2.781,10.442-12.427,17.396
		c-29.629,13.562-3.123,15.633-12.423,27.346c1.22-1.896,2.131-6.524-7.461-9.942C27.773,77.382,45.58,60.48,45.58,60.48
		s8.961-9.404-7.456-14.913c-23.69-7.954-22.408-22.217-22.37-22.37c4.21,5.875,18.887,7.159,37.285,7.461
		c16.327-0.271,31.416-2.858,37.277-7.461C89.022,36.301,69.263,39.662,75.403,48.05z M53.039,28.166
		c-10.361,0-35.048-2.089-37.285-7.454c4.741-3.65,20.658-7.456,37.285-7.456c18.305,0,34.207,3.389,37.277,7.461
		C87.671,25.352,63.391,28.166,53.039,28.166z"/>
</g>
<g>
</g>
<g>
</g>
<g>
</g>
<g>
</g>
<g>
</g>
<g>
</g>
<g>
</g>
<g>
</g>
<g>
</g>
<g>
</g>
<g>
</g>
<g>
</g>
<g>
</g>
<g>
</g>
<g>
</g>
</svg>
