<svg version="1.1" xmlns="http://www.w3.org/2000/svg" xmlns:xlink="http://www.w3.org/1999/xlink" x="0px" y="0px"
	width="100" height="100" viewBox="0 0 472 472" style="enable-background:new 0 0 472 472;" xml:space="preserve">
<g>
	<path style="fill:#010002;" d="M226.321,75c10.334,0,19.167-3.667,26.5-11c7.334-7.334,11-16.167,11-26.5
		c0-10.335-3.666-19.168-11-26.5c-7.332-7.333-16.167-11-26.5-11s-19.333,3.667-27,11c-7.667,7.333-11.5,16.167-11.5,26.5
		s3.833,19.167,11.5,26.5C206.988,71.333,215.988,75,226.321,75z"/>
	<path style="fill:#010002;" d="M161.821,81c2-7.336-0.667-11.67-8-13l-31-8c-7.333-1.333-12,1.334-14,8l-26,108
		c-2,6.667,0.667,10.667,8,12l31,8c7.333,1.333,12-1.333,14-8L161.821,81z"/>
	<path style="fill:#010002;" d="M307.821,462v1c0,5.333,3,8,9,8c5.334,0,8.334-2.333,9-7l64-337v-1c0-5.333-3-8-9-8
		c-4.666,0-7.666,2.333-9,7L307.821,462z"/>
	<path style="fill:#010002;" d="M95.821,440v5c0,7.333,2.5,13.667,7.5,19s11.167,8,18.5,8c13.333,0,22-6.333,26-19l46-185l44,184
		c1.334,5.333,4.334,10,9,14c4.668,4,10.334,6,17,6c7.334,0,13.5-2.667,18.5-8s7.5-11.667,7.5-19v-5l-60-245l5-21l4,17
		c0.668,3.333,2.168,6,4.5,8c2.334,2,4.5,3,6.5,3l3,1l62,15h3c5.334,0,9.834-1.667,13.5-5c3.668-3.333,5.5-7.333,5.5-12
		c0-9.333-4.666-15.333-14-18l-54-13l-15-58c-2-9.335-6.166-16.668-12.5-22c-6.333-5.333-12.167-8.333-17.5-9l-9-1
		c-8.667,0-16.333,2.5-23,7.5c-6.667,5-11,10.167-13,15.5l-2,8L95.821,440z"/>
</g>
</svg>
