<?xml version="1.0" encoding="UTF-8" standalone="no"?>
<!-- Generator: Adobe Illustrator 14.0.0, SVG Export Plug-In . SVG Version: 6.00 Build 43363)  -->

<svg
   xmlns:dc="http://purl.org/dc/elements/1.1/"
   xmlns:cc="http://creativecommons.org/ns#"
   xmlns:rdf="http://www.w3.org/1999/02/22-rdf-syntax-ns#"
   xmlns:svg="http://www.w3.org/2000/svg"
   xmlns="http://www.w3.org/2000/svg"
   xmlns:sodipodi="http://sodipodi.sourceforge.net/DTD/sodipodi-0.dtd"
   xmlns:inkscape="http://www.inkscape.org/namespaces/inkscape"
   version="1.1"
   id="Слой_1"
   x="0px"
   y="0px"
   width="40px"
   height="40px"
   viewBox="0 0 566.93 566.93"
   enable-background="new 0 0 566.93 566.93"
   xml:space="preserve"
   sodipodi:docname="icon_wp.svg"
   inkscape:version="0.92.4 (5da689c313, 2019-01-14)"><metadata
   id="metadata33"><rdf:RDF><cc:Work
       rdf:about=""><dc:format>image/svg+xml</dc:format><dc:type
         rdf:resource="http://purl.org/dc/dcmitype/StillImage" /><dc:title></dc:title></cc:Work></rdf:RDF></metadata><defs
   id="defs31" /><sodipodi:namedview
   pagecolor="#ffffff"
   bordercolor="#666666"
   borderopacity="1"
   objecttolerance="10"
   gridtolerance="10"
   guidetolerance="10"
   id="namedview29"
   showgrid="false"
/>
<g
   id="g12"
   transform="matrix(2.0697351,0,0,2.0697351,-301.37272,-170.97852)">
	<path
   d="m 177.698,220.463 c 0,41.175 23.929,76.758 58.628,93.622 L 186.704,178.126 c -5.772,12.937 -9.006,27.255 -9.006,42.337 z"
   id="path2"
   
   style="fill:#474443" />
	<path
   d="m 351.949,215.213 c 0,-12.856 -4.617,-21.76 -8.578,-28.69 -5.273,-8.569 -10.216,-15.826 -10.216,-24.395 0,-9.563 7.252,-18.464 17.468,-18.464 0.461,0 0.897,0.058 1.348,0.083 -18.509,-16.955 -43.166,-27.308 -70.248,-27.308 -36.341,0 -68.314,18.646 -86.915,46.889 2.44,0.073 4.741,0.124 6.694,0.124 10.881,0 27.724,-1.32 27.724,-1.32 5.606,-0.331 6.269,7.906 0.667,8.569 0,0 -5.636,0.663 -11.907,0.992 l 37.882,112.677 22.765,-68.274 -16.208,-44.407 c -5.602,-0.329 -10.909,-0.992 -10.909,-0.992 -5.606,-0.328 -4.949,-8.899 0.657,-8.569 0,0 17.181,1.32 27.4,1.32 10.879,0 27.725,-1.32 27.725,-1.32 5.609,-0.331 6.271,7.906 0.665,8.569 0,0 -5.646,0.663 -11.905,0.992 l 37.593,111.825 10.375,-34.672 c 4.502,-14.39 7.923,-24.724 7.923,-33.629 z"
   id="path4"
   
   style="fill:#474443" />
	<path
   d="m 283.548,229.562 -31.21,90.695 c 9.319,2.739 19.176,4.237 29.386,4.237 12.115,0 23.732,-2.094 34.544,-5.898 -0.277,-0.444 -0.531,-0.918 -0.74,-1.432 z"
   id="path6"
   
   style="fill:#474443" />
	<path
   d="m 373.002,170.553 c 0.446,3.315 0.702,6.872 0.702,10.697 0,10.556 -1.972,22.423 -7.91,37.261 l -31.775,91.87 c 30.925,-18.035 51.728,-51.54 51.728,-89.916 -0.001,-18.088 -4.621,-35.094 -12.745,-49.912 z"
   id="path8"
   
   style="fill:#474443" />
	<path
   d="m 281.723,99.203 c -66.862,0 -121.262,54.397 -121.262,121.26 0,66.869 54.4,121.264 121.262,121.264 66.861,0 121.269,-54.395 121.269,-121.264 C 402.989,153.6 348.584,99.203 281.723,99.203 Z m 0,236.964 c -63.795,0 -115.701,-51.905 -115.701,-115.704 0,-63.797 51.903,-115.698 115.701,-115.698 63.795,0 115.697,51.901 115.697,115.698 0,63.799 -51.901,115.704 -115.697,115.704 z"
   id="path10"
   
   style="fill:#474443" />
</g>







</svg>
