<?xml version="1.0" encoding="UTF-8" standalone="no"?>
<!-- Generator: Adobe Illustrator 14.0.0, SVG Export Plug-In . SVG Version: 6.00 Build 43363)  -->

<svg
   xmlns:dc="http://purl.org/dc/elements/1.1/"
   xmlns:cc="http://creativecommons.org/ns#"
   xmlns:rdf="http://www.w3.org/1999/02/22-rdf-syntax-ns#"
   xmlns:svg="http://www.w3.org/2000/svg"
   xmlns="http://www.w3.org/2000/svg"
   xmlns:sodipodi="http://sodipodi.sourceforge.net/DTD/sodipodi-0.dtd"
   xmlns:inkscape="http://www.inkscape.org/namespaces/inkscape"
   version="1.1"
   id="Слой_1"
   x="0px"
   y="0px"
   width="566.93px"
   height="566.93px"
   viewBox="0 0 566.93 566.93"
   enable-background="new 0 0 566.93 566.93"
   xml:space="preserve"
   sodipodi:docname="icon_tailwindcss.svg"
   inkscape:version="0.92.4 (5da689c313, 2019-01-14)"><metadata
   id="metadata16"><rdf:RDF><cc:Work
       rdf:about=""><dc:format>image/svg+xml</dc:format><dc:type
         rdf:resource="http://purl.org/dc/dcmitype/StillImage" /><dc:title></dc:title></cc:Work></rdf:RDF></metadata><defs
   id="defs14" /><sodipodi:namedview
   pagecolor="#ffffff"
   bordercolor="#666666"
   borderopacity="1"
   objecttolerance="10"
   gridtolerance="10"
   guidetolerance="10"
   inkscape:pageopacity="0"
   inkscape:pageshadow="2"
   inkscape:window-width="1310"
   inkscape:window-height="704"
   id="namedview12"
   showgrid="false"
   inkscape:zoom="0.41627715"
   inkscape:cx="283.465"
   inkscape:cy="283.465"
   inkscape:window-x="56"
   inkscape:window-y="27"
   inkscape:window-maximized="1"
   inkscape:current-layer="Слой_1" />
<linearGradient
   id="SVGID_1_"
   gradientUnits="userSpaceOnUse"
   x1="149.5405"
   y1="449.5068"
   x2="441.6239"
   y2="-37.2959"
   gradientTransform="matrix(1.7895199,0,0,-1.7895199,-244.23592,661.88783)">
	<stop
   offset="0"
   style="stop-color:#2583AE"
   id="stop2" />
	<stop
   offset="1"
   style="stop-color:#7AC3B0"
   id="stop4" />
</linearGradient>
<path
   d="m 154.05626,240.79786 c 17.41203,-69.70359 60.97431,-104.55807 130.68327,-104.55807 104.5509,0 117.59829,78.38097 169.86659,91.46952 34.85627,8.72212 65.34074,-4.33779 91.47668,-39.18511 -17.41203,69.68748 -60.99042,104.54375 -130.67253,104.54375 -104.55091,0 -117.60904,-78.38097 -169.87912,-91.46952 -34.85627,-8.72212 -65.32821,4.33064 -91.47668,39.18511 v 0.0143 z M 23.371205,397.63317 c 17.44245,-69.71075 60.97431,-104.56701 130.685055,-104.56701 104.56522,0 117.59651,78.38812 169.86659,91.47846 34.85448,8.70602 65.34074,-4.34137 91.47489,-39.19406 -17.41203,69.69643 -60.99042,104.55091 -130.68506,104.55091 -104.56522,0 -117.5965,-78.37203 -169.8648,-91.46057 -34.856267,-8.72391 -65.342527,4.33421 -91.476675,39.19227 z"
   id="path7"
   style="fill:url(#SVGID_1_);stroke-width:1.78951991"
   inkscape:connector-curvature="0" />

</svg>