<?xml version="1.0" encoding="iso-8859-1"?>
<!-- Generator: Adobe Illustrator 18.1.1, SVG Export Plug-In . SVG Version: 6.00 Build 0)  -->
<svg version="1.1" id="Capa_1" xmlns="http://www.w3.org/2000/svg" xmlns:xlink="http://www.w3.org/1999/xlink" x="0px" y="0px"
	 viewBox="0 0 302.967 302.967" style="enable-background:new 0 0 302.967 302.967;" xml:space="preserve">
<g>
	<g>
		<g>
			<path style="fill:#010002;" d="M151.483,302.967C67.956,302.967,0,235.011,0,151.483S67.956,0,151.483,0
				s151.483,67.956,151.483,151.483S235.011,302.967,151.483,302.967z M151.483,24.411c-70.066,0-127.073,57.001-127.073,127.067
				s57.001,127.073,127.073,127.073c70.066,0,127.067-57.001,127.067-127.073S221.549,24.411,151.483,24.411z"/>
		</g>
		<g>
			<g>
				<path style="fill:#010002;" d="M128.22,214.266c3.432-0.571,5.782-1.43,7.054-2.573c1.909-1.719,2.856-4.803,2.856-9.252
					v-57.398c0-3.971-0.664-6.685-2.002-8.121c-1.338-1.447-3.971-2.507-7.914-3.225v-4.672h37.475v74.183
					c0,4.259,0.636,6.995,1.909,8.202c1.273,1.207,3.655,2.159,7.152,2.861v4.672H128.22V214.266z M141.236,88.455
					c2.953-2.959,6.532-4.433,10.726-4.433c4.134,0,7.68,1.474,10.633,4.433c2.953,2.953,4.433,6.532,4.433,10.726
					c0,4.188-1.474,7.772-4.433,10.731c-2.959,2.959-6.5,4.433-10.633,4.433c-4.194,0-7.767-1.474-10.726-4.433
					c-2.959-2.959-4.433-6.543-4.433-10.731C136.803,94.988,138.277,91.414,141.236,88.455z"/>
			</g>
		</g>
	</g>
</g>
<g>
</g>
<g>
</g>
<g>
</g>
<g>
</g>
<g>
</g>
<g>
</g>
<g>
</g>
<g>
</g>
<g>
</g>
<g>
</g>
<g>
</g>
<g>
</g>
<g>
</g>
<g>
</g>
<g>
</g>
</svg>
