<?xml version="1.0" encoding="iso-8859-1"?>
<!-- Generator: Adobe Illustrator 16.0.0, SVG Export Plug-In . SVG Version: 6.00 Build 0)  -->
<!DOCTYPE svg PUBLIC "-//W3C//DTD SVG 1.1//EN" "http://www.w3.org/Graphics/SVG/1.1/DTD/svg11.dtd">
<svg version="1.1"  xmlns="http://www.w3.org/2000/svg" xmlns:xlink="http://www.w3.org/1999/xlink" x="0px" y="0px"
	 width="92px" height="92px" viewBox="0 0 92 92" style="enable-background:new 0 0 92 92;" xml:space="preserve">
<g>
	<g>
		<polygon points="46.327,39.805 37.93,28.238 25.616,53.239 34.012,53.239 38.678,43.91 46.327,53.239 53.978,43.91 58.642,53.239 
			67.037,53.239 54.724,28.238 		"/>
		<polygon points="24.684,59.77 19.087,75.443 32.52,75.443 45.208,59.77 		"/>
		<path d="M67.106,9.886C67.5,9.687,67.683,9.373,67.683,8.9c0-0.419-0.181-0.713-0.566-0.926c-0.438-0.242-1.241-0.365-2.387-0.365
			h-3.541v2.624h3.717C65.912,10.232,66.653,10.116,67.106,9.886z"/>
		<path d="M68.296,13.716c0-0.534-0.201-0.899-0.633-1.143c-0.48-0.271-1.4-0.407-2.737-0.407h-3.737v3.1h3.985
			C68.296,15.266,68.296,14.1,68.296,13.716z"/>
		<polygon points="37.558,76.749 46.327,85.891 55.097,76.749 46.327,61.636 		"/>
		<polygon points="47.446,59.77 60.134,75.443 73.569,75.443 67.972,59.77 		"/>
		<path d="M13.718,0v77.54c0,0.008,0,0.017,0,0.022v0.205h0.017c0.052,0.812,0.318,1.607,0.8,2.293
			c0.839,1.188,2.204,1.897,3.661,1.897h13.348c0.146,0,0.29-0.008,0.434-0.021l10.788,8.684C43.611,91.502,44.778,92,45.999,92
			c1.221,0,2.389-0.498,3.232-1.379l10.297-8.684c0.144,0.014,0.287,0.021,0.434,0.021h13.823c1.456,0,2.821-0.709,3.659-1.897
			c0.482-0.686,0.748-1.48,0.801-2.293h0.018v-0.205c0-0.008,0-0.016,0-0.022L78.282,0H13.718z M57.993,5.676h6.933
			c1.593,0,2.871,0.264,3.798,0.783c0.989,0.553,1.49,1.332,1.49,2.313c0,0.949-0.49,1.704-1.458,2.253
			c0.574,0.201,1.038,0.482,1.384,0.838c0.521,0.537,0.789,1.161,0.789,1.853c0,1.137-0.521,2.019-1.545,2.622
			c-0.969,0.571-2.379,0.861-4.189,0.861h-7.2L57.993,5.676L57.993,5.676z M53.832,3.057h3.252v2.105h-3.252V3.057z M54.789,5.676
			v11.193h-3.116V5.676H54.789z M49.24,3.057h3.252v2.105H49.24V3.057z M35.874,5.676h2.788v7.295l6.478-7.196h2.952V16.87h-2.766
			c-0.008-0.002-0.015,0-0.021-0.002V9.347l-6.852,7.485h-2.579V5.676z M21.833,5.653h3.034v4.646l1.372-0.003
			c0.351-0.169,0.959-1.336,1.26-1.916c0.701-1.353,1.426-2.75,2.733-2.775c0.798-0.095,2.481-0.018,2.837,0.001l-0.014,1.948
			l-2.617,0.009l-0.085,0.013l-0.028-0.002c-0.286,0.186-0.78,1.136-1.078,1.712c-0.33,0.638-0.517,1.311-0.939,1.859
			c2.279,1.402,4.721,5.075,4.993,5.72h-3.844c-1.063-1.899-2.319-3.729-2.917-4.606l-0.347-0.582h-1.325v5.171h-3.034L21.833,5.653
			L21.833,5.653z M46.327,20.028c14.626,0,26.494,12.036,26.494,26.867c0,3.424-0.643,6.689-1.795,9.703H69.44
			c1.222-2.99,1.889-6.269,1.889-9.703c0-13.995-11.201-25.351-25.001-25.351c-13.8,0-25.003,11.356-25.003,25.353
			c0,3.435,0.667,6.713,1.889,9.701h-1.586c-1.152-3.013-1.795-6.279-1.795-9.701C19.833,32.064,31.702,20.028,46.327,20.028z
			 M67.808,56.598h-42.96c-1.305-2.965-2.03-6.248-2.03-9.701c0-13.16,10.533-23.835,23.509-23.835
			c12.978,0,23.51,10.676,23.51,23.835C69.836,50.35,69.11,53.633,67.808,56.598z M59.504,76.749L49.289,64.107l7.44,12.826
			L46.327,87.779L35.926,76.936l7.462-12.828L33.149,76.749H17.244l6.53-18.285h20.944h3.219h20.944l6.529,18.285H59.504z"/>
	</g>
</g>

</svg>
