<?xml version="1.0" encoding="UTF-8" standalone="no"?>
<svg
   xmlns:dc="http://purl.org/dc/elements/1.1/"
   xmlns:cc="http://creativecommons.org/ns#"
   xmlns:rdf="http://www.w3.org/1999/02/22-rdf-syntax-ns#"
   xmlns:svg="http://www.w3.org/2000/svg"
   xmlns="http://www.w3.org/2000/svg"
   xmlns:sodipodi="http://sodipodi.sourceforge.net/DTD/sodipodi-0.dtd"
   xmlns:inkscape="http://www.inkscape.org/namespaces/inkscape"
   version="1.1"
   x="0px"
   y="0px"
   width="100px"
   height="100px"
   viewBox="0 0 236.562 236.561"
   style="enable-background:new 0 0 236.562 236.561;"
   xml:space="preserve"
   id="svg6"
   sodipodi:docname="facebook-icon.svg"
   inkscape:version="0.92.3 (2405546, 2018-03-11)"><metadata
   id="metadata12"><rdf:RDF><cc:Work
       rdf:about=""><dc:format>image/svg+xml</dc:format><dc:type
         rdf:resource="http://purl.org/dc/dcmitype/StillImage" /></cc:Work></rdf:RDF></metadata><defs
   id="defs10" /><sodipodi:namedview
   pagecolor="#ffffff"
   bordercolor="#666666"
   borderopacity="1"
   objecttolerance="10"
   gridtolerance="10"
   guidetolerance="10"
   inkscape:pageopacity="0"
   inkscape:pageshadow="2"
   inkscape:window-width="1533"
   inkscape:window-height="845"
   id="namedview8"
   showgrid="false"
   inkscape:zoom="2.36"
   inkscape:cx="50"
   inkscape:cy="50"
   inkscape:window-x="67"
   inkscape:window-y="27"
   inkscape:window-maximized="1"
   inkscape:current-layer="svg6" />
<g
   id="g4">
	<path
   d="M168.833,197.656l0.012,2.495c0,9.788-7.72,17.625-17.401,18.122c-2.672,10.332-17,18.282-34.416,18.288   c-17.413-0.006-31.765-7.944-34.427-18.288c-9.691-0.509-17.437-8.334-17.401-18.11l-0.012-2.5L168.833,197.656z M65.199,189.759   h103.64l-0.013-10.072L65.199,179.7V189.759L65.199,189.759z M205.71,88.708c0,29.625-14.547,55.804-36.859,71.899l-0.024,11.455   h-13.311c3.623-3.15,5.952-7.744,5.952-12.922c0-9.492-7.702-17.212-17.212-17.212c-9.517,0-17.219,7.696-17.219,17.212   c0,5.178,2.347,9.771,5.953,12.934l-67.809,0.012V160.62c-13.746-9.942-24.509-23.69-30.771-39.709   c1.288,0.189,2.577,0.396,3.91,0.396c15.034,0,27.237-12.197,27.237-27.237S53.354,66.833,38.32,66.833   c-2.615,0-5.083,0.485-7.468,1.167C40.19,29.022,75.168,0.024,117.004,0c21.855,0.012,41.828,7.953,57.29,21.057   c-2.849-0.715-5.804-1.138-8.866-1.138c-20.049,0-36.315,16.264-36.315,36.315c0,20.053,16.267,36.316,36.315,36.316   c18.306,0,33.426-13.583,35.914-31.214C204.161,69.975,205.71,79.157,205.71,88.708z M121.567,132.662   c0-5.427-4.413-9.836-9.836-9.836c-5.423,0-9.835,4.409-9.835,9.836c0,5.426,4.413,9.835,9.835,9.835   C117.155,142.497,121.567,138.087,121.567,132.662z M121.567,87.267c0-12.954-10.495-23.454-23.454-23.454   s-23.454,10.5-23.454,23.454s10.495,23.454,23.454,23.454S121.567,100.22,121.567,87.267z M123.083,35.063   c0-10.031-8.136-18.158-18.161-18.158c-10.021,0-18.158,8.127-18.158,18.158c0,10.03,8.136,18.158,18.158,18.158   C114.947,53.221,123.083,45.093,123.083,35.063z M153.347,120.556c0-7.104-5.757-12.862-12.862-12.862   c-7.104,0-12.861,5.757-12.861,12.862s5.757,12.862,12.861,12.862C147.59,133.418,153.347,127.661,153.347,120.556z    M193.445,111.477c0-7.104-5.758-12.862-12.862-12.862s-12.861,5.757-12.861,12.862s5.757,12.861,12.861,12.861   S193.445,118.582,193.445,111.477z"
   id="path2" />
</g>

</svg>