<?xml version="1.0" encoding="iso-8859-1"?>
<!-- Generator: Adobe Illustrator 19.1.0, SVG Export Plug-In . SVG Version: 6.00 Build 0)  -->
<svg version="1.1" id="Capa_1" xmlns="http://www.w3.org/2000/svg" xmlns:xlink="http://www.w3.org/1999/xlink" x="0px" y="0px"
	 viewBox="0 0 477.158 477.158" style="enable-background:new 0 0 477.158 477.158;" xml:space="preserve">
<g>
	<path style="fill:#222222;" d="M402.719,441.314c5.091,0,10.151-2.118,13.75-5.719l55-55c3.591-3.598,5.688-8.635,5.688-13.719
		s-2.096-10.152-5.688-13.75L356.906,238.564l114.562-114.562c3.664-3.667,5.764-8.848,5.688-14.031
		c-0.078-4.985-2.163-9.911-5.688-13.438l-55-55c-3.599-3.601-8.659-5.688-13.75-5.688s-10.151,2.087-13.75,5.688l-183.28,183.281
		c-3.601,3.599-5.688,8.659-5.688,13.75s2.087,10.151,5.688,13.75l183.281,183.281C392.568,439.194,397.628,441.314,402.719,441.314
		z M202.719,441.314c5.091,0,10.151-2.118,13.75-5.719l55-55c3.591-3.598,5.688-8.635,5.688-13.719s-2.096-10.152-5.688-13.75
		L156.906,238.564l114.562-114.562c3.664-3.667,5.764-8.848,5.688-14.031c-0.078-4.985-2.163-9.911-5.688-13.438l-55-55
		c-3.599-3.601-8.659-5.688-13.75-5.688s-10.151,2.087-13.75,5.688L5.688,224.814C2.087,228.413,0,233.473,0,238.564
		s2.087,10.151,5.688,13.75l183.281,183.281C192.568,439.194,197.628,441.314,202.719,441.314z"/>
</g>
<g>
</g>
<g>
</g>
<g>
</g>
<g>
</g>
<g>
</g>
<g>
</g>
<g>
</g>
<g>
</g>
<g>
</g>
<g>
</g>
<g>
</g>
<g>
</g>
<g>
</g>
<g>
</g>
<g>
</g>
</svg>
