<?xml version="1.0" encoding="utf-8"?>
<!-- Generator: Adobe Illustrator 19.1.1, SVG Export Plug-In . SVG Version: 6.00 Build 0)  -->
<svg version="1.1" id="Слой_1" xmlns="http://www.w3.org/2000/svg" xmlns:xlink="http://www.w3.org/1999/xlink" x="0px" y="0px"
	 viewBox="0 0 283.5 283.5" style="enable-background:new 0 0 283.5 283.5;" xml:space="preserve">
<style type="text/css">
	.st0{fill:#F3C644;}
</style>
<g>
	<path class="st0" d="M1.9,141.7C1.8,64.1,64.6,1.1,142.2,1c77.6-0.1,140.6,62.7,140.7,140.2c0.1,77.6-62.7,140.6-140.3,140.7
		c-15.3,0-30.1-2.4-43.9-6.9c9.9-58,46.5-105.3,94.8-125.5c5.7,6.6,14.2,10.8,23.7,10.8c17.2,0,31.2-14,31.2-31.3
		c0-17.3-14-31.2-31.3-31.2c-17.2,0-31.2,14-31.2,31.2c-61.7,18.7-111.7,61.8-137,117.2c-8.1-7.2-15.3-15.3-21.5-24.1
		c1.4-53.9,28-101.1,67.9-129c5.7,6.4,14.1,10.5,23.4,10.5c17.3,0,31.2-14,31.2-31.3c0-17.3-14-31.2-31.3-31.2
		c-17.3,0-31.2,14-31.2,31.3c0,0.9,0.1,1.8,0.1,2.7c-37.2,13.1-67.7,39-85.5,72C2,145.3,1.9,143.5,1.9,141.7"/>
</g>
</svg>
