<svg
   xmlns:dc="http://purl.org/dc/elements/1.1/"
   xmlns:cc="http://creativecommons.org/ns#"
   xmlns:rdf="http://www.w3.org/1999/02/22-rdf-syntax-ns#"
   xmlns:svg="http://www.w3.org/2000/svg"
   xmlns="http://www.w3.org/2000/svg"
   xml:space="preserve"
   style="enable-background:new 0 0 236.562 236.561;"
   viewBox="0 0 236.562 236.561"
   height="100px"
   width="100px"
   y="0px"
   x="0px"
   version="1.1">
<path
   d="m 218.78372,118.27889 c 0,55.51697 -45.00324,100.5194 -100.52462,100.5194 -55.513355,0 -100.520601,-45.00243 -100.520601,-100.5194 0,-55.518569 45.007246,-100.520596 100.520601,-100.520596 55.52138,0 100.52462,45.002027 100.52462,100.520596"
   style="fill:#3378bc;fill-opacity:1;fill-rule:nonzero;stroke:none;stroke-width:0.40145612"
   id="path98" /><path
   d="m 73.312069,14.675111 c -0.814956,0 -1.585752,-0.478135 -1.922975,-1.27342 -0.45766,-1.067873 0.04013,-2.295927 1.104006,-2.749171 14.492565,-6.1707821 29.89242,-9.2977237 45.766,-9.2977237 7.15796,0 14.32396,0.6491537 21.30127,1.9354194 1.13611,0.2083558 1.89085,1.2999149 1.67809,2.4368385 -0.20875,1.1353187 -1.29671,1.9053117 -2.43284,1.6808972 -6.73241,-1.2356815 -13.64549,-1.8627562 -20.54652,-1.8627562 -15.30752,0 -30.153373,3.010921 -44.12806,8.9605008 z M 204.40356,44.447097 c -0.57409,0 -1.15619,-0.241265 -1.56567,-0.710176 -5.95762,-6.749682 -12.71413,-12.78718 -20.09288,-17.946695 -0.94745,-0.656782 -1.18029,-1.966332 -0.51788,-2.913368 0.66239,-0.944224 1.96713,-1.184295 2.91457,-0.517476 7.65175,5.34579 14.66117,11.606097 20.83557,18.606287 0.76277,0.871963 0.68247,2.192351 -0.1887,2.959133 -0.39343,0.349667 -0.88722,0.522295 -1.38502,0.522295 z M 13.555326,73.159237 12.69621,72.970955 c -1.055829,-0.475324 -1.521519,-1.715824 -1.047801,-2.770851 2.553261,-5.648888 5.584255,-11.143618 9.016704,-16.331232 0.634302,-0.967512 1.93502,-1.232473 2.902529,-0.58974 0.963495,0.633497 1.228455,1.93502 0.590141,2.89811 -3.307999,5.002547 -6.234615,10.301364 -8.691526,15.749125 -0.349266,0.774811 -1.112034,1.23287 -1.910931,1.23287 z m 210.354984,2.143375 c -0.81094,0 -1.58977,-0.473316 -1.931,-1.2686 -2.3405,-5.491519 -5.15069,-10.843732 -8.35431,-15.909306 -0.61824,-0.975135 -0.32919,-2.27224 0.65037,-2.891688 0.98357,-0.617842 2.27625,-0.324376 2.88647,0.655579 3.32405,5.250243 6.24264,10.803183 8.67144,16.499043 0.45767,1.064663 -0.0361,2.297132 -1.104,2.745961 z M 3.4667333,117.55908 H 3.4145493 C 2.262365,117.53108 1.3430338,116.5727 1.3711369,115.41531 1.5999706,106.04572 2.9408309,96.744787 5.3575978,87.768227 5.6627042,86.64696 6.8068534,85.985361 7.9269165,86.29127 9.042964,86.592362 9.701353,87.743337 9.4042753,88.859787 7.0678007,97.511567 5.7791257,106.4801 5.5583246,115.51567 c -0.02809,1.14014 -0.9554656,2.04341 -2.0915861,2.04341 z M 213.98632,183.81661 c -0.39745,0 -0.7989,-0.11277 -1.1562,-0.34967 -0.96349,-0.63831 -1.22846,-1.93984 -0.58612,-2.90253 12.26849,-18.47501 18.75201,-40.01233 18.75201,-62.28552 0,-1.16021 0.9394,-2.0964 2.0956,-2.0964 1.1562,0 2.09159,0.93619 2.09159,2.0964 0,23.09498 -6.72439,45.43681 -19.45054,64.60153 -0.40547,0.607 -1.06788,0.93619 -1.74634,0.93619 z M 54.913338,216.16514 c -0.397442,0 -0.798901,-0.11276 -1.152181,-0.34967 -19.245807,-12.74944 -34.171945,-30.6861 -43.168577,-51.86773 -0.453646,-1.06305 0.04416,-2.29271 1.108018,-2.74917 1.05583,-0.442 2.29633,0.0442 2.749975,1.11203 8.671452,20.42569 23.067668,37.71961 41.622971,50.01261 0.963496,0.64313 1.228456,1.93984 0.590141,2.90734 -0.401454,0.6054 -1.071888,0.93459 -1.750347,0.93459 z m 99.512952,13.22799 c -0.87919,0 -1.69415,-0.55361 -1.98721,-1.43682 -0.36131,-1.09597 0.23283,-2.27987 1.32882,-2.6452 8.53094,-2.82585 16.72466,-6.69307 24.36438,-11.48566 0.98355,-0.61944 2.26821,-0.32155 2.88244,0.65719 0.61825,0.97995 0.32116,2.27224 -0.65838,2.88688 -7.91671,4.97444 -16.41956,8.98418 -25.27167,11.9152 z m -36.04274,5.81308 c -1.15619,0 -2.0956,-0.93459 -2.0956,-2.09199 -0.004,-1.1558 0.93539,-2.0952 2.09159,-2.0952 6.02184,-0.008 12.05172,-0.49379 17.92904,-1.44083 1.13611,-0.18066 2.21202,0.59416 2.39668,1.73429 0.18466,1.14455 -0.59013,2.22045 -1.73027,2.40072 -6.09812,0.98355 -12.35281,1.48538 -18.59144,1.49301"
   style="fill:#3378bc;fill-opacity:1;fill-rule:nonzero;stroke:none;stroke-width:0.40145612"
   id="path100" /><path
   d="m 81.397396,61.998355 c 7.037528,0 12.738203,5.708306 12.738203,12.725761 0,7.033511 -5.700675,12.751049 -12.738203,12.751049 -7.053583,0 -12.754259,-5.717538 -12.754259,-12.751049 0,-7.017455 5.700676,-12.725761 12.754259,-12.725761 M 70.393485,97.120951 H 92.393279 V 167.80252 H 70.393485 V 97.120951"
   style="fill:#ffffff;fill-opacity:1;fill-rule:nonzero;stroke:none;stroke-width:0.40145612"
   id="path102" /><path
   d="m 106.1833,97.120951 h 21.07243 v 9.667869 h 0.28505 c 2.93865,-5.56378 10.10867,-11.417816 20.80747,-11.417816 22.24468,0 26.34355,14.629466 26.34355,33.665716 v 38.7658 h -21.95563 v -34.36545 c 0,-8.20175 -0.16057,-18.74278 -11.41741,-18.74278 -11.43748,0 -13.18383,8.92758 -13.18383,18.14543 v 34.9628 H 106.1833 V 97.120951"
   style="fill:#ffffff;fill-opacity:1;fill-rule:nonzero;stroke:none;stroke-width:0.40145612"
   id="path104" /></svg>