<?xml version="1.0" encoding="iso-8859-1"?>
<!-- Generator: Adobe Illustrator 19.0.0, SVG Export Plug-In . SVG Version: 6.00 Build 0)  -->
<svg version="1.1"  xmlns="http://www.w3.org/2000/svg" xmlns:xlink="http://www.w3.org/1999/xlink" x="0px" y="0px"
	 width="20px" height="20px" viewBox="0 0 522.462 522.462" style="enable-background:new 0 0 522.462 522.462;" xml:space="preserve">
<g>
	<path d="M261.231,0C165.207,0,87.077,78.108,87.077,174.154c0,92.389,158.306,333.222,165.076,343.41
		c2.003,3.026,5.421,4.898,9.078,4.898s7.053-1.872,9.078-4.898c6.748-10.188,165.076-251.021,165.076-343.41
		C435.385,78.108,357.255,0,261.231,0z M261.231,250.346c-42.015,0-76.192-34.178-76.192-76.192s34.178-76.192,76.192-76.192
		s76.192,34.178,76.192,76.192S303.245,250.346,261.231,250.346z"/>
</g>
</svg>
