<?xml version="1.0" encoding="iso-8859-1"?>
<!-- Generator: Adobe Illustrator 18.0.0, SVG Export Plug-In . SVG Version: 6.00 Build 0)  -->
<!DOCTYPE svg PUBLIC "-//W3C//DTD SVG 1.1//EN" "http://www.w3.org/Graphics/SVG/1.1/DTD/svg11.dtd">
<svg version="1.1" id="Capa_1" xmlns="http://www.w3.org/2000/svg" xmlns:xlink="http://www.w3.org/1999/xlink" x="0px" y="0px"
	 viewBox="0 0 298 298" style="enable-background:new 0 0 298 298;" xml:space="preserve">
<g>
	<path d="M57.156,242.959h16.7c5.98,0,10.899-4.711,11.169-10.686c1.377-30.594,5.295-117.659,6.21-138.477h0.556
		c3.754,20.643,27.439,109.961,34.861,137.786c1.308,4.901,5.73,8.308,10.804,8.308h16.352c4.903,0,9.237-3.201,10.686-7.885
		c8.477-27.402,36.378-117.924,41.329-138.209h0.838c0,22.354,2.984,107.969,4.07,138.372c0.215,6.023,5.147,10.79,11.175,10.79
		h18.938c3.074,0,6.013-1.265,8.126-3.497c2.113-2.232,3.215-5.235,3.046-8.306l-9.088-165.538
		c-0.325-5.932-5.23-10.575-11.172-10.575h-36.576c-4.937,0-9.292,3.245-10.712,7.973c-7.63,25.397-31.097,103.796-35.52,121.951
		h-0.838c-3.479-18.33-24.916-96.125-32.014-121.722c-1.344-4.849-5.743-8.202-10.775-8.202H67.719
		c-5.903,0-10.791,4.586-11.167,10.477L45.99,231.057c-0.197,3.085,0.891,6.114,3.006,8.368
		C51.111,241.679,54.064,242.959,57.156,242.959z"/>
	<path d="M281.907,0.334H16.093C7.205,0.334,0,7.539,0,16.426v265.147c0,8.888,7.205,16.093,16.093,16.093h265.814
		c8.888,0,16.093-7.205,16.093-16.093V16.426C298,7.539,290.795,0.334,281.907,0.334z M278,277.667H20V20.334h258V277.667z"/>
</g>
<g>
</g>
<g>
</g>
<g>
</g>
<g>
</g>
<g>
</g>
<g>
</g>
<g>
</g>
<g>
</g>
<g>
</g>
<g>
</g>
<g>
</g>
<g>
</g>
<g>
</g>
<g>
</g>
<g>
</g>
</svg>
