<svg
   xmlns:dc="http://purl.org/dc/elements/1.1/"
   xmlns:cc="http://creativecommons.org/ns#"
   xmlns:rdf="http://www.w3.org/1999/02/22-rdf-syntax-ns#"
   xmlns:svg="http://www.w3.org/2000/svg"
   xmlns="http://www.w3.org/2000/svg"
   xml:space="preserve"
   style="enable-background:new 0 0 236.562 236.561;"
   viewBox="0 0 236.562 236.561"
   height="100px"
   width="100px"
   y="0px"
   x="0px"
   version="1.1"> 

<path
   d="m 217.92602,118.28225 c 0,55.04318 -44.61924,99.66201 -99.66202,99.66201 -55.039973,0 -99.662403,-44.61883 -99.662403,-99.66201 0,-55.039188 44.62243,-99.661999 99.662403,-99.661999 55.04278,0 99.66202,44.622811 99.66202,99.661999"
   style="fill:#e2212d;fill-opacity:1;fill-rule:nonzero;stroke:none;stroke-width:0.39802709"
   id="path80" /><path
   d="m 73.6989,15.563402 c -0.808389,0 -1.573398,-0.473652 -1.907742,-1.261747 -0.450969,-1.054771 0.04177,-2.276714 1.09616,-2.722504 14.36918,-6.1216573 29.637502,-9.222289 45.376682,-9.222289 7.09285,0 14.19842,0.644804 21.11694,1.9184918 1.12721,0.2069737 1.87351,1.2896068 1.66375,2.4160245 -0.20538,1.1264164 -1.28563,1.8906287 -2.41284,1.6677335 -6.67492,-1.2259244 -13.52696,-1.8508269 -20.36785,-1.8508269 -15.17956,0 -29.898599,2.9931648 -43.75193,8.8879461 z m 129.97297,29.517685 c -0.57077,0 -1.14592,-0.238804 -1.5547,-0.7045 -5.90354,-6.690844 -12.60472,-12.677167 -19.92006,-17.787834 -0.94094,-0.656745 -1.17099,-1.954314 -0.51305,-2.893658 0.65594,-0.935363 1.95112,-1.170199 2.88729,-0.509474 7.58719,5.29774 14.53714,11.502981 20.65999,18.444579 0.75704,0.863716 0.67624,2.173227 -0.18666,2.933453 -0.39325,0.346281 -0.88322,0.517434 -1.3728,0.517434 z M 14.453364,73.547983 13.598394,73.364892 c -1.044812,-0.473645 -1.508123,-1.703555 -1.037253,-2.750361 2.529855,-5.600237 5.538151,-11.049235 8.940089,-16.191739 0.62968,-0.959242 1.920086,-1.221947 2.876539,-0.585098 0.956063,0.628873 1.220357,1.918484 0.585893,2.873751 -3.280541,4.959413 -6.180161,10.21337 -8.616483,15.614604 -0.346685,0.768189 -1.103732,1.221934 -1.893815,1.221934 z m 208.557056,2.129451 c -0.80561,0 -1.575,-0.473645 -1.91252,-1.261748 -2.3213,-5.445009 -5.10748,-10.750704 -8.28375,-15.773806 -0.61416,-0.967205 -0.32678,-2.252841 0.64521,-2.861814 0.97158,-0.616949 2.25441,-0.326393 2.86062,0.644799 3.29606,5.206193 6.18811,10.714892 8.59818,16.358918 0.45096,1.054768 -0.039,2.276716 -1.09618,2.726486 z M 4.4485509,117.56979 H 4.3988319 C 3.255704,117.54209 2.3462065,116.59064 2.3728832,115.44432 2.5981597,106.15437 3.927571,96.932089 6.3264776,88.032192 6.625008,86.921698 7.7601733,86.264961 8.871867,86.567454 c 1.108501,0.302506 1.761666,1.440864 1.465937,2.547383 -2.3165286,8.577479 -3.5961827,17.469403 -3.8091303,26.429003 -0.031043,1.13039 -0.9528695,2.02595 -2.0800846,2.02595 z M 213.17158,183.26018 c -0.39643,0 -0.79287,-0.11143 -1.14591,-0.34628 -0.95607,-0.63287 -1.21717,-1.92247 -0.58313,-2.87774 12.1665,-18.3172 18.59543,-39.67136 18.59543,-61.75391 0,-1.14631 0.92821,-2.07769 2.07572,-2.07769 1.14592,0 2.07571,0.93138 2.07571,2.07769 0,22.90248 -6.67014,45.04871 -19.28719,64.05053 -0.40122,0.60102 -1.05757,0.9274 -1.73063,0.9274 z M 55.45811,215.33321 c -0.39364,0 -0.792871,-0.11144 -1.142736,-0.34231 -19.082211,-12.64531 -33.879261,-30.42917 -42.800648,-51.42908 -0.450566,-1.05477 0.04379,-2.27273 1.100942,-2.7225 1.044825,-0.44182 2.273131,0.0397 2.724101,1.09854 8.597783,20.25163 22.871038,37.39863 41.268637,49.58622 0.956466,0.63684 1.215978,1.92247 0.583117,2.88172 -0.39643,0.60103 -1.061937,0.92741 -1.733413,0.92741 z m 98.66257,13.11498 c -0.87089,0 -1.67928,-0.54927 -1.97023,-1.42492 -0.35743,-1.08663 0.22887,-2.26081 1.31706,-2.62301 8.45808,-2.8021 16.58181,-6.63511 24.15388,-11.38756 0.97636,-0.61296 2.25124,-0.31842 2.86062,0.65278 0.61098,0.97118 0.31883,2.25283 -0.65276,2.86181 -7.85188,4.93155 -16.27891,8.90785 -25.05581,11.81742 z m -35.73687,5.76344 c -1.14592,0 -2.07571,-0.92741 -2.07571,-2.07373 -0.003,-1.14632 0.92502,-2.07769 2.07253,-2.07769 5.97041,-0.008 11.94837,-0.48958 17.7743,-1.42892 1.12722,-0.17912 2.19671,0.58908 2.37901,1.71948 0.18307,1.13438 -0.5863,2.20108 -1.71829,2.38418 -6.04324,0.97118 -12.24411,1.46871 -18.43184,1.47668"
   style="fill:#e2212d;fill-opacity:1;fill-rule:nonzero;stroke:none;stroke-width:0.39802709"
   id="path82" /><path
   d="m 110.87861,136.07406 -0.26428,0.90354 c -4.29114,16.81266 -4.76558,20.54615 -9.1781,28.35146 -2.101989,3.70962 -4.469853,7.2242 -7.089668,10.5915 -0.295325,0.37812 -0.570769,0.87168 -1.16144,0.75227 -0.64998,-0.13932 -0.699732,-0.72043 -0.769786,-1.23787 -0.707293,-5.10668 -1.092981,-10.22929 -0.925015,-15.38772 0.220905,-6.71869 1.052783,-9.02327 9.712659,-45.44276 0.12935,-0.55325 -0.0155,-1.01497 -0.2018,-1.51648 -2.070935,-5.59227 -2.480109,-11.26815 -0.67187,-17.019639 3.92136,-12.422422 18.00476,-13.373714 20.46895,-3.124506 1.51607,6.340576 -2.50002,14.635445 -5.57875,26.894695 -2.55295,10.11784 9.35681,17.3102 19.53596,9.92281 9.38786,-6.80627 13.02943,-23.12936 12.33725,-34.696029 -1.36323,-23.065662 -26.65668,-28.052952 -42.70234,-20.621781 -18.396016,8.501864 -22.578486,31.30484 -14.272852,41.72518 1.053973,1.32543 1.865551,2.1374 1.515685,3.47877 -0.531365,2.08964 -1.005813,4.19122 -1.580963,6.26493 -0.427481,1.54435 -1.722663,2.10558 -3.285315,1.4727 -3.05844,-1.23786 -5.608203,-3.18819 -7.680728,-5.75546 -7.054238,-8.73272 -9.072237,-26.011079 0.253533,-40.63459 10.334774,-16.203691 29.55192,-22.759196 47.09776,-20.773035 20.95852,2.38418 34.20526,16.705199 36.68535,32.948689 1.132,7.399316 0.31883,25.648856 -10.07049,38.544936 -11.94837,14.82253 -31.32114,15.80566 -40.26123,6.70676 -0.68899,-0.69655 -1.24065,-1.5125 -1.91252,-2.34837"
   style="fill:#ffffff;fill-opacity:1;fill-rule:evenodd;stroke:none;stroke-width:0.39802709"
   id="path84" /></svg>