<?xml version="1.0" encoding="iso-8859-1"?>
<!-- Generator: Adobe Illustrator 19.1.0, SVG Export Plug-In . SVG Version: 6.00 Build 0)  -->
<svg version="1.1" id="Capa_1" xmlns="http://www.w3.org/2000/svg" xmlns:xlink="http://www.w3.org/1999/xlink" x="0px" y="0px"
	 viewBox="0 0 477.159 477.159" style="enable-background:new 0 0 477.159 477.159;" xml:space="preserve">
<g>
	<path style="fill:#222222;" d="M74.44,35.845c-5.091,0-10.151,2.118-13.75,5.719l-55,55c-3.591,3.598-5.688,8.635-5.688,13.719
		s2.096,10.152,5.688,13.75l114.562,114.562L5.69,353.158c-3.664,3.667-5.764,8.848-5.688,14.031
		c0.078,4.985,2.163,9.911,5.688,13.438l55,55c3.599,3.601,8.659,5.688,13.75,5.688c5.091,0,10.151-2.087,13.75-5.688
		l183.281-183.281c3.601-3.599,5.688-8.659,5.688-13.75s-2.087-10.151-5.688-13.75L88.189,41.564
		C84.59,37.962,79.53,35.845,74.44,35.845L74.44,35.845z M274.44,35.845c-5.091,0-10.151,2.118-13.75,5.719l-55,55
		c-3.591,3.598-5.688,8.635-5.688,13.719s2.096,10.152,5.688,13.75l114.562,114.562L205.69,353.158
		c-3.664,3.667-5.764,8.848-5.688,14.031c0.078,4.985,2.163,9.911,5.688,13.438l55,55c3.599,3.601,8.659,5.688,13.75,5.688
		s10.151-2.087,13.75-5.688l183.281-183.281c3.601-3.599,5.688-8.659,5.688-13.75s-2.087-10.151-5.688-13.75L288.19,41.564
		C284.59,37.962,279.531,35.845,274.44,35.845L274.44,35.845z"/>
</g>

</svg>
