<?xml version="1.0" encoding="iso-8859-1"?>
<!-- Generator: Adobe Illustrator 18.0.0, SVG Export Plug-In . SVG Version: 6.00 Build 0)  -->
<!DOCTYPE svg PUBLIC "-//W3C//DTD SVG 1.1//EN" "http://www.w3.org/Graphics/SVG/1.1/DTD/svg11.dtd">
<svg version="1.1" id="Capa_1" xmlns="http://www.w3.org/2000/svg" xmlns:xlink="http://www.w3.org/1999/xlink" x="0px" y="0px"
	 viewBox="0 0 489.821 489.821" style="enable-background:new 0 0 489.821 489.821;" xml:space="preserve">
<path id="filter" style="fill:#000100;" d="M472.162,103.702H17.654C7.894,103.702,0,111.596,0,121.357
	c0,9.764,7.894,17.641,17.654,17.641h0.904c6.818,88.756,64.531,163.084,144.105,194.023l-8.301,29.688
	c-1.56,5.563-0.416,11.514,3.072,16.127c3.507,4.582,8.942,7.284,14.713,7.284h145.52c5.775,0,11.225-2.702,14.718-7.284
	c3.488-4.613,4.632-10.564,3.068-16.127l-8.278-29.688c79.551-30.94,137.268-105.268,144.087-194.023h0.899
	c9.761,0,17.659-7.877,17.659-17.641C489.821,111.596,481.923,103.702,472.162,103.702z M104.399,198.725
	c-9.231,0-16.71-7.477-16.71-16.71c0-9.231,7.479-16.705,16.71-16.705c9.231,0,16.724,7.474,16.724,16.705
	C121.123,191.248,113.631,198.725,104.399,198.725z M139.699,251.679c-9.218,0-16.71-7.479-16.71-16.705
	c0-9.231,7.492-16.71,16.71-16.71c9.228,0,16.725,7.479,16.725,16.71C156.424,244.201,148.927,251.679,139.699,251.679z
	 M175.014,304.638c-9.232,0-16.725-7.478-16.725-16.728c0-9.214,7.492-16.692,16.725-16.692c9.213,0,16.705,7.478,16.705,16.692
	C191.719,297.161,184.227,304.638,175.014,304.638z M175.014,198.725c-9.232,0-16.725-7.477-16.725-16.71
	c0-9.231,7.492-16.705,16.725-16.705c9.213,0,16.705,7.474,16.705,16.705C191.719,191.248,184.227,198.725,175.014,198.725z
	 M210.309,251.679c-9.227,0-16.705-7.479-16.705-16.705c0-9.231,7.479-16.71,16.705-16.71c9.231,0,16.71,7.479,16.71,16.71
	C227.019,244.201,219.54,251.679,210.309,251.679z M245.608,304.638c-9.231,0-16.71-7.478-16.71-16.728
	c0-9.214,7.479-16.692,16.71-16.692c9.231,0,16.724,7.478,16.724,16.692C262.332,297.161,254.84,304.638,245.608,304.638z
	 M245.608,198.725c-9.231,0-16.71-7.477-16.71-16.71c0-9.231,7.479-16.705,16.71-16.705c9.231,0,16.724,7.474,16.724,16.705
	C262.332,191.248,254.84,198.725,245.608,198.725z M280.908,251.679c-9.213,0-16.71-7.479-16.71-16.705
	c0-9.231,7.497-16.71,16.71-16.71c9.232,0,16.725,7.479,16.725,16.71C297.633,244.201,290.141,251.679,280.908,251.679z
	 M316.223,304.638c-9.233,0-16.725-7.478-16.725-16.728c0-9.214,7.492-16.692,16.725-16.692c9.213,0,16.71,7.478,16.71,16.692
	C332.933,297.161,325.435,304.638,316.223,304.638z M316.223,198.725c-9.233,0-16.725-7.477-16.725-16.71
	c0-9.231,7.492-16.705,16.725-16.705c9.213,0,16.71,7.474,16.71,16.705C332.933,191.248,325.435,198.725,316.223,198.725z
	 M351.522,251.679c-9.232,0-16.71-7.479-16.71-16.705c0-9.231,7.479-16.71,16.71-16.71c9.227,0,16.705,7.479,16.705,16.71
	C368.227,244.201,360.749,251.679,351.522,251.679z M386.817,198.725c-9.227,0-16.705-7.477-16.705-16.71
	c0-9.231,7.479-16.705,16.705-16.705c9.231,0,16.728,7.474,16.728,16.705C403.546,191.248,396.049,198.725,386.817,198.725z"/>
<g>
</g>
<g>
</g>
<g>
</g>
<g>
</g>
<g>
</g>
<g>
</g>
<g>
</g>
<g>
</g>
<g>
</g>
<g>
</g>
<g>
</g>
<g>
</g>
<g>
</g>
<g>
</g>
<g>
</g>
</svg>
