<?xml version="1.0" encoding="iso-8859-1"?>
<!-- Generator: Adobe Illustrator 16.0.0, SVG Export Plug-In . SVG Version: 6.00 Build 0)  -->
<!DOCTYPE svg PUBLIC "-//W3C//DTD SVG 1.1//EN" "http://www.w3.org/Graphics/SVG/1.1/DTD/svg11.dtd">
<svg version="1.1" id="Capa_1" xmlns="http://www.w3.org/2000/svg" xmlns:xlink="http://www.w3.org/1999/xlink" x="0px" y="0px"
	 width="106.048px" height="106.048px" viewBox="0 0 106.048 106.048" style="enable-background:new 0 0 106.048 106.048;"
	 xml:space="preserve">
<g>
	<path style="fill:#010002;" d="M35.462,66.145c0,1.803-1.447,3.252-3.25,3.252c-1.789,0-3.257-1.449-3.257-3.252
		c0-1.791,1.468-3.252,3.257-3.252C34.01,62.883,35.462,64.354,35.462,66.145z M73.845,62.883c-1.802,0-3.257,1.465-3.257,3.262
		c0,1.792,1.455,3.247,3.257,3.247c1.787,0,3.247-1.455,3.247-3.247C77.092,64.354,75.632,62.883,73.845,62.883z M48.242,48.682
		h13.781V36.479H48.242V48.682z M106.048,21.209v63.629c0,11.666-9.543,21.21-21.21,21.21H21.209C9.543,106.048,0,96.504,0,84.838
		V21.209C0,9.543,9.543,0,21.209,0h63.628C96.505,0,106.048,9.543,106.048,21.209z M38.707,66.155c0-3.614-2.9-6.509-6.483-6.509
		c-3.622,0-6.512,2.895-6.512,6.509c0,3.583,2.89,6.499,6.512,6.499C35.807,72.648,38.707,69.738,38.707,66.155z M80.344,66.155
		c0-3.614-2.921-6.509-6.504-6.509c-3.599,0-6.509,2.895-6.509,6.509c0,3.583,2.91,6.499,6.509,6.499
		C77.434,72.648,80.344,69.738,80.344,66.155z M92.792,59.16c0-2.295-3.428-9.709-9.974-10.483l-5.819-11.57
		c-1.025-2.043-3.739-3.713-6.033-3.713H17.414c-2.281,0.005-4.158,1.877-4.158,4.163v30.618h11.177
		c-0.163-0.652-0.29-1.325-0.29-2.03c0-4.453,3.62-8.066,8.075-8.066c4.432,0,8.055,3.619,8.055,8.066
		c0,0.705-0.125,1.378-0.292,2.03h26.082c-0.171-0.652-0.29-1.325-0.29-2.03c0-4.453,3.609-8.066,8.062-8.066
		c4.448,0,8.062,3.619,8.062,8.066c0,0.705-0.114,1.378-0.29,2.03h11.185V59.16z M16.438,48.682h13.787V36.479H16.438V48.682z
		 M70.075,36.479h-4.116v12.202h12.909l-4.956-9.836C73.26,37.546,71.535,36.479,70.075,36.479z M32.34,48.682h13.787V36.479H32.34
		V48.682z"/>
</g>

</svg>
