<?xml version="1.0" encoding="iso-8859-1"?>
<!-- Generator: Adobe Illustrator 16.0.0, SVG Export Plug-In . SVG Version: 6.00 Build 0)  -->
<!DOCTYPE svg PUBLIC "-//W3C//DTD SVG 1.1//EN" "http://www.w3.org/Graphics/SVG/1.1/DTD/svg11.dtd">
<svg version="1.1" id="Capa_1" xmlns="http://www.w3.org/2000/svg" xmlns:xlink="http://www.w3.org/1999/xlink" x="0px" y="0px"
	 width="485.213px" height="485.212px" viewBox="0 0 485.213 485.212" style="enable-background:new 0 0 485.213 485.212;"
	 xml:space="preserve">
<g>
	<g>
		<path d="M287.505,186.19C283.561,89.911,257.948,0,212.283,0C166.613,0,141,89.911,137.059,186.19
			c-9.239,5.181-15.754,14.718-15.754,26.091c0,16.762,13.562,30.324,30.324,30.324c16.762,0,30.327-13.562,30.327-30.324
			c0-10.748-5.922-19.753-14.335-25.144c3.972-97.61,29.884-156.812,44.662-156.812c14.776,0,40.689,59.229,44.685,156.842
			c-8.438,5.36-14.36,14.365-14.36,25.113c0,16.762,13.562,30.324,30.326,30.324c16.76,0,30.322-13.562,30.322-30.324
			C303.256,200.908,296.745,191.371,287.505,186.19z"/>
		<g>
			<polygon points="353.395,242.606 384.137,242.606 363.909,121.304 303.256,121.304 303.256,151.628 338.235,151.628 			"/>
			<polygon points="35.804,454.886 86.358,151.628 121.305,151.628 121.305,121.304 60.652,121.304 0.001,485.212 272.934,485.212 
				272.934,454.886 			"/>
		</g>
		<path d="M379.077,272.93c-58.642,0-106.144,47.502-106.144,106.144c0,58.638,47.502,106.139,106.144,106.139
			c58.633,0,106.135-47.501,106.135-106.139C485.212,320.432,437.71,272.93,379.077,272.93z M357.632,443.396L304.03,389.79
			l21.441-21.436l32.16,32.16l75.047-75.046l21.436,21.444L357.632,443.396z"/>
	</g>
</g>
<g>
</g>
<g>
</g>
<g>
</g>
<g>
</g>
<g>
</g>
<g>
</g>
<g>
</g>
<g>
</g>
<g>
</g>
<g>
</g>
<g>
</g>
<g>
</g>
<g>
</g>
<g>
</g>
<g>
</g>
</svg>
