<?xml version="1.0" encoding="iso-8859-1"?>
<!-- Generator: Adobe Illustrator 16.0.0, SVG Export Plug-In . SVG Version: 6.00 Build 0)  -->
<!DOCTYPE svg PUBLIC "-//W3C//DTD SVG 1.1//EN" "http://www.w3.org/Graphics/SVG/1.1/DTD/svg11.dtd">
<svg xmlns="http://www.w3.org/2000/svg" xmlns:xlink="http://www.w3.org/1999/xlink" version="1.1"  x="0px" y="0px" width="45px" height="45px" viewBox="0 0 31.061 31.061" style="enable-background:new 0 0 31.061 31.061;" xml:space="preserve">
<g>
	<path d="M29.885,18.025c-0.103-0.174-0.123-0.335-0.098-0.524c0.344-2.485,0.061-4.898-0.859-7.23   c-2.446-6.219-8.758-9.88-15.455-8.982c-0.123,0.016-0.271-0.023-0.381-0.083C10.134-0.398,7.16-0.428,4.255,1.273   C0.14,3.682-1.196,8.974,1.193,13.108c0.064,0.113,0.089,0.269,0.08,0.402c-0.047,0.676-0.114,1.351-0.172,2.026   c0.037,1.204,0.179,2.389,0.474,3.553c1.794,7.091,8.667,11.718,15.917,10.713c0.188-0.025,0.353-0.002,0.524,0.099   c1.736,0.99,3.602,1.351,5.578,1.065C29.665,30.095,32.95,23.336,29.885,18.025z M22.035,22.522   c-0.883,0.971-1.983,1.562-3.219,1.934c-1.077,0.323-2.185,0.425-3.306,0.435c-1.455-0.02-2.887-0.178-4.233-0.778   c-1.501-0.669-2.604-1.745-3.239-3.274c-0.191-0.459-0.3-0.945-0.247-1.442c0.073-0.693,0.466-1.166,1.114-1.396   c0.677-0.239,1.342-0.19,1.863,0.349c0.264,0.271,0.447,0.627,0.639,0.961c0.197,0.343,0.345,0.712,0.54,1.056   c0.53,0.934,1.345,1.465,2.396,1.635c1.06,0.173,2.109,0.131,3.126-0.253c0.467-0.175,0.883-0.437,1.229-0.797   c0.874-0.912,0.771-2.271-0.228-3.039c-0.465-0.355-0.994-0.574-1.555-0.715c-1.189-0.299-2.39-0.562-3.572-0.885   c-0.713-0.193-1.422-0.437-2.104-0.726c-0.492-0.21-0.962-0.497-1.396-0.814c-2.278-1.664-2.174-5.049-0.271-6.753   c0.836-0.747,1.813-1.209,2.89-1.458c2.146-0.5,4.291-0.538,6.408,0.158c0.975,0.321,1.834,0.837,2.538,1.593   c0.578,0.62,0.964,1.334,1.021,2.195c0.049,0.693-0.248,1.231-0.811,1.607c-0.564,0.382-1.188,0.385-1.801,0.117   c-0.163-0.071-0.312-0.208-0.428-0.35c-0.213-0.271-0.438-0.548-0.586-0.857c-0.771-1.601-2.068-2.223-3.792-2.106   c-0.608,0.042-1.219,0.09-1.766,0.375c-0.33,0.173-0.66,0.386-0.922,0.651c-0.617,0.629-0.562,1.538,0.096,2.128   c0.448,0.403,0.987,0.65,1.56,0.802c1.099,0.294,2.217,0.523,3.31,0.833c0.991,0.281,1.965,0.633,2.943,0.958   c0.105,0.035,0.203,0.097,0.307,0.146C24.118,16.465,23.762,20.622,22.035,22.522z" fill="#00bcf0"/>
</g>

</svg>
