
<svg
   xmlns:dc="http://purl.org/dc/elements/1.1/"
   xmlns:cc="http://creativecommons.org/ns#"
   xmlns:rdf="http://www.w3.org/1999/02/22-rdf-syntax-ns#"
   xmlns:svg="http://www.w3.org/2000/svg"
   xmlns="http://www.w3.org/2000/svg"
   xml:space="preserve"
   style="enable-background:new 0 0 236.562 236.561;"
   viewBox="0 0 236.562 236.561"
   height="100px"
   width="100px"
   y="0px"
   x="0px"
   version="1.1">


<path
   d="m 218.78356,118.27849 c 0,55.51733 -45.00321,100.52053 -100.52455,100.52053 -55.51331,0 -100.520523,-45.0032 -100.520523,-100.52053 0,-55.513305 45.007213,-100.520522 100.520523,-100.520522 55.52134,0 100.52455,45.007217 100.52455,100.520522"
   style="fill:#49a8d8;fill-opacity:1;fill-rule:nonzero;stroke:none;stroke-width:0.40145582"
   id="path26" /><path
   d="m 73.312016,14.674793 c -0.814956,0 -1.585751,-0.477739 -1.922974,-1.272617 -0.457659,-1.063868 0.04013,-2.296328 1.104005,-2.745964 14.492555,-6.174393 29.892403,-9.3017332 45.765963,-9.3017332 7.15796,0 14.32396,0.6503662 21.30126,1.9350234 1.13611,0.208749 1.89084,1.3007197 1.67809,2.4368304 -0.20875,1.1361235 -1.29671,1.9069204 -2.43284,1.6821089 -6.7324,-1.2364951 -13.64548,-1.8667768 -20.54651,-1.8667768 -15.30751,0 -30.153347,3.01895 -44.128023,8.9645103 z M 204.40341,44.446758 c -0.57408,0 -1.15619,-0.236878 -1.56567,-0.706573 -5.95761,-6.752478 -12.71411,-12.790378 -20.09286,-17.945069 -0.94745,-0.662407 -1.18029,-1.971145 -0.51789,-2.918591 0.6624,-0.943412 1.96714,-1.180277 2.91457,-0.513861 7.65175,5.343381 14.66117,11.602071 20.83556,18.603467 0.76277,0.871156 0.68247,2.191947 -0.1887,2.958722 -0.39343,0.349277 -0.88722,0.521905 -1.38502,0.521905 z M 13.555318,73.158876 12.696201,72.974208 c -1.055828,-0.477738 -1.521517,-1.718243 -1.047799,-2.774066 2.553259,-5.64848 5.58425,-11.144417 9.016697,-16.33122 0.634301,-0.967506 1.935018,-1.232473 2.902526,-0.590138 0.963495,0.638312 1.228455,1.93501 0.590141,2.898506 -3.307997,5.002136 -6.23461,10.301364 -8.69152,15.749113 -0.349266,0.774806 -1.112032,1.232473 -1.910928,1.232473 z m 210.354832,2.147782 c -0.81094,0 -1.58977,-0.477726 -1.931,-1.272617 -2.3405,-5.491914 -5.15068,-10.843314 -8.3543,-15.909687 -0.61824,-0.975536 -0.32919,-2.268225 0.65036,-2.886466 0.98357,-0.622263 2.27625,-0.325183 2.88647,0.650353 3.32405,5.251041 6.24264,10.807193 8.67144,16.499839 0.45767,1.063855 -0.0362,2.296328 -1.104,2.749973 z M 3.4667318,117.55989 h -0.052184 c -1.1521784,-0.028 -2.0715127,-0.98759 -2.0434097,-2.14378 0.2288297,-9.36997 1.5696916,-18.671703 3.9864554,-27.648266 0.3051062,-1.120061 1.4492559,-1.782455 2.5693181,-1.473334 1.1160467,0.301089 1.774434,1.449253 1.4773564,2.565305 -2.3364728,8.651367 -3.6251456,17.619885 -3.8459466,26.656665 -0.02809,1.14013 -0.9554648,2.04341 -2.0915845,2.04341 z M 213.98617,183.82017 c -0.39746,0 -0.7989,-0.11646 -1.1562,-0.35328 -0.9635,-0.63832 -1.22846,-1.93903 -0.58613,-2.90252 12.26849,-18.475 18.752,-40.01311 18.752,-62.28588 0,-1.15619 0.9394,-2.09559 2.0956,-2.09559 1.15619,0 2.09159,0.9394 2.09159,2.09559 0,23.09977 -6.72439,45.43677 -19.45053,64.60228 -0.40547,0.6062 -1.06788,0.9394 -1.74633,0.9394 z m -159.072872,32.3453 c -0.397441,0 -0.7989,-0.11239 -1.15218,-0.34526 -19.245793,-12.75424 -34.17192,-30.69129 -43.168545,-51.8721 -0.453645,-1.06386 0.04417,-2.29231 1.108018,-2.74596 1.055829,-0.44562 2.296327,0.0401 2.749972,1.10801 8.671446,20.42608 23.067651,37.7208 41.622941,50.01739 0.963495,0.63831 1.228455,1.93502 0.590141,2.90253 -0.401455,0.6062 -1.071888,0.93539 -1.750347,0.93539 z m 99.512872,13.22796 c -0.87918,0 -1.69415,-0.554 -1.9872,-1.43319 -0.36131,-1.09999 0.23283,-2.28429 1.32882,-2.64962 8.53094,-2.82623 16.72465,-6.69226 24.36436,-11.48565 0.98355,-0.61824 2.26821,-0.32116 2.88244,0.6584 0.61824,0.97955 0.32116,2.27224 -0.65838,2.88647 -7.91671,4.97403 -16.41955,8.98458 -25.27165,11.91922 z m -36.04271,5.81309 c -1.15619,0 -2.0956,-0.9354 -2.0956,-2.09159 -0.004,-1.1562 0.9354,-2.0956 2.09159,-2.0956 6.02184,-0.008 12.05171,-0.49379 17.92903,-1.44122 1.13611,-0.18066 2.21202,0.59415 2.39668,1.7383 0.18466,1.14013 -0.59013,2.21603 -1.73027,2.40071 -6.09811,0.97955 -12.3528,1.48137 -18.59143,1.4894"
   style="fill:#49a8d8;fill-opacity:1;fill-rule:nonzero;stroke:none;stroke-width:0.40145582"
   id="path28" /><path
   d="m 99.820146,149.89314 c -12.525422,-0.43759 -20.357825,-9.42618 -22.429336,-16.72867 3.484635,0.66241 6.917083,0.52992 10.333473,-0.30912 l 0.34525,-0.16057 c -6.784603,-1.57772 -12.019588,-5.21089 -15.652761,-11.0601 -2.416766,-3.89011 -3.572959,-8.14153 -3.53281,-12.81848 3.384269,1.81056 6.925109,2.82223 10.722883,2.92259 -5.102504,-3.67734 -8.518894,-8.47874 -9.919974,-14.621025 -1.389037,-6.134237 -0.489774,-11.963375 2.585377,-17.459312 13.051326,15.371746 29.575252,23.798297 49.716292,25.187337 -0.14052,-0.95546 -0.28905,-1.79451 -0.38942,-2.63756 -0.67043,-5.672572 0.4657,-10.959747 3.5288,-15.761152 3.8299,-6.017828 9.30977,-9.751369 16.34729,-10.895511 8.10138,-1.332845 15.18305,0.979546 21.10051,6.716356 0.39745,0.385399 0.72664,0.509839 1.28467,0.385399 4.94995,-1.075908 9.6229,-2.862385 14.01883,-5.391556 l 0.31715,-0.164609 0.16058,-0.01591 c -1.9029,5.608336 -5.37951,9.928006 -10.31742,13.119571 4.66491,-0.509838 9.12108,-1.750343 13.42068,-3.613098 l 0.0964,0.108442 c -0.91935,1.208379 -1.81058,2.440852 -2.76604,3.613097 -2.56128,3.155443 -5.49995,5.92951 -8.7678,8.330219 l -0.39744,0.758744 c 0.13649,3.572958 -0.004,7.149928 -0.44962,10.702808 -0.92336,7.48716 -3.01494,14.63308 -6.21053,21.46183 -3.30398,7.04154 -7.60759,13.41265 -13.03125,19.00091 -9.17728,9.49042 -20.24542,15.61663 -33.12413,18.45894 -4.41602,0.97153 -8.90429,1.46933 -13.4287,1.5978 -13.898399,0.40948 -26.749002,-3.04705 -38.571877,-10.35354 l -0.566052,-0.36935 c 8.414515,0.90729 16.411516,-0.16861 24.111438,-3.32405 4.090836,-1.67407 7.876563,-3.86603 11.465578,-6.68022"
   style="fill:#ffffff;fill-opacity:1;fill-rule:evenodd;stroke:none;stroke-width:0.40145582"
   id="path30" /></svg>