<?xml version="1.0" encoding="utf-8"?>
<!-- Generator: Adobe Illustrator 19.1.1, SVG Export Plug-In . SVG Version: 6.00 Build 0)  -->
<svg version="1.1" id="Слой_1" xmlns="http://www.w3.org/2000/svg" xmlns:xlink="http://www.w3.org/1999/xlink" x="0px" y="0px"
	 viewBox="0 0 283.5 283.5" style="enable-background:new 0 0 283.5 283.5;" xml:space="preserve">
<style type="text/css">
	.st0{fill:#FFFFFF;}
	.st1{fill:#CA4C44;}
</style>
<g>
	<path class="st0" d="M157.1,17.7c6.5-2,13.2-3.3,20-4.4c6.1-0.6,12.3-0.6,18.5-0.5c1.5-0.5,2.3,1,3.3,1.7c-3,0.7-5.9,1.9-8.7,3.1
		c-20.5,9.6-35.5,31.6-33.6,54.5c2.8,0.8,5.7,1.4,8.5,2.4c0.5,0.1,1.4,0.4,1.8,0.5c2.3,0.9,4.7,1.7,7,2.6
		c6.8,3.1,13.6,6.4,19.5,11.1c7.5,5.7,13.7,13,18.1,21.3c1.1,2.4,2.2,4.8,3.2,7.2c3.3,8.9,4.7,18.3,4.3,27.7
		c0.4,8.6-1.3,17.1-4.3,25.2c-0.6,1.5-1.1,2.9-1.8,4.3c-0.5,1-0.9,1.9-1.3,2.9c-4.3,8.8-10.3,16.9-17.6,23.4
		c-10.5,9.5-23.8,16-37.8,18l-0.6,0.5c-5.8,0-11.7,1.7-17.5,0.5c-28.8-1.4-54.6-21.1-66.6-46.8c-1.3-2.8-2.4-5.8-3.5-8.7
		c-4.6-13.5-5.5-27.8-4.4-41.9l0.4-0.7c0.6-8.4,3-16.7,5.7-24.6c0.6-1.5,1.1-2.9,1.7-4.4c7.7-18.8,20.1-35.7,35.8-48.7
		c9.9-8,21-14.7,32.7-19.8C145.4,21.5,151.2,19.6,157.1,17.7z"/>
	<path class="st1" d="M122.8,1c3.9-0.1,7.7-0.6,11.6-0.9c6.3-0.2,12.6,0,19,0c5.1,0.9,10.3,1.1,15.4,2.3c10.9,2,21.4,5.7,31.7,9.8
		l-0.6,1.8c1.1-0.1,2.3-0.2,3.4-0.2c12.9,6.4,25.1,14.5,35.6,24.5c8.4,8,16,16.8,22.2,26.7c22.4,34.2,28.3,78.3,16.4,117.3
		c-6.1,19.9-16.5,38.5-30.7,53.8c-24.4,27.3-60,44.3-96.6,46.2c-5.8,0.1-11.7,0.1-17.5,0c-21.8-1.2-43.1-7.8-62.1-18.5
		c-2.8-1.7-5.5-3.4-8.1-5.2C23.7,232.8-1.4,187.1,0.1,140.6c-0.9-36.5,14.8-72.3,40-98.4c4-3.8,8-7.5,12.2-11
		C72.5,14.9,97.1,4.4,122.8,1 M157.1,17.7c-5.9,1.9-11.7,3.8-17.3,6.4c-11.7,5.1-22.7,11.8-32.7,19.8C91.4,56.8,79,73.7,71.3,92.5
		c-0.6,1.5-1.1,2.9-1.7,4.4c-2.7,8-5.1,16.2-5.7,24.6l-0.4,0.7c-1,14.1-0.2,28.5,4.4,41.9c1.1,2.9,2.2,5.8,3.5,8.7
		c11.9,25.7,37.8,45.4,66.6,46.8c5.8,1.3,11.6-0.5,17.5-0.5l0.6-0.5c14-2,27.4-8.5,37.8-18c7.3-6.6,13.3-14.6,17.6-23.4
		c0.4-1,0.9-1.9,1.3-2.9c0.6-1.4,1.2-2.9,1.8-4.3c2.9-8.1,4.7-16.6,4.3-25.2c0.4-9.4-1-18.9-4.3-27.7c-1-2.4-2.1-4.8-3.2-7.2
		c-4.3-8.3-10.6-15.6-18.1-21.3c-5.9-4.7-12.7-8-19.5-11.1c-2.3-0.9-4.7-1.7-7-2.6c-0.5-0.1-1.4-0.4-1.8-0.5c-2.8-1-5.6-1.6-8.5-2.4
		c-1.8-22.9,13.2-45,33.6-54.5c2.8-1.2,5.7-2.4,8.7-3.1c-1-0.7-1.8-2.2-3.3-1.7c-6.2-0.1-12.4,0-18.5,0.5
		C170.3,14.5,163.6,15.7,157.1,17.7z"/>
</g>
</svg>
