<?xml version="1.0" encoding="iso-8859-1"?>
<!-- Generator: Adobe Illustrator 16.0.0, SVG Export Plug-In . SVG Version: 6.00 Build 0)  -->
<!DOCTYPE svg PUBLIC "-//W3C//DTD SVG 1.1//EN" "http://www.w3.org/Graphics/SVG/1.1/DTD/svg11.dtd">
<svg version="1.1" id="Capa_1" xmlns="http://www.w3.org/2000/svg" xmlns:xlink="http://www.w3.org/1999/xlink" x="0px" y="0px"
	 width="35px" height="35px" viewBox="0 0 512 512" style="enable-background:new 0 0 512 512;" xml:space="preserve">
<g>
	<path d="M256,512c141.385,0,256-114.615,256-256S397.385,0,256,0C114.615,0,0,114.615,0,256S114.615,512,256,512z M256,48
		c114.875,0,208,93.125,208,208s-93.125,208-208,208S48,370.875,48,256S141.125,48,256,48z M271.37,355.514
		c70.124-13.853,124.556-45.771,144.228-88.297C404.77,351.195,334.838,416,250.172,416c-59.621,0-111.929-32.141-141.446-80.475
		C143.931,363.055,205.993,368.43,271.37,355.514z M320,176c0,26.51,14.326,48,32,48s32-21.49,32-48s-14.326-48-32-48
		S320,149.49,320,176z M176,185.75c-20.898,0-38.667,7.828-45.258,18.75c-1.77-2.933-2.742-16.087-2.742-19.375
		C128,169.592,149.49,157,176,157s48,12.592,48,28.125c0,3.288-0.972,16.442-2.742,19.375
		C214.667,193.578,196.898,185.75,176,185.75z"/>
</g>

</svg>
