<?xml version="1.0" encoding="UTF-8" standalone="no"?>
<!-- Created with Inkscape (http://www.inkscape.org/) -->

<svg
   xmlns:dc="http://purl.org/dc/elements/1.1/"
   xmlns:cc="http://creativecommons.org/ns#"
   xmlns:rdf="http://www.w3.org/1999/02/22-rdf-syntax-ns#"
   xmlns:svg="http://www.w3.org/2000/svg"
   xmlns="http://www.w3.org/2000/svg"
   xmlns:sodipodi="http://sodipodi.sourceforge.net/DTD/sodipodi-0.dtd"
   xmlns:inkscape="http://www.inkscape.org/namespaces/inkscape"
   id="svg2"
   version="1.1"
   inkscape:version="0.91 r13725"
   xml:space="preserve"
   width="861"
   height="624.41248"
   viewBox="0 0 861 624.41248"
   sodipodi:docname="CityForEvolventa_new.svg"
   inkscape:export-filename="/home/alexey/Документы/2_PROJECTS/CityFor/CityFor_logo/CityForEvolventa_new_logo.png"
   inkscape:export-xdpi="78"
   inkscape:export-ydpi="78"><metadata
     id="metadata8"><rdf:RDF><cc:Work
         rdf:about=""><dc:format>image/svg+xml</dc:format><dc:type
           rdf:resource="http://purl.org/dc/dcmitype/StillImage" /><dc:title></dc:title></cc:Work></rdf:RDF></metadata><defs
     id="defs6" /><sodipodi:namedview
     pagecolor="#ffffff"
     bordercolor="#666666"
     borderopacity="1"
     objecttolerance="10"
     gridtolerance="10"
     guidetolerance="10"
     inkscape:pageopacity="0"
     inkscape:pageshadow="2"
     inkscape:window-width="1613"
     inkscape:window-height="986"
     id="namedview4"
     showgrid="false"
     inkscape:zoom="0.26177751"
     inkscape:cx="891.97885"
     inkscape:cy="304.56616"
     inkscape:window-x="67"
     inkscape:window-y="27"
     inkscape:window-maximized="1"
     inkscape:current-layer="g10"
     showguides="true"
     inkscape:guide-bbox="true"><sodipodi:guide
       position="1252.9724,103.14102"
       orientation="0,1"
       id="guide3597" /><sodipodi:guide
       position="1065.7906,500.42497"
       orientation="0,1"
       id="guide3638" /></sodipodi:namedview><g
     inkscape:groupmode="layer"
     id="layer1"
     inkscape:label="ink_ext_XXXXXX 1"
     style="display:inline" /><g
     inkscape:groupmode="layer"
     id="layer2"
     inkscape:label="ink_ext_XXXXXX 2"><g
       id="g10"
       inkscape:groupmode="layer"
       inkscape:label="ink_ext_XXXXXX"
       transform="matrix(1.25,0,0,-1.25,0,624.4125)"
       style="display:inline"><g
         id="g3641"
         transform="translate(-278.4,0)"><rect
           transform="matrix(0.8,0,0,-0.8,0,499.53)"
           y="5.1451559"
           x="348.52325"
           height="618.84619"
           width="859.50861"
           id="rect3571"
           style="display:inline;fill:#333333" /><g
           transform="matrix(0.45428186,0,0,0.45428186,377.82095,156.09856)"
           id="g3616"><path
             inkscape:connector-curvature="0"
             id="path14"
             style="fill:#ffffff;fill-opacity:1;fill-rule:nonzero;stroke:none"
             d="m 143.322,134.037 27.377,0 0,27.375 -27.377,0 0,-27.375 z" /><path
             inkscape:connector-curvature="0"
             id="path16"
             style="fill:#ffffff;fill-opacity:1;fill-rule:nonzero;stroke:none"
             d="m 106.3367,134.037 27.3672,0 0,27.375 -27.3672,0 0,-27.375 z" /><path
             inkscape:connector-curvature="0"
             id="path18"
             style="fill:#ffffff;fill-opacity:1;fill-rule:nonzero;stroke:none"
             d="m 106.3367,171.037 27.3672,0 0,27.3738 -27.3672,0 0,-27.3738 z" /><path
             inkscape:connector-curvature="0"
             id="path20"
             style="fill:#ffffff;fill-opacity:1;fill-rule:nonzero;stroke:none"
             d="m 143.322,171.037 27.377,0 0,27.3738 -27.377,0 0,-27.3738 z" /><g
             id="g3591"><path
               d="m 240.879,181.647 -10.664,0 0,-93.388 c 0,-7.253 -5.889,-13.135 -13.145,-13.135 l -157.2946,0 c -7.2672,0 -13.1473,5.882 -13.1473,13.135 l 0,93.388 -10.4683,0 c -4.9793,4.971 -4.9793,13.026 0,17.997 l 28.3371,28.346 0,51.186 c 0,3.628 2.934,6.559 6.5617,6.559 l 14.7891,0 c 3.6277,0 6.5652,-2.931 6.5652,-6.559 l 0,-23.26 37.1121,37.098 c 4.959,4.96 13.023,4.96 17.985,0 l 93.369,-93.37 c 4.979,-4.971 4.979,-13.026 0,-17.997 z m 11.612,29.609 -93.378,93.388 c -5.492,5.495 -12.807,8.521 -20.598,8.521 -7.777,0 -15.092,-3.026 -20.605,-8.533 l -12.8448,-12.845 c -4.1168,6.243 -11.1914,10.381 -19.2175,10.381 l -14.7891,0 c -12.6762,0 -22.9871,-10.32 -22.9871,-22.992 l 0,-44.389 -23.52697,-23.531 C 19.03203,205.745 16,198.431 16,190.644 c 0,-7.774 3.03203,-15.109 8.54453,-20.6 l 5.66097,-2.359 0,-79.426 c 0,-16.291 13.2687,-29.557 29.5699,-29.557 l 157.2946,0 c 16.304,0 29.558,13.266 29.558,29.557 l 0,79.35 5.863,2.435 c 5.512,5.491 8.544,12.826 8.544,20.6 0,7.787 -3.032,15.101 -8.544,20.612"
               style="fill:#ffffff;fill-opacity:1;fill-rule:nonzero;stroke:none"
               id="path22"
               inkscape:connector-curvature="0" /><path
               d="m 94.4961,338.871 c 0,-8.166 -6.6152,-14.791 -14.7891,-14.791 -8.1683,0 -14.7804,6.625 -14.7804,14.791 0,8.163 6.6121,14.785 14.7804,14.785 8.1739,0 14.7891,-6.622 14.7891,-14.785"
               style="fill:#ffffff;fill-opacity:1;fill-rule:nonzero;stroke:none"
               id="path24"
               inkscape:connector-curvature="0" /><path
               d="m 152.551,369.533 c 0,-11.194 -9.078,-20.256 -20.269,-20.256 -11.192,0 -20.2609,9.062 -20.2609,20.256 0,11.192 9.0689,20.265 20.2609,20.265 11.191,0 20.269,-9.073 20.269,-20.265"
               style="fill:#ffffff;fill-opacity:1;fill-rule:nonzero;stroke:none"
               id="path26"
               inkscape:connector-curvature="0" /><path
               d="m 235.79,379.393 c 0,-14.213 -11.527,-25.737 -25.744,-25.737 -14.209,0 -25.741,11.524 -25.741,25.737 0,14.218 11.532,25.74 25.741,25.74 14.217,0 25.744,-11.522 25.744,-25.74"
               style="fill:#ffffff;fill-opacity:1;fill-rule:nonzero;stroke:none"
               id="path28"
               inkscape:connector-curvature="0" /></g></g><g
           transform="matrix(1.2814791,0,0,1.2814791,-50.47124,3.3666809)"
           id="g3605"><path
             style="font-variant:normal;font-weight:normal;font-size:medium;font-family:Evolventa;-inkscape-font-specification:Evolventa-Regular;writing-mode:lr-tb;fill:#ffffff;fill-opacity:1;fill-rule:nonzero;stroke:none"
             d="m 500.47259,128.50326 q 0,0 26.37622,0 -35.95331,-66.56858 -108.64493,-66.56858 -26.21923,0 -49.45543,9.42008 -23.2362,9.42009 -39.72134,25.59123 -16.48514,16.32814 -26.06223,38.93633 -9.57708,22.7652 -9.57708,48.35642 0,35.0113 15.85714,63.27154 16.01414,28.41725 44.11738,44.43139 28.26024,16.01414 63.11454,16.01414 36.89533,0 66.25457,-17.74115 29.35926,-17.58416 43.17538,-48.19942 l -26.69023,0 q -6.90807,11.14709 -12.87412,17.42714 -5.96604,6.28007 -14.44412,11.61811 -23.8642,15.07213 -54.32246,15.07213 -21.03819,0 -39.56435,-7.85007 -18.52616,-7.69306 -31.87127,-21.19518 -13.18812,-13.34512 -20.88118,-32.02827 -7.69307,-18.68317 -7.69307,-39.87835 0,-20.56718 7.85007,-39.40734 8.00707,-18.68316 21.50918,-32.34228 13.50212,-13.50212 32.02828,-21.50919 18.52616,-8.00707 38.93634,-8.00707 16.64214,0 32.18527,5.33805 15.70014,5.33805 27.94625,15.22913 11.4611,9.57708 22.45119,24.02121 z"
             id="path3392"
             inkscape:connector-curvature="0" /><g
             id="g3560"
             transform="translate(-24,-75.2)"
             style="fill:#ffffff"><path
               inkscape:connector-curvature="0"
               id="path3394"
               style="font-variant:normal;font-weight:normal;font-size:77.75112152px;font-family:Evolventa;-inkscape-font-specification:Evolventa-Regular;writing-mode:lr-tb;fill:#ffffff;fill-opacity:1;fill-rule:nonzero;stroke:none"
               d="m 466.80676,230.97372 q 0,0 0,54.6875 0,0 7.42188,0 0,0 0,-54.6875 0,0 -7.42188,0 z m 0,61.2793 q 0,0 0,12.59765 0,0 7.42188,0 0,0 0,-12.59765 0,0 -7.42188,0 z" /><path
               inkscape:connector-curvature="0"
               id="path3396"
               style="font-variant:normal;font-weight:normal;font-size:77.75112152px;font-family:Evolventa;-inkscape-font-specification:Evolventa-Regular;writing-mode:lr-tb;fill:#ffffff;fill-opacity:1;fill-rule:nonzero;stroke:none"
               d="m 493.4181,230.97372 q 0,0 0,47.99805 0,0 -11.76758,0 0,0 0,6.68945 0,0 11.76758,0 0,0 0,19.18945 0,0 7.42187,0 0,0 0,-19.18945 0,0 12.30469,0 0,0 0,-6.68945 0,0 -12.30469,0 0,0 0,-47.99805 0,0 -7.42187,0 z" /><path
               inkscape:connector-curvature="0"
               id="path3398"
               style="font-variant:normal;font-weight:normal;font-size:77.75112152px;font-family:Evolventa;-inkscape-font-specification:Evolventa-Regular;writing-mode:lr-tb;fill:#ffffff;fill-opacity:1;fill-rule:nonzero;stroke:none"
               d="m 527.59778,211.78427 q 0,0 8.93555,20.99609 0,0 -21.24023,52.88086 0,0 8.10547,0 0,0 17.33398,-43.60352 0,0 18.50586,43.60352 0,0 7.86133,0 0,0 -31.59179,-73.87695 0,0 -7.91017,0 z" /></g></g><g
           transform="translate(121.6,0)"
           id="g3630"><rect
             style="display:inline;fill:#ffffff"
             id="rect3627"
             width="312.24991"
             height="511.88507"
             x="687.60681"
             y="60.686947"
             transform="matrix(0.8,0,0,-0.8,0,499.53)" /><g
             id="g3599"
             transform="matrix(1.34,0,0,1.34,-172.02106,-7.6686104)"><path
               inkscape:connector-curvature="0"
               id="path3400"
               d="m 570.02201,66.17372 q 0,0 0,237.54305 0,0 120.57704,0 0,0 0,-21.50919 0,0 -96.86985,0 0,0 0,-85.87974 0,0 93.25881,0 0,0 0,-21.50918 0,0 -93.25881,0 0,0 0,-108.64494 0,0 -23.70719,0 z"
               style="font-variant:normal;font-weight:normal;font-size:medium;font-family:Evolventa;-inkscape-font-specification:Evolventa-Regular;writing-mode:lr-tb;fill:#28292a;fill-opacity:1;fill-rule:nonzero;stroke:none" /><g
               transform="translate(-86.4,-94.4)"
               id="g3565"><path
                 d="m 720.07826,216.57958 q 7.95899,0 14.35547,-3.75977 6.44531,-3.71093 10.0586,-10.30273 3.66211,-6.5918 3.66211,-14.74609 0,-12.30469 -7.91017,-20.41016 -7.91015,-8.10547 -19.97069,-8.10547 -8.25196,0 -14.94141,3.71094 -6.68946,3.71094 -10.49805,10.2539 -3.75976,6.54297 -3.75976,14.64844 0,12.45117 8.20312,20.55664 8.20312,8.1543 20.80078,8.1543 z m -0.58593,-6.78711 q -8.98439,0 -14.94141,-6.29883 -5.95703,-6.25 -5.95703,-15.72265 0,-9.375 6.10351,-15.52735 6.10352,-6.15234 15.38086,-6.15234 9.03321,0 14.79493,6.05469 5.81054,6.10351 5.81054,15.52734 0,9.66797 -5.95704,15.86914 -5.95702,6.25 -15.23436,6.25 z"
                 style="font-variant:normal;font-weight:normal;font-size:77.75112152px;font-family:Evolventa;-inkscape-font-specification:Evolventa-Regular;writing-mode:lr-tb;fill:#28292a;fill-opacity:1;fill-rule:nonzero;stroke:none"
                 id="path3402"
                 inkscape:connector-curvature="0" /><path
                 d="m 758.60365,160.57372 q 0,0 0,54.6875 0,0 7.42187,0 0,0 0,-7.76367 2.14845,4.49219 5.81056,6.64062 3.71093,2.14844 9.66796,2.44141 l 0,-7.32422 q -15.47852,-1.46484 -15.47852,-16.79687 0,0 0,-31.88477 0,0 -7.42187,0 z"
                 style="font-variant:normal;font-weight:normal;font-size:77.75112152px;font-family:Evolventa;-inkscape-font-specification:Evolventa-Regular;writing-mode:lr-tb;fill:#28292a;fill-opacity:1;fill-rule:nonzero;stroke:none"
                 id="path3404"
                 inkscape:connector-curvature="0" /></g></g></g></g></g></g></svg>