<?xml version="1.0" encoding="UTF-8" standalone="no"?>
<svg
   xmlns:dc="http://purl.org/dc/elements/1.1/"
   xmlns:cc="http://creativecommons.org/ns#"
   xmlns:rdf="http://www.w3.org/1999/02/22-rdf-syntax-ns#"
   xmlns:svg="http://www.w3.org/2000/svg"
   xmlns="http://www.w3.org/2000/svg"
   id="svg6"
   xml:space="preserve"
   style="enable-background:new 0 0 236.562 236.561;"
   viewBox="0 0 236.562 236.561"
   height="100px"
   width="100px"
   y="0px"
   x="0px"
   version="1.1"><metadata
   id="metadata12"><rdf:RDF><cc:Work
       rdf:about=""><dc:format>image/svg+xml</dc:format><dc:type
         rdf:resource="http://purl.org/dc/dcmitype/StillImage" /><dc:title></dc:title></cc:Work></rdf:RDF></metadata><defs
   id="defs10" />


<path
   d="m 217.92027,118.3024 c 0,46.96235 -32.51455,86.37031 -76.28123,96.83425 -7.51738,1.87069 -15.32225,2.82594 -23.37894,2.82594 -2.24363,0 -4.44348,-0.0835 -6.64368,-0.25081 -51.947576,-3.40705 -93.016946,-46.63201 -93.016946,-99.40944 0,-55.06208 44.640389,-99.660215 99.660626,-99.660215 55.01833,0 99.66017,44.598135 99.66017,99.660215"
   style="fill:#324ca7;fill-opacity:1;fill-rule:nonzero;stroke:none;stroke-width:0.39801991"
   id="path20" /><path
   d="m 136.15825,228.63351 c -5.81463,0.95527 -11.79254,1.409 -17.77393,1.409 -1.163,0 -2.07574,0.95922 -2.07574,2.07766 0,1.16221 0.91274,2.07766 2.07574,2.07766 6.18798,0 12.37606,-0.49756 18.43947,-1.45277 1.11924,-0.21099 1.90765,-1.24582 1.70276,-2.40803 -0.16812,-1.12238 -1.24862,-1.87068 -2.3683,-1.70352 z m 44.30801,-14.94964 c -0.58331,-0.995 -1.8703,-1.28559 -2.8653,-0.66464 -7.5597,4.73645 -15.69874,8.59723 -24.1256,11.3754 -1.08087,0.37808 -1.70231,1.54034 -1.32942,2.61898 0.28771,0.87169 1.11922,1.45277 1.99327,1.45277 l 0.62167,-0.12328 c 8.8046,-2.90954 17.23146,-6.8937 25.07841,-11.79333 0.95563,-0.62088 1.24828,-1.91051 0.62617,-2.86575 z M 56.598101,211.52661 C 38.200368,199.35516 23.958867,182.20845 15.318979,161.94128 c -0.411804,-1.07859 -1.66043,-1.53235 -2.697287,-1.11841 -1.080858,0.45377 -1.536336,1.70352 -1.11922,2.74236 8.924419,21.00748 23.749114,38.78306 42.8106,51.44804 0.329441,0.20694 0.745764,0.33036 1.161417,0.33036 0.665659,0 1.329072,-0.33036 1.702402,-0.95528 0.665672,-0.95123 0.373456,-2.24087 -0.57879,-2.86177 z M 232.12332,116.22472 c -1.16311,0 -2.08049,0.91546 -2.08049,2.07768 0,22.04632 -6.43201,43.43193 -18.60262,61.74482 -0.62166,0.95529 -0.37345,2.24484 0.5833,2.86573 0.33058,0.25082 0.74576,0.33036 1.11922,0.33036 0.7074,0 1.37319,-0.28657 1.74606,-0.9115 12.62484,-18.97361 19.31038,-41.15128 19.31038,-64.02946 0,-1.16223 -0.95674,-2.07766 -2.07575,-2.07766 z M 8.885391,86.576218 c -1.1226019,-0.290525 -2.2419344,0.3343 -2.5763484,1.452775 -2.3678455,8.931576 -3.6971445,18.145737 -3.9459258,27.407657 0,1.16221 0.8755237,2.11746 2.0366002,2.15726 h 0.033818 c 1.1237372,0 2.0367135,-0.91151 2.0804892,-2.03388 0.205334,-8.96738 1.4925492,-17.855181 3.8166208,-26.4524 0.291092,-1.078599 -0.3734435,-2.240849 -1.4504656,-2.531412 z M 224.89678,72.788809 c -2.40993,-5.647899 -5.27374,-11.16843 -8.59801,-16.358607 -0.5788,-0.955287 -1.86544,-1.245811 -2.86371,-0.664649 -0.95675,0.624934 -1.24378,1.91049 -0.62167,2.861761 3.15628,5.026985 5.97824,10.344533 8.26372,15.781495 0.37345,0.792024 1.11922,1.289575 1.90765,1.289575 l 0.83151,-0.167188 c 1.03799,-0.457738 1.53599,-1.703538 1.08085,-2.742362 z M 24.370785,53.855003 c -0.952233,-0.66465 -2.242048,-0.374126 -2.863717,0.58116 -3.405043,5.150371 -6.436744,10.587335 -8.929151,16.195434 -0.497562,1.034824 -0.03382,2.284625 0.999619,2.738374 l 0.871005,0.167201 c 0.788643,0 1.534761,-0.457725 1.912494,-1.206 2.405198,-5.397162 5.312678,-10.670916 8.593173,-15.610352 0.621656,-0.955286 0.373442,-2.244826 -0.583309,-2.865743 z M 205.21352,41.647736 c -6.1056,-6.93749 -13.07896,-13.166499 -20.63966,-18.436286 -0.95223,-0.66871 -2.24205,-0.457729 -2.90275,0.497557 -0.66567,0.955285 -0.41633,2.240853 0.53704,2.865743 7.31036,5.146401 13.99589,11.128642 19.893,17.811398 0.41181,0.457728 0.99511,0.708424 1.57819,0.708424 0.49755,0 0.95224,-0.171169 1.36833,-0.541334 0.87101,-0.748251 0.95563,-2.037869 0.16586,-2.905547 z M 139.35355,4.2736702 C 132.46268,3.0278624 125.36082,2.363167 118.2601,2.363167 c -15.73892,0 -31.017723,3.1164967 -45.388189,9.218149 -1.036856,0.457729 -1.534748,1.663722 -1.076341,2.742347 0.329441,0.78808 1.076341,1.245809 1.907749,1.245809 l 0.789778,-0.167208 C 88.361709,9.5075887 103.06184,6.5144768 118.25976,6.5144768 c 6.85195,0 13.70504,0.6249353 20.34723,1.8707003 1.163,0.2069206 2.24363,-0.5413326 2.44863,-1.7035273 0.20986,-1.1184294 -0.5393,-2.1970663 -1.7024,-2.408014"
   style="fill:#324ca7;fill-opacity:1;fill-rule:nonzero;stroke:none;stroke-width:0.39801991"
   id="path22" /><path
   d="m 141.68237,99.905906 c -0.167,6.185234 -0.25273,20.513944 -0.25273,20.513944 0,0 15.98768,0 22.96375,0 h 5.52422 c -1.28722,9.88284 -2.53427,19.39155 -3.77804,28.94402 h -24.50008 v 65.77278 c -7.51739,1.87069 -15.32225,2.82594 -23.37893,2.82594 -2.24363,0 -4.44349,-0.0835 -6.64368,-0.25081 V 149.2763 H 87.074948 v -28.85645 h 24.709812 v -2.16125 c 0,-5.81107 -0.12411,-11.58635 0,-17.39743 0.1241,-3.697615 0.28771,-7.431036 0.91276,-11.088849 1.53644,-8.800226 5.605,-16.235238 12.95597,-21.548799 6.43676,-4.613036 13.78626,-6.479761 21.59102,-6.646932 5.10733,-0.123438 10.17293,0.123312 15.28039,0.3343 2.78294,0.167199 5.56586,0.541333 8.1809,0.788083 V 88.52648 h -2.03196 c -4.98312,0 -9.92733,-0.123413 -14.91022,0.04404 -6.80964,0.2507 -11.83192,2.821979 -12.08068,11.335612"
   style="fill:#ffffff;fill-opacity:1;fill-rule:evenodd;stroke:none;stroke-width:0.39801991"
   id="path24" /></svg>