<svg version="1.1" xmlns="http://www.w3.org/2000/svg" xmlns:xlink="http://www.w3.org/1999/xlink" x="0px" y="0px"
	 width="40px" height="40px" viewBox="0 0 457.219 457.219" style="enable-background:new 0 0 457.219 457.219;"
	 xml:space="preserve">
<g>
	<path d="M335.842,261.456h-20.876c-3.916-20.76-12.334-40.449-24.619-57.601l14.492-14.495c1.41-1.411,2.203-3.325,2.203-5.324
		c0-1.995-0.793-3.91-2.203-5.319l-25.292-25.291c-2.945-2.936-7.704-2.936-10.65,0l-14.917,14.922
		c-17.006-11.628-36.311-19.53-56.495-23.109v-21.193c0-4.156-3.374-7.529-7.529-7.529h-35.768c-4.156,0-7.529,3.374-7.529,7.529
		v21.193c-20.345,3.609-39.795,11.598-56.896,23.371l-14.525-14.512c-2.941-2.944-7.705-2.944-10.646,0l-25.289,25.292
		c-1.412,1.411-2.208,3.33-2.208,5.324c0,1.995,0.796,3.913,2.208,5.325l14.223,14.213c-12.142,17.082-20.458,36.624-24.345,57.204
		H10.195c-4.16,0-7.533,3.366-7.533,7.53v35.761c0,4.162,3.374,7.533,7.533,7.533h18.35c3.453,20.739,11.458,40.587,23.423,58.074
		l-13.335,13.33c-2.944,2.946-2.944,7.71,0,10.65l25.291,25.297c1.407,1.41,3.331,2.209,5.325,2.209
		c1.994,0,3.911-0.799,5.321-2.209l12.917-12.91c17.628,12.618,37.855,21.151,59.172,24.92v18.046c0,4.159,3.373,7.531,7.529,7.531
		h35.768c4.156,0,7.529-3.372,7.529-7.531v-18.046c21.142-3.736,41.24-12.176,58.772-24.652l13.308,13.311
		c2.824,2.821,7.825,2.821,10.648,0l25.294-25.293c2.941-2.945,2.941-7.705,0-10.649l-13.611-13.606
		c12.121-17.595,20.208-37.573,23.688-58.476h20.258c4.152,0,7.528-3.371,7.528-7.536v-35.758
		C343.37,264.822,340.002,261.456,335.842,261.456z M173.023,366.245c-43.837,0-79.378-35.541-79.378-79.376
		c0-43.837,35.536-79.372,79.378-79.372c43.838,0,79.376,35.535,79.376,79.372C252.399,330.704,216.856,366.245,173.023,366.245z
		 M203.141,286.869c0,16.634-13.489,30.122-30.118,30.122c-16.632,0-30.119-13.488-30.119-30.122
		c0-16.636,13.486-30.119,30.119-30.119C189.651,256.75,203.141,270.233,203.141,286.869z M450.961,118.12l-10.101-4.35
		c2.714-11.902,2.797-24.216,0.229-36.059l10.752-4.273c2.205-0.882,3.283-3.379,2.415-5.587l-7.559-18.991
		c-0.879-2.213-3.376-3.289-5.591-2.408l-11.083,4.408c-6.467-10.192-15.091-18.87-25.236-25.382l4.63-10.758
		c0.459-1.048,0.472-2.225,0.043-3.294c-0.415-1.057-1.247-1.914-2.292-2.356l-18.775-8.09c-2.176-0.937-4.711,0.074-5.65,2.245
		l-4.768,11.08c-11.489-2.578-23.409-2.696-34.878-0.342l-4.482-11.25c-0.881-2.208-3.385-3.283-5.593-2.41l-18.985,7.56
		c-2.207,0.878-3.285,3.384-2.413,5.587l4.474,11.255c-10.035,6.208-18.668,14.563-25.27,24.424l-10.769-4.637
		c-2.188-0.941-4.715,0.065-5.658,2.246l-8.087,18.772c-0.449,1.053-0.472,2.229-0.042,3.294c0.419,1.059,1.246,1.91,2.296,2.358
		l10.55,4.55c-2.835,11.628-3.124,23.765-0.842,35.514l-10.08,4.013c-2.205,0.878-3.283,3.379-2.405,5.587l7.55,18.988
		c0.888,2.213,3.381,3.292,5.591,2.411l9.752-3.877c6.211,10.288,14.653,19.136,24.7,25.891l-4.263,9.896
		c-0.934,2.187,0.065,4.72,2.25,5.661l18.771,8.085c1.05,0.449,2.232,0.471,3.286,0.044c1.057-0.418,1.91-1.247,2.358-2.29
		l4.128-9.581c12.027,2.974,24.568,3.231,36.685,0.733l3.807,9.576c0.881,2.213,3.381,3.289,5.593,2.41l18.989-7.554
		c2.209-0.876,3.283-3.385,2.411-5.587l-3.812-9.582c10.435-6.448,19.321-15.173,26.002-25.505l9.876,4.257
		c2.096,0.897,4.754-0.15,5.654-2.246l8.087-18.771C454.153,121.587,453.141,119.062,450.961,118.12z M376.782,136.487
		c-23.271,9.256-49.647-2.101-58.9-25.379c-9.257-23.275,2.101-49.645,25.376-58.911c23.271-9.25,49.646,2.106,58.915,25.376
		C411.426,100.851,400.061,127.226,376.782,136.487z M376.017,87.978c3.515,8.832-0.799,18.84-9.629,22.353
		c-8.834,3.513-18.836-0.801-22.36-9.633c-3.502-8.832,0.804-18.837,9.633-22.351C362.489,74.834,372.504,79.149,376.017,87.978z"/>
</g>
</svg>
