<svg version="1.1" xmlns="http://www.w3.org/2000/svg" width="40px" height="40px" viewBox="0 0 490 490" xmlns:xlink="http://www.w3.org/1999/xlink" enable-background="new 0 0 490 490">
  <g>
    <path d="m245,0c-134.5,0-245,110.5-245,245s110.5,245 245,245 245-110.5 245-245-110.5-245-245-245zm66.7,118.9c0-11.5 9.4-20.8 20.8-20.8 11.5,0 20.8,9.4 20.8,20.8 0.1,11.4-9.3,20.8-20.7,20.8-1,0-1,0-2.1,0-10.4-1-18.8-9.4-18.8-20.8zm22.5,147.4c-3.1,11-14.6,17.5-25.7,14.5-11-3.1-17.6-14.6-14.5-25.7s14.6-17.6 25.7-14.5c12.1,3.3 17.6,14.6 14.5,25.7zm-7.9-230c0,14.6-0.1,28.6-0.8,42.5-19.6,3.4-34.6,20.6-34.6,41.1 0,18.6 11.3,34.2 28.1,39.7-2.5,20.2-5.3,40.4-9.2,60.6-10.1,1-19.4,5.6-26.3,12.9-25.8-16.3-49.4-35.4-69.3-56.2 11.2-14.3 11.9-34.4 1.7-49.4 34.9-32.5 71.6-63.2 110.1-91.3 0.1,0 0.2,0.1 0.3,0.1zm-81.3-15.5c19.5,0.1 38.4,2.6 56.5,7.4-35.6,26.2-69.6,55.2-101.4,85.7-10.5-5.2-22.8-5.8-33.7-1.6-11.7-20.1-20.9-41.5-28-64.2 31.8-17.4 68.1-27.3 106.6-27.3zm-48.5,144.8c-8.3,7.9-21.6,7.6-29.5-0.7-7.9-8.3-7.5-21.6 0.8-29.5s21.6-7.6 29.5,0.7c7.9,8.3 7.5,21.6-0.8,29.5zm-76.4-106.3c7.3,22.6 17.1,44.6 29.2,65.4-11,13.3-12.5,32-4.3,46.8-15.9,17.8-31.6,36.3-46,55.6-9.1-2.8-18.8-2.4-27.5,1-13.3-21.8-24.5-44.3-33.5-68.3 16.9-40.9 45.8-75.9 82.1-100.5zm-15.4,218c-6.2,9.7-19.1,12.5-28.8,6.3s-12.5-19.2-6.3-28.8c6.2-9.7 19.1-12.5 28.8-6.3s12.5,19.1 6.3,28.8zm-83.8-32.4c7.10543e-15-18.6 2.3-36.8 6.7-54.2 7.6,17.1 16.6,33.8 26.6,49.8-1,1.2-1.9,2.5-2.8,3.8-9.5,14.8-8.3,33.5 1.4,47-6.3,10.4-12.3,20.5-18.2,30.8-8.9-24.1-13.7-50.1-13.7-77.2zm204.8,223.4c-78.8-6.7-145.9-54.5-180.3-121.5 8.1-13.7 16.1-27.5 24.2-41.8 11,4.9 23.3,4.6 33.8,0 34.2,35.7 76.3,66.1 126.2,90.4-1.6,13.6 3.7,27.3 14,36.3-5.6,12.4-11.7,24.8-17.9,36.6zm11.3-92.1c-46.1-22.2-85.4-50.9-117.3-84.1 0.7-0.9 1.3-1.8 1.9-2.7 10.5-16.4 8-37.6-4.9-51.2 13.5-17.4 27.7-34.2 42.6-51.6 11.5,7.1 25.9,8.1 38.2,3 22.2,23.1 47.6,43.1 76.1,60.7 0,0.1-0.1,0.2-0.1,0.2-5,18.1 2.8,36.8 17.9,46.4-6,20.4-12.3,41.4-19.3,61.7-13.7-0.3-27,6.2-35.1,17.6zm53.4,31.8c-4.8,10.4-17.3,15-27.7,10.2-10.4-4.8-15-17.3-10.2-27.7 4.8-10.4 17.3-15 27.7-10.2 11.4,5.3 15,17.3 10.2,27.7zm-41.7,61.1c4.6-9.4 9.1-18.7 13.4-28.1 16.3,3.8 32.8-2.6 42.5-15.9 16.8,5.5 34.3,10.1 52.4,14-31.9,18.5-68.9,29.3-108.3,30zm133.1-46.8c-24.5-4.4-47.7-10.2-69.4-16.8 2-16.1-5.5-32.4-19.8-41 7.5-19.7 13.6-40.1 18.9-61.1 14.5,1 27.8-5.6 35.9-16.8 33.5,12.9 70.6,22.7 110.1,29.5-14.2,42.4-40.9,79.3-75.7,106.2zm-26.6-155.5c2.2-18.2-7.8-35.9-24.6-43.3 3.4-20.4 6.7-41.5 9.4-62.6 19.4-3.5 34.3-20.6 34.3-41 0-18.1-11.7-33.6-27.9-39.3 0.6-11.2 1.2-22.8 1.2-34.6 71.9,37.5 121.5,112.9 121.5,199 0,17.4-2,34.3-5.8,50.6-39.2-6.8-75.2-16.6-108.1-28.8z"/>
  </g>
</svg>
