<?xml version="1.0" encoding="UTF-8" standalone="no"?>
<svg
   xmlns:dc="http://purl.org/dc/elements/1.1/"
   xmlns:cc="http://creativecommons.org/ns#"
   xmlns:rdf="http://www.w3.org/1999/02/22-rdf-syntax-ns#"
   xmlns:svg="http://www.w3.org/2000/svg"
   xmlns="http://www.w3.org/2000/svg"
   xml:space="preserve"
   style="enable-background:new 0 0 236.562 236.561;"
   viewBox="0 0 236.562 236.561"
   height="100px"
   width="100px"
   y="0px"
   x="0px"
   version="1.1"
   id="svg6"><metadata
   id="metadata12"><rdf:RDF><cc:Work
       rdf:about=""><dc:format>image/svg+xml</dc:format><dc:type
         rdf:resource="http://purl.org/dc/dcmitype/StillImage" /><dc:title></dc:title></cc:Work></rdf:RDF></metadata><defs
   id="defs10"><clipPath
     clipPathUnits="userSpaceOnUse"
     id="clipPath60"><path
       d="m 2228.7,2346.13 c -2.03,0 -3.95,1.19 -4.79,3.17 -1.13,2.65 0.1,5.72 2.75,6.84 36.11,15.38 74.47,23.17 114.01,23.17 17.82,0 35.67,-1.62 53.04,-4.82 2.85,-0.52 4.71,-3.24 4.19,-6.07 -0.51,-2.83 -3.23,-4.75 -6.07,-4.19 -16.76,3.08 -33.97,4.65 -51.16,4.65 -38.14,0 -75.12,-7.52 -109.92,-22.33 z m 326.55,-74.16 c -1.44,0 -2.88,0.59 -3.91,1.76 -14.83,16.82 -31.67,31.86 -50.05,44.7 -2.36,1.65 -2.94,4.91 -1.29,7.27 1.65,2.35 4.91,2.94 7.26,1.28 19.06,-13.31 36.52,-28.9 51.9,-46.34 1.91,-2.17 1.7,-5.46 -0.46,-7.37 -0.99,-0.87 -2.22,-1.3 -3.45,-1.3 z m -475.39,-71.52 -2.15,0.46 c -2.63,1.19 -3.79,4.28 -2.61,6.91 6.36,14.07 13.92,27.76 22.46,40.68 1.58,2.41 4.83,3.07 7.23,1.47 2.4,-1.59 3.06,-4.82 1.47,-7.22 -8.24,-12.46 -15.52,-25.66 -21.65,-39.23 -0.87,-1.93 -2.77,-3.07 -4.75,-3.07 z m 523.97,-5.35 c -2.02,0 -3.95,1.19 -4.8,3.17 -5.83,13.68 -12.83,27.01 -20.81,39.63 -1.55,2.43 -0.82,5.65 1.62,7.19 2.44,1.55 5.66,0.81 7.19,-1.62 8.28,-13.08 15.54,-26.92 21.6,-41.1 1.13,-2.65 -0.1,-5.72 -2.76,-6.85 z m -549.11,-105.25 h -0.13 c -2.88,0.07 -5.15,2.46 -5.08,5.34 0.55,23.34 3.9,46.51 9.93,68.87 0.74,2.79 3.6,4.44 6.39,3.67 2.79,-0.75 4.43,-3.61 3.69,-6.39 -5.82,-21.55 -9.04,-43.89 -9.58,-66.4 -0.07,-2.84 -2.39,-5.09 -5.22,-5.09 z m 524.39,-165.05 c -0.99,0 -1.99,0.29 -2.88,0.88 -2.4,1.59 -3.05,4.83 -1.46,7.23 30.57,46.02 46.72,99.67 46.72,155.15 0,2.88 2.33,5.22 5.21,5.22 2.88,0 5.22,-2.34 5.22,-5.22 0,-57.54 -16.76,-113.18 -48.46,-160.92 -1.01,-1.51 -2.66,-2.34 -4.35,-2.34 z m -396.24,-80.57 c -0.98,0 -1.99,0.28 -2.87,0.86 -47.94,31.77 -85.11,76.45 -107.53,129.21 -1.13,2.65 0.11,5.71 2.77,6.84 2.62,1.11 5.71,-0.1 6.83,-2.76 21.62,-50.88 57.47,-93.96 103.7,-124.59 2.4,-1.59 3.05,-4.82 1.46,-7.23 -1.01,-1.51 -2.67,-2.33 -4.36,-2.33 z m 247.89,-32.95 c -2.19,0 -4.22,1.38 -4.96,3.57 -0.9,2.74 0.58,5.69 3.31,6.6 21.25,7.04 41.67,16.67 60.69,28.61 2.45,1.54 5.65,0.8 7.19,-1.64 1.53,-2.44 0.8,-5.66 -1.64,-7.19 -19.73,-12.39 -40.91,-22.38 -62.95,-29.69 z m -89.79,-14.48 c -2.88,0 -5.21,2.33 -5.21,5.21 -0.01,2.88 2.32,5.22 5.2,5.22 15,0.02 30.02,1.23 44.66,3.59 2.83,0.45 5.52,-1.48 5.98,-4.33 0.45,-2.84 -1.48,-5.52 -4.32,-5.98 -15.19,-2.44 -30.76,-3.69 -46.31,-3.71 z"
       id="path58" /></clipPath><linearGradient
     x1="0"
     y1="0"
     x2="1"
     y2="0"
     gradientUnits="userSpaceOnUse"
     gradientTransform="matrix(-260.78094,260.78094,-260.78094,-260.78094,227.67795,8.6212724)"
     spreadMethod="pad"
     id="linearGradient72"><stop
       style="stop-opacity:1;stop-color:#454da9"
       offset="0"
       id="stop62" /><stop
       style="stop-opacity:1;stop-color:#454da9"
       offset="0.010753"
       id="stop64" /><stop
       style="stop-opacity:1;stop-color:#c80f90"
       offset="0.62363"
       id="stop66" /><stop
       style="stop-opacity:1;stop-color:#ee2237"
       offset="0.761238"
       id="stop68" /><stop
       style="stop-opacity:1;stop-color:#fbc03f"
       offset="1"
       id="stop70" /></linearGradient><clipPath
     clipPathUnits="userSpaceOnUse"
     id="clipPath38"><path
       d="m 2591.06,2088.06 c 0,-138.29 -112.1,-250.39 -250.39,-250.39 -138.28,0 -250.39,112.1 -250.39,250.39 0,138.28 112.11,250.39 250.39,250.39 138.29,0 250.39,-112.11 250.39,-250.39 z"
       id="path36" /></clipPath><linearGradient
     x1="0"
     y1="0"
     x2="1"
     y2="0"
     gradientUnits="userSpaceOnUse"
     gradientTransform="matrix(-260.78094,260.78094,-260.78094,-260.78094,227.66179,8.6051104)"
     spreadMethod="pad"
     id="linearGradient50"><stop
       style="stop-opacity:1;stop-color:#454da9"
       offset="0"
       id="stop40" /><stop
       style="stop-opacity:1;stop-color:#454da9"
       offset="0.010753"
       id="stop42" /><stop
       style="stop-opacity:1;stop-color:#c80f90"
       offset="0.62363"
       id="stop44" /><stop
       style="stop-opacity:1;stop-color:#ee2237"
       offset="0.761238"
       id="stop46" /><stop
       style="stop-opacity:1;stop-color:#fbc03f"
       offset="1"
       id="stop48" /></linearGradient></defs>
<path
   id="path52"
   style="fill:url(#linearGradient50);fill-opacity:1;fill-rule:nonzero;stroke:none;stroke-width:0.40405157"
   d="m 219.23327,118.2041 c 0,55.87629 -45.29418,101.17047 -101.17047,101.17047 -55.872253,0 -101.170474,-45.29418 -101.170474,-101.17047 0,-55.872252 45.298221,-101.170474 101.170474,-101.170474 55.87629,0 101.17047,45.298222 101.17047,101.170474" /><path
   id="path74"
   style="fill:url(#linearGradient72);fill-opacity:1;fill-rule:nonzero;stroke:none;stroke-width:0.40405157"
   d="m 72.821144,13.93051 c -0.820225,0 -1.596004,-0.480821 -1.935407,-1.280843 -0.456578,-1.070737 0.0404,-2.311175 1.111142,-2.7637131 C 86.587181,3.6716407 102.0866,0.52407898 118.0628,0.52407898 c 7.2002,0 14.41252,0.65456352 21.43089,1.94752862 1.15155,0.2101068 1.90309,1.309127 1.69298,2.452593 -0.20607,1.1434659 -1.30509,1.9192449 -2.45259,1.6929761 -6.77191,-1.2444789 -13.72564,-1.8788398 -20.67128,-1.8788398 -15.41053,0 -30.352356,3.0384678 -44.41335,9.0224711 z M 204.76418,43.894975 c -0.58183,0 -1.16366,-0.238391 -1.57984,-0.711131 -5.99208,-6.796148 -12.79631,-12.873083 -20.22278,-18.061105 -0.95356,-0.666686 -1.18791,-1.983894 -0.52122,-2.937455 0.66668,-0.949522 1.98389,-1.187912 2.93341,-0.517186 7.70122,5.377926 14.75596,11.67709 20.97028,18.723749 0.77173,0.876792 0.68688,2.206122 -0.18587,2.97786 -0.40001,0.351525 -0.89699,0.525268 -1.39398,0.525268 z M 12.682108,72.792743 11.813398,72.606879 c -1.062656,-0.480821 -1.531356,-1.729341 -1.054575,-2.791996 2.569768,-5.685006 5.624398,-11.216472 9.074998,-16.436818 0.638402,-0.973764 1.951569,-1.240438 2.921293,-0.593956 0.969724,0.642442 1.236398,1.947529 0.593956,2.917252 -3.329385,5.034483 -6.270881,10.367964 -8.747717,15.850943 -0.351525,0.77982 -1.119223,1.240439 -1.919245,1.240439 z m 211.710902,2.161676 c -0.81618,0 -1.596,-0.480822 -1.93945,-1.280844 -2.35562,-5.527425 -5.18398,-10.913433 -8.40831,-16.012564 -0.62628,-0.981845 -0.33132,-2.282891 0.65456,-2.90513 0.98589,-0.62628 2.28693,-0.327282 2.90513,0.654563 3.34555,5.284995 6.27896,10.877069 8.72752,16.60652 0.45658,1.070736 -0.0404,2.311175 -1.11519,2.767753 z M 2.5242519,117.48085 H 2.4717252 C 1.3080567,117.45256 0.39085962,116.48688 0.41914323,115.32321 0.64137159,105.89265 1.9949444,96.530773 4.4313753,87.496179 4.7303735,86.368876 5.885961,85.70219 7.0132649,86.01331 c 1.1273038,0.303039 1.7899484,1.458626 1.4909502,2.58189 -2.3515801,8.707311 -3.6526261,17.73382 -3.870814,26.82902 -0.028284,1.14751 -0.9656832,2.05663 -2.1091492,2.05663 z M 214.40485,184.16956 c -0.40001,0 -0.80406,-0.11718 -1.16366,-0.35557 -0.96973,-0.64244 -1.23236,-1.95157 -0.58992,-2.92129 12.35186,-18.59445 18.87729,-40.27182 18.87729,-62.6886 0,-1.16367 0.94144,-2.10915 2.10511,-2.10915 1.16367,0 2.10915,0.94548 2.10915,2.10915 0,23.24913 -6.77191,45.73056 -19.58034,65.01998 -0.40809,0.61012 -1.07478,0.94548 -1.75763,0.94548 z M 54.303461,216.72399 c -0.395971,0 -0.804063,-0.11313 -1.159628,-0.34748 -19.370233,-12.83672 -34.38883,-30.88974 -43.4476657,-52.2075 -0.4565783,-1.07074 0.044446,-2.30714 1.1192227,-2.76372 1.058615,-0.44849 2.307135,0.0404 2.759672,1.11518 8.735595,20.55815 23.220844,37.96469 41.900148,50.34079 0.969724,0.64244 1.232357,1.94753 0.589915,2.92129 -0.408092,0.61012 -1.078817,0.94144 -1.761664,0.94144 z m 100.160339,13.3135 c -0.88487,0 -1.70509,-0.55759 -2.00409,-1.44246 -0.36365,-1.1071 0.23435,-2.29906 1.33741,-2.66674 8.5861,-2.84453 16.83683,-6.73554 24.52189,-11.55992 0.98993,-0.62224 2.28289,-0.32324 2.90513,0.66265 0.6182,0.98588 0.32324,2.28693 -0.66264,2.90513 -7.97194,5.0062 -16.52975,9.04267 -25.43505,11.99629 z m -36.27979,5.85067 c -1.16366,0 -2.1051,-0.94144 -2.1051,-2.10511 -0.004,-1.16367 0.93739,-2.10915 2.10106,-2.10915 6.06078,-0.008 12.12963,-0.49698 18.04495,-1.45054 1.14346,-0.18183 2.23036,0.59799 2.41622,1.74954 0.18183,1.14751 -0.59799,2.23036 -1.7455,2.41623 -6.13754,0.98588 -12.42862,1.49095 -18.71163,1.49903" /><path
   id="path76"
   style="fill:#ffffff;fill-opacity:1;fill-rule:nonzero;stroke:none;stroke-width:0.40405157"
   d="m 159.58717,84.388996 c -0.008,4.214258 -3.43039,7.620414 -7.64871,7.612332 -4.21425,-0.0083 -7.62444,-3.434437 -7.61232,-7.648697 0.0116,-4.218298 3.43444,-7.624453 7.64869,-7.61233 4.21427,0.0083 7.62446,3.434437 7.61234,7.648695 z M 117.8648,139.27536 c -11.64072,-0.10505 -20.990476,-9.62855 -20.889464,-21.26927 0.105069,-11.64073 9.628554,-20.994525 21.269284,-20.88947 11.64476,0.105069 20.99452,9.62854 20.88946,21.26927 -0.10504,11.64073 -9.62451,20.99049 -21.26928,20.88947 z m 0.22628,-53.654005 c -18.0005,-0.01217 -32.606962,14.574135 -32.615043,32.578685 -0.01218,18.0005 14.578183,32.60291 32.578673,32.611 18.00454,0.008 32.60293,-14.57416 32.61505,-32.57464 0.008,-18.00454 -14.57817,-32.606966 -32.57868,-32.615045 z m 50.81756,64.450265 c -1.70105,11.10334 -9.07095,17.98029 -20.23488,19.20054 -10.2508,1.12729 -56.046011,1.74146 -65.557384,-0.91721 -9.099241,-2.54148 -14.299385,-8.79619 -15.814579,-17.95605 -1.438423,-8.74771 -1.798029,-52.453974 -0.01606,-64.151268 1.672773,-11.010403 9.042674,-17.879283 20.146012,-19.119719 11.260918,-1.26064 51.783251,-1.398018 62.571431,0.254553 11.07909,1.701056 17.94798,9.08712 19.16417,20.267227 1.13539,10.428571 1.46266,51.209487 -0.2586,62.421927 z m 11.70134,-63.520949 c -0.85659,-8.367907 -4.06071,-15.766091 -10.27906,-21.693526 -6.54161,-6.242598 -14.53778,-9.002272 -23.30973,-9.466929 -14.94183,-0.816185 -50.421612,-1.329332 -62.878524,0.70305 -14.230694,2.319255 -23.564286,10.626553 -27.49975,24.687549 -3.026347,10.81242 -2.428348,60.668345 -0.658602,71.359555 2.408146,14.61859 11.050809,23.99258 25.5401,27.72601 10.024517,2.58997 59.306696,2.25866 70.365586,0.46466 14.63071,-2.3637 24.04511,-10.95787 27.8432,-25.42292 2.90916,-11.10334 1.89096,-58.341008 0.87678,-68.357449" /><path
   id="path78"
   style="fill:#ffffff;fill-opacity:1;fill-rule:nonzero;stroke:none;stroke-width:0.40405157"
   d="m 159.58717,84.388996 c -0.008,4.214258 -3.43039,7.620414 -7.64871,7.612332 -4.21425,-0.0083 -7.62444,-3.434437 -7.61232,-7.648697 0.0116,-4.218298 3.43444,-7.624453 7.64869,-7.61233 4.21427,0.0083 7.62446,3.434437 7.61234,7.648695 z M 117.8648,139.27536 c -11.64072,-0.10505 -20.990476,-9.62855 -20.889464,-21.26927 0.105069,-11.64073 9.628554,-20.994525 21.269284,-20.88947 11.64476,0.105069 20.99452,9.62854 20.88946,21.26927 -0.10504,11.64073 -9.62451,20.99049 -21.26928,20.88947 z m 0.22628,-53.654005 c -18.0005,-0.01217 -32.606962,14.574135 -32.615043,32.578685 -0.01218,18.0005 14.578183,32.60291 32.578673,32.611 18.00454,0.008 32.60293,-14.57416 32.61505,-32.57464 0.008,-18.00454 -14.57817,-32.606966 -32.57868,-32.615045 z m 50.81756,64.450265 c -1.70105,11.10334 -9.07095,17.98029 -20.23488,19.20054 -10.2508,1.12729 -56.046011,1.74146 -65.557384,-0.91721 -9.099241,-2.54148 -14.299385,-8.79619 -15.814579,-17.95605 -1.438423,-8.74771 -1.798029,-52.453974 -0.01606,-64.151268 1.672773,-11.010403 9.042674,-17.879283 20.146012,-19.119719 11.260918,-1.26064 51.783251,-1.398018 62.571431,0.254553 11.07909,1.701056 17.94798,9.08712 19.16417,20.267227 1.13539,10.428571 1.46266,51.209487 -0.2586,62.421927 z m 11.70134,-63.520949 c -0.85659,-8.367907 -4.06071,-15.766091 -10.27906,-21.693526 -6.54161,-6.242598 -14.53778,-9.002272 -23.30973,-9.466929 -14.94183,-0.816185 -50.421612,-1.329332 -62.878524,0.70305 -14.230694,2.319255 -23.564286,10.626553 -27.49975,24.687549 -3.026347,10.81242 -2.428348,60.668345 -0.658602,71.359555 2.408146,14.61859 11.050809,23.99258 25.5401,27.72601 10.024517,2.58997 59.306696,2.25866 70.365586,0.46466 14.63071,-2.3637 24.04511,-10.95787 27.8432,-25.42292 2.90916,-11.10334 1.89096,-58.341008 0.87678,-68.357449" /></svg>