<svg version="1.1" xmlns="http://www.w3.org/2000/svg" xmlns:xlink="http://www.w3.org/1999/xlink" x="0px" y="0px"
	 width="40px" height="40px" viewBox="0 0 459.73 459.73" style="enable-background:new 0 0 459.73 459.73;"
	 xml:space="preserve">
<g>
	<path d="M183.633,48.97c14.869-3.462,30.328-5.348,46.231-5.348c15.905,0,31.358,1.886,46.233,5.348
		c-7.27-18.442-25.206-31.515-46.233-31.515C208.839,17.456,190.904,30.528,183.633,48.97z"/>
	<path d="M189.527,96.171c9.031,12.531,23.71,20.727,40.337,20.727s31.306-8.189,40.339-20.727
		c-12.904-3.438-26.373-5.448-40.339-5.448C215.9,90.724,202.427,92.733,189.527,96.171z"/>
	<path d="M459.73,247.317c0-20.898-12.904-38.753-31.166-46.105c3.498,14.954,5.414,30.513,5.414,46.519
		c0,15.685-1.84,30.934-5.214,45.624C446.927,285.941,459.73,268.132,459.73,247.317z"/>
	<path d="M360.29,247.317c0,16.819,8.38,31.655,21.159,40.655c3.418-12.863,5.426-26.312,5.426-40.242
		c0-14.175-2.06-27.857-5.61-40.938C368.585,215.805,360.29,230.583,360.29,247.317z"/>
	<path d="M30.959,293.354c-3.368-14.69-5.206-29.939-5.206-45.624c0-16.006,1.91-31.564,5.41-46.519
		C12.902,208.564,0,226.419,0,247.317C0,268.132,12.802,285.941,30.959,293.354z"/>
	<path d="M78.462,206.792c-3.547,13.081-5.604,26.763-5.604,40.938c0,13.93,2.001,27.379,5.424,40.242
		c12.78-9,21.159-23.836,21.159-40.655C99.44,230.583,91.141,215.805,78.462,206.792z"/>
	<path d="M95.451,166.997c15.252,2.757,31.559-1.591,43.513-13.216c11.948-11.615,16.771-27.768,14.471-43.078
		C129.538,124.089,109.571,143.579,95.451,166.997z"/>
	<path d="M58.429,137.176c16.923-26.151,39.619-48.226,66.333-64.333c-18.062-8.141-40.019-5.017-55.083,9.634
		C54.631,97.091,50.851,118.897,58.429,137.176z"/>
	<path d="M306.286,110.702c-2.301,15.311,2.524,31.463,14.475,43.078c11.958,11.625,28.269,15.974,43.517,13.216
		C350.155,143.579,330.19,124.089,306.286,110.702z"/>
	<path d="M401.306,137.176c7.574-18.27,3.795-40.084-11.249-54.7c-15.071-14.643-37.028-17.775-55.082-9.634
		C361.685,88.942,384.379,111.017,401.306,137.176z"/>
	<path d="M424.81,247.317c0-16.895-2.148-33.295-6.195-48.926c-4.821-18.675-12.351-36.27-22.134-52.339
		c-17.211-28.258-41.437-51.748-70.222-68.16c-14.743-8.412-30.657-14.988-47.479-19.34c-15.621-4.031-32.02-6.184-48.915-6.184
		c-16.892,0-33.294,2.152-48.923,6.191c-16.823,4.351-32.734,10.929-47.478,19.338c-28.788,16.415-53.009,39.904-70.225,68.163
		c-9.782,16.062-17.31,33.656-22.137,52.331c-4.043,15.639-6.193,32.032-6.193,48.926c0,16.888,2.15,33.294,6.193,48.919
		c21.716,83.991,97.989,146.038,188.762,146.038c90.776,0,167.046-62.047,188.75-146.022
		C422.661,280.611,424.81,264.221,424.81,247.317z M333.648,383.603c-4.376-3.106-11.585-3.571-20.883-2.773
		c-19.933,1.688-49.656,9.181-82.901,9.181c-35.005,0-66.061-9.609-85.936-11.028c-8.411-0.609-14.793,0.32-18.606,4.04
		c-28.561-22.058-49.97-52.891-60.181-88.44c-4.32-15.012-6.674-30.857-6.674-47.247c0-16.398,2.362-32.23,6.674-47.252
		c3.845-13.387,9.279-26.104,16.083-37.934c15.978-27.768,39.476-50.674,67.733-65.875c10.598-5.698,21.873-10.283,33.655-13.667
		c15.02-4.318,30.861-6.67,47.251-6.67c16.395,0,32.228,2.36,47.252,6.67c11.785,3.384,23.055,7.969,33.654,13.667
		c28.26,15.2,51.756,38.107,67.733,65.875c6.809,11.838,12.234,24.547,16.086,37.934c4.324,15.014,6.668,30.854,6.668,47.252
		c0,16.39-2.36,32.235-6.668,47.247C384.286,330.436,362.59,361.518,333.648,383.603z"/>
</g>
</svg>
