<?xml version="1.0" encoding="utf-8"?>
<!DOCTYPE svg PUBLIC "-//W3C//DTD SVG 1.1//EN" "http://www.w3.org/Graphics/SVG/1.1/DTD/svg11.dtd">
<svg version="1.1" xmlns="http://www.w3.org/2000/svg" xmlns:xlink="http://www.w3.org/1999/xlink" x="0px" y="0px"
	 width="566.93px" height="566.93px" viewBox="0 0 566.93 566.93" enable-background="new 0 0 566.93 566.93" xml:space="preserve">
<g>
	<g id="g4204" transform="translate(0,2)">
		<path id="path4206" fill="#8D97A2" d="M82.471,276.221L33.762,385.321H65.62l9.471-23.122
			h48.955l9.471,23.122h31.858l-48.832-109.101H82.471z M99.771,301.944l8.264,20.745l8.265,20.751l-16.479,0.038l-16.48,0.042
			l8.215-20.788L99.771,301.944L99.771,301.944z"/>
		<path id="path4208" fill="#8D97A2" d="M318.725,276.221l-48.71,109.101h31.859l9.469-23.122
			H360.3l9.47,23.122h31.857l-48.831-109.101H318.725z M336.023,301.944l8.266,20.745l8.265,20.751l-16.479,0.038l-16.479,0.042
			l8.215-20.788L336.023,301.944L336.023,301.944z"/>
		<path id="path4210" fill="#8D97A2" d="M409.961,275.845h36.183l23.134,34.79l24.528-34.79
			h35.659l-42.966,52.883l45.749,56.973h-36.182L469.8,348.556L444.054,385.7h-38.615l46.616-56.452L409.961,275.845z"/>
		<path id="path4212" fill="#8D97A2" d="M256.89,229.67l-43.313,42.601l14.91,13.492
			l14.105-14.181l1.575,0.003v81.35c0,10.327-8.314,18.641-18.641,18.641h-14.812c-10.328,0-18.642-8.313-18.642-18.641v-8.683
			h-28.8v10.813c0,18.673,15.032,33.703,33.703,33.703h38.265c18.672,0,33.703-15.03,33.703-33.703v-83.422l1.115,0.003
			l16.479,14.118l12.955-13.492L256.89,229.67L256.89,229.67z"/>
		<path id="path4214" fill="#8D97A2" d="M177.46,335.294l43.313-42.602l-14.912-13.491
			l-14.104,14.18l-1.574-0.002V212.03c0-10.328,8.314-18.642,18.641-18.642h14.812c10.327,0,18.641,8.313,18.641,18.642v8.683h28.8
			v-10.813c0-18.671-15.032-33.703-33.703-33.703H199.11c-18.672,0-33.703,15.032-33.703,33.703v83.421l-1.115-0.002l-16.478-14.117
			l-12.957,13.491L177.46,335.294L177.46,335.294z"/>
	</g>
	
		<linearGradient id="path3338_1_" gradientUnits="userSpaceOnUse" x1="297.2002" y1="255.668" x2="297.2002" y2="42.0553" gradientTransform="matrix(1 0 0 -1 -14.1953 429.5039)">
		<stop  offset="0" style="stop-color:#72B0DC"/>
		<stop  offset="0.5" style="stop-color:#2280BF"/>
		<stop  offset="1" style="stop-color:#4D99CF"/>
	</linearGradient>
	<path id="path3338" fill="url(#path3338_1_)" stroke="#0C4C76" stroke-width="0.5" d="M199.108,175.535
		c-18.672,0-33.703,15.032-33.703,33.704v83.423l-1.115-0.004l-16.478-14.118l-12.957,13.493l42.602,42.599l43.313-42.599
		L205.86,278.54l-14.105,14.181l-1.574-0.003v-81.349c0-10.328,8.314-18.641,18.641-18.641h14.813
		c10.327,0,18.641,8.313,18.641,18.641v8.683h28.8v-10.813c0-18.671-15.032-33.704-33.703-33.704H199.108z M256.89,229.01
		l-43.313,42.602l14.91,13.491l14.105-14.18l1.575,0.003v81.348c0,10.328-8.314,18.643-18.641,18.643h-14.812
		c-10.328,0-18.642-8.314-18.642-18.643v-8.682h-28.8v10.813c0,18.67,15.032,33.704,33.703,33.704h38.265
		c18.672,0,33.703-15.034,33.703-33.704v-83.422l1.115,0.003l16.479,14.117l12.955-13.491L256.89,229.01z M409.961,275.184
		l42.094,53.404l-46.616,56.451h38.614l25.746-37.145l26.266,37.145h36.185l-45.75-56.974l42.965-52.882h-35.658l-24.526,34.791
		l-23.136-34.791H409.961z M82.471,275.56L33.762,384.663H65.62l9.471-23.124h48.955l9.471,23.124h31.858L116.542,275.56H82.471z
		 M318.726,275.56l-48.71,109.103h31.858l9.47-23.124h48.957l9.47,23.124h31.857L352.797,275.56H318.726z M99.771,301.283
		l8.264,20.747l8.265,20.748l-16.479,0.037l-16.48,0.044l8.215-20.788L99.771,301.283z M336.025,301.283l8.266,20.747l8.264,20.748
		l-16.479,0.037l-16.48,0.044l8.216-20.788L336.025,301.283z"/>
</g>
</svg>
