<?xml version="1.0" encoding="utf-8"?>
<!-- Generator: Adobe Illustrator 14.0.0, SVG Export Plug-In . SVG Version: 6.00 Build 43363)  -->
<!DOCTYPE svg PUBLIC "-//W3C//DTD SVG 1.1//EN" "http://www.w3.org/Graphics/SVG/1.1/DTD/svg11.dtd">
<svg version="1.1" id="Слой_1" xmlns="http://www.w3.org/2000/svg" xmlns:xlink="http://www.w3.org/1999/xlink" x="0px" y="0px"
	 width="566.93px" height="566.93px" viewBox="0 0 566.93 566.93" enable-background="new 0 0 566.93 566.93" xml:space="preserve">
<g>
	<polygon id="polygon14" fill="#CCCCCB" points="166.457,389.492 198.691,431.927 198.691,389.492 205.136,389.492 205.136,442.168 
		198.322,442.168 166.09,399.362 166.09,442.168 159.643,442.168 159.643,389.492 	"/>
	<path id="path16" fill="#CCCCCB" d="M257.442,440.106c-4.247,1.622-8.829,2.432-13.74,2.432c-19.079,0-28.622-9.146-28.622-27.443
		c0-17.313,9.21-25.971,27.625-25.971c5.284,0,10.196,0.737,14.736,2.213v5.893c-4.541-1.719-9.209-2.58-14-2.58
		c-14.363,0-21.544,6.818-21.544,20.445c0,14.61,7.068,21.92,21.217,21.92c2.257,0,4.762-0.296,7.514-0.889v-17.899h6.813V440.106
		L257.442,440.106L257.442,440.106z"/>
	<path id="path18" fill="#CCCCCB" d="M268.31,421.835v-32.34h6.81v32.34c0,10.118,5.036,15.182,15.105,15.182
		c10.068,0,15.104-5.064,15.104-15.182v-32.34h6.813v32.34c0,13.805-7.304,20.706-21.917,20.706
		C275.614,442.541,268.31,435.64,268.31,421.835z"/>
	<polygon id="polygon20" fill="#CCCCCB" points="358.67,436.646 358.67,442.168 324.301,442.168 324.301,389.492 331.112,389.492 
		331.112,436.646 	"/>
	<polygon id="polygon22" fill="#CCCCCB" points="387.62,382.545 413.811,442.171 406.26,442.171 399.443,425.592 382.025,425.592 
		383.901,420.071 397.163,420.071 387.328,396.198 368.504,442.171 361.433,442.171 	"/>
	<path id="path24" fill="#CCCCCB" d="M420.994,442.168v-52.676h22.471c10.022,0,15.03,4.214,15.03,12.634
		c0,6.854-4.896,11.926-14.697,15.213l18.087,24.829h-8.989l-16.758-23.684v-4.453c10.066-1.602,15.1-5.468,15.1-11.605
		c0-4.861-2.799-7.296-8.395-7.296H427.81v47.042h-6.813L420.994,442.168L420.994,442.168z"/>
	<polygon id="polygon30" points="168.18,387.771 200.412,430.206 200.412,387.771 206.86,387.771 206.86,440.448 200.044,440.448 
		167.811,397.641 167.811,440.448 161.366,440.448 161.366,387.771 	"/>
	<path id="path32" d="M259.165,438.385c-4.247,1.623-8.826,2.431-13.739,2.431c-19.08,0-28.622-9.146-28.622-27.441
		c0-17.313,9.209-25.974,27.629-25.974c5.279,0,10.193,0.741,14.732,2.216v5.892c-4.541-1.72-9.209-2.58-13.997-2.58
		c-14.365,0-21.546,6.818-21.546,20.444c0,14.612,7.071,21.92,21.216,21.92c2.258,0,4.764-0.294,7.517-0.887v-17.901h6.81
		L259.165,438.385L259.165,438.385z"/>
	<path id="path34" d="M270.033,420.112v-32.344h6.811v32.343c0,10.118,5.036,15.181,15.106,15.181
		c10.067,0,15.103-5.063,15.103-15.181v-32.343h6.813v32.343c0,13.806-7.306,20.703-21.916,20.703
		C277.338,440.814,270.033,433.919,270.033,420.112L270.033,420.112z"/>
	<polygon id="polygon36" points="360.392,434.922 360.392,440.445 326.025,440.445 326.025,387.769 332.837,387.769 
		332.837,434.922 	"/>
	<polygon id="polygon38" points="389.345,380.818 415.535,440.447 407.981,440.447 401.168,423.869 383.745,423.869 
		385.627,418.346 398.884,418.346 389.053,394.472 370.228,440.447 363.155,440.447 	"/>
	<path id="path40" d="M422.719,440.448v-52.677h22.47c10.021,0,15.027,4.21,15.027,12.636c0,6.85-4.895,11.924-14.694,15.211
		l18.086,24.83h-8.991l-16.755-23.687v-4.457c10.065-1.601,15.103-5.465,15.103-11.605c0-4.86-2.803-7.292-8.401-7.292h-15.03
		v47.041H422.719z"/>
	<polygon id="polygon22_1_" fill="#CCCCCB" points="127.948,382.545 154.139,442.171 146.588,442.171 139.771,425.592 
		122.354,425.592 124.229,420.071 137.491,420.071 127.656,396.198 108.832,442.171 101.761,442.171 	"/>
	<polygon id="polygon38_1_" points="129.345,380.818 155.535,440.447 147.981,440.447 141.168,423.869 123.745,423.869 
		125.627,418.346 138.884,418.346 129.053,394.472 110.228,440.447 103.155,440.447 	"/>
</g>
<g id="g48">
	<polygon id="polygon50" fill="#B4B4B4" points="182.732,307.03 283.085,362.187 383.954,306.283 402.757,150.333 282.958,109.183 
		163.922,151.074 	"/>
	<polygon id="polygon52" fill="#A6181C" points="282.68,349.008 373.36,298.822 390.885,159.345 282.68,122.446 	"/>
	<polygon id="polygon54" fill="#DC1F1A" points="282.679,349.008 282.679,122.442 177.279,160.01 193.397,299.49 	"/>
	<path id="path56" fill="#F3F2F2" d="M312.466,243.057l-29.786,13.928h-31.393l-14.757,36.909l-27.448,0.509l73.598-163.729
		L312.466,243.057z M309.586,236.045l-26.708-52.874l-21.907,51.963h21.708L309.586,236.045z"/>
	<polygon id="polygon58" fill="#B4B4B4" points="307.734,235.174 282.734,235.174 282.679,256.951 317.247,256.984 333.403,294.41 
		359.666,294.895 282.679,130.673 282.876,183.171 	"/>
</g>
</svg>
