<?xml version="1.0" encoding="utf-8"?>

<!DOCTYPE svg PUBLIC "-//W3C//DTD SVG 1.1//EN" "http://www.w3.org/Graphics/SVG/1.1/DTD/svg11.dtd">
<svg version="1.1" id="Слой_1" xmlns="http://www.w3.org/2000/svg" xmlns:xlink="http://www.w3.org/1999/xlink" x="0px" y="0px"
	 width="566.93px" height="566.93px" viewBox="0 0 566.93 566.93" enable-background="new 0 0 566.93 566.93" xml:space="preserve">
<g id="g14" transform="matrix(0.42498938,0,0,0.42498938,9.0225238,17.144071)">
	<path id="path4" fill="#FFFFFF" d="M675.812,493.239v277.233h-68.933V493.239H675.812z"/>
	<path id="path6" fill="#FFFFFF" d="M846.908,484.308c82.323,0,148.77,63.978,148.77,146.796
		c0,83.32-66.937,148.287-149.76,148.287c-82.826,0-149.774-64.469-149.774-147.297
		C696.645,549.277,764.588,484.308,846.908,484.308z M846.421,711.938c43.632,0,75.87-37.685,75.87-80.34
		c0-42.647-32.239-79.845-75.87-79.845c-43.65,0-75.889,37.198-75.889,79.845C770.532,674.253,802.771,711.938,846.421,711.938z"/>
	<path id="path8" fill="#FFFFFF" d="M1003.622,686.159l62.984-14.879
		c4.467,33.227,28.765,45.128,54.062,45.128c25.288,0,34.21-14.883,34.21-26.781c0-9.424-5.446-18.849-23.794-22.312l-38.687-7.443
		c-46.12-8.923-78.846-37.691-78.846-82.328c0-53.065,48.089-90.261,103.155-90.261c70.408,0,99.175,43.647,104.132,80.841
		l-60.99,17.853c-3.477-22.814-17.367-39.178-42.653-39.178c-21.825,0-32.241,14.382-32.241,25.789
		c0,9.424,4.469,19.834,20.828,22.813l40.173,7.437c52.57,10.414,81.333,42.164,81.333,83.815
		c0,45.128-39.178,88.759-106.126,88.759C1050.243,775.913,1013.048,739.221,1003.622,686.159z"/>
	<path id="path10" fill="#2E96CF" d="M134.258,769.966H60.362l121.999-276.727h74.391
		L134.258,769.966z"/>
	<polygon id="polygon12" fill="#FFFFFF" points="305.357,769.966 398.095,769.966 456.113,682.186 513.645,769.966 589.512,769.966 
		497.772,628.625 590.014,492.741 505.708,492.741 456.113,575.064 408.012,492.741 322.713,492.741 415.449,628.625 
		355.443,716.408 256.752,493.239 182.361,493.239 	"/>
</g>
<path id="path4-8" fill="#222222" d="M296.235,226.765v117.821h-29.296V226.765H296.235z"/>
<path id="path6-5" fill="#222222" d="M368.949,222.97c34.986,0,63.226,27.19,63.226,62.387
	c0,35.41-28.447,63.021-63.646,63.021c-35.2,0-63.652-27.398-63.652-62.6C305.089,250.581,333.964,222.97,368.949,222.97z
	 M368.742,319.71c18.543,0,32.244-16.016,32.244-34.141c0-18.127-13.701-33.936-32.244-33.936
	c-18.551,0-32.252,15.809-32.252,33.936C336.49,303.694,350.191,319.71,368.742,319.71z"/>
<path id="path8-5" fill="#222222" d="M435.551,308.754l26.768-6.323
	c1.898,14.121,12.225,19.179,22.976,19.179c10.747,0,14.539-6.325,14.539-11.382c0-4.005-2.314-8.011-10.112-9.482l-16.441-3.163
	c-19.601-3.792-33.509-16.018-33.509-34.988c0-22.552,20.438-38.358,43.84-38.358c29.923,0,42.148,18.547,44.255,34.354
	l-25.92,7.587c-1.478-9.696-7.381-16.65-18.127-16.65c-9.275,0-13.702,6.112-13.702,10.96c0,4.005,1.899,8.431,8.852,9.695
	l17.073,3.161c22.342,4.426,34.565,17.919,34.565,35.621c0,19.179-16.65,37.722-45.103,37.722
	C455.364,346.898,439.557,331.305,435.551,308.754z"/>
<path id="path861" fill="#222222" d="M86.524,226.765h31.615l41.943,94.844l25.502-37.307
	l-39.412-57.749h36.251l20.442,34.986l21.077-34.986h35.829l-39.202,57.749l38.988,60.068h-32.243l-24.45-37.306l-24.657,37.306
	h-39.413l-35.949-82.303L86.524,226.765z"/>
<path id="path868" fill="#222222" d="M86.524,226.765l52.272,117.606l-12.137-70.6L86.524,226.765
	"/>
</svg>
