<?xml version="1.0" encoding="utf-8"?>
<!-- Generator: Adobe Illustrator 14.0.0, SVG Export Plug-In . SVG Version: 6.00 Build 43363)  -->
<!DOCTYPE svg PUBLIC "-//W3C//DTD SVG 1.1//EN" "http://www.w3.org/Graphics/SVG/1.1/DTD/svg11.dtd">
<svg version="1.1" id="Слой_1" xmlns="http://www.w3.org/2000/svg" xmlns:xlink="http://www.w3.org/1999/xlink" x="0px" y="0px"
	 width="566.93px" height="566.93px" viewBox="0 0 566.93 566.93" enable-background="new 0 0 566.93 566.93" xml:space="preserve">
<g>
	<path fill="#263959" d="M282.666,117.965L282.666,117.965c-58.849,0-107.189,15.763-107.189,35.729
		c0,5.254,12.611,79.867,17.865,109.291c2.101,13.662,36.78,32.577,89.324,32.577l0,0c52.544,0,86.172-18.916,89.324-32.577
		c5.255-29.424,17.865-104.037,17.865-109.291C388.805,133.728,341.515,117.965,282.666,117.965L282.666,117.965z M282.666,271.393
		c-18.916,0-33.628-14.712-33.628-33.628s14.713-33.628,33.628-33.628c18.915,0,33.628,14.712,33.628,33.628
		C316.294,255.629,301.581,271.393,282.666,271.393L282.666,271.393z M282.666,164.203c-37.832,0-68.307-6.305-68.307-14.712
		s30.476-14.712,68.307-14.712c37.831,0,68.307,6.305,68.307,14.712S320.497,164.203,282.666,164.203L282.666,164.203z"/>
	<path fill="#263959" d="M360.225,291.359c-2.102,0-3.152,1.051-3.152,1.051s-26.271,21.018-73.562,21.018
		c-47.29,0-73.562-21.018-73.562-21.018s-2.102-1.051-3.152-1.051c-2.102,0-4.204,1.051-4.204,4.203v1.052
		c4.204,22.067,7.356,37.831,7.356,39.934c3.153,15.763,34.679,28.373,72.511,28.373l0,0c37.831,0,69.358-12.61,72.51-28.373
		c0-2.103,3.153-17.866,7.356-39.934v-1.052C363.378,293.461,362.326,291.359,360.225,291.359L360.225,291.359z"/>
	<circle fill="#263959" cx="282.666" cy="236.714" r="16.814"/>
</g>
<path fill="#263959" d="M76.973,416.232v22.238h20.001c9.353,0,13.592-3.375,13.592-10.553c0-7.611-4.029-11.735-13.801-11.735
	L76.973,416.232z M76.973,386.221v21.3h16.63c9.241,0,13.046-4.236,13.046-11.119c0-6.882-4.127-10.219-13.046-10.219
	L76.973,386.221z M94.912,376.867c14.568,0,21.634,7.18,21.634,18.706c0,8.648-3.916,13.911-11.96,15.876
	c10.552,1.742,15.765,7.5,15.765,17.605c0,11.417-7.721,19.25-23.696,19.25H67.188v-71.438H94.912L94.912,376.867z"/>
<path fill="#263959" d="M131.557,393.941h9.353v54.363h-9.353V393.941z M136.339,373.063c1.765-0.127,3.498,0.52,4.751,1.771
	c1.252,1.252,1.898,2.984,1.771,4.751c-0.001,3.601-2.922,6.518-6.523,6.518c-3.6,0-6.521-2.917-6.523-6.518
	c-0.126-1.767,0.521-3.499,1.772-4.751S134.574,372.936,136.339,373.063z"/>
<path fill="#263959" d="M176.615,439.161c1.977-0.059,3.945-0.314,5.869-0.765v9.019c-2.047,0.587-4.17,0.877-6.3,0.865
	c-11.639,0-17.298-6.845-17.298-16.964v-28.689h-8.808v-8.646h8.808v-11.578h9.082v11.527h14.456v8.647h-14.456v28.541
	C167.968,435.9,170.798,439.161,176.615,439.161z"/>
<path fill="#263959" d="M219.612,401.54c-8.4,0-15.815,5.325-15.815,17.396v4.349c0,12.07,6.845,17.396,14.828,17.396
	c10.549,0,15.985-6.956,15.985-19.569C234.512,408.065,229.298,401.54,219.612,401.54z M221.032,449.38
	c-7.932,0-14.022-3.583-17.297-10.65v9.563h-9.353v-77.085h9.415v32.506c3.485-7.177,10.008-10.871,18.373-10.871
	c14.456,0,21.744,12.281,21.744,28.269C243.865,436.443,236.253,449.38,221.032,449.38z"/>
<path fill="#263959" d="M253.65,393.931h9.352v32.876c0,9.785,3.917,14.134,12.825,14.134c8.649,0,14.677-5.756,14.677-16.739
	v-30.271h9.353v54.362h-9.353v-8.92c-3.395,6.291-10.025,10.154-17.174,10.007c-12.501,0-19.681-8.648-19.681-23.599V393.931
	L253.65,393.931z"/>
<path fill="#263959" d="M352.367,446.884c-3.261,1.74-8.267,2.472-13.27,2.472c-19.349,0-28.417-11.737-28.417-28.416
	c0-16.42,9.019-28.158,28.417-28.158c4.469-0.13,8.905,0.782,12.961,2.669v8.647c-3.864-1.802-8.096-2.678-12.355-2.558
	c-14.133,0-19.892,8.909-19.892,19.46c0,10.55,5.867,19.458,20.113,19.458c4.205,0.112,8.392-0.55,12.356-1.952L352.367,446.884z"/>
<polygon fill="#263959" points="363.029,448.293 363.029,371.208 372.382,371.208 372.382,419.394 395.759,393.955 407.939,393.955 
	382.377,420.629 409.015,448.293 396.29,448.293 372.371,422.854 372.371,448.293 "/>
<path fill="#263959" d="M420.109,417.257h30.333c-0.545-10.106-5.115-15.877-14.456-15.877c-9.909-0.051-14.9,6.362-15.877,15.814
	V417.257L420.109,417.257z M440.002,449.38c-20.337,0-29.244-11.737-29.244-28.415c0-16.422,9.129-28.159,25.662-28.159
	c16.739,0,23.474,11.639,23.474,28.159v4.235h-39.685c1.31,9.241,7.288,15.223,20.115,15.223c5.639-0.001,11.232-0.993,16.529-2.929
	v8.647C452.394,448.516,445.548,449.38,440.002,449.38z"/>
<path fill="#263959" d="M492.512,439.161c1.978-0.059,3.941-0.314,5.868-0.765v9.019c-2.05,0.587-4.17,0.877-6.303,0.865
	c-11.637,0-17.296-6.845-17.296-16.964v-28.689h-8.809v-8.646h8.809v-11.578h9.129v11.527h14.457v8.647H483.91v28.541
	C483.925,435.9,486.729,439.161,492.512,439.161z"/>
</svg>
