<?xml version="1.0" encoding="utf-8"?>
<!-- Generator: Adobe Illustrator 14.0.0, SVG Export Plug-In . SVG Version: 6.00 Build 43363)  -->
<!DOCTYPE svg PUBLIC "-//W3C//DTD SVG 1.1//EN" "http://www.w3.org/Graphics/SVG/1.1/DTD/svg11.dtd">
<svg version="1.1" id="Слой_1" xmlns="http://www.w3.org/2000/svg" xmlns:xlink="http://www.w3.org/1999/xlink" x="0px" y="0px"
	 width="566.93px" height="566.93px" viewBox="0 0 566.93 566.93" enable-background="new 0 0 566.93 566.93" xml:space="preserve">
<g>
	<path fill="#573E7D" d="M63.118,372.775c0.359-0.065,0.654-0.167,0.947-0.166c12.109,0.046,24.22,0.028,36.328,0.197
		c4.127,0.057,7.918,1.514,11.309,3.926c7.737,5.507,8.453,21.238-2.17,26.88c-0.541,0.286-1.079,0.576-1.813,0.969
		c2.02,0.928,4.005,1.549,5.67,2.655c6.389,4.243,8.992,13.74,6.131,22.081c-2.497,7.278-8.422,10.283-15.313,11.881
		c-2.264,0.526-4.634,0.798-6.959,0.815c-11.319,0.081-22.64,0.036-34.13,0.036C63.118,418.984,63.118,395.916,63.118,372.775
		L63.118,372.775z M75.224,431.898c8.42,0,16.595,0.19,24.757-0.069c5.13-0.165,8.837-5.664,8.528-11.013
		c-0.304-5.272-3.55-9.756-8.569-9.989c-8.091-0.38-16.204-0.273-24.307-0.356c-0.122-0.001-0.245,0.178-0.41,0.305V431.898
		L75.224,431.898z M75.252,401.445c7.525,0,14.782,0.274,22.007-0.092c5.321-0.267,8.323-4.522,8.125-10.337
		c-0.176-5.149-3.217-8.248-8.691-8.391c-6.862-0.18-13.732-0.097-20.6-0.112c-0.28-0.001-0.56,0.149-0.841,0.229V401.445z
		 M450.501,391.929h10.095v5.411c1.124-0.868,2.493-1.831,3.756-2.916c7.734-6.637,26.079-5.822,32.356,7.546
		c5.403,11.504,5.168,23.072-2.124,33.783c-4.039,5.932-10.295,8.053-17.381,7.672c-6.154-0.333-11.573-2.269-15.839-7.968v25.226
		h-10.862C450.501,437.745,450.501,414.901,450.501,391.929L450.501,391.929z M460.756,417.261c0.455,2.518,0.705,5.099,1.408,7.547
		c1.568,5.465,6.347,9.506,11.297,9.854c6.62,0.467,11.374-1.978,13.768-7.849c3.043-7.46,2.936-14.981-1.513-21.955
		c-5.242-8.224-17.807-7.535-22.25,1.079C461.638,409.484,460.742,413.217,460.756,417.261L460.756,417.261z M443.352,434.873
		c0,2.062,0.071,4.156-0.054,6.239c-0.03,0.515-0.676,1.382-1.093,1.42c-3.15,0.262-6.349,0.72-9.457,0.396
		c-2.739-0.285-4.25-2.608-5.095-5.296c-6.505,5.297-13.963,6.44-21.898,5.459c-6.635-0.823-12.133-6.27-12.604-12.32
		c-0.654-8.337,2.551-13.768,10.037-15.743c5.25-1.385,10.72-1.942,16.09-2.878c1.302-0.227,2.618-0.412,3.891-0.762
		c2.444-0.666,4.206-2.018,4.386-4.799c0.186-2.876-0.93-5.115-3.633-6.204c-4.611-1.854-9.307-1.811-13.848,0.315
		c-2.071,0.969-3.302,2.919-4.387,6.231h-10.641c0.01-4.056,1.421-7.464,4.116-10.335c3.559-3.792,8.197-5.281,13.192-5.803
		c5.231-0.547,10.431-0.522,15.511,1.19c6.832,2.303,10.104,6.812,10.094,14.028c-0.009,7.66-0.002,15.319-0.003,22.981
		C437.955,434.431,437.954,434.431,443.352,434.873L443.352,434.873z M426.905,417.589c-3.353,0.58-6.421,1.025-9.447,1.659
		c-3.187,0.665-6.431,1.242-9.468,2.355c-2.977,1.09-3.989,3.873-3.891,6.859c0.095,2.857,2.044,4.457,4.559,5.336
		c4.314,1.508,8.638,1.321,12.751-0.603c2.946-1.38,5.19-3.633,5.453-7.075C427.078,423.255,426.905,420.356,426.905,417.589z
		 M153.13,390.481c16.687-0.196,26.472,12.035,25.439,28.689c-0.358,5.788-1.914,11.198-5.725,15.772
		c-4.105,4.93-9.389,7.526-15.722,8.229c-5.289,0.592-10.429,0.245-15.33-1.979c-7.298-3.313-11.46-9.097-13.212-16.798
		c-1.2-5.282-1.148-10.541,0.198-15.763C131.749,397.11,140.622,390.526,153.13,390.481L153.13,390.481z M138.605,417.059
		c0.438,2.443,0.667,4.951,1.355,7.321c1.75,6.041,6.517,10.029,11.967,10.294c6.738,0.325,11.451-2.509,13.954-8.785
		c2.445-6.125,2.449-12.394-0.23-18.447c-3.972-8.967-14.79-11.26-21.756-4.596C139.922,406.647,138.897,411.697,138.605,417.059
		L138.605,417.059z M211.023,390.482c15.05-0.023,25.29,10.117,25.481,25.203c0.08,6.369-0.958,12.442-4.696,17.778
		c-5.353,7.639-13.083,10.31-21.984,9.906c-3.278-0.15-6.678-0.879-9.734-2.077c-7.176-2.817-11.456-8.363-13.357-15.787
		c-1.669-6.52-1.483-12.998,0.64-19.368C190.629,396.363,199.561,390.499,211.023,390.482L211.023,390.482z M225.449,415.703
		c-0.243-1.338-0.481-3.923-1.204-6.365c-1.833-6.216-6.679-9.989-12.784-10.252c-5.75-0.253-10.921,3.139-13.151,9.074
		c-2.626,6.993-2.433,13.959,1.524,20.475c4.123,6.789,13.469,8.275,19.598,3.212C224.109,427.982,225.253,422.646,225.449,415.703
		L225.449,415.703z M318.501,405.863c-3.434,0-6.779,0.028-10.12-0.037c-0.413-0.008-1.053-0.42-1.188-0.789
		c-1.878-5.221-6.301-5.842-10.875-5.867c-1.895-0.011-3.913,0.449-5.669,1.188c-3.752,1.573-4.17,5.819-0.653,7.852
		c2.44,1.413,5.306,2.17,8.058,2.943c3.893,1.098,7.913,1.759,11.781,2.926c9.892,2.99,13.756,12.909,8.22,21.083
		c-2.658,3.922-6.632,6.044-11.186,7.145c-6.732,1.623-13.437,1.743-20.017-0.635c-7.039-2.544-10.759-7.647-11.308-15.375h10.742
		c3.054,7.973,11.686,11.079,19.771,7.003c1.871-0.941,3.12-2.281,3.244-4.487c0.134-2.356-0.776-4.382-2.891-5.17
		c-3.77-1.406-7.706-2.37-11.577-3.506c-3.205-0.939-6.512-1.618-9.605-2.842c-5.967-2.364-8.561-6.43-8.524-12.627
		c0.033-5.407,3.193-10.039,8.796-12.071c7.712-2.796,15.582-3.144,23.328-0.108c5.237,2.051,8.359,6.097,9.657,11.544
		C318.602,404.534,318.501,405.092,318.501,405.863z M260.178,391.789h9.942v8.13h-9.742c-0.069,0.974-0.158,1.654-0.159,2.336
		c-0.009,8.206-0.013,16.412,0.004,24.616c0.002,1.093,0.086,2.189,0.194,3.274c0.214,2.17,1.418,3.459,3.603,3.578
		c2.001,0.11,4.016,0.024,6.136,0.024v8.129c-4.542,1.125-9.157,1.065-13.625,0.069c-5.203-1.16-7.316-4.738-7.362-11.513
		c-0.063-9.223-0.019-18.444-0.021-27.668v-2.71h-8.258v-8.224h8.146v-15.059h11.142
		C260.178,381.698,260.178,386.589,260.178,391.789L260.178,391.789z M353.164,442.19c-4.278,0-8.328,0.133-12.364-0.039
		c-3.913-0.166-6.925-2.759-7.779-6.632c-0.489-2.21-0.746-4.461-0.77-6.722c-0.087-8.679-0.036-17.355-0.036-26.032v-2.743h-8.231
		v-8.115h8.108v-15.118h11.163v14.874h9.895v8.173h-9.494c-0.113,0.737-0.261,1.246-0.261,1.755
		c-0.008,8.835-0.038,17.668,0.02,26.501c0.031,4.672,1.253,5.797,5.885,5.764c1.236-0.009,2.476-0.001,3.866-0.001L353.164,442.19z
		 M371.733,391.956v8.555c4.286-7.279,10.221-11.071,18.981-9.778v10.553c-4.162-0.625-8.175-0.737-11.732,1.818
		c-4.664,3.354-6.292,8.252-6.408,13.653c-0.179,8.348-0.047,16.705-0.047,25.239h-10.934v-50.04
		C364.906,391.956,368.147,391.956,371.733,391.956z"/>
</g>
<g>
	<path fill="#563D7C" d="M400.073,308.527c0,22.282-18.23,40.513-40.512,40.513H197.511c-22.282,0-40.513-18.23-40.513-40.513
		v-162.05c0-22.282,18.23-40.513,40.513-40.513h162.051c22.281,0,40.512,18.23,40.512,40.513V308.527z"/>
	<path fill="#FFFFFF" d="M223.049,158.79h68.912c12.71,0,22.917,2.9,30.582,8.738c7.667,5.839,11.521,14.617,11.521,26.413
		c0,7.149-1.749,13.266-5.245,18.35c-3.494,5.084-8.498,9.055-15.014,11.836v0.397c8.738,1.867,15.372,5.997,19.861,12.392
		c4.486,6.434,6.751,14.457,6.751,24.149c0,5.561-0.991,10.763-2.979,15.569c-1.986,4.846-5.084,9.017-9.334,12.512
		s-9.651,6.275-16.284,8.34c-6.633,2.066-14.498,3.099-23.633,3.099h-65.138V158.79L223.049,158.79z M247.874,218.169h40.512
		c5.959,0,10.922-1.668,14.895-5.084c3.972-3.416,5.958-8.261,5.958-14.616c0-7.149-1.788-12.193-5.363-15.093
		c-3.573-2.9-8.737-4.37-15.489-4.37h-40.512V218.169L247.874,218.169z M247.874,280.328h43.888c7.546,0,13.426-1.945,17.557-5.878
		c4.17-3.892,6.274-9.452,6.274-16.602c0-7.03-2.064-12.392-6.274-16.205c-4.211-3.813-10.011-5.64-17.557-5.64h-43.888V280.328z"/>
</g>
</svg>
