<?xml version="1.0" encoding="utf-8"?>
<!-- Generator: Adobe Illustrator 14.0.0, SVG Export Plug-In . SVG Version: 6.00 Build 43363)  -->
<!DOCTYPE svg PUBLIC "-//W3C//DTD SVG 1.1//EN" "http://www.w3.org/Graphics/SVG/1.1/DTD/svg11.dtd">
<svg version="1.1" id="Слой_1" xmlns="http://www.w3.org/2000/svg" xmlns:xlink="http://www.w3.org/1999/xlink" x="0px" y="0px"
	 width="566.93px" height="566.93px" viewBox="0 0 566.93 566.93" enable-background="new 0 0 566.93 566.93" xml:space="preserve">
<g>
	<path fill="#FFFFFF" fill-opacity="0" d="M15.833,16.186h533.744V549.93H15.833V16.186z"/>
	<path fill="#CC2428" d="M132.575,301.594l16.34,4.143c-3.439,13.471-9.625,23.741-18.555,30.816
		c-8.93,7.074-19.845,10.61-32.747,10.61c-13.355,0-24.218-2.718-32.583-8.16c-8.366-5.441-14.737-13.321-19.101-23.639
		c-4.364-10.314-6.549-21.396-6.549-33.234c0-12.911,2.465-24.173,7.39-33.787c4.927-9.614,11.941-16.914,21.037-21.903
		c9.096-4.99,19.106-7.488,30.036-7.488c12.388,0,22.806,3.157,31.257,9.465c8.448,6.313,14.335,15.189,17.658,26.626l-16.16,3.811
		c-2.874-9.025-7.042-15.598-12.504-19.718c-5.464-4.117-12.336-6.177-20.609-6.177c-9.518,0-17.474,2.287-23.867,6.858
		c-6.391,4.57-10.882,10.705-13.471,18.406c-2.588,7.675-3.9,15.722-3.885,23.822c0,10.552,1.534,19.763,4.61,27.631
		c3.076,7.87,7.856,13.755,14.344,17.642c6.347,3.855,13.638,5.877,21.063,5.84c9.193,0,16.978-2.65,23.352-7.956
		C126.003,319.901,130.318,312.033,132.575,301.594L132.575,301.594z M185.698,234.755h39.187c9.179,0,15.899,1.893,20.153,5.682
		c4.253,3.788,6.38,8.617,6.38,14.497c0,4.014-1.1,7.732-3.296,11.15c-2.199,3.42-5.411,5.906-9.633,7.459
		c-4.226,1.557-10.084,2.332-17.57,2.332h-35.221V234.755L185.698,234.755z M185.698,345.006v-54.948h19.003
		c4.22,0,7.263,0.2,9.118,0.584c2.537,0.613,5.026,1.697,7.476,3.258c2.448,1.555,5.223,4.306,8.319,8.251
		c3.098,3.943,7.039,9.637,11.826,17.073l16.385,25.782h20.49l-21.44-33.727c-4.258-6.599-8.783-12.098-13.571-16.488
		c-2.25-2.022-5.546-4.085-9.882-6.168c11.879-1.633,20.659-5.463,26.347-11.494c5.688-6.026,8.535-13.435,8.535-22.221
		c0-6.813-1.717-13.042-5.15-18.674c-3.434-5.636-8.025-9.562-13.768-11.788c-5.743-2.227-14.134-3.339-25.165-3.339h-54.854
		v123.898H185.698L185.698,345.006z M318.536,245.092c8.371-7.966,18.372-11.954,29.982-11.954c8.178,0,15.549,2.071,22.119,6.208
		c6.571,4.143,11.563,9.968,14.969,17.488c3.412,7.518,5.122,16.318,5.122,26.398c0,15.938-3.989,28.241-11.966,36.916
		c-7.983,8.67-18.146,13.007-30.493,13.007c-12.132,0-22.208-4.295-30.243-12.882c-8.031-8.584-12.05-20.342-12.05-35.266
		C305.979,266.367,310.165,253.061,318.536,245.092L318.536,245.092z M296.195,315.642c4.738,9.746,11.699,17.437,20.882,23.07
		c9.182,5.636,19.609,8.454,31.275,8.454c10.764,0,20.796-2.553,30.091-7.652c9.296-5.096,16.484-12.603,21.557-22.521
		c5.072-9.914,7.61-21.158,7.61-33.722c0-12.398-2.413-23.482-7.23-33.256c-4.818-9.775-11.818-17.397-21.006-22.86
		c-9.183-5.466-19.496-8.199-30.935-8.199c-17.478,0-31.731,5.82-42.774,17.453c-11.042,11.635-16.564,27.734-16.564,48.302
		C289.101,295.578,291.463,305.894,296.195,315.642z M428.347,345.006V221.107h16.898l64.979,97.246v-97.246h15.804v123.898h-16.9
		l-64.979-97.244v97.244H428.347L428.347,345.006z"/>
</g>
</svg>
