<?xml version="1.0" encoding="utf-8"?>
<!-- Generator: Adobe Illustrator 14.0.0, SVG Export Plug-In . SVG Version: 6.00 Build 43363)  -->
<!DOCTYPE svg PUBLIC "-//W3C//DTD SVG 1.1//EN" "http://www.w3.org/Graphics/SVG/1.1/DTD/svg11.dtd">
<svg version="1.1" id="Слой_1" xmlns="http://www.w3.org/2000/svg" xmlns:xlink="http://www.w3.org/1999/xlink" x="0px" y="0px"
	 width="566.93px" height="566.93px" viewBox="0 0 566.93 566.93" enable-background="new 0 0 566.93 566.93" xml:space="preserve">
<path fill="#413212" d="M331.462,250.692c-10.598,0-18.489,5.204-18.489,17.729c0,9.437,5.2,15.987,17.92,15.987
	c10.78,0,18.101-6.352,18.101-16.376C348.993,256.67,342.442,250.692,331.462,250.692L331.462,250.692z M310.267,339.127
	c-2.509,3.077-5.008,6.347-5.008,10.208c0,7.698,9.819,10.015,23.309,10.015c11.172,0,26.393-0.782,26.393-11.171
	c0-6.175-7.322-6.557-16.573-7.136L310.267,339.127L310.267,339.127z M367.289,251.274c3.461,4.432,7.125,10.598,7.125,19.459
	c0,21.382-16.76,33.903-41.027,33.903c-6.17,0-11.758-0.769-15.222-1.729l-6.359,10.209l18.878,1.152
	c33.329,2.123,52.972,3.089,52.972,28.701c0,22.16-19.451,34.676-52.972,34.676c-34.869,0-48.16-8.863-48.16-24.08
	c0-8.673,3.854-13.286,10.597-19.653c-6.361-2.688-8.477-7.501-8.477-12.706c0-4.24,2.115-8.092,5.589-11.755
	c3.468-3.656,7.318-7.321,11.942-11.559c-9.438-4.622-16.568-14.641-16.568-28.897c0-22.15,14.642-37.364,44.111-37.364
	c8.285,0,13.296,0.763,17.728,1.926h37.567v16.37l-17.725,1.349"/>
<path fill="#413212" d="M418.923,216.268c-10.984,0-17.339-6.363-17.339-17.347c0-10.972,6.354-16.948,17.339-16.948
	c11.174,0,17.531,5.976,17.531,16.948C436.454,209.904,430.097,216.268,418.923,216.268z M394.067,332.035v-15.212l9.828-1.343
	c2.698-0.392,3.081-0.965,3.081-3.86v-56.636c0-2.115-0.575-3.469-2.507-4.042l-10.402-3.663l2.118-15.599h39.88v79.941
	c0,3.088,0.187,3.47,3.084,3.861l9.826,1.344v15.211L394.067,332.035"/>
<path fill="#413212" d="M525.153,324.569c-8.288,4.042-20.42,7.702-31.408,7.702c-22.923,0-31.588-9.239-31.588-31.017v-50.467
	c0-1.153,0-1.928-1.548-1.928h-13.482v-17.144c16.959-1.931,23.694-10.409,25.814-31.407h18.305v27.365c0,1.343,0,1.924,1.542,1.924
	h27.16v19.262h-28.702v46.04c0,11.367,2.7,15.794,13.096,15.794c5.4,0,10.982-1.345,15.605-3.08L525.153,324.569"/>
<path fill="#E85337" d="M239.717,274.015l-88.088-88.077c-5.068-5.073-13.295-5.073-18.371,0l-18.291,18.292l23.201,23.201
	c5.394-1.822,11.576-0.6,15.873,3.698c4.319,4.325,5.532,10.56,3.666,15.972l22.362,22.361c5.41-1.864,11.65-0.659,15.971,3.668
	c6.04,6.038,6.04,15.82,0,21.861c-6.041,6.041-15.824,6.041-21.868,0c-4.541-4.546-5.664-11.218-3.364-16.813l-20.855-20.854
	l-0.002,54.877c1.473,0.731,2.862,1.702,4.089,2.925c6.038,6.037,6.038,15.818,0,21.864c-6.04,6.037-15.827,6.037-21.86,0
	c-6.039-6.045-6.039-15.826,0-21.864c1.492-1.489,3.219-2.617,5.062-3.373v-55.39c-1.843-0.751-3.568-1.871-5.062-3.373
	c-4.574-4.569-5.676-11.283-3.33-16.9l-22.872-22.876l-60.396,60.395c-5.074,5.076-5.074,13.304,0,18.378l88.083,88.078
	c5.072,5.071,13.295,5.071,18.374,0l87.676-87.663c5.072-5.075,5.072-13.306,0-18.379"/>
</svg>
