<?xml version="1.0" encoding="utf-8"?>
<!-- Generator: Adobe Illustrator 14.0.0, SVG Export Plug-In . SVG Version: 6.00 Build 43363)  -->
<!DOCTYPE svg PUBLIC "-//W3C//DTD SVG 1.1//EN" "http://www.w3.org/Graphics/SVG/1.1/DTD/svg11.dtd">
<svg version="1.1" id="Слой_1" xmlns="http://www.w3.org/2000/svg" xmlns:xlink="http://www.w3.org/1999/xlink" x="0px" y="0px"
	 width="566.93px" height="566.93px" viewBox="0 0 566.93 566.93" enable-background="new 0 0 566.93 566.93" xml:space="preserve">
<path fill="#D34A47" d="M339.15,499.107l4.39-73.142l12.12-20.688c0,0-27.585,11.283-73.768,11.283
	c-46.185,0-73.352-11.075-73.352-11.075l13.583,22.568l4.805,71.054c0,7.617,25.121,13.792,56.111,13.792
	C314.027,512.899,339.15,506.725,339.15,499.107 M325.305,157.548l9.213-36.417l51.021-53.686l-13.448-11.454l-54.016,57.189
	l-10.698,43.509c-8.05-0.27-16.105-0.404-24.161-0.402c-56.889,0-103.007,6.483-103.007,14.479c0,7.997,46.118,14.48,103.007,14.48
	c56.888,0,103.005-6.483,103.005-14.48C386.221,164.878,361.209,159.811,325.305,157.548"/>
<path fill="#FFFFFF" d="M319.944,177.943c0,0-1.994,0.447-7.864,0.471c-5.871,0.024-10.04-0.038-11.7-1.55
	c-0.446-0.406-0.691-1.213-0.688-1.759c0.005-1.039,0.742-1.651,1.682-2.035l0.89,1.395c-0.387,0.133-0.608,0.292-0.608,0.46
	c-0.003,0.79,6.004,1.329,10.597,1.271c4.596-0.056,10.147-0.435,10.151-1.213c0-0.235-0.42-0.457-1.15-0.631l0.885-1.385
	c1.191,0.37,2.23,1.084,2.228,2.32C324.353,177.387,321.681,177.707,319.944,177.943"/>
<path fill="#D34A47" d="M385.438,67.551c1.282-1.482-0.665-5.271-4.349-8.464c-3.686-3.191-7.713-4.577-8.999-3.095
	c-1.284,1.482,0.665,5.271,4.35,8.463S384.154,69.033,385.438,67.551 M336.696,320.452c-1.209-11.633,25.447-28.483,18.606-29.022
	c-14.727,0.842-22.057,17.259-29.466,34.452c-2.716,6.302-12.007,33.173-18.101,29.864c-6.092-3.306,7.898-25.402,11.819-38.525
	c-4.523,3.318-21.117,16.21-25.395,4.138c-6.874,5.838-21.564,9.001-19.907-6.336c-3.657,6.479-11.866,15.523-21.719,11.764
	c-12.94-4.934,7.498-46.151,12.58-44.072c5.083,2.079-1.026,11.468-2.625,15.114c-3.519,8.023-7.583,18.112-4.868,20.178
	c4.652,3.537,17.31-13.384,17.591-13.757c2.368-3.127,9.112-23.589,14.549-21.24c5.437,2.35-13.559,29.367-6.457,34.728
	c1.433,1.082,7.292-0.667,10.857-4.523c2.308-2.496,1.515-8.023,9.204-26.36s14.542-41.172,19.816-39.433
	c5.272,1.739,0.927,13.459-0.966,17.828c-8.878,20.507-24.229,54.386-16.988,51.821c7.238-2.564,11.009-2.715,18.098-11.011
	c7.091-8.296,6.764-21.961,11.488-21.671c4.727,0.292,3.934,4.673,2.786,8.01c4.651-5.322,22.046-16.531,26.245-5.43
	c4.976,13.143-24.887,32.125-17.44,31.157c7.259-0.943,19.02-8.392,24.04-15.164l13.82-124.255c0,0-13.907,11.509-102.387,11.509
	c-88.481,0-100.95-11.27-100.95-11.27l11.767,113.416c6.246-17.75,21.078-53.656,44.455-52.451
	c10.635,0.549,24.831,21.025,12.67,21.72c-5.147,0.293-5.669-10.221-11.765-11.765c-4.398-1.115-10.521,2.461-14.479,6.335
	c-7.893,7.724-24.867,38.199-22.625,53.394c2.858,19.369,26.73-6.73,30.77-14.479c2.844-5.46,4.766-21.633,10.987-19.936
	c6.222,1.697-0.543,18.388-5.053,33.144c-5.066,16.571-7.729,34.05-14.08,32.038c-6.351-2.008,3.994-23.399,3.619-27.148
	c-5.968,5.509-16.965,19.45-31.034,12.55l7.308,70.431c0,0,19.422,15.345,77.93,15.345s78.648-15.105,78.648-15.105l9.074-81.575
	C361.697,322.086,338.2,334.923,336.696,320.452"/>
</svg>
