<?xml version="1.0" encoding="utf-8"?>
<!-- Generator: Adobe Illustrator 14.0.0, SVG Export Plug-In . SVG Version: 6.00 Build 43363)  -->
<!DOCTYPE svg PUBLIC "-//W3C//DTD SVG 1.1//EN" "http://www.w3.org/Graphics/SVG/1.1/DTD/svg11.dtd">
<svg version="1.1" id="Слой_1" xmlns="http://www.w3.org/2000/svg" xmlns:xlink="http://www.w3.org/1999/xlink" x="0px" y="0px"
	 width="566.93px" height="566.93px" viewBox="0 0 566.93 566.93" enable-background="new 0 0 566.93 566.93" xml:space="preserve">
<g>
	<path fill="#E44F27" d="M178.845,434.02L155.75,174.978h253.777l-23.12,259l-103.925,28.812L178.845,434.02z"/>
	<path fill="#EA662D" d="M282.64,440.767l83.973-23.28l19.76-221.327H282.64V440.767z"/>
	<path fill="#EBEAEB" d="M282.64,292.234H240.6l-2.904-32.533h44.944v-31.771h-79.666l0.761,8.522l7.808,87.55h71.097V292.234z
		 M282.64,374.743l-0.14,0.038l-35.383-9.553l-2.262-25.339h-31.891l4.451,49.885l65.08,18.063l0.146-0.039V374.743z"/>
	<path d="M179.361,104.583h16.146v15.951h14.768v-15.951h16.145v48.305h-16.145v-16.175h-14.768v16.175h-16.145L179.361,104.583z
		 M247.653,120.601h-14.212v-16.019h44.581v16.019h-14.22v32.286h-16.147L247.653,120.601L247.653,120.601z M285.095,104.583h16.835
		l10.354,16.973l10.349-16.973h16.842v48.305h-16.083v-23.944l-11.107,17.175h-0.276l-11.116-17.175v23.944h-15.799v-48.305H285.095
		z M347.508,104.583h16.148v32.339h22.706v15.966h-38.854V104.583z"/>
	<path fill="#FFFFFF" d="M282.529,292.234v31.769h39.124l-3.691,41.204l-35.432,9.564v33.052l65.13-18.049l0.479-5.368l7.466-83.641
		l0.774-8.531h-8.559H282.529z M282.529,227.931v31.771h76.742l0.635-7.143l1.448-16.105l0.761-8.522H282.529z"/>
</g>
</svg>
