<?xml version="1.0" encoding="utf-8"?>
<!-- Generator: Adobe Illustrator 14.0.0, SVG Export Plug-In . SVG Version: 6.00 Build 43363)  -->
<!DOCTYPE svg PUBLIC "-//W3C//DTD SVG 1.1//EN" "http://www.w3.org/Graphics/SVG/1.1/DTD/svg11.dtd">
<svg version="1.1" id="Слой_1" xmlns="http://www.w3.org/2000/svg" xmlns:xlink="http://www.w3.org/1999/xlink" x="0px" y="0px"
	 width="566.93px" height="566.93px" viewBox="0 0 566.93 566.93" enable-background="new 0 0 566.93 566.93" xml:space="preserve">
<g id="brandmark" transform="matrix(1,0,0,1,-35,-35)">
	<path id="j-green" fill="#7EB848" d="M242.07,264.108l-4.414-4.416c-14.191-14.19-18.292-34.059-13.247-52.035
		c-14.19-3.155-24.598-15.769-24.598-30.904c0-17.346,14.192-31.538,31.536-31.538c15.769,0,28.697,11.354,31.221,26.491
		c17.029-4.1,35.635,0.629,48.881,13.876l1.893,1.891l-23.337,23.338l-1.892-1.892c-7.568-7.568-19.868-7.568-27.437,0
		c-7.567,7.567-7.567,19.867,0,27.436l52.352,52.35l-23.338,23.335l-24.598-24.598L242.07,264.108z"/>
	<path id="j-orange" fill="#F5A544" d="M268.246,238.248l24.599-24.599l23.336-23.335l4.414-4.417
		c13.875-13.875,34.059-18.289,51.72-13.244c2.209-15.452,15.452-27.121,31.222-27.121c17.343,0,31.534,14.191,31.534,31.536
		c0,16.083-11.982,29.329-27.437,31.221c5.045,17.66,0.632,37.527-13.244,51.403l-1.895,1.893l-22.705-23.337l1.893-1.891
		c7.57-7.569,7.57-19.869,0-27.436c-7.566-7.568-19.867-7.568-27.435,0l-4.417,4.414l-23.335,23.336l-24.599,24.598L268.246,238.248
		z"/>
	<path id="j-red" fill="#E6472B" d="M373.261,355.879c-17.977,5.36-38.157,1.259-52.351-12.93l-1.892-1.896l23.339-23.334
		l1.892,1.893c7.567,7.568,19.868,7.568,27.435,0c7.57-7.57,7.57-19.867,0-27.437l-4.413-4.416l-23.337-23.336l-24.601-24.598
		l23.338-23.337l52.664,52.667c13.248,13.244,17.979,32.165,13.877,49.511c15.451,2.206,27.121,15.451,27.121,31.22
		c0,17.344-14.191,31.536-31.536,31.536C389.027,381.105,376.101,370.067,373.261,355.879z"/>
	<path id="j-blue" fill="#5391C9" d="M364.117,290.281l-24.601,24.598l-23.335,23.337l-4.415,4.415
		c-13.563,13.56-32.483,17.977-49.512,13.875c-3.155,14.19-15.769,24.599-30.906,24.599c-17.344,0-31.536-14.191-31.536-31.536
		c0-14.821,10.408-27.436,24.283-30.589c-4.415-17.661,0-36.582,13.561-50.142l1.892-1.893l23.335,23.335l-1.891,1.894
		c-7.569,7.57-7.569,19.867,0,27.437c7.567,7.568,19.866,7.568,27.436,0l4.416-4.415l23.336-23.337l24.599-24.599L364.117,290.281z"
		/>
</g>
<g id="logo" transform="matrix(1,0,0,1,-35,-35)">
	<path fill="#3D3B41" d="M145.12,408.345v46.575c0,4.166,0.297,8.035-3.423,10.862c-3.422,2.827-9.226,3.72-15.475,3.72
		c-9.523,0-19.642-2.231-19.642-2.231l-2.232,5.952c0,0,14.136,2.976,24.403,3.124c8.63,0.149,16.219-1.785,20.386-6.547
		c3.422-3.869,4.464-8.333,4.315-15.922v-45.533H145.12"/>
	<path fill="#3D3B41" d="M214.609,434.088c-6.25-3.423-13.838-5.208-22.469-5.208c-8.481,0-16.07,1.785-22.469,5.208
		c-8.035,4.315-12.053,10.714-12.053,18.749s4.018,14.434,12.053,18.748c6.398,3.423,13.838,5.208,22.469,5.208
		c8.482,0,16.071-1.785,22.32-5.208c8.035-4.314,12.053-10.713,12.053-18.748C226.513,444.652,222.496,438.403,214.609,434.088
		 M209.699,466.824c-4.91,2.827-10.713,4.166-17.559,4.166c-6.994,0-12.945-1.339-17.707-4.018c-5.803-3.273-8.63-7.887-8.63-14.136
		c0-6.102,2.976-10.863,8.63-14.137c4.762-2.678,10.713-4.018,17.707-4.018c6.845,0,12.797,1.34,17.708,4.018
		c5.654,3.273,8.63,8.035,8.63,14.137C218.329,458.788,215.502,463.55,209.699,466.824z"/>
	<path fill="#3D3B41" d="M287.819,434.088c-6.25-3.423-13.839-5.208-22.47-5.208c-8.48,0-16.07,1.785-22.468,5.208
		c-8.035,4.315-12.053,10.714-12.053,18.749s4.018,14.434,12.053,18.748c6.398,3.423,13.838,5.208,22.468,5.208
		c8.482,0,16.071-1.785,22.32-5.208c8.035-4.314,12.053-10.713,12.053-18.748C299.723,444.652,295.705,438.403,287.819,434.088
		 M282.908,466.824c-4.91,2.827-10.713,4.166-17.559,4.166c-6.993,0-12.945-1.339-17.707-4.018c-5.803-3.273-8.63-7.887-8.63-14.136
		c0-6.102,2.976-10.863,8.63-14.137c4.761-2.678,10.713-4.018,17.707-4.018c6.846,0,12.798,1.34,17.708,4.018
		c5.654,3.273,8.63,8.035,8.63,14.137C291.539,458.788,288.712,463.55,282.908,466.824z"/>
	<path fill="#3D3B41" d="M388.854,432.897c-4.464-2.679-10.268-4.018-17.112-4.018c-8.779,0-15.772,2.678-21.129,8.035
		c-5.06-5.357-12.202-8.035-20.981-8.035c-7.143,0-12.945,1.487-17.409,4.315c0-1.042,0-3.721,0-3.721h-7.887v46.277h7.887v-31.546
		c0.595-2.232,2.083-4.315,4.464-6.101c3.273-2.232,7.439-3.423,12.647-3.423c4.613,0,8.482,0.893,11.756,2.827
		c3.868,2.232,5.654,5.208,5.654,9.375v29.165h7.737v-29.314c0-4.166,1.786-7.142,5.654-9.374c3.274-1.786,7.292-2.827,11.904-2.827
		c4.613,0,8.631,0.893,11.904,2.827c3.868,2.232,5.654,5.208,5.654,9.374V475.9h7.887v-28.123
		C397.336,441.23,394.36,436.171,388.854,432.897"/>
	<path fill="#3D3B41" d="M403.586,408.345V475.9h7.887v-67.556H403.586"/>
	<path fill="#3D3B41" d="M499.413,408.345v52.229h7.887v-52.229H499.413"/>
	<path fill="#3D3B41" d="M478.73,429.475c0,0,0,6.398,0,7.887c-6.696-5.654-15.624-8.631-26.636-8.631
		c-8.779,0-16.368,1.637-22.618,5.06c-7.737,4.315-11.755,10.564-11.755,18.897c0,8.185,4.018,14.583,12.053,18.749
		c6.25,3.423,13.839,5.06,22.618,5.06c4.314,0,8.63-0.446,12.499-1.488c5.506-1.488,10.118-3.571,13.689-6.398
		c0,1.637,0,7.143,0,7.143h7.887v-46.277H478.73 M426.055,452.837c0-6.102,2.976-10.863,8.631-14.137
		c4.761-2.678,10.862-4.018,17.855-4.018c8.631,0,15.326,2.083,20.088,6.25c4.167,3.72,6.25,8.481,6.25,14.285c0,0,0,5.059,0,5.505
		c-3.273,3.721-8.185,6.548-14.434,8.481c-3.72,1.19-7.738,1.786-11.904,1.786c-7.143,0-13.095-1.339-17.855-3.869
		C428.882,463.699,426.055,459.086,426.055,452.837z"/>
	<path fill="#3D3B41" d="M503.431,467.121c-5.505,0-6.249,2.827-6.249,4.613c0,1.785,0.893,4.612,6.249,4.612
		c5.506,0,6.25-2.976,6.25-4.612S508.788,467.121,503.431,467.121z"/>
	<path fill="#3D3B41" d="M531.703,416.678c0,4.613-2.977,8.481-8.333,8.481s-8.333-3.868-8.333-8.481
		c0-4.612,2.977-8.481,8.333-8.481S531.703,412.065,531.703,416.678z M516.823,416.678c0,3.869,2.381,6.845,6.547,6.845
		s6.547-2.976,6.547-6.845c0-3.868-2.381-6.845-6.547-6.845S516.823,412.81,516.823,416.678z M525.007,417.72
		c3.273-0.596,2.976-5.506-0.744-5.506h-4.018v8.631h1.637v-2.977h1.488l2.381,2.977h1.785v-0.298L525.007,417.72z M524.263,413.702
		c1.935,0,1.935,2.827,0,2.827h-2.381v-2.827H524.263z"/>
</g>
</svg>
