<?xml version="1.0" encoding="utf-8"?>
<!-- Generator: Adobe Illustrator 14.0.0, SVG Export Plug-In . SVG Version: 6.00 Build 43363)  -->
<!DOCTYPE svg PUBLIC "-//W3C//DTD SVG 1.1//EN" "http://www.w3.org/Graphics/SVG/1.1/DTD/svg11.dtd">
<svg version="1.1" id="Слой_1" xmlns="http://www.w3.org/2000/svg" xmlns:xlink="http://www.w3.org/1999/xlink" x="0px" y="0px"
	 width="566.93px" height="566.93px" viewBox="0 0 566.93 566.93" enable-background="new 0 0 566.93 566.93" xml:space="preserve">
<path fill="#E85542" d="M302.547,318.692c-1.707,0-3.291-0.896-4.166-2.359l-36.641-61.107l-68.522,18.636
	c-2.148,0.51-4.376-0.487-5.414-2.431l-80.08-150.527c-1.258-2.362-0.363-5.296,1.996-6.556c0.509-0.273,1.06-0.452,1.627-0.528
	l67.987-9.14c1.923-0.266,3.815,0.637,4.816,2.297l82.001,136.972l95.375-25.938l-31.8-44.917c-1.561-2.173-1.065-5.202,1.107-6.764
	c0.479-0.346,1.021-0.601,1.598-0.753l44.614-10.549c1.82-0.434,3.729,0.222,4.9,1.677l38.611,48.219
	c1.676,2.085,1.342,5.136-0.744,6.811c-0.522,0.418-1.12,0.72-1.765,0.895l-40.556,11.059l35.509,49.955
	c1.547,2.184,1.033,5.205-1.144,6.755c-0.372,0.262-0.779,0.466-1.212,0.627l-106.566,37.36c-0.492,0.188-1.017,0.291-1.539,0.306
	H302.547z M271.443,252.562l33.211,55.394l96.785-33.881l-33.799-47.647L271.443,252.562z M119.555,122.428l74.944,141.046
	l62.191-16.881l-79.204-131.884L119.555,122.428z M341.949,173.374l29.82,41.939l36.989-10.061l-32.182-40.076L341.949,173.374z"/>
<path fill="#E85542" d="M83.215,352.882H91.9v93.074h-8.646L83.215,352.882z M176.689,378.81v67.146h-8.522v-11.619
	c-3.304,4.147-7.466,7.537-12.191,9.937c-13.192,6.311-28.938,3.488-39.116-7.002c-6.638-6.664-10.283-15.739-10.095-25.144
	c-0.142-9.318,3.534-18.286,10.185-24.813c6.39-6.716,15.297-10.452,24.563-10.302c5.209-0.069,10.346,1.135,14.969,3.519
	c4.69,2.545,8.717,6.158,11.757,10.549v-12.288L176.689,378.81z M142.171,385.486c-9.565-0.065-18.4,5.116-23.029,13.495
	c-4.825,8.401-4.825,18.729,0,27.127c2.295,4.172,5.667,7.653,9.767,10.067c3.978,2.373,8.522,3.619,13.152,3.606
	c4.715,0,9.343-1.233,13.438-3.581c4.089-2.249,7.471-5.607,9.754-9.676c2.334-4.239,3.508-8.999,3.43-13.823
	c0.197-7.27-2.575-14.31-7.68-19.485c-4.924-5.093-11.75-7.902-18.832-7.754V385.486z M192.859,378.81h8.829v9.813
	c2.21-3.386,5.047-6.327,8.347-8.657c2.692-1.844,5.875-2.844,9.134-2.873c2.719,0.09,5.36,0.881,7.673,2.292l-4.523,7.346
	c-1.46-0.706-3.052-1.1-4.669-1.171c-3.13,0.095-6.103,1.358-8.345,3.545c-3.052,3.007-5.183,6.829-6.144,11.013
	c-1.017,3.822-1.531,11.556-1.531,23.188v22.729h-8.822L192.859,378.81z M301.03,378.81v67.146h-8.522v-11.619
	c-3.304,4.147-7.465,7.537-12.19,9.937c-13.191,6.311-28.939,3.488-39.117-7.002c-6.637-6.664-10.281-15.739-10.093-25.144
	c-0.131-9.318,3.542-18.294,10.2-24.813c6.389-6.716,15.295-10.452,24.561-10.302c5.209-0.069,10.349,1.135,14.971,3.519
	c4.688,2.545,8.717,6.158,11.755,10.549v-12.288L301.03,378.81z M266.513,385.486c-9.572-0.065-18.414,5.116-23.029,13.495
	c-4.833,8.401-4.833,18.729,0,27.127c2.288,4.172,5.66,7.653,9.754,10.067c3.978,2.373,8.528,3.619,13.158,3.606
	c4.715,0,9.343-1.233,13.433-3.581c4.095-2.249,7.476-5.607,9.766-9.676c2.322-4.239,3.51-8.999,3.418-13.823
	c0.22-7.29-2.55-14.357-7.667-19.551c-4.925-5.093-11.746-7.902-18.818-7.752L266.513,385.486z M314.137,378.81h9.207l22.548,48.94
	l22.299-48.94h9.213l-30.719,67.151h-1.531L314.137,378.81z M447.044,423.677l7.342,3.826c-2.052,4.253-4.857,8.1-8.267,11.359
	c-3.07,2.841-6.658,5.071-10.561,6.57c-4.255,1.567-8.754,2.329-13.284,2.259c-10.947,0-19.517-3.562-25.702-10.682
	c-5.98-6.704-9.261-15.375-9.214-24.347c-0.093-8.269,2.687-16.313,7.846-22.704c6.278-8.313,16.201-13.053,26.62-12.713
	c10.707-0.35,20.923,4.502,27.418,13.021c4.856,6.14,7.31,13.815,7.349,23.036h-60.455c-0.106,7.118,2.581,13.998,7.471,19.169
	c4.629,4.909,11.113,7.629,17.853,7.485c3.41,0,6.788-0.601,9.982-1.788c3.015-1.067,5.805-2.674,8.25-4.727
	c2.921-2.821,5.399-6.064,7.353-9.631V423.677z M447.044,405.648c-0.865-3.994-2.581-7.759-5.034-11.037
	c-2.348-2.869-5.347-5.15-8.728-6.663c-3.56-1.67-7.449-2.536-11.38-2.536c-6.271-0.128-12.348,2.148-16.992,6.358
	c-3.452,3.116-6.076,7.722-7.849,13.818L447.044,405.648z M471.353,352.958H480v93.075h-8.647V352.958z"/>
</svg>
