<?xml version="1.0" encoding="utf-8"?>
<!-- Generator: Adobe Illustrator 14.0.0, SVG Export Plug-In . SVG Version: 6.00 Build 43363)  -->
<!DOCTYPE svg PUBLIC "-//W3C//DTD SVG 1.1//EN" "http://www.w3.org/Graphics/SVG/1.1/DTD/svg11.dtd">
<svg version="1.1" id="Слой_1" xmlns="http://www.w3.org/2000/svg" xmlns:xlink="http://www.w3.org/1999/xlink" x="0px" y="0px"
	 width="566.93px" height="566.93px" viewBox="0 0 566.93 566.93" enable-background="new 0 0 566.93 566.93" xml:space="preserve">
<g>
	<path fill="#E5392F" d="M412.902,149.953c0.087,0.318,0.131,0.646,0.131,0.974v51.127c0,1.335-0.715,2.569-1.873,3.234
		l-42.911,24.706v48.969c0,1.333-0.71,2.563-1.864,3.233l-89.576,51.565c-0.204,0.117-0.428,0.192-0.652,0.271
		c-0.083,0.027-0.164,0.079-0.251,0.102c-0.626,0.167-1.285,0.167-1.911,0c-0.103-0.026-0.196-0.082-0.293-0.12
		c-0.205-0.075-0.419-0.14-0.616-0.252l-89.556-51.565c-1.158-0.665-1.874-1.896-1.874-3.233v-153.38
		c0-0.335,0.047-0.662,0.131-0.979c0.028-0.107,0.093-0.205,0.13-0.312c0.071-0.195,0.136-0.396,0.238-0.578
		c0.07-0.121,0.172-0.219,0.256-0.331c0.106-0.149,0.205-0.303,0.33-0.433c0.108-0.108,0.248-0.187,0.368-0.28
		c0.136-0.112,0.257-0.232,0.411-0.322h0.004l44.78-25.782c1.154-0.665,2.574-0.665,3.728,0l44.781,25.782h0.01
		c0.149,0.094,0.274,0.21,0.409,0.317c0.123,0.093,0.257,0.177,0.365,0.279c0.13,0.135,0.224,0.29,0.334,0.438
		c0.08,0.111,0.188,0.209,0.252,0.331c0.106,0.186,0.168,0.382,0.242,0.578c0.038,0.107,0.104,0.205,0.131,0.317
		c0.086,0.318,0.13,0.646,0.131,0.975v95.799l37.315-21.486v-48.975c0-0.326,0.046-0.657,0.13-0.969
		c0.034-0.112,0.094-0.21,0.131-0.317c0.075-0.195,0.141-0.396,0.243-0.577c0.069-0.122,0.171-0.219,0.251-0.331
		c0.111-0.149,0.204-0.303,0.334-0.434c0.108-0.108,0.243-0.187,0.364-0.28c0.14-0.112,0.262-0.232,0.411-0.322h0.004l44.784-25.782
		c1.156-0.665,2.575-0.665,3.729,0l44.779,25.782c0.158,0.094,0.28,0.21,0.42,0.317c0.117,0.093,0.251,0.177,0.358,0.28
		c0.132,0.135,0.224,0.289,0.336,0.438c0.084,0.111,0.187,0.209,0.252,0.331c0.106,0.182,0.167,0.382,0.241,0.577
		C412.814,149.743,412.875,149.841,412.902,149.953z M405.568,199.896V157.38l-15.671,9.022l-21.648,12.464v42.516l37.325-21.486
		H405.568z M360.788,276.806v-42.543l-21.295,12.162l-60.811,34.707v42.943L360.788,276.806z M189.122,132.036v144.77l82.097,47.264
		v-42.935l-42.89-24.273l-0.014-0.009l-0.019-0.01c-0.144-0.084-0.266-0.206-0.4-0.308c-0.116-0.093-0.251-0.167-0.354-0.27
		l-0.009-0.014c-0.122-0.116-0.205-0.26-0.307-0.391c-0.094-0.126-0.206-0.232-0.28-0.363l-0.004-0.014
		c-0.084-0.14-0.136-0.309-0.196-0.466c-0.061-0.141-0.14-0.271-0.177-0.42v-0.004c-0.047-0.178-0.056-0.363-0.075-0.544
		c-0.018-0.141-0.056-0.281-0.056-0.42v-0.009V153.521l-21.645-12.469l-15.671-9.012V132.036z M230.174,104.105l-37.311,21.478
		l37.301,21.476l37.306-21.481l-37.306-21.472H230.174z M249.577,238.14l21.645-12.461v-93.643l-15.67,9.021l-21.649,12.464v93.644
		L249.577,238.14z M364.52,129.45l-37.305,21.477l37.305,21.477l37.303-21.482L364.52,129.45z M360.788,178.866l-21.649-12.464
		l-15.671-9.022v42.516l21.646,12.461l15.675,9.025V178.866z M274.946,274.677l54.72-31.24l27.352-15.61l-37.276-21.462
		l-42.923,24.71L237.7,253.596L274.946,274.677z"/>
</g>
<path fill="#E53A30" d="M84.215,352.882H92.9v93.074h-8.646L84.215,352.882z M177.689,378.81v67.146h-8.522v-11.619
	c-3.304,4.147-7.466,7.537-12.191,9.937c-13.192,6.311-28.938,3.488-39.116-7.002c-6.638-6.664-10.283-15.739-10.095-25.144
	c-0.142-9.318,3.534-18.286,10.185-24.813c6.39-6.716,15.297-10.452,24.563-10.302c5.209-0.069,10.346,1.135,14.969,3.519
	c4.69,2.545,8.717,6.158,11.757,10.549v-12.288L177.689,378.81z M143.171,385.486c-9.565-0.065-18.4,5.116-23.029,13.495
	c-4.825,8.401-4.825,18.729,0,27.127c2.295,4.172,5.667,7.653,9.767,10.067c3.978,2.373,8.522,3.619,13.152,3.606
	c4.715,0,9.343-1.233,13.438-3.581c4.089-2.249,7.471-5.607,9.754-9.676c2.334-4.239,3.508-8.999,3.43-13.823
	c0.197-7.27-2.575-14.31-7.68-19.485c-4.924-5.093-11.75-7.902-18.832-7.754V385.486z M193.859,378.81h8.829v9.813
	c2.21-3.386,5.047-6.327,8.347-8.657c2.692-1.844,5.875-2.844,9.134-2.873c2.719,0.09,5.36,0.881,7.673,2.292l-4.523,7.346
	c-1.46-0.706-3.052-1.1-4.669-1.171c-3.13,0.095-6.103,1.358-8.345,3.545c-3.052,3.007-5.183,6.829-6.144,11.013
	c-1.017,3.822-1.531,11.556-1.531,23.188v22.729h-8.822L193.859,378.81z M302.03,378.81v67.146h-8.522v-11.619
	c-3.304,4.147-7.465,7.537-12.19,9.937c-13.191,6.311-28.939,3.488-39.117-7.002c-6.637-6.664-10.281-15.739-10.093-25.144
	c-0.131-9.318,3.542-18.294,10.2-24.813c6.389-6.716,15.295-10.452,24.561-10.302c5.209-0.069,10.349,1.135,14.971,3.519
	c4.688,2.545,8.717,6.158,11.755,10.549v-12.288L302.03,378.81z M267.513,385.486c-9.572-0.065-18.414,5.116-23.029,13.495
	c-4.833,8.401-4.833,18.729,0,27.127c2.288,4.172,5.66,7.653,9.754,10.067c3.978,2.373,8.528,3.619,13.158,3.606
	c4.716,0,9.343-1.233,13.433-3.581c4.095-2.249,7.476-5.607,9.766-9.676c2.322-4.239,3.51-8.999,3.418-13.823
	c0.22-7.29-2.55-14.357-7.667-19.551c-4.925-5.093-11.745-7.902-18.817-7.752L267.513,385.486z M315.137,378.81h9.207l22.548,48.94
	l22.299-48.94h9.213l-30.719,67.151h-1.531L315.137,378.81z M448.044,423.677l7.342,3.826c-2.052,4.253-4.857,8.1-8.267,11.359
	c-3.07,2.841-6.658,5.071-10.561,6.57c-4.255,1.567-8.754,2.329-13.284,2.259c-10.947,0-19.517-3.562-25.702-10.682
	c-5.98-6.704-9.261-15.375-9.214-24.347c-0.093-8.269,2.687-16.313,7.846-22.704c6.278-8.313,16.201-13.053,26.62-12.713
	c10.707-0.35,20.923,4.502,27.418,13.021c4.856,6.14,7.31,13.815,7.349,23.036h-60.455c-0.106,7.118,2.581,13.998,7.471,19.169
	c4.629,4.909,11.113,7.629,17.853,7.485c3.41,0,6.788-0.601,9.982-1.788c3.015-1.067,5.805-2.674,8.25-4.727
	c2.921-2.821,5.399-6.064,7.353-9.631V423.677z M448.044,405.648c-0.865-3.994-2.581-7.759-5.034-11.037
	c-2.348-2.869-5.347-5.15-8.728-6.663c-3.56-1.67-7.449-2.536-11.38-2.536c-6.271-0.128-12.348,2.148-16.992,6.358
	c-3.452,3.116-6.076,7.722-7.849,13.818L448.044,405.648z M472.353,352.958H481v93.075h-8.647V352.958z"/>
</svg>
