<?xml version="1.0" encoding="utf-8"?>
<!-- Generator: Adobe Illustrator 14.0.0, SVG Export Plug-In . SVG Version: 6.00 Build 43363)  -->
<!DOCTYPE svg PUBLIC "-//W3C//DTD SVG 1.1//EN" "http://www.w3.org/Graphics/SVG/1.1/DTD/svg11.dtd">
<svg version="1.1" id="Слой_1" xmlns="http://www.w3.org/2000/svg" xmlns:xlink="http://www.w3.org/1999/xlink" x="0px" y="0px"
	 width="566.93px" height="566.93px" viewBox="0 0 566.93 566.93" enable-background="new 0 0 566.93 566.93" xml:space="preserve">
<path fill="#73A3D2" d="M359.222,201.156c0.046-1.08,0.07-2.176,0.07-3.267c0-41.88-33.954-75.833-75.833-75.833
	c-41.88,0-75.833,33.953-75.833,75.833c0,1.096,0.024,2.192,0.07,3.276c25.435-11.111,54.388-7.171,75.773,8.845
	c21.384-16.007,50.321-19.953,75.753-8.856V201.156z"/>
<path fill="#2F4D99" d="M253.19,267.443c9.278,4.034,19.506,6.279,30.269,6.279c10.767,0,21.012-2.245,30.292-6.292
	c-0.504-11.818-3.78-23.691-10.101-34.646c-5.299-9.159-12.214-16.805-20.18-22.774c-7.966,5.967-14.882,13.609-20.173,22.774
	C256.97,243.738,253.694,255.617,253.19,267.443L253.19,267.443z"/>
<path fill="#389AD1" d="M313.751,267.43c25.858-11.282,44.213-36.566,45.471-66.276c-25.429-11.097-54.372-7.151-75.751,8.856
	c7.966,5.967,14.881,13.609,20.172,22.774C309.971,243.733,313.247,255.612,313.751,267.43z"/>
<path fill="#635199" d="M253.19,267.443c-25.872-11.274-44.23-36.563-45.498-66.278c25.438-11.111,54.394-7.171,75.778,8.845
	c-7.966,5.967-14.882,13.609-20.173,22.774C256.97,243.741,253.694,255.617,253.19,267.443L253.19,267.443z"/>
<path fill="#6174B2" d="M313.751,267.43c1.03,24.451-9.83,48.654-30.28,63.945c-20.445-15.291-31.311-39.488-30.28-63.932
	c9.278,4.034,19.506,6.279,30.269,6.279C294.226,273.722,304.471,271.477,313.751,267.43z"/>
<path fill="#85CDDA" d="M283.471,331.377c2.396,1.791,4.927,3.463,7.583,4.996c36.27,20.944,82.649,8.515,103.591-27.752
	c20.942-36.274,8.514-82.653-27.757-103.587c-2.511-1.458-5.066-2.743-7.666-3.878c-1.258,29.708-19.612,54.995-45.471,66.281
	C314.783,291.881,303.919,316.088,283.471,331.377z"/>
<path fill="#E181AF" d="M283.471,331.377c-2.396,1.791-4.926,3.463-7.584,4.996c-36.269,20.944-82.649,8.515-103.587-27.752
	c-20.942-36.274-8.515-82.653,27.754-103.587c2.503-1.451,5.053-2.737,7.645-3.866c1.262,29.714,19.626,55.003,45.492,66.28
	c-1.03,24.447,9.84,48.647,30.28,63.932V331.377z"/>
<path fill="#2F2F2E" d="M70.252,434.315h28.132v10.645H57v-64.311h13.249v53.666H70.252z M132.833,444.96
	c-0.59-1.147-1.015-2.576-1.281-4.284c-3.09,3.443-7.111,5.168-12.061,5.168c-4.68,0-8.559-1.354-11.635-4.063
	c-3.078-2.71-4.618-6.126-4.618-10.248c0-5.064,1.877-8.951,5.629-11.66c3.756-2.714,9.181-4.077,16.278-4.107h5.874v-2.738
	c0-2.206-0.565-3.97-1.702-5.296c-1.135-1.33-2.924-1.988-5.366-1.988c-2.151,0-3.838,0.517-5.059,1.544
	c-1.218,1.031-1.834,2.446-1.834,4.238h-12.765c0-2.763,0.854-5.324,2.563-7.68c1.709-2.361,4.122-4.206,7.248-5.546
	c3.12-1.34,6.623-2.01,10.51-2.01c5.89,0,10.564,1.479,14.021,4.438c3.461,2.954,5.193,7.116,5.193,12.475v20.717
	c0.025,4.536,0.661,7.964,1.9,10.293v0.754h-12.898L132.833,444.96z M122.281,436.082c1.884,0,3.618-0.419,5.208-1.256
	c1.591-0.843,2.765-1.969,3.534-3.382v-8.21h-4.769c-6.39,0-9.792,2.203-10.202,6.62l-0.046,0.756c0,1.588,0.559,2.896,1.679,3.931
	c1.117,1.03,2.649,1.547,4.593,1.547L122.281,436.082z M180.495,409.14c-1.739-0.236-3.269-0.354-4.598-0.354
	c-4.825,0-7.993,1.635-9.495,4.904v31.271h-12.765v-47.79h12.061l0.352,5.697c2.563-4.387,6.106-6.584,10.644-6.584
	c1.411,0,2.741,0.194,3.976,0.577L180.495,409.14z M213.001,444.96c-0.587-1.147-1.013-2.576-1.283-4.284
	c-3.09,3.443-7.112,5.168-12.054,5.168c-4.682,0-8.564-1.354-11.636-4.063c-3.079-2.71-4.618-6.126-4.618-10.248
	c0-5.064,1.877-8.951,5.629-11.66c3.757-2.714,9.182-4.077,16.279-4.107h5.875v-2.738c0-2.206-0.566-3.97-1.698-5.296
	c-1.139-1.33-2.925-1.988-5.369-1.988c-2.149,0-3.833,0.517-5.058,1.544c-1.222,1.031-1.833,2.446-1.833,4.238H184.47
	c0-2.763,0.854-5.324,2.562-7.68c1.708-2.361,4.12-4.206,7.243-5.546c3.122-1.34,6.626-2.01,10.512-2.01
	c5.89,0,10.566,1.479,14.021,4.438c3.465,2.954,5.192,7.116,5.192,12.475v20.717c0.03,4.536,0.663,7.964,1.899,10.293v0.754h-12.897
	L213.001,444.96z M202.447,436.082c1.885,0,3.617-0.419,5.212-1.256c1.59-0.843,2.768-1.969,3.533-3.382v-8.21h-4.771
	c-6.389,0-9.791,2.203-10.203,6.62l-0.043,0.756c0,1.588,0.559,2.896,1.678,3.931c1.119,1.03,2.65,1.547,4.594,1.547V436.082z
	 M251.033,429.369l8.878-32.199h13.339l-16.122,47.79h-12.19l-16.123-47.79h13.344L251.033,429.369z M300.281,445.844
	c-7.008,0-12.713-2.148-17.115-6.448c-4.402-4.297-6.603-10.026-6.603-17.183v-1.236c0-4.8,0.93-9.091,2.783-12.876
	c1.86-3.781,4.485-6.695,7.884-8.742c3.403-2.047,7.285-3.068,11.641-3.068c6.539,0,11.683,2.062,15.438,6.182
	c3.753,4.121,5.629,9.97,5.629,17.533v5.217H289.51c0.408,3.121,1.659,5.622,3.729,7.506c2.076,1.885,4.704,2.83,7.882,2.83
	c4.918,0,8.76-1.784,11.528-5.345l6.271,7.021c-1.908,2.708-4.505,4.827-7.773,6.338c-3.266,1.517-6.89,2.277-10.866,2.277V445.844z
	 M298.824,406.622c-2.532,0-4.586,0.854-6.162,2.562c-1.578,1.708-2.584,4.151-3.025,7.332h17.756V415.5
	c-0.061-2.827-0.828-5.016-2.301-6.56C303.624,407.395,301.533,406.622,298.824,406.622L298.824,406.622z M340.647,444.96h-12.809
	v-67.844h12.809V444.96z M383.58,380.649l23.72,56.758l23.807-56.758h7.244v64.311h-5.434v-28.002l0.441-28.712l-23.937,56.714
	h-4.195l-23.847-56.491l0.438,28.313v28.179h-5.433v-64.311h7.199H383.58z M459.336,444.96h-5.304v-47.79h5.304V444.96z
	 M453.108,383.35c0-1.007,0.328-1.853,0.971-2.543c0.648-0.696,1.533-1.04,2.65-1.04c1.12,0,2.01,0.344,2.675,1.04
	c0.662,0.69,0.994,1.536,0.994,2.537c0,1.005-0.332,1.842-0.994,2.518c-0.659,0.678-1.552,1.017-2.67,1.017
	c-1.119,0-2.003-0.339-2.649-1.017c-0.648-0.679-0.973-1.516-0.973-2.512H453.108z M488.708,416.56l12.898-19.39h6.271
	l-16.21,23.454l16.919,24.336h-6.23l-13.604-20.227l-13.6,20.227h-6.228l16.874-24.336l-16.216-23.454h6.232l12.897,19.39H488.708z"
	/>
</svg>
