<?xml version="1.0" encoding="utf-8"?>
<!-- Generator: Adobe Illustrator 14.0.0, SVG Export Plug-In . SVG Version: 6.00 Build 43363)  -->
<!DOCTYPE svg PUBLIC "-//W3C//DTD SVG 1.1//EN" "http://www.w3.org/Graphics/SVG/1.1/DTD/svg11.dtd">
<svg version="1.1" id="Слой_1" xmlns="http://www.w3.org/2000/svg" xmlns:xlink="http://www.w3.org/1999/xlink" x="0px" y="0px"
	 width="566.93px" height="566.93px" viewBox="0 0 566.93 566.93" enable-background="new 0 0 566.93 566.93" xml:space="preserve">
<g id="XMLID_2_">
	<path fill="#E74738" d="M227.846,180.745c1.032,0,2.063-0.207,3.093-0.688l110.123-51.212c3.712-1.718,5.293-6.118,3.574-9.761
		c-1.718-3.713-6.118-5.293-9.76-3.574l-110.124,51.211c-3.712,1.719-5.293,6.118-3.575,9.762
		C222.417,179.165,225.098,180.745,227.846,180.745z M334.877,146.787l-110.124,51.212c-3.712,1.719-5.293,6.119-3.574,9.761
		c1.237,2.681,3.918,4.262,6.667,4.262c1.032,0,2.063-0.205,3.093-0.687l110.123-51.211c3.712-1.72,5.293-6.119,3.574-9.761
		C342.919,146.718,338.519,145.069,334.877,146.787z M334.877,178.408l-110.124,51.143c-3.712,1.718-5.293,6.118-3.575,9.762
		c1.238,2.68,3.919,4.261,6.667,4.261c1.032,0,2.063-0.206,3.093-0.687l110.123-51.144c3.712-1.718,5.293-6.117,3.574-9.761
		C342.919,178.27,338.519,176.689,334.877,178.408z M227.846,149.537c1.032,0,2.132-0.207,3.093-0.688l50.731-23.647
		c3.712-1.719,5.293-6.118,3.576-9.761c-1.72-3.711-6.119-5.293-9.762-3.574l-50.73,23.647c-3.712,1.718-5.293,6.117-3.575,9.761
		C222.417,147.956,225.098,149.537,227.846,149.537z M334.809,209.685l-38.909,18.285c-2.61,1.237-4.262,3.78-4.262,6.667v36.777
		h-16.979v-27.428c0-4.055-3.3-7.355-7.355-7.355c-4.056,0-7.354,3.301-7.354,7.355v27.428h-10.587
		c-3.161,0-5.498,2.818-4.949,5.911l2.475,13.816c0.413,2.407,2.543,4.126,4.949,4.126h25.847l-27.359,4.948
		c-1.994,0.345-3.299,2.269-2.956,4.263c0.343,1.787,1.856,3.024,3.645,3.024c0.206,0,0.411,0,0.687-0.069l62.76-11.41
		c0.962-0.207,1.786-0.756,2.337-1.443c1.308-0.756,2.268-2.063,2.475-3.575l2.131-13.816c0.481-3.025-1.855-5.774-4.949-5.774
		h-10.036v-32.102l34.716-16.292c3.711-1.718,5.291-6.117,3.504-9.831C342.919,209.548,338.519,207.967,334.809,209.685z
		 M313.084,307.571l-62.76,11.409c-1.994,0.346-3.299,2.271-2.956,4.265c0.343,1.786,1.856,3.022,3.644,3.022
		c0.207,0,0.412,0,0.688-0.068l62.76-11.411c1.993-0.344,3.298-2.268,2.955-4.262C317.003,308.533,315.078,307.227,313.084,307.571z
		 M313.084,327.025l-62.76,11.41c-1.994,0.345-3.299,2.269-2.956,4.263c0.343,1.787,1.856,3.023,3.644,3.023
		c0.207,0,0.412,0,0.688-0.069l62.76-11.41c1.993-0.344,3.298-2.269,2.955-4.262C317.003,327.987,315.078,326.681,313.084,327.025z
		 M305.593,346.684l-46.813,8.042c-1.994,0.346-3.369,2.27-3.025,4.264c0.276,1.788,1.856,3.024,3.645,3.024
		c0.206,0,0.411,0,0.618-0.068l46.813-8.043c1.991-0.345,3.368-2.27,3.023-4.264C309.511,347.646,307.585,346.339,305.593,346.684z"
		/>
</g>
<g transform="translate(0.000000,130.000000) scale(0.100000,-0.100000)">
	<path fill="#E64839" d="M1584.746-2943.164v-300.146h163.716h163.711v32.754v32.734h-130.972h-130.972v267.402v267.393h-32.739
		h-32.744V-2943.164z"/>
	<path fill="#E64839" d="M2681.626-2801.289c-21.826-8.711-51.299-25.078-64.399-37.09c-32.739-30.566-39.282-28.389-39.282,9.814
		c0,27.275-4.37,32.744-27.285,32.744h-27.29v-223.75v-223.74h32.744h32.744v161.543c0,153.887,1.084,163.711,25.098,184.453
		c57.847,53.477,111.328,61.123,147.344,21.836c22.93-24.033,24.014-36.035,24.014-196.455v-171.377h38.203h38.193v162.627v162.627
		l38.203,33.828c51.299,44.746,103.682,45.85,135.342,5.469c20.732-26.211,22.91-43.662,22.91-196.455v-168.095h32.744h32.744
		v174.629c0,236.846-16.367,272.861-120.059,272.861c-51.299,0-78.584-12.002-124.424-53.477
		c-20.732-18.555-32.744-24.014-36.016-15.273C2822.422-2806.738,2749.297-2778.349,2681.626-2801.289z"/>
	<path fill="#E64839" d="M3397.597-2797.998c-55.664-15.283-86.211-39.287-118.965-94.961
		c-56.758-97.129-31.65-257.578,49.121-315.41c66.572-46.943,162.617-53.486,235.742-16.377
		c30.557,15.264,33.838,21.836,20.742,43.662c-6.553,9.805-19.648,9.805-56.758-3.281
		c-99.316-34.922-185.547,12.002-207.373,111.318l-8.721,37.109h151.699h151.709v52.402
		C3614.795-2854.756,3511.103-2766.347,3397.597-2797.998z M3482.744-2851.474c36.006-13.096,58.916-46.934,69.834-104.775
		l7.637-36.025h-120.039c-116.797,0-120.068,1.094-120.068,25.107c0,37.109,40.391,94.951,79.678,111.318
		C3443.437-2837.285,3440.176-2837.285,3482.744-2851.474z"/>
	<path fill="#E64839" d="M2010.4-2943.164c0-245.576,25.103-304.511,130.972-304.511c43.662,0,64.395,7.646,103.682,34.932
		c27.29,19.639,52.388,34.922,54.575,34.922c3.271,0,5.454-14.17,5.454-32.734c0-27.295,4.37-32.754,27.29-32.754h27.285v223.74
		v223.75h-32.744h-32.744v-162.617v-162.607l-38.198-33.867c-51.299-44.736-113.506-46.914-146.245-5.449
		c-20.742,26.201-22.93,43.652-22.93,196.465v168.076h-38.198H2010.4V-2943.164z"/>
	<path fill="#E64839" d="M3734.853-3019.57v-223.74h32.744h32.734v163.72v163.711l45.84,32.744
		c74.219,53.486,140.801,39.297,161.533-33.838c6.553-20.732,10.908-102.598,10.908-181.162v-145.176h32.754h32.744v169.17
		c0,179.004-8.73,221.572-52.393,260.859c-34.932,30.566-139.697,20.742-192.09-19.639l-39.297-29.482l-6.543,32.754
		c-5.459,26.191-13.096,33.828-32.744,33.828h-26.191V-3019.57z"/>
</g>
</svg>
