<?xml version="1.0" encoding="utf-8"?>
<!-- Generator: Adobe Illustrator 14.0.0, SVG Export Plug-In . SVG Version: 6.00 Build 43363)  -->
<!DOCTYPE svg PUBLIC "-//W3C//DTD SVG 1.1//EN" "http://www.w3.org/Graphics/SVG/1.1/DTD/svg11.dtd">
<svg version="1.1" id="Слой_1" xmlns="http://www.w3.org/2000/svg" xmlns:xlink="http://www.w3.org/1999/xlink" x="0px" y="0px"
	 width="566.93px" height="566.93px" viewBox="0 0 566.93 566.93" enable-background="new 0 0 566.93 566.93" xml:space="preserve">
<linearGradient id="SVGID_1_" gradientUnits="userSpaceOnUse" x1="147.4736" y1="398.0605" x2="514.6428" y2="398.0605">
	<stop  offset="0" style="stop-color:#31B3E3"/>
	<stop  offset="1" style="stop-color:#50C1E7"/>
</linearGradient>
<path fill="url(#SVGID_1_)" d="M110.755,395.728c0,9.072-2.701,16.715-8.121,22.902c-5.657,6.481-13.007,9.736-22.004,9.736
	c-9.021,0-16.348-3.255-22.005-9.736c-5.422-6.188-8.143-13.83-8.143-22.902c0-9.101,2.721-16.741,8.143-22.905
	c5.72-6.422,13.071-9.632,22.005-9.632c8.998,0,16.348,3.21,22.004,9.632C108.055,378.986,110.755,386.627,110.755,395.728z
	 M92.842,395.728c0-4.111-0.985-7.58-2.956-10.385c-2.206-3.189-5.293-4.771-9.256-4.771c-3.965,0-7.049,1.582-9.257,4.771
	c-1.991,2.805-2.978,6.273-2.978,10.385c0,4.085,0.986,7.596,2.978,10.484c2.208,3.189,5.292,4.774,9.257,4.774
	c3.963,0,7.05-1.585,9.256-4.774C91.856,403.323,92.842,399.813,92.842,395.728z M175.527,395.728
	c0,8.474-2.443,15.879-7.351,22.215c-5.249,6.935-12.019,10.424-20.247,10.424c-5.808,0-10.734-1.69-14.762-5.029
	c0,0.769,0.085,2.632,0.257,5.609c0.171,2.994,0.256,5.435,0.256,7.36c0,10.641-3.172,15.948-9.512,15.948
	c-2.594,0-4.713-0.92-6.407-2.74c-1.671-1.84-2.507-4.048-2.507-6.657v-69.198c0-2.527,0.857-4.712,2.571-6.55
	c1.713-1.82,3.836-2.739,6.365-2.739c3.812,0,6.598,1.9,8.355,5.691c3.749-4.579,8.87-6.871,15.362-6.871
	c8.25,0,14.999,3.424,20.269,10.296C173.063,379.845,175.527,387.25,175.527,395.728z M157.613,395.728
	c0-4.111-1.004-7.58-2.976-10.385c-2.209-3.189-5.294-4.771-9.258-4.771c-3.963,0-7.049,1.582-9.256,4.771
	c-1.972,2.805-2.956,6.273-2.956,10.385c0,4.085,0.984,7.596,2.956,10.484c2.207,3.189,5.292,4.774,9.256,4.774
	c3.964,0,7.049-1.585,9.258-4.774C156.609,403.323,157.613,399.813,157.613,395.728z M240.706,393.802
	c0,2.993-0.708,5.048-2.123,6.205c-1.413,1.135-3.619,1.712-6.598,1.712h-32.333c0,3.426,1.608,6.057,4.822,7.896
	c2.593,1.436,5.763,2.166,9.513,2.166c2.916,0,6.408-0.968,10.5-2.869c4.092-1.928,6.727-2.872,7.865-2.872
	c2.077,0,3.833,0.75,5.292,2.292c1.434,1.521,2.164,3.36,2.164,5.48c0,4.899-3.663,8.713-10.994,11.451
	c-5.591,2.054-11.27,3.103-17.075,3.103c-9.342,0-16.885-3.103-22.648-9.286c-5.765-6.188-8.656-13.958-8.656-23.353
	c0-8.95,2.999-16.591,8.998-22.967c5.978-6.383,13.415-9.57,22.284-9.57c8.249,0,15.148,3.02,20.677,9.053
	C237.919,378.281,240.706,385.472,240.706,393.802z M222.794,389.304c-0.087-2.74-1.351-5.222-3.794-7.473
	c-2.443-2.246-5.034-3.355-7.778-3.355c-2.827,0-5.463,1.109-7.905,3.355c-2.442,2.251-3.665,4.732-3.665,7.473H222.794z
	 M300.893,417.79c0,2.613-0.836,4.817-2.505,6.658c-1.694,1.821-3.816,2.743-6.408,2.743c-6.256,0-9.387-4.968-9.387-14.878
	c0-1.903,0.13-4.899,0.387-9.03c0.278-4.112,0.409-7.13,0.409-9.035c0-10.511-3.408-15.772-10.2-15.772
	c-6.793,0-10.178,5.262-10.178,15.772c0,1.905,0.106,4.923,0.299,9.035c0.215,4.131,0.322,7.127,0.322,9.03
	c0,9.91-3.085,14.878-9.255,14.878c-2.594,0-4.715-0.922-6.387-2.743c-1.692-1.841-2.528-4.045-2.528-6.658v-44.152
	c0-2.593,0.836-4.794,2.528-6.571c1.672-1.799,3.815-2.696,6.408-2.696c4.285,0,7.262,1.9,8.933,5.691
	c2.893-4.579,8.014-6.871,15.342-6.871c6.792,0,12.193,1.798,16.157,5.371c4.049,3.835,6.063,9.099,6.063,15.8V417.79z
	 M357.093,415.889c0,4.045-2.631,7.255-7.904,9.611c-4.177,1.902-8.715,2.881-13.306,2.866c-9.024,0-16.35-3.255-22.005-9.736
	c-5.422-6.188-8.144-13.83-8.144-22.902c0-9.101,2.766-16.783,8.313-23.076c5.549-6.312,12.811-9.461,21.835-9.461
	c5.206,0,9.684,0.77,13.414,2.292c5.204,2.055,7.796,5.262,7.796,9.631c0,2.204-0.686,4.151-2.057,5.843
	c-1.371,1.669-3.131,2.526-5.269,2.526c-1.462,0-3.562-0.493-6.301-1.454c-2.743-0.987-4.926-1.457-6.532-1.457
	c-4.267,0-7.588,1.52-9.966,4.557c-2.207,2.741-3.322,6.251-3.322,10.6c0,4.085,0.985,7.556,2.981,10.358
	c2.202,3.274,5.313,4.9,9.275,4.9c1.758,0,4.156-0.515,7.221-1.564c3.065-1.024,5.272-1.561,6.644-1.561
	c1.992,0,3.703,0.855,5.164,2.527C356.367,412.078,357.093,413.896,357.093,415.889z M422.207,417.79
	c0,2.613-0.834,4.817-2.506,6.658c-1.691,1.821-3.835,2.743-6.43,2.743c-3.9,0-6.683-1.907-8.355-5.696
	c-3.748,4.583-8.871,6.871-15.361,6.871c-8.311,0-15.125-3.489-20.398-10.424c-4.8-6.336-7.216-13.741-7.216-22.215
	c0-8.478,2.416-15.883,7.216-22.241c5.358-6.872,12.148-10.296,20.398-10.296c6.49,0,11.613,2.292,15.361,6.871
	c1.673-3.791,4.455-5.691,8.355-5.691c2.531,0,4.652,0.919,6.369,2.739c1.71,1.838,2.566,4.001,2.566,6.528V417.79z
	 M404.295,395.728c0-4.111-0.982-7.58-2.956-10.385c-2.293-3.189-5.379-4.771-9.255-4.771c-3.965,0-7.048,1.582-9.259,4.771
	c-1.99,2.805-2.974,6.273-2.974,10.385c0,4.085,0.959,7.596,2.863,10.484c2.276,3.189,5.404,4.774,9.369,4.774
	c3.961,0,7.048-1.585,9.255-4.774C403.313,403.323,404.295,399.813,404.295,395.728z M467.911,372.458
	c0,3.831-1.862,6.463-5.593,7.896c-3.447,1.158-6.88,2.337-10.307,3.552c-3.752,2.145-5.613,6.125-5.613,11.904v21.979
	c0,2.613-0.859,4.817-2.526,6.658c-1.696,1.821-3.838,2.743-6.43,2.743c-2.612,0-4.759-0.922-6.425-2.743
	c-1.696-1.841-2.531-4.045-2.531-6.658v-44.152c0-2.593,0.835-4.794,2.507-6.571c1.69-1.799,3.837-2.696,6.43-2.696
	c4.282,0,7.258,1.9,8.934,5.691c3.836-4.579,7.951-6.871,12.385-6.871c2.527,0,4.693,0.92,6.491,2.739
	C467.009,367.771,467.911,369.954,467.911,372.458z M514.643,373.272c0,3.98-1.564,6.484-4.669,7.558
	c-1.525,0.533-4.721,0.812-9.582,0.812v36.148c0,2.613-0.858,4.817-2.523,6.658c-1.697,1.821-3.838,2.743-6.431,2.743
	c-2.525,0-4.673-0.922-6.388-2.743c-1.712-1.841-2.567-4.045-2.567-6.658v-36.148c-3.688,0-6.364-0.472-8.056-1.391
	c-2.313-1.284-3.456-3.617-3.456-6.979c0-3.358,1.179-5.65,3.558-6.872c1.608-0.899,4.267-1.368,7.954-1.368v-7.662
	c0-9.012,2.974-13.505,8.955-13.505c5.955,0,8.954,4.493,8.954,13.505v7.662c4.861,0,8.057,0.276,9.582,0.812
	C513.078,366.914,514.643,369.398,514.643,373.272z"/>
<linearGradient id="SVGID_2_" gradientUnits="userSpaceOnUse" x1="210.3691" y1="180.6338" x2="408.7098" y2="180.6338">
	<stop  offset="0" style="stop-color:#31B3E3"/>
	<stop  offset="1" style="stop-color:#50C1E7"/>
</linearGradient>
<path fill="url(#SVGID_2_)" d="M408.71,169.619c-0.094-10.544-19.598-15.329-70.078-15.329c-118.45,0-148.499-5.054-180.656-38.859
	c13.527,20.297,20.929,58.371,146.127,56.477c130.622-2.01,50.933,33.645,27.748,73.93c41.814-37.283,76.731-61.856,76.859-76.066
	V169.619z"/>
<linearGradient id="SVGID_3_" gradientUnits="userSpaceOnUse" x1="213.9365" y1="277.855" x2="242.2625" y2="277.855">
	<stop  offset="0" style="stop-color:#31B3E3"/>
	<stop  offset="1" style="stop-color:#50C1E7"/>
</linearGradient>
<path fill="url(#SVGID_3_)" d="M242.263,277.877c-0.005,9.801-8.076,17.861-17.887,17.863c-9.909,0-17.922-8.004-17.922-17.863
	c0-0.004,0-0.01,0-0.014c0-9.818,8.082-17.894,17.912-17.894c0.005,0,0.005,0,0.01,0
	C234.251,259.97,242.263,267.977,242.263,277.877z"/>
<linearGradient id="SVGID_4_" gradientUnits="userSpaceOnUse" x1="295.5098" y1="277.855" x2="323.8319" y2="277.855">
	<stop  offset="0" style="stop-color:#31B3E3"/>
	<stop  offset="1" style="stop-color:#50C1E7"/>
</linearGradient>
<path fill="url(#SVGID_4_)" d="M323.832,277.877c-0.002,9.801-8.074,17.861-17.886,17.863c-9.9,0-17.918-8.004-17.918-17.863
	c0-0.004,0-0.01,0-0.014c0-9.818,8.084-17.894,17.908-17.894c0.006,0,0.006,0,0.01,0
	C315.822,259.97,323.832,267.977,323.832,277.877z"/>
</svg>
