<?xml version="1.0" encoding="utf-8"?>
<!-- Generator: Adobe Illustrator 14.0.0, SVG Export Plug-In . SVG Version: 6.00 Build 43363)  -->
<!DOCTYPE svg PUBLIC "-//W3C//DTD SVG 1.1//EN" "http://www.w3.org/Graphics/SVG/1.1/DTD/svg11.dtd">
<svg version="1.1" id="Слой_1" xmlns="http://www.w3.org/2000/svg" xmlns:xlink="http://www.w3.org/1999/xlink" x="0px" y="0px"
	 width="566.93px" height="566.93px" viewBox="0 0 566.93 566.93" enable-background="new 0 0 566.93 566.93" xml:space="preserve">
<path id="XMLID_176_" fill="#A2D8E5" d="M239.89,286.875c1.871-0.834,3.768-1.6,5.682-2.318c2.159-0.811,4.339-1.573,6.545-2.242
	c2.747-0.827,5.517-1.575,8.326-2.172c3.783-0.802,7.615-1.399,11.475-1.774c-2.165,6.808-4.556,13.574-7.15,20.298
	c0.112,1.302,0.174,2.611,0.206,3.923c5.219-1.028,10.612-1.58,16.132-1.58c5.522,0,10.915,0.552,16.134,1.58
	c0.034-1.313,0.094-2.623,0.206-3.923c-2.592-6.724-4.983-13.49-7.15-20.298c3.863,0.375,7.692,0.969,11.477,1.774
	c2.807,0.597,5.578,1.345,8.325,2.172c2.211,0.666,4.385,1.431,6.547,2.242c1.913,0.719,3.812,1.486,5.681,2.318
	c13.282,5.913,25.386,14.684,35.311,26.065c24.885-21.489,40.656-53.241,40.656-88.7c0-64.716-52.466-117.181-117.181-117.181
	c-64.718,0-117.184,52.465-117.184,117.181c0,35.459,15.77,67.213,40.655,88.7C214.505,301.559,226.611,292.786,239.89,286.875z"/>
<path id="XMLID_175_" fill="#535353" d="M247.614,308.074c5.502-2.433,11.308-4.292,17.359-5.485
	c-0.032-1.313-0.092-2.623-0.206-3.923c2.594-6.724,4.985-13.49,7.15-20.298c-3.86,0.375-7.692,0.969-11.475,1.774
	c-2.809,0.597-5.579,1.345-8.326,2.172c-2.207,0.666-4.386,1.429-6.545,2.242l8.54,2.07L247.614,308.074z"/>
<path id="XMLID_174_" fill="#535353" d="M227.473,320.709c0.214-2.185,0.349-4.386,0.349-6.61c0-1.34,1.083-2.425,2.423-2.425h2.13
	l7.515-24.795c-13.278,5.911-25.384,14.682-35.313,26.063c5.473,4.728,11.382,8.952,17.669,12.613
	C223.919,323.865,225.664,322.248,227.473,320.709z"/>
<path id="XMLID_173_" fill="#535353" d="M322.324,286.875l7.517,24.795h2.127c1.339,0,2.423,1.087,2.423,2.427
	c0,2.227,0.132,4.428,0.346,6.61c1.813,1.539,3.555,3.158,5.229,4.844c6.287-3.66,12.198-7.885,17.67-12.612
	C347.71,301.559,335.601,292.788,322.324,286.875z"/>
<path id="XMLID_172_" fill="#535353" d="M308.099,286.627l8.543-2.07c-2.16-0.811-4.34-1.573-6.545-2.242
	c-2.747-0.827-5.519-1.575-8.327-2.172c-3.785-0.802-7.615-1.399-11.475-1.774c2.162,6.808,4.556,13.574,7.148,20.298
	c-0.11,1.302-0.172,2.611-0.204,3.923c6.053,1.193,11.86,3.053,17.361,5.485L308.099,286.627z"/>
<path id="XMLID_171_" d="M281.105,311.67h16.515c-0.342-3.041-0.46-6.073-0.381-9.081c-5.22-1.028-10.612-1.58-16.134-1.58
	c-5.52,0-10.911,0.552-16.132,1.58c0.08,3.008-0.042,6.04-0.38,9.081H281.105z"/>
<path id="XMLID_170_" d="M222.246,325.553c1.363,0.793,2.737,1.566,4.128,2.305c0.49-2.347,0.865-4.732,1.099-7.148
	C225.664,322.248,223.919,323.865,222.246,325.553z"/>
<path id="XMLID_169_" d="M246.522,311.67h18.07c0.341-3.041,0.462-6.073,0.38-9.081c-6.052,1.193-11.862,3.053-17.359,5.485
	L246.522,311.67z"/>
<path id="XMLID_168_" d="M334.736,320.709c0.235,2.416,0.611,4.802,1.098,7.148c1.397-0.738,2.77-1.512,4.131-2.305
	C338.291,323.865,336.55,322.248,334.736,320.709z"/>
<path id="XMLID_167_" d="M315.689,311.67l-1.089-3.593c-5.501-2.434-11.309-4.293-17.361-5.486
	c-0.079,3.009,0.039,6.041,0.377,9.083L315.689,311.67L315.689,311.67z"/>
<path id="XMLID_166_" fill="#AB9679" d="M246.522,311.67l1.091-3.596l6.501-21.449l-8.544-2.07
	c-1.914,0.721-3.811,1.486-5.682,2.318l-7.513,24.795h8.067L246.522,311.67L246.522,311.67z"/>
<path id="XMLID_165_" fill="#AB9679" d="M314.601,308.077l1.091,3.593h6.079h8.07l-7.517-24.795c-1.869-0.834-3.768-1.6-5.681-2.318
	l-8.539,2.07L314.601,308.077z"/>
<path id="XMLID_164_" fill="#C0B099" d="M232.623,316.681c0.069-0.054,0.144-0.106,0.219-0.158h-0.208
	C232.627,316.574,232.623,316.627,232.623,316.681z"/>
<path id="XMLID_163_" fill="#C0B099" d="M281.105,316.52h-17.24h-18.811h-12.207c-0.075,0.053-0.149,0.107-0.224,0.159
	c-0.162,4.578-0.776,9.067-1.77,13.438c15.23,7.242,32.263,11.308,50.251,11.308V316.52z"/>
<path id="XMLID_162_" fill="#AB9679" d="M329.581,316.52h-0.211c0.075,0.053,0.149,0.107,0.223,0.159
	C329.587,316.627,329.581,316.574,329.581,316.52z"/>
<path id="XMLID_161_" fill="#AB9679" d="M329.368,316.52H317.16h-18.813H281.11l0,0v24.904c17.988,0,35.021-4.065,50.251-11.308
	c-0.995-4.37-1.605-8.857-1.769-13.438C329.518,316.627,329.442,316.574,329.368,316.52z"/>
<rect id="XMLID_160_" x="281.105" y="314.097" fill="#786554" width="0" height="2.423"/>
<path id="XMLID_159_" fill="#8B7461" d="M334.736,320.709c-0.214-2.185-0.346-4.386-0.346-6.61c0-1.34-1.086-2.425-2.423-2.425
	h-2.127h-8.073h-6.078H297.62h-16.515h-16.512H246.52h-6.079h-8.067h-2.13c-1.34,0-2.423,1.085-2.423,2.425
	c0,2.227-0.135,4.429-0.349,6.61c-0.233,2.416-0.608,4.802-1.099,7.148c1.477,0.783,2.965,1.541,4.477,2.261
	c0.996-4.368,1.607-8.856,1.772-13.438c0-0.054,0.004-0.106,0.01-0.158h0.208h12.21h18.811h17.243l0,0h17.237h18.816h12.205h0.213
	c0,0.052,0.009,0.104,0.011,0.158c0.158,4.578,0.775,9.069,1.769,13.438c1.512-0.72,3.003-1.478,4.474-2.261
	C335.348,325.509,334.972,323.125,334.736,320.709z"/>
<g id="XMLID_195_">
	<path id="XMLID_158_" fill="none" d="M320.543,206.434L320.543,206.434c0.006,0.009,0.008,0.022,0.01,0.029
		c1.466,4.21,3.129,8.478,3.983,12.866c-0.029,0.306-0.059,0.62-0.088,0.945c-0.08,0.471-0.157,0.89-0.237,1.265
		c0.124-0.577,0.241-1.265,0.361-2.066C323.722,215.022,322.03,210.703,320.543,206.434c-0.005,0.009-0.01,0.022-0.018,0.033
		C320.533,206.456,320.538,206.443,320.543,206.434L320.543,206.434z"/>
	<path id="XMLID_157_" fill="none" d="M354.667,232.926c-0.063,0.041-0.129,0.072-0.193,0.105
		C354.538,232.998,354.604,232.962,354.667,232.926z"/>
	<path id="XMLID_156_" fill="none" d="M355.423,232.352c-0.085,0.083-0.166,0.169-0.255,0.239
		C355.257,232.521,355.338,232.435,355.423,232.352z"/>
	<path id="XMLID_155_" fill="none" d="M317.019,203.352c-2.693-2.274-5.524-4.345-8.496-6.176l0,0
		C311.494,199.005,314.322,201.078,317.019,203.352z"/>
	<path id="XMLID_154_" fill="none" d="M344.195,231.435c0.02,0.025,0.039,0.05,0.062,0.075
		C344.236,231.484,344.217,231.46,344.195,231.435z"/>
	<path id="XMLID_153_" fill="none" d="M349.161,237.624c0.077,0.101,0.158,0.2,0.238,0.3
		C349.319,237.824,349.238,237.725,349.161,237.624z"/>
	<path id="XMLID_152_" fill="none" d="M324.174,221.705c-0.077,0.353-0.156,0.671-0.236,0.91
		C324.018,222.374,324.097,222.056,324.174,221.705z"/>
	<path id="XMLID_151_" fill="none" d="M312.688,264.452c-1.792,2.986-2.942,5.819-3.604,8.477
		C309.745,270.271,310.896,267.438,312.688,264.452c0.591-0.985,1.168-1.949,1.729-2.898c-0.557,0.942-1.129,1.896-1.715,2.87
		C312.696,264.434,312.694,264.444,312.688,264.452z"/>
	<path id="XMLID_150_" fill="none" d="M320.556,206.414c0.104-0.208,0.213-0.41,0.317-0.622l-0.029,0.025
		C320.747,206.011,320.65,206.215,320.556,206.414c0.705,0.612,1.406,1.233,2.093,1.862
		C321.962,207.646,321.261,207.025,320.556,206.414z"/>
	<path id="XMLID_149_" fill="none" d="M297.296,221.797c0.003,0.008,0.007,0.015,0.007,0.022
		C297.303,221.812,297.299,221.805,297.296,221.797z"/>
	<path id="XMLID_148_" fill="none" d="M296.419,219.829L296.419,219.829L296.419,219.829z"/>
	<path id="XMLID_147_" fill="none" d="M304.354,194.792c-0.161-0.091-0.288-0.161-0.359-0.195
		C304.065,194.631,304.192,194.701,304.354,194.792z"/>
	<path id="XMLID_146_" fill="none" d="M304.948,195.126c-0.189-0.106-0.349-0.196-0.497-0.281
		C304.598,194.93,304.759,195.02,304.948,195.126z"/>
	<path id="XMLID_145_" fill="none" d="M308.795,204.567c0,0.276-0.004,0.551-0.004,0.827
		C308.791,205.119,308.798,204.843,308.795,204.567z"/>
	<path id="XMLID_144_" fill="none" d="M296.9,220.783c0,0.004,0.006,0.012,0.01,0.021
		C296.906,220.795,296.906,220.788,296.9,220.783z"/>
	<path id="XMLID_143_" fill="none" d="M353.942,243.812c0.144,0.191,0.293,0.383,0.438,0.572
		C354.235,244.192,354.086,244.003,353.942,243.812z"/>
	<path id="XMLID_142_" fill="none" d="M308.78,208.259c-0.024,1.229-0.066,2.458-0.129,3.688
		C308.714,210.717,308.756,209.488,308.78,208.259z"/>
	<path id="XMLID_141_" fill="none" d="M297.593,222.858c0,0.01,0.002,0.018,0.005,0.027
		C297.598,222.876,297.593,222.868,297.593,222.858z"/>
	<path id="XMLID_140_" fill="none" d="M308.303,197.037c-0.427-0.246-1.547-0.89-2.56-1.464
		C306.74,196.14,307.852,196.779,308.303,197.037z"/>
	<path id="XMLID_139_" fill="none" d="M305.679,195.539c-0.253-0.145-0.494-0.282-0.716-0.405
		C305.182,195.255,305.426,195.394,305.679,195.539z"/>
	<path id="XMLID_138_" fill="none" d="M308.493,197.144L308.493,197.144c-0.009-0.004-0.056-0.032-0.075-0.044
		C308.447,197.119,308.481,197.139,308.493,197.144z"/>
	<path id="XMLID_137_" fill="none" d="M357.858,225.612c0-0.092,0.016-0.178,0.016-0.274c0-0.012,0.002-0.022,0.002-0.035
		c0-0.009-0.002-0.019-0.002-0.032c0-0.084-0.016-0.167-0.016-0.253c0,0.097,0.016,0.189,0.016,0.285
		C357.876,225.411,357.858,225.507,357.858,225.612z"/>
	<path id="XMLID_136_" fill="none" d="M338.674,224.884c0.113,0.129,0.222,0.259,0.334,0.388c-0.002,0-0.002-0.002-0.007-0.005
		h0.029C338.98,225.209,338.854,225.075,338.674,224.884L338.674,224.884z"/>
	<path id="XMLID_135_" fill="none" d="M322.648,208.275c1.561,1.429,3.086,2.893,4.592,4.376
		C325.734,211.168,324.209,209.704,322.648,208.275z"/>
	<path id="XMLID_134_" fill="none" d="M353.161,217.225c0.288,0,0.564,0.06,0.841,0.144
		C353.728,217.284,353.449,217.225,353.161,217.225z"/>
	<path id="XMLID_133_" fill="none" d="M348.653,223.045c-0.024,0.139-0.055,0.272-0.074,0.417
		C348.599,223.317,348.629,223.184,348.653,223.045z"/>
	<path id="XMLID_132_" fill="none" d="M354.25,217.46c0.194,0.08,0.381,0.185,0.564,0.301
		C354.631,217.642,354.444,217.542,354.25,217.46z"/>
	<path id="XMLID_131_" fill="none" d="M356.044,218.955c0.065,0.084,0.125,0.171,0.184,0.261
		C356.169,219.125,356.109,219.039,356.044,218.955z"/>
	<path id="XMLID_130_" fill="none" d="M357.772,223.626c-0.003-0.021-0.008-0.037-0.011-0.056c-0.002-0.031-0.012-0.059-0.017-0.092
		c0.007,0.053,0.02,0.1,0.029,0.154C357.772,223.628,357.772,223.626,357.772,223.626z"/>
	<path id="XMLID_129_" fill="none" d="M357.762,227.046c0.003-0.022,0.011-0.042,0.013-0.067c0-0.003,0-0.005,0-0.008
		c-0.01,0.063-0.024,0.118-0.033,0.176C357.747,227.114,357.76,227.081,357.762,227.046z"/>
	<path id="XMLID_128_" fill="none" d="M350.092,219.215c0.061-0.09,0.122-0.177,0.188-0.261
		C350.214,219.039,350.152,219.125,350.092,219.215z"/>
	<path id="XMLID_127_" fill="none" d="M352.321,217.368c0.274-0.084,0.552-0.144,0.84-0.144
		C352.873,217.225,352.596,217.284,352.321,217.368z"/>
	<path id="XMLID_126_" fill="none" d="M331.508,217.003c-0.721-0.759-1.454-1.502-2.185-2.247
		C330.054,215.501,330.784,216.245,331.508,217.003z"/>
	<path id="XMLID_125_" fill="none" d="M353.161,191.602L353.161,191.602c0-0.007,0-0.033,0-0.033v10.896l-4.175,19.114
		c-0.016,0.048-0.02,0.1-0.029,0.147c0.01-0.037,0.02-0.072,0.032-0.109l0,0l0,0l4.172-19.112v-10.897l0,0V191.602L353.161,191.602z
		"/>
	<path id="XMLID_124_" fill="none" d="M335.412,221.213c-0.383-0.42-0.766-0.84-1.148-1.257
		C334.649,220.374,335.029,220.793,335.412,221.213z"/>
	<path id="XMLID_123_" fill="none" d="M357.332,221.613c0.05,0.152,0.104,0.293,0.144,0.452c0-0.002,0-0.004,0-0.008
		C357.437,221.903,357.382,221.765,357.332,221.613L357.332,221.613L357.332,221.613z"/>
	<path id="XMLID_122_" fill="none" d="M348.445,225.267h0.004c0-0.077,0.011-0.147,0.011-0.221
		C348.46,225.123,348.445,225.189,348.445,225.267z"/>
	<path id="XMLID_121_" fill="none" d="M351.507,217.763c0.184-0.118,0.369-0.221,0.563-0.3
		C351.88,217.542,351.69,217.642,351.507,217.763z"/>
	<path id="XMLID_120_" fill="none" d="M350.656,218.484c0.194-0.21,0.393-0.405,0.604-0.563
		C351.049,218.081,350.845,218.271,350.656,218.484z"/>
	<path id="XMLID_119_" fill="none" d="M357.476,228.542c0,0,0-0.003,0.003-0.005c-0.105,0.415-0.232,0.81-0.375,1.186
		c0.149-0.38,0.281-0.775,0.39-1.195L357.476,228.542L357.476,228.542z"/>
	<path id="XMLID_118_" fill="none" d="M214.667,221.683c0.172-0.274,0.353-0.539,0.525-0.811
		C215.019,221.144,214.839,221.409,214.667,221.683z"/>
	<path id="XMLID_117_" fill="none" d="M355.061,217.92c0.214,0.159,0.412,0.353,0.606,0.563
		C355.473,218.271,355.274,218.081,355.061,217.92z"/>
	<path id="XMLID_116_" fill="none" d="M217.99,216.801c0.086-0.114,0.164-0.235,0.251-0.353
		C218.156,216.566,218.076,216.687,217.99,216.801z"/>
	<path id="XMLID_115_" fill="none" d="M297.862,225.209l0.005-0.002c0-0.005,0-0.011,0-0.018l0,0h0.021l-0.027-0.062
		C297.86,225.154,297.862,225.182,297.862,225.209z"/>
	<path id="XMLID_114_" fill="none" d="M209.576,231.02c-0.203,0.428-0.403,0.858-0.597,1.29
		C209.173,231.877,209.374,231.447,209.576,231.02z"/>
	<path id="XMLID_113_" fill="none" d="M207.012,237.007c-0.026,0.07-0.056,0.139-0.083,0.208
		C206.956,237.146,206.985,237.077,207.012,237.007z"/>
	<polygon id="XMLID_112_" fill="none" points="356.064,194.382 356.056,194.371 356.056,194.371 	"/>
	<path id="XMLID_111_" fill="none" d="M230.163,203.658l-0.005,0.009L230.163,203.658z"/>
	<path id="XMLID_110_" fill="none" d="M225.58,207.923c0.231-0.231,0.467-0.458,0.701-0.689
		C226.047,207.465,225.809,207.691,225.58,207.923z"/>
	<path id="XMLID_109_" fill="none" d="M221.447,212.438c0.236-0.279,0.47-0.559,0.711-0.833
		C221.917,211.879,221.683,212.157,221.447,212.438z"/>
	<path id="XMLID_108_" fill="none" d="M357.337,221.616l-4.176-19.112L357.337,221.616z"/>
	<path id="XMLID_107_" fill="none" d="M284.564,236.092c-0.079-0.017-0.153-0.039-0.233-0.059
		C284.411,236.053,284.485,236.075,284.564,236.092z"/>
	<path id="XMLID_106_" fill="none" d="M285.678,236.268c-0.088-0.012-0.172-0.029-0.259-0.042
		C285.506,236.237,285.59,236.256,285.678,236.268z"/>
	<path id="XMLID_105_" fill="none" d="M212.146,225.97c-0.265,0.477-0.513,0.964-0.768,1.445
		C211.633,226.934,211.881,226.447,212.146,225.97z"/>
	<path id="XMLID_104_" fill="none" d="M281.443,234.922c-0.005-0.003-0.01-0.007-0.015-0.011
		C281.436,234.915,281.438,234.919,281.443,234.922z"/>
	<path id="XMLID_103_" fill="none" d="M283.479,235.804c-0.051-0.015-0.103-0.037-0.152-0.054
		C283.376,235.767,283.426,235.789,283.479,235.804z"/>
	<path id="XMLID_102_" fill="none" d="M282.435,235.414c-0.027-0.012-0.05-0.027-0.077-0.037
		C282.385,235.389,282.412,235.402,282.435,235.414z"/>
	<path id="XMLID_101_" fill="none" d="M276.606,229.455c0.005,0.007,0.005,0.017,0.01,0.024
		C276.611,229.471,276.611,229.461,276.606,229.455z"/>
	<path id="XMLID_100_" fill="none" d="M276.084,222.769c-0.018,0.082-0.044,0.159-0.062,0.243
		C276.04,222.931,276.067,222.851,276.084,222.769z"/>
	<path id="XMLID_99_" fill="none" d="M277.228,219.844c-0.007,0.013-0.015,0.022-0.022,0.032
		C277.213,219.866,277.221,219.856,277.228,219.844z"/>
	<path id="XMLID_98_" fill="none" d="M280.889,215.986c-0.003,0.003-0.003,0.003-0.008,0.003
		C280.886,215.989,280.886,215.989,280.889,215.986z"/>
	<path id="XMLID_97_" fill="none" d="M276.373,221.752c-0.021,0.057-0.045,0.112-0.06,0.171
		C276.328,221.864,276.356,221.808,276.373,221.752z"/>
	<path id="XMLID_96_" fill="none" d="M276.755,220.778c-0.015,0.032-0.032,0.064-0.044,0.097
		C276.723,220.843,276.741,220.811,276.755,220.778z"/>
	<path id="XMLID_95_" fill="none" d="M288.997,214.46c-0.017-0.002-0.033-0.002-0.051-0.007
		C288.964,214.456,288.978,214.458,288.997,214.46z"/>
	<path id="XMLID_94_" fill="none" d="M291.003,215.069c-0.01-0.005-0.021-0.007-0.032-0.013
		C290.981,215.062,290.993,215.064,291.003,215.069z"/>
	<path id="XMLID_93_" fill="none" d="M282.735,215.038c-0.015,0.004-0.035,0.012-0.05,0.017
		C282.7,215.049,282.72,215.045,282.735,215.038z"/>
	<path id="XMLID_92_" fill="none" d="M284.748,214.448c-0.024,0.003-0.05,0.006-0.075,0.011
		C284.698,214.454,284.724,214.451,284.748,214.448z"/>
	<path id="XMLID_91_" fill="none" d="M297.781,223.974c0,0.008,0.004,0.011,0.004,0.018
		C297.785,223.984,297.781,223.979,297.781,223.974z"/>
	<path id="XMLID_90_" fill="none" d="M286.89,189.757c0-0.171,0-0.333,0-0.479C286.89,189.425,286.89,189.583,286.89,189.757z"/>
	<path id="XMLID_89_" fill="none" d="M286.89,188.989c0-0.112,0-0.211,0-0.289C286.89,188.778,286.89,188.873,286.89,188.989z"/>
	<path id="XMLID_88_" fill="none" d="M286.89,188.542c0-0.04,0-0.063,0-0.063S286.89,188.502,286.89,188.542z"/>
	<path id="XMLID_87_" fill="none" d="M286.89,191.23v-0.167v-0.487c0-0.162,0-0.322,0-0.472
		C286.89,190.46,286.89,190.844,286.89,191.23z"/>
	<path id="XMLID_86_" fill="none" d="M356.396,231.161c-0.12,0.192-0.247,0.363-0.379,0.535
		C356.148,231.524,356.275,231.354,356.396,231.161z"/>
	<path id="XMLID_85_" fill="none" d="M275.886,223.873c-0.01,0.086-0.03,0.174-0.04,0.261
		C275.856,224.047,275.876,223.959,275.886,223.873z"/>
	<path id="XMLID_84_" fill="none" d="M275.995,227.419c0.005,0.015,0.005,0.027,0.007,0.044
		C276,227.448,276,227.434,275.995,227.419z"/>
	<path id="XMLID_83_" fill="none" d="M356.979,230.011c-0.11,0.268-0.237,0.522-0.368,0.767
		C356.745,230.536,356.864,230.282,356.979,230.011z"/>
	<path id="XMLID_82_" fill="#535353" d="M314.658,294.947c-0.354-0.405-0.719-0.84-1.097-1.334
		C313.939,294.107,314.305,294.542,314.658,294.947L314.658,294.947z"/>
	<path id="XMLID_81_" fill="#AB9679" d="M317.354,297.627c0,0,0.007,0.027,0.024,0.073
		C317.361,297.654,317.354,297.627,317.354,297.627s-1.188-0.943-2.696-2.68l0,0C316.163,296.684,317.354,297.627,317.354,297.627z"
		/>
	<ellipse id="XMLID_80_" fill="#FFFFFF" cx="353.127" cy="191.606" rx="0.003" ry="0.003"/>
	<path id="XMLID_79_" fill="#FFFFFF" d="M357.874,225.338c0-0.012,0.002-0.022,0.002-0.035l0,0
		C357.876,225.316,357.874,225.329,357.874,225.338z"/>
	<path id="XMLID_78_" fill="#BCBCBD" d="M359.129,198.162L359.129,198.162L359.129,198.162c-0.021-0.024-0.042-0.05-0.057-0.076l0,0
		c-0.975-1.353-1.979-2.584-3.008-3.706c-0.002-0.005-0.005-0.007-0.009-0.009c0,0.002,0.004,0.007,0.009,0.009
		c-0.009-0.009-0.021-0.022-0.027-0.032l0,0c-0.47-0.507-0.941-0.994-1.42-1.452c-0.181-0.173-0.367-0.326-0.548-0.491
		c-0.301-0.271-0.602-0.555-0.908-0.809v0.007V202.5l4.176,19.114l0,0c0.045,0.148,0.1,0.286,0.139,0.442l2.891,3.238l0.027-0.032
		h3.027c0.005-0.281,0.02-0.557,0.02-0.838v-0.002c0-9.016-1.48-17.678-4.166-25.792l0,0
		C359.225,198.476,359.181,198.319,359.129,198.162z"/>
	<path id="XMLID_77_" fill="#BCBCBD" d="M357.876,225.303c0-0.009-0.002-0.019-0.002-0.032
		C357.874,225.284,357.876,225.294,357.876,225.303L357.876,225.303z"/>
	<path id="XMLID_76_" fill="#686A6A" d="M357.745,223.479c0.005,0.031,0.015,0.061,0.017,0.092c0.003,0.019,0.008,0.035,0.011,0.056
		c0,0,0,0.002,0,0.007c0.054,0.447,0.077,0.916,0.086,1.387c0,0.088,0.016,0.167,0.016,0.253c0,0.011,0.002,0.021,0.002,0.033
		s-0.002,0.022-0.002,0.035c0,0.092-0.016,0.178-0.016,0.273c-0.009,0.462-0.029,0.92-0.084,1.36c0,0.002,0,0.005,0,0.007
		c-0.002,0.022-0.01,0.042-0.013,0.067c-0.002,0.034-0.015,0.067-0.021,0.103c-0.064,0.476-0.15,0.943-0.263,1.386
		c0,0.002,0,0.005-0.003,0.005l0,0l0.018-0.018c0.003-0.007,0.003-0.015,0.007-0.022l0,0l2.866-3.207l-2.891-3.24
		c0,0.002,0,0.005,0,0.008C357.591,222.515,357.68,222.99,357.745,223.479z"/>
	<path id="XMLID_219_" d="M357.741,227.151c0.009-0.061,0.023-0.114,0.033-0.177c0.055-0.44,0.075-0.897,0.084-1.36
		c0-0.104,0.018-0.201,0.018-0.308c0-0.1-0.012-0.189-0.018-0.287c-0.009-0.471-0.029-0.939-0.084-1.387
		c-0.005-0.052-0.021-0.102-0.029-0.154c-0.065-0.489-0.154-0.961-0.27-1.414c-0.039-0.159-0.094-0.298-0.144-0.452
		c-0.273-0.914-0.655-1.727-1.104-2.398c-0.059-0.09-0.118-0.18-0.184-0.261c-0.121-0.167-0.242-0.329-0.377-0.471
		c-0.194-0.21-0.393-0.405-0.604-0.563c-0.082-0.063-0.166-0.104-0.248-0.157c-0.182-0.118-0.37-0.221-0.564-0.3
		c-0.082-0.035-0.164-0.067-0.248-0.092c-0.274-0.085-0.553-0.146-0.841-0.146s-0.565,0.062-0.84,0.146
		c-0.084,0.024-0.169,0.057-0.251,0.092c-0.194,0.08-0.38,0.182-0.563,0.3c-0.079,0.053-0.168,0.095-0.247,0.157
		c-0.211,0.159-0.409,0.353-0.604,0.563c-0.134,0.142-0.257,0.303-0.377,0.471c-0.065,0.084-0.127,0.173-0.188,0.261
		c-0.449,0.675-0.826,1.484-1.105,2.401c-0.01,0.037-0.024,0.074-0.035,0.109c-0.118,0.419-0.216,0.864-0.298,1.32
		c-0.024,0.139-0.055,0.272-0.074,0.417c-0.073,0.507-0.109,1.039-0.119,1.583c0,0.074-0.011,0.147-0.011,0.221h0.018
		c0,4.463,2.109,8.082,4.715,8.082c0.449,0,0.88-0.118,1.292-0.318c0.064-0.033,0.13-0.068,0.193-0.107
		c0.175-0.097,0.338-0.206,0.501-0.333c0.089-0.07,0.17-0.156,0.255-0.239c0.209-0.193,0.408-0.412,0.594-0.656
		c0.13-0.171,0.259-0.342,0.379-0.535c0.077-0.122,0.146-0.253,0.215-0.383c0.131-0.243,0.258-0.497,0.368-0.767
		c0.043-0.097,0.084-0.189,0.125-0.291c0.143-0.376,0.27-0.769,0.375-1.186C357.591,228.094,357.677,227.627,357.741,227.151z
		 M353.331,224.228c-0.979,0-1.77-1.354-1.77-3.03c0-1.671,0.79-3.029,1.77-3.029c0.976,0,1.77,1.357,1.77,3.029
		C355.101,222.874,354.307,224.228,353.331,224.228z"/>
	<path id="XMLID_73_" fill="#FFFFFF" d="M353.331,218.169c0.976,0,1.77,1.357,1.77,3.029c0,1.676-0.794,3.03-1.77,3.03
		c-0.978,0-1.77-1.354-1.77-3.03C351.562,219.526,352.354,218.169,353.331,218.169z"/>
	<path id="XMLID_72_" fill="#919494" d="M348.986,221.616L348.986,221.616c0.279-0.917,0.656-1.728,1.105-2.401
		c0.061-0.09,0.122-0.177,0.188-0.261c0.118-0.167,0.243-0.326,0.377-0.471c0.194-0.213,0.393-0.403,0.604-0.563
		c0.083-0.063,0.168-0.104,0.247-0.157c0.184-0.118,0.369-0.221,0.563-0.3c0.082-0.035,0.167-0.067,0.251-0.092
		c0.274-0.085,0.552-0.146,0.84-0.146s0.566,0.06,0.841,0.146c0.084,0.024,0.166,0.057,0.248,0.092
		c0.194,0.08,0.381,0.182,0.564,0.3c0.082,0.053,0.166,0.095,0.248,0.157c0.212,0.161,0.41,0.35,0.604,0.563
		c0.135,0.142,0.259,0.303,0.377,0.471c0.065,0.084,0.125,0.171,0.184,0.261c0.449,0.673,0.826,1.484,1.104,2.398v0.003l0,0
		l-4.171-19.112L348.986,221.616L348.986,221.616z"/>
	<path id="XMLID_214_" d="M297.86,225.128c-0.007-0.383-0.03-0.763-0.075-1.139c0-0.007-0.004-0.01-0.004-0.017
		c-0.043-0.368-0.104-0.73-0.182-1.088c-0.002-0.009-0.005-0.018-0.007-0.027c-0.081-0.354-0.175-0.699-0.287-1.037
		c-0.003-0.01-0.007-0.018-0.007-0.024c-0.114-0.34-0.243-0.673-0.389-0.997c0-0.005-0.004-0.013-0.01-0.02
		c-0.145-0.326-0.306-0.644-0.481-0.949l0,0c-0.537-0.939-1.208-1.794-1.983-2.535c-0.989-0.941-2.151-1.703-3.43-2.23
		c-0.01-0.002-0.02-0.007-0.035-0.011c-0.631-0.259-1.288-0.458-1.974-0.594c-0.017-0.005-0.033-0.005-0.051-0.011
		c-0.685-0.131-1.395-0.206-2.117-0.206c-0.715,0-1.41,0.072-2.081,0.202c-0.024,0.004-0.05,0.004-0.075,0.01
		c-0.671,0.134-1.315,0.328-1.938,0.579c-0.015,0.008-0.035,0.013-0.05,0.021c-0.631,0.255-1.233,0.568-1.797,0.932
		c-0.003,0.002-0.003,0.002-0.008,0.002c-0.571,0.366-1.103,0.786-1.597,1.247l-0.013,0.038l-0.04,0.01
		c-0.788,0.748-1.464,1.611-2.003,2.558c-0.007,0.012-0.015,0.022-0.022,0.033c-0.167,0.29-0.311,0.594-0.45,0.901
		c-0.015,0.033-0.035,0.064-0.049,0.098c-0.125,0.283-0.231,0.579-0.333,0.875c-0.021,0.06-0.045,0.114-0.06,0.171
		c-0.089,0.278-0.162,0.563-0.229,0.85c-0.018,0.08-0.044,0.16-0.062,0.242c-0.057,0.283-0.097,0.569-0.137,0.859
		c-0.01,0.09-0.03,0.174-0.04,0.263c-0.04,0.378-0.059,0.763-0.059,1.151c0,0.731,0.075,1.444,0.208,2.132
		c0,0.015,0.005,0.03,0.005,0.044c0.14,0.689,0.343,1.354,0.604,1.991c0.005,0.008,0.007,0.021,0.01,0.027
		c0.532,1.288,1.3,2.453,2.25,3.442c0.75,0.781,1.615,1.454,2.565,1.991c0.004,0.002,0.01,0.005,0.015,0.008
		c0.295,0.166,0.601,0.318,0.915,0.458c0.025,0.012,0.05,0.024,0.075,0.035c0.288,0.127,0.589,0.233,0.89,0.337
		c0.051,0.019,0.104,0.038,0.153,0.058c0.278,0.087,0.564,0.159,0.854,0.226c0.079,0.019,0.153,0.042,0.229,0.059
		c0.283,0.059,0.569,0.096,0.858,0.136c0.087,0.013,0.173,0.029,0.261,0.04c0.377,0.037,0.76,0.059,1.149,0.059
		c1.519,0,2.971-0.309,4.296-0.868c0.657-0.278,1.287-0.622,1.876-1.017c1.173-0.794,2.187-1.809,2.982-2.982
		c0.393-0.589,0.735-1.216,1.014-1.876c0.562-1.32,0.87-2.774,0.87-4.3c0-0.024-0.005-0.05-0.005-0.074l0,0
		C297.862,225.182,297.86,225.154,297.86,225.128L297.86,225.128z M286.827,223.833c-2.293,0-4.146-1.856-4.146-4.145
		c0-2.292,1.857-4.148,4.146-4.148c2.291,0,4.144,1.856,4.144,4.148C290.976,221.977,289.118,223.833,286.827,223.833z"/>
	<path id="XMLID_69_" fill="#FFFFFF" d="M286.827,215.537c2.291,0,4.144,1.857,4.144,4.148c0,2.289-1.853,4.146-4.144,4.146
		c-2.293,0-4.146-1.856-4.146-4.146C282.681,217.394,284.534,215.537,286.827,215.537z"/>
	<path id="XMLID_68_" fill="#BCBCBD" d="M279.231,217.289L279.231,217.289l0.04-0.01l0.013-0.04l0,0l7.602-23.255
		c0,0,0-1.377,0-2.75c0-0.388,0-0.771,0-1.128c0-0.12,0-0.236,0-0.348c0-0.171,0-0.331,0-0.478c0-0.104,0-0.203,0-0.288
		c0-0.117,0-0.211,0-0.288c0-0.065,0-0.122,0-0.16c0-0.039,0-0.062,0-0.062c-4.232-0.868-8.589-1.345-13.045-1.345
		c-1.488,0-2.965,0.063-4.428,0.164c-0.217,0.013-0.43,0.028-0.645,0.046c-7.631,0.579-15.145,2.569-22.106,5.746
		c-5.967,2.723-11.514,6.315-16.499,10.57l0,0c0,0.002-0.005,0.004-0.005,0.008c-1.339,1.138-2.622,2.338-3.876,3.568
		c-0.234,0.228-0.472,0.455-0.701,0.688c-1.178,1.188-2.321,2.416-3.422,3.681c-0.241,0.274-0.475,0.555-0.711,0.833
		c-1.107,1.307-2.185,2.637-3.206,4.013c-0.084,0.114-0.165,0.236-0.251,0.351c-0.974,1.326-1.901,2.688-2.795,4.073
		c-0.174,0.271-0.353,0.537-0.525,0.811c-0.724,1.146-1.398,2.326-2.064,3.506h34.578h0.06L279.231,217.289z"/>
	<path id="XMLID_67_" fill="#E3DEDC" d="M308.475,214.67c0.072-0.908,0.13-1.814,0.177-2.722c0.063-1.23,0.104-2.46,0.129-3.688
		c0.018-0.954,0.015-1.91,0.011-2.865c0-0.276,0.007-0.551,0.004-0.827c-0.029-2.46-0.124-4.926-0.272-7.392l0,0l0,0
		c-0.009-0.005-0.016-0.01-0.021-0.015c-0.005-0.005-0.007-0.013-0.009-0.018c-0.012-0.004-0.046-0.027-0.081-0.044
		c-0.029-0.015-0.055-0.033-0.109-0.063c-0.451-0.261-1.565-0.897-2.562-1.464c-0.02-0.013-0.043-0.025-0.063-0.037
		c-0.253-0.142-0.497-0.281-0.716-0.406c-0.004-0.002-0.011-0.004-0.015-0.007c-0.189-0.107-0.349-0.195-0.497-0.278
		c-0.029-0.018-0.069-0.042-0.095-0.055c-0.161-0.092-0.288-0.159-0.362-0.197c-1.591-0.824-3.216-1.59-4.869-2.289
		c-3.939-1.664-9.244-3.121-12.235-3.826v2.094v0.487v0.171c0,1.377,0,2.752,0,2.752l7.536,23.291l0.01,0.021
		c0.775,0.741,1.446,1.596,1.983,2.535l0,0c0.176,0.307,0.337,0.624,0.481,0.949c0.006,0.007,0.008,0.013,0.01,0.02
		c0.148,0.324,0.274,0.657,0.389,0.997c0,0.007,0.004,0.015,0.007,0.024c0.112,0.338,0.206,0.683,0.287,1.037
		c0.002,0.009,0.005,0.018,0.007,0.027c0.077,0.355,0.141,0.721,0.182,1.088c0,0.007,0.004,0.01,0.004,0.017
		c0.045,0.373,0.068,0.753,0.075,1.139l0,0l0.027,0.062h9.228c0.624-3.378,1.058-6.8,1.335-10.234
		C308.456,214.858,308.468,214.764,308.475,214.67z"/>
	<path id="XMLID_66_" fill="#F7AF43" d="M320.543,206.434c-0.005,0.009-0.01,0.022-0.018,0.033
		C320.533,206.456,320.54,206.446,320.543,206.434L320.543,206.434z"/>
	<path id="XMLID_65_" fill="#F7AF43" d="M297.939,258.379c2.092-2.082,4.068-4.078,5.955-6.033c1.118-1.161,2.214-2.312,3.26-3.447
		c7.713-8.371,13.376-16.207,16.781-26.284c0.079-0.241,0.161-0.557,0.238-0.91c0.01-0.055,0.024-0.107,0.035-0.164
		c0.082-0.375,0.159-0.792,0.234-1.265c0.031-0.325,0.063-0.641,0.091-0.944c-0.854-4.389-2.518-8.653-3.983-12.865
		c0.007,0.011,0.01,0.026,0.017,0.042c-0.007-0.01-0.037-0.034-0.042-0.042c-0.28-0.267-0.576-0.515-0.859-0.776
		c-0.869-0.8-1.75-1.581-2.649-2.338c-2.694-2.274-5.526-4.345-8.496-6.176l0,0c0.15,2.466,0.245,4.931,0.271,7.392
		c0.004,0.276-0.002,0.551,0,0.827c0.004,0.955,0.004,1.911-0.013,2.865c-0.025,1.229-0.068,2.458-0.129,3.688
		c-0.048,0.908-0.108,1.814-0.178,2.722c-0.007,0.094-0.018,0.188-0.024,0.283c-0.274,3.437-0.712,6.856-1.332,10.234l-1.086,5.127
		c-2.265,9.177-6.861,17.503-10.645,26.099c-1.005,2.279-1.953,4.585-2.788,6.935c-0.074,0.216-0.156,0.442-0.233,0.663
		c1.181-1.241,2.227-2.313,3.021-3.101C296.253,260.052,297.105,259.21,297.939,258.379z"/>
	<path id="XMLID_64_" fill="#919494" d="M279.284,217.239L279.284,217.239c0.494-0.462,1.026-0.879,1.597-1.247
		c0.005-0.003,0.005-0.003,0.008-0.003c0.564-0.363,1.166-0.676,1.797-0.933c0.015-0.004,0.035-0.012,0.05-0.017
		c0.622-0.252,1.267-0.447,1.938-0.582c0.025-0.003,0.051-0.005,0.075-0.011c0.671-0.129,1.366-0.2,2.081-0.2
		c0.723,0,1.431,0.074,2.117,0.208c0.018,0.003,0.034,0.003,0.051,0.007c0.686,0.137,1.343,0.342,1.974,0.597
		c0.011,0.002,0.022,0.007,0.035,0.011c1.282,0.528,2.44,1.289,3.43,2.228l-0.01-0.02l-7.536-23.292L279.284,217.239z"/>
	<path id="XMLID_63_" fill="#686A6A" d="M276.606,229.455c-0.261-0.636-0.465-1.302-0.604-1.991
		c-0.002-0.015-0.002-0.03-0.007-0.044c-0.134-0.691-0.208-1.405-0.208-2.135c0-0.388,0.02-0.773,0.059-1.15
		c0.01-0.087,0.03-0.175,0.043-0.261c0.037-0.289,0.077-0.58,0.136-0.86c0.021-0.084,0.042-0.162,0.063-0.243
		c0.067-0.286,0.137-0.572,0.226-0.847c0.021-0.061,0.043-0.114,0.064-0.172c0.1-0.298,0.207-0.591,0.333-0.878
		c0.012-0.031,0.03-0.064,0.044-0.096c0.14-0.307,0.289-0.609,0.453-0.901c0.005-0.011,0.015-0.022,0.02-0.032
		c0.542-0.95,1.218-1.812,2.006-2.558l0,0l-31.99,7.901h-0.06l31.685,7.733c-0.95-0.988-1.72-2.153-2.249-3.441
		C276.611,229.471,276.611,229.461,276.606,229.455z"/>
	<path id="XMLID_62_" fill="#E3DEDC" d="M348.579,223.46c0.02-0.145,0.05-0.277,0.074-0.416c0.082-0.456,0.177-0.9,0.298-1.322
		c0.016-0.045,0.02-0.099,0.035-0.146l4.171-19.114v-10.898c-3.41-2.816-7.062-4.357-10.865-4.357c-4.803,0-9.28,2.655-12.631,5.93
		c-3.669,3.587-6.497,8.099-8.788,12.649c-0.104,0.211-0.213,0.411-0.317,0.625c0.705,0.611,1.406,1.23,2.093,1.861
		c1.561,1.427,3.086,2.891,4.592,4.377c0.701,0.69,1.387,1.399,2.078,2.102c0.735,0.747,1.466,1.491,2.187,2.247
		c0.929,0.977,1.85,1.958,2.759,2.953c0.383,0.417,0.766,0.837,1.144,1.258c1.099,1.215,2.188,2.436,3.267,3.673v0.002
		c0.178,0.189,0.307,0.323,0.354,0.378h9.411c0-0.075,0.018-0.145,0.018-0.222C348.47,224.499,348.506,223.97,348.579,223.46z"/>
	<path id="XMLID_61_" fill="#E3DEDC" d="M320.556,206.463c-0.005-0.009-0.007-0.02-0.013-0.029l0,0
		c-0.005,0.009-0.01,0.022-0.018,0.033c0.008,0.007,0.035,0.032,0.045,0.042C320.565,206.493,320.561,206.478,320.556,206.463z"/>
	<path id="XMLID_60_" fill="#535353" d="M206.929,237.215c0.026-0.069,0.056-0.138,0.083-0.208c0.606-1.586,1.27-3.149,1.968-4.697
		c0.194-0.432,0.396-0.86,0.597-1.29c0.57-1.215,1.174-2.413,1.801-3.604c0.253-0.484,0.501-0.969,0.766-1.445
		c0.146-0.267,0.311-0.517,0.459-0.783c0.668-1.18,1.34-2.359,2.063-3.506c0.171-0.272,0.352-0.54,0.526-0.809
		c0.895-1.384,1.823-2.745,2.796-4.073c0.084-0.114,0.164-0.235,0.25-0.351c1.022-1.377,2.1-2.708,3.207-4.014
		c0.236-0.278,0.469-0.559,0.709-0.834c1.104-1.263,2.242-2.49,3.422-3.681c0.234-0.23,0.467-0.456,0.704-0.688
		c1.255-1.228,2.535-2.428,3.875-3.566c0-0.002,0.004-0.007,0.008-0.007c5.263-17.638,21.37-30.477,40.432-30.477
		c7.674,0,15.302,2.212,21.839,6.21c6.706,4.104,12.174,10.112,15.724,17.119c0.018,0.034,0.036,0.069,0.055,0.104
		c0.088,0.18,0.188,0.349,0.277,0.528l0,0l0,0c0,0.007,0.006,0.013,0.01,0.017c0.005,0.005,0.015,0.013,0.02,0.015
		c2.972,1.83,5.801,3.903,8.498,6.176c0.896,0.759,1.782,1.539,2.648,2.339c0.286,0.261,0.579,0.51,0.86,0.779
		c0.007-0.011,0.01-0.023,0.017-0.033c0.003-0.008,0.009-0.015,0.011-0.022c0.095-0.199,0.19-0.4,0.288-0.594
		c2.687-16.952,10.164-29.165,18.985-29.165c6.646,0,12.537,6.931,16.186,17.601l0.037,0.117c0.004,0.002,0.009,0.007,0.013,0.012
		c1.028,1.121,2.033,2.354,3.007,3.706h-0.002c0.02,0.027,0.037,0.049,0.058,0.077v-0.003v0.003
		c0.054,0.156,0.099,0.313,0.148,0.467l0,0l-0.14-0.555c-10.975-32.484-41.697-55.87-77.882-55.87
		c-45.39,0-82.186,36.795-82.186,82.184c0,8.95,1.429,17.563,4.083,25.581c0.004-0.018,0.009-0.03,0.011-0.048
		c0.522-2.418,1.146-4.821,1.875-7.2C205.608,240.872,206.241,239.032,206.929,237.215z"/>
	<path id="XMLID_59_" fill="#FFFFFF" d="M360.366,225.299l-2.866,3.207l0,0c-0.004,0.007-0.004,0.015-0.007,0.022
		c-0.108,0.419-0.24,0.814-0.39,1.195c-0.041,0.1-0.079,0.193-0.125,0.291c-0.114,0.268-0.233,0.524-0.368,0.768
		c-0.068,0.129-0.141,0.261-0.215,0.382c-0.12,0.191-0.247,0.362-0.379,0.532c-0.186,0.246-0.385,0.465-0.594,0.659
		c-0.085,0.082-0.166,0.169-0.255,0.238c-0.163,0.129-0.331,0.236-0.501,0.333c-0.063,0.037-0.129,0.072-0.193,0.105
		c-0.412,0.2-0.843,0.32-1.292,0.32c-2.605,0-4.715-3.618-4.715-8.081h-0.018h-0.004h-9.415h-0.024c0,0.002,0.002,0.002,0.006,0.004
		c1.754,2.032,3.483,4.085,5.184,6.164c0.021,0.022,0.041,0.05,0.063,0.074c1.656,2.021,3.289,4.061,4.902,6.112
		c0.079,0.101,0.158,0.2,0.238,0.3c1.53,1.954,3.045,3.917,4.543,5.885c0.146,0.194,0.293,0.384,0.439,0.571
		c1.588,2.089,3.159,4.183,4.72,6.279c0.01,0.015,0.021,0.029,0.029,0.044c2.705-8,4.216-16.547,4.313-25.436h-0.022h-3.025
		L360.366,225.299z"/>
	<path id="XMLID_58_" d="M268.768,187.342c0.214-0.017,0.428-0.03,0.645-0.044c1.463-0.1,2.94-0.164,4.428-0.164
		c4.456,0,8.811,0.479,13.045,1.345c0,0,0,0.022,0,0.064c0,0.035,0,0.092,0,0.156c0,0.079,0,0.176,0,0.289c0,0.087,0,0.186,0,0.288
		c0,0.146,0,0.311,0,0.48c0,0.109,0,0.229,0,0.345c0,0.152,0,0.311,0,0.472v-2.094c2.992,0.706,8.296,2.162,12.237,3.826
		c1.65,0.699,3.274,1.461,4.865,2.289c0.075,0.038,0.201,0.108,0.363,0.197c0.03,0.015,0.07,0.037,0.098,0.055
		c0.146,0.083,0.31,0.171,0.497,0.278c0.002,0.003,0.01,0.005,0.013,0.007c0.22,0.125,0.461,0.264,0.714,0.406
		c0.021,0.012,0.046,0.024,0.066,0.037c1.011,0.574,2.132,1.218,2.559,1.464c0.055,0.033,0.083,0.047,0.112,0.063
		c0.019,0.012,0.071,0.04,0.077,0.044l0,0c-0.09-0.179-0.189-0.35-0.277-0.527c-0.021-0.034-0.037-0.072-0.055-0.104
		c-3.55-7.006-9.018-13.017-15.724-17.119c-6.537-4-14.168-6.21-21.839-6.21c-19.063,0-35.169,12.839-40.432,30.475
		c4.982-4.255,10.529-7.844,16.499-10.57C253.623,189.909,261.139,187.921,268.768,187.342z"/>
	<line id="XMLID_57_" fill="none" x1="286.89" y1="190.576" x2="286.89" y2="191.065"/>
	<path id="XMLID_56_" d="M329.661,193.142c3.351-3.278,7.828-5.929,12.631-5.929c3.804,0,7.455,1.541,10.865,4.356
		c0,0,0,0.025,0,0.033v0.005v-0.005c0.308,0.25,0.606,0.535,0.908,0.808c0.181,0.167,0.368,0.318,0.548,0.489
		c0.48,0.46,0.951,0.944,1.422,1.452l0,0c0.009,0.013,0.016,0.022,0.024,0.032c0-0.002-0.004-0.008-0.011-0.01l0,0l-0.039-0.114
		c-3.648-10.669-9.539-17.603-16.186-17.603c-8.821,0-16.299,12.212-18.985,29.164l0.029-0.022
		C323.164,201.24,325.998,196.728,329.661,193.142z"/>
	<path id="XMLID_55_" fill="#FFFFFF" d="M251.829,301.054c0.75,0.288,1.514,0.548,2.276,0.815c8.5,2.977,17.63,4.619,27.151,4.619
		c10.856,0,21.207-2.124,30.695-5.946c0.503-0.204,0.995-0.426,1.491-0.637c0.806-0.343,1.603-0.699,2.396-1.063
		c0.706-0.33,1.417-0.656,2.113-1.003c-0.169,0.018-0.339,0.052-0.504,0.071l0,0c-2.951,0.33-5.875,0.35-8.737-0.058
		c-16.908-2.433-20.656-10.587-20.12-19.077c-1.218-0.704-2.455-1.493-3.718-2.408c-13.002-9.434-20.722-19.487-20.722-19.487
		s10.032,7.748,25.017,13.542c0.322,0.124,0.621,0.231,0.94,0.35c0.699-2.42,1.528-4.722,2.256-6.759l0,0
		c0.079-0.224,0.159-0.45,0.238-0.666c0.832-2.346,1.784-4.651,2.789-6.932c3.779-8.597,8.374-16.921,10.642-26.1l1.083-5.127
		h-9.228h-0.021l0,0c0,0.007,0,0.013,0,0.018l-0.005,0.002l0,0c0,0.027,0.005,0.053,0.005,0.077c0,1.524-0.311,2.977-0.867,4.299
		c-0.283,0.66-0.621,1.288-1.019,1.875c-0.793,1.175-1.807,2.189-2.982,2.982c-0.587,0.397-1.216,0.738-1.873,1.019
		c-1.323,0.559-2.774,0.868-4.299,0.868c-0.39,0-0.772-0.02-1.149-0.061c-0.088-0.012-0.172-0.029-0.259-0.042
		c-0.287-0.035-0.577-0.077-0.854-0.134c-0.079-0.017-0.153-0.039-0.233-0.059c-0.289-0.068-0.577-0.136-0.855-0.226
		c-0.05-0.015-0.1-0.037-0.149-0.055c-0.303-0.102-0.601-0.211-0.892-0.338c-0.027-0.012-0.05-0.024-0.077-0.037
		c-0.313-0.14-0.619-0.289-0.915-0.455c-0.005-0.003-0.01-0.007-0.015-0.011c-0.95-0.533-1.815-1.204-2.563-1.991l-31.685-7.731
		h-34.577c-0.151,0.264-0.313,0.517-0.458,0.783c-0.265,0.478-0.513,0.965-0.768,1.447c-0.625,1.188-1.232,2.385-1.801,3.604
		c-0.201,0.427-0.401,0.855-0.596,1.287c-0.696,1.548-1.36,3.115-1.968,4.7c-0.026,0.07-0.057,0.139-0.083,0.209
		c-0.688,1.816-1.32,3.655-1.888,5.506c-0.727,2.379-1.352,4.782-1.875,7.2c5.444,16.604,16.033,30.87,29.876,40.925
		c0.403,0.293,0.83,0.554,1.238,0.837c2.34,1.639,4.761,3.169,7.271,4.562C244.851,298.069,248.275,299.689,251.829,301.054z"/>
	<path id="XMLID_54_" fill="#A02355" d="M308.572,275.527c-0.125,0.88-0.215,1.745-0.236,2.583
		c-0.048,1.519,0.058,2.962,0.278,4.327c0.146,0.912,0.345,1.785,0.585,2.622c0.356,1.256,0.805,2.429,1.306,3.512
		c0.503,1.083,1.056,2.08,1.625,2.984c0.189,0.302,0.383,0.592,0.574,0.873c0.288,0.419,0.578,0.814,0.863,1.186
		c0.377,0.494,0.739,0.929,1.096,1.337c1.509,1.733,2.695,2.677,2.695,2.677s0.005,0.029,0.023,0.077
		c0.018,0.05,0.043,0.121,0.067,0.208l0,0c0.168-0.017,0.338-0.049,0.507-0.071c3.664-0.46,7.356-1.451,11-2.764
		c1.855-0.669,3.704-1.393,5.527-2.223c0.554-0.253,1.098-0.534,1.649-0.802c18.822-9.102,34.589-25.204,34.589-25.204
		C347.063,278.471,323.944,278.008,308.572,275.527z"/>
	<path id="XMLID_53_" fill="#E10B6F" d="M353.942,243.812c-1.501-1.971-3.013-3.934-4.543-5.885
		c-0.08-0.099-0.161-0.198-0.238-0.301c-1.616-2.053-3.249-4.091-4.904-6.114c-0.021-0.022-0.04-0.05-0.062-0.074
		c-1.705-2.075-3.43-4.132-5.188-6.161c-0.112-0.13-0.221-0.259-0.334-0.388c-1.075-1.235-2.168-2.458-3.262-3.674
		c-0.383-0.42-0.763-0.84-1.148-1.257c-0.909-0.991-1.826-1.976-2.756-2.95c-0.724-0.758-1.454-1.503-2.185-2.246
		c-0.69-0.704-1.382-1.412-2.083-2.105c-1.506-1.484-3.031-2.95-4.587-4.377c-0.691-0.631-1.393-1.252-2.098-1.864
		c-0.005,0.008-0.005,0.016-0.01,0.02c1.486,4.271,3.181,8.592,4.026,13.041c0.22,1.158,0.404,2.285,0.551,3.385
		c2.07,15.407-2.864,25.466-10.706,38.697c-0.562,0.95-1.139,1.912-1.729,2.897c-1.792,2.988-2.942,5.819-3.604,8.478
		c-0.223,0.885-0.392,1.752-0.511,2.598c15.372,2.482,38.49,2.944,62.146-8.679c0,0-4.639-6.816-11.621-16.189
		c-1.561-2.097-3.132-4.19-4.717-6.277C354.235,244.192,354.086,244.003,353.942,243.812z"/>
	<path id="XMLID_52_" d="M317.354,297.627c0,0-1.188-0.943-2.696-2.68c-0.354-0.407-0.716-0.84-1.097-1.334
		c-0.283-0.373-0.571-0.769-0.862-1.188c-0.19-0.28-0.382-0.571-0.573-0.872c-0.567-0.902-1.124-1.899-1.625-2.984
		c-0.5-1.084-0.947-2.258-1.31-3.512c-0.237-0.838-0.436-1.713-0.58-2.622c-0.221-1.364-0.328-2.809-0.278-4.327
		c0.024-0.837,0.109-1.703,0.233-2.582c0.123-0.848,0.288-1.715,0.512-2.6c0.664-2.657,1.815-5.488,3.604-8.478
		c0.009-0.007,0.013-0.015,0.015-0.024c0.588-0.974,1.159-1.931,1.716-2.87c7.837-13.232,12.773-23.289,10.709-38.696
		c-0.147-1.1-0.331-2.227-0.552-3.385c-0.117,0.798-0.239,1.487-0.36,2.066c-0.015,0.057-0.025,0.109-0.038,0.164
		c-0.076,0.353-0.156,0.67-0.237,0.91c-3.408,10.077-9.069,17.914-16.781,26.286c-1.046,1.133-2.14,2.284-3.261,3.444
		c-1.886,1.957-3.862,3.952-5.956,6.034c-0.833,0.831-1.686,1.675-2.551,2.533c-0.795,0.787-1.841,1.861-3.021,3.101l0,0
		c-0.731,2.041-1.561,4.342-2.256,6.76c-0.319-0.116-0.618-0.227-0.94-0.35c-14.985-5.797-25.019-13.541-25.019-13.541
		s7.717,10.051,20.724,19.485c1.258,0.914,2.5,1.705,3.718,2.408c-0.539,8.492,3.209,16.646,20.118,19.076
		c2.861,0.41,5.788,0.391,8.736,0.057c-0.031-0.086-0.052-0.158-0.07-0.206C317.361,297.654,317.354,297.627,317.354,297.627z"/>
</g>
<g id="XMLID_323_">
	<path id="XMLID_341_" fill="#241A3D" d="M147.639,424.323c-0.057-0.338-0.085-0.875-0.085-1.609c0-4.632,1.539-8.246,4.618-10.845
		c3.079-2.598,6.482-3.897,10.209-3.897c4.914,0,8.331,1.864,10.251,5.593L147.639,424.323z M183.392,417.715
		c-0.057-5.479-2.117-9.926-6.184-13.344c-4.067-3.416-9.18-5.125-15.335-5.125c-3.897,0-7.597,0.861-11.098,2.584
		c-3.503,1.724-6.438,4.405-8.812,8.05c-2.372,3.643-3.56,7.865-3.56,12.666c0,6.946,2.288,12.538,6.863,16.774
		c4.576,4.236,10.053,6.354,16.437,6.354c7.287,0,13.611-2.768,18.978-8.303l-5.593-6.186c-3.275,3.954-7.441,5.932-12.497,5.932
		c-5.056,0-9.051-1.808-11.988-5.423l32.873-13.81L183.392,417.715z"/>
	<path id="XMLID_189_" fill="#241A3D" d="M127.521,402.041c-2.627,1.809-4.704,4.123-6.228,6.947v-9.064h-9.489v45.071h9.489
		v-19.316c0-5.14,1.186-9.234,3.56-12.285c2.371-3.049,5.9-4.574,10.59-4.574h0.509l-0.085-9.575
		C132.927,399.303,130.147,400.234,127.521,402.041"/>
	<path id="XMLID_188_" fill="#241A3D" d="M217.401,422.036c-1.525-1.017-2.952-1.807-4.278-2.372
		c-1.328-0.564-2.698-1.072-4.108-1.525c-1.413-0.45-3.037-0.902-4.873-1.354c-1.836-0.452-3.262-0.933-4.278-1.441
		c-1.469-0.677-2.202-1.75-2.202-3.218c0-1.639,0.705-2.866,2.117-3.687c1.411-0.817,3.247-1.228,5.506-1.228
		c4.291,0,8.274,1.215,11.947,3.643l3.558-7.032c-4.631-3.049-9.546-4.575-14.742-4.575c-5.197,0-9.419,1.258-12.667,3.771
		c-3.249,2.513-4.872,5.86-4.872,10.039c0,5.931,4.688,10.166,14.065,12.707c0.225,0.058,0.563,0.171,1.016,0.34
		c5.985,1.808,8.98,3.841,8.98,6.101c0,1.524-0.623,2.781-1.864,3.77c-1.243,0.989-2.937,1.482-5.083,1.482
		c-4.914,0-9.997-1.977-15.25-5.931l-4.575,7.37c2.71,2.146,5.831,3.813,9.361,4.999c3.53,1.186,6.933,1.779,10.208,1.779
		c4.858,0,8.84-1.284,11.947-3.854c3.105-2.57,4.659-6.001,4.659-10.294C221.975,427.233,220.45,424.069,217.401,422.036"/>
	<path id="XMLID_336_" fill="#241A3D" d="M91.846,415.385c-2.006,2.118-5.776,3.178-11.31,3.178H68.929v-23.724h10.167
		c5.422,0,9.404,0.848,11.945,2.543c2.542,1.694,3.813,4.589,3.813,8.685S93.851,413.267,91.846,415.385 M98.92,390.943
		c-4.124-3.444-10.676-5.169-19.656-5.169H58.932v59.222h9.997v-17.368h10.505c8.699,0,15.151-1.666,19.359-4.998
		c4.206-3.331,6.312-8.586,6.312-15.759C105.105,399.699,103.042,394.389,98.92,390.943"/>
	<path id="XMLID_185_" fill="#241A3D" d="M244.179,437.455c-2.033,0-3.614-0.637-4.743-1.906c-1.131-1.271-1.695-2.979-1.695-5.126
		v-22.875h11.862v-7.624H237.74v-14.149h-9.489v44.395c0,4.745,1.426,8.515,4.278,11.311c2.852,2.797,6.297,4.193,10.335,4.193
		s7.724-1.495,11.057-4.49l-3.897-6.693C248.162,436.468,246.213,437.455,244.179,437.455"/>
	<path id="XMLID_332_" fill="#241A3D" d="M287.608,433.177c-2.599,2.74-5.761,4.108-9.489,4.108c-3.727,0-6.977-1.354-9.743-4.065
		c-2.768-2.713-4.15-6.228-4.15-10.549s1.355-7.922,4.066-10.803c2.711-2.88,5.958-4.32,9.743-4.32c3.783,0,6.975,1.44,9.573,4.32
		c2.598,2.881,3.897,6.469,3.897,10.761C291.505,426.922,290.205,430.438,287.608,433.177 M291.336,407.719
		c-3.841-5.647-8.728-8.474-14.657-8.474c-5.931,0-11.07,2.091-15.419,6.27c-4.351,4.18-6.524,9.772-6.524,16.774
		c0,7.004,2.118,12.654,6.354,16.945c4.235,4.292,9.206,6.438,14.911,6.438c2.823,0,5.635-0.69,8.429-2.076
		c2.796-1.383,5.098-3.373,6.905-5.972v7.37h9.489v-45.071h-9.489L291.336,407.719L291.336,407.719z"/>
	<path id="XMLID_329_" fill="#E10B6F" d="M441.479,433.093c-2.684,2.74-6.087,4.108-10.209,4.108c-4.123,0-7.526-1.368-10.208-4.108
		c-2.684-2.739-4.024-6.283-4.024-10.633c0-4.349,1.341-7.893,4.024-10.633c2.682-2.739,6.085-4.109,10.208-4.109
		c4.122,0,7.526,1.37,10.209,4.109c2.682,2.74,4.024,6.283,4.024,10.633S444.161,430.354,441.479,433.093 M431.271,399.245
		c-6.777,0-12.426,2.246-16.943,6.736c-4.521,4.49-6.778,9.983-6.778,16.479c0,6.495,2.258,11.987,6.778,16.479
		c4.518,4.49,10.166,6.735,16.943,6.735c6.778,0,12.425-2.245,16.945-6.735c4.518-4.491,6.776-9.983,6.776-16.479
		c0-6.496-2.259-11.989-6.776-16.479C443.695,401.491,438.049,399.245,431.271,399.245"/>
	<path id="XMLID_326_" fill="#E10B6F" d="M493.021,433.134c-2.769,2.712-6.015,4.067-9.743,4.067s-6.891-1.368-9.489-4.108
		c-2.599-2.739-3.897-6.256-3.897-10.549c0-4.291,1.299-7.865,3.897-10.717c2.599-2.853,5.789-4.279,9.574-4.279
		c3.783,0,7.032,1.427,9.743,4.279c2.712,2.852,4.065,6.438,4.065,10.759C497.171,426.907,495.788,430.423,493.021,433.134
		 M500.223,405.515c-4.294-4.179-9.462-6.27-15.506-6.27s-10.929,2.854-14.657,8.559v-7.88h-9.488v61.509h9.488v-23.214
		c4.52,4.971,9.616,7.455,15.293,7.455c5.676,0,10.646-2.174,14.91-6.523c4.264-4.349,6.398-9.998,6.398-16.945
		S504.514,409.694,500.223,405.515"/>
	<path id="XMLID_178_" fill="#E10B6F" d="M385.458,399.245c-3.164,0-6.115,0.793-8.854,2.372c-2.74,1.583-4.787,3.757-6.142,6.525
		v-25.926h-9.489v62.779h9.489v-24.4c0-4.18,1.214-7.356,3.644-9.532c2.427-2.173,5.28-3.261,8.557-3.261
		c6.89,0,10.336,4.15,10.336,12.453v24.74h9.489v-27.62c0-5.874-1.567-10.363-4.702-13.471
		C394.649,400.8,390.54,399.245,385.458,399.245"/>
	<path id="XMLID_177_" fill="#E10B6F" d="M349.626,416.529c-3.079-2.654-7.653-4.716-13.725-6.185
		c-6.072-1.468-10.04-2.839-11.904-4.109c-1.863-1.271-2.795-3.106-2.795-5.508c0-2.399,0.932-4.193,2.795-5.378
		c1.864-1.188,4.25-1.78,7.16-1.78c2.908,0,5.857,0.508,8.854,1.525c2.992,1.016,5.364,2.315,7.116,3.897l5.336-7.541
		c-2.711-2.257-5.93-4.011-9.657-5.252c-3.729-1.242-7.485-1.864-11.268-1.864c-5.876,0-10.804,1.483-14.785,4.447
		c-3.981,2.965-5.972,7.188-5.972,12.666s1.75,9.546,5.251,12.2c1.75,1.411,3.757,2.557,6.016,3.431
		c2.259,0.876,5.563,1.836,9.914,2.88c4.348,1.047,7.411,2.203,9.19,3.475c1.78,1.271,2.67,3.049,2.67,5.337
		s-0.946,4.124-2.839,5.508c-1.894,1.385-4.448,2.075-7.668,2.075c-6.438,0-12.652-2.598-18.639-7.795l-6.269,7.541
		c7.172,6.384,15.39,9.574,24.653,9.574c6.325,0,11.438-1.609,15.335-4.83c3.896-3.218,5.846-7.411,5.846-12.581
		C354.242,423.094,352.704,419.186,349.626,416.529"/>
</g>
</svg>
