<?xml version="1.0" encoding="utf-8"?>
<!-- Generator: Adobe Illustrator 14.0.0, SVG Export Plug-In . SVG Version: 6.00 Build 43363)  -->
<!DOCTYPE svg PUBLIC "-//W3C//DTD SVG 1.1//EN" "http://www.w3.org/Graphics/SVG/1.1/DTD/svg11.dtd">
<svg version="1.1" id="Слой_1" xmlns="http://www.w3.org/2000/svg" xmlns:xlink="http://www.w3.org/1999/xlink" x="0px" y="0px"
	 width="566.93px" height="566.93px" viewBox="0 0 566.93 566.93" enable-background="new 0 0 566.93 566.93" xml:space="preserve">
<linearGradient id="SVGID_1_" gradientUnits="userSpaceOnUse" x1="149.5405" y1="449.5068" x2="441.6239" y2="-37.2959" gradientTransform="matrix(1 0 0 -1 -12.8623 429.5039)">
	<stop  offset="0" style="stop-color:#2583AE"/>
	<stop  offset="1" style="stop-color:#7AC3B0"/>
</linearGradient>
<path fill="url(#SVGID_1_)" d="M209.707,194.195c9.73-38.951,34.073-58.428,73.027-58.428c58.424,0,65.715,43.8,94.923,51.114
	c19.478,4.874,36.513-2.424,51.118-21.897c-9.73,38.942-34.082,58.42-73.021,58.42c-58.424,0-65.721-43.8-94.93-51.114
	c-19.478-4.874-36.506,2.42-51.118,21.897V194.195z M136.679,281.836c9.747-38.955,34.073-58.433,73.028-58.433
	c58.432,0,65.714,43.804,94.923,51.119c19.477,4.865,36.513-2.426,51.117-21.902c-9.73,38.947-34.082,58.424-73.028,58.424
	c-58.432,0-65.714-43.795-94.922-51.109C168.319,255.06,151.283,262.357,136.679,281.836z"/>
<path fill="#242A2F" d="M77.094,383.061H61.291v-9.469h42.631v9.469H88.127v42.934H77.094V383.061z M124.561,421.149
	c-1.461,1.667-3.188,3.083-5.112,4.179c-1.879,1.078-4.319,1.617-7.311,1.617c-1.65,0.014-3.296-0.215-4.886-0.661
	c-1.548-0.443-2.901-1.125-4.049-2.052c-1.146-0.93-2.071-2.104-2.749-3.561c-0.678-1.444-1.036-3.158-1.036-5.183
	c0-2.632,0.586-4.791,1.768-6.458c1.185-1.668,2.78-3.016,4.629-3.895c1.905-0.93,4.048-1.584,6.427-1.979
	c2.398-0.396,4.818-0.637,7.247-0.733l4.919-0.218v-1.909c0-2.349-0.641-3.965-1.947-4.835c-1.305-0.872-2.834-1.312-4.588-1.312
	c-4.076,0-6.401,1.538-6.981,4.628l-9.396-0.877c0.678-4.01,2.447-6.911,5.287-8.707c2.841-1.797,6.667-2.68,11.472-2.68
	c2.935,0,5.435,0.344,7.497,1.062c2.058,0.72,3.714,1.727,4.959,3.04c1.275,1.367,2.21,3.015,2.723,4.811
	c0.566,1.879,0.843,4.007,0.843,6.357v24.219h-9.716v-4.834V421.149z M124.341,408.889l-4.562,0.229
	c-2.155,0.081-3.896,0.312-5.215,0.662c-1.319,0.344-2.348,0.77-3.04,1.282c-0.692,0.513-1.194,1.106-1.431,1.795
	c-0.235,0.694-0.368,1.457-0.368,2.28c0,1.268,0.442,2.28,1.313,3.01c0.871,0.729,2.109,1.106,3.664,1.106
	c2.651,0,4.808-0.607,6.468-1.843c0.931-0.688,1.7-1.559,2.281-2.604c0.58-1.046,0.877-2.362,0.877-3.921v-1.984L124.341,408.889z
	 M142.625,387.682h10.296v38.307h-10.296V387.682z M142.489,373.585h10.567v9.244h-10.567V373.585z M161.72,373.585h10.296v52.403
	H161.72V373.585z M176.626,387.682h11.167l5.371,25.393l7.334-25.028h8.967l6.91,25.107l5.371-25.398h10.729l-11.174,38.314h-10
	l-6.842-25.253l-6.909,25.253h-9.765l-11.167-38.314L176.626,387.682z M237.159,387.682h10.291v38.307h-10.291V387.682z
	 M237.018,373.585h10.574v9.244h-10.574V373.585z M256.188,387.682h9.993v5.287c1.519-2.246,3.313-3.894,5.392-4.923
	c2.071-1.028,4.251-1.538,6.491-1.538c4.373,0,7.605,1.14,9.71,3.411c2.112,2.272,3.165,5.858,3.165,10.752v25.317h-10.283v-23.915
	c0-2.763-0.513-4.525-1.552-5.505c-1.04-0.982-2.403-1.469-4.117-1.469c-1.309,0-2.457,0.21-3.414,0.589
	c-0.958,0.38-1.85,0.954-2.686,1.688c-0.688,0.691-1.262,1.507-1.728,2.458c-0.458,0.976-0.695,2.041-0.688,3.118v23.042h-10.364
	v-38.306L256.188,387.682z M325.837,420.928c-2.624,4-7.125,6.362-11.909,6.241c-5.392,0-9.399-1.808-12.058-5.431
	c-2.659-3.617-3.968-8.638-3.968-15.041c-0.027-2.774,0.357-5.527,1.147-8.182c0.762-2.474,1.848-4.603,3.265-6.384
	c1.404-1.765,3.186-3.186,5.224-4.147c2.071-0.967,4.386-1.464,6.978-1.464c1.901,0,3.798,0.345,5.681,1.036
	c1.89,0.691,3.671,2.07,5.344,3.968v-17.913h10.291v52.404h-9.994v-5.062V420.928z M325.608,406.4c0-2.451-0.203-4.403-0.688-5.875
	c-0.486-1.471-1.094-2.658-2.019-3.593c-0.883-0.877-1.854-1.38-2.901-1.728c-1.019-0.266-2.064-0.401-3.117-0.401
	c-1.1-0.004-2.192,0.223-3.198,0.665c-1.005,0.441-1.882,1.126-2.645,2.051c-0.763,0.928-1.363,2.155-1.802,3.664
	c-0.432,1.505-0.662,3.32-0.662,5.426c0,2.293,0.21,4.225,0.696,5.763c0.479,1.552,0.984,2.793,1.727,3.752
	c0.735,0.949,1.586,1.631,2.571,2.051c0.978,0.417,2.037,0.688,3.158,0.688c2.449,0,4.46-0.716,6.032-2.127
	c0.984-1.004,1.728-2.22,2.159-3.555c0.459-1.404,0.688-3.198,0.688-5.398v-1.31V406.4z M406.054,407.863
	c-0.249,2.794-0.897,5.373-1.95,7.741c-1.019,2.319-2.489,4.419-4.331,6.16c-1.95,1.809-4.251,3.197-6.769,4.076
	c-2.659,0.963-5.763,1.456-9.284,1.456c-3.968,0-7.463-0.66-10.479-1.983c-2.922-1.243-5.506-3.158-7.564-5.573
	c-2.037-2.396-3.563-5.297-4.603-8.704c-1.025-3.401-1.538-7.159-1.538-11.262c0-4.258,0.554-8.071,1.688-11.452
	c1.133-3.376,2.752-6.258,4.852-8.656c2.099-2.398,4.662-4.234,7.645-5.507s6.377-1.907,10.155-1.907
	c3.327,0,6.242,0.413,8.705,1.242c2.463,0.83,4.562,2.031,6.255,3.595c1.693,1.562,3.037,3.454,4.075,5.65
	c1.08,2.365,1.842,4.854,2.274,7.414l-10.884,1.397c-0.54-3.083-1.593-5.506-3.104-7.27c-1.524-1.762-3.994-2.639-7.328-2.639
	c-4.211,0-7.415,1.575-9.582,4.732c-2.172,3.16-3.285,7.616-3.285,13.393c0,5.822,1.181,10.363,3.502,13.427
	c2.133,3.051,5.654,4.813,9.365,4.703c3.388,0,5.871-0.87,7.463-2.604c1.593-1.733,2.578-4.219,2.97-7.451L406.054,407.863z
	 M422.06,408.902c0.243,3.226,1.289,5.574,3.117,7.046c1.822,1.47,4.535,2.214,8.112,2.214c1.714,0,3.17-0.19,4.344-0.555
	c1.175-0.365,2.128-0.856,2.862-1.47c0.708-0.567,1.254-1.311,1.578-2.161c0.324-0.863,0.486-1.788,0.473-2.713
	c0-1.383-0.499-2.658-1.525-3.858c-1.032-1.188-2.914-2.064-5.667-2.605l-6.843-1.241c-2.767-0.482-5.074-1.128-7.133-1.905
	c-2.058-0.784-3.786-1.8-5.183-3.04c-1.396-1.244-2.463-2.776-3.19-4.589c-0.729-1.812-1.107-3.967-1.107-6.461
	c-0.041-2.29,0.473-4.563,1.511-6.605c0.999-1.897,2.431-3.532,4.184-4.768c1.795-1.271,3.942-2.238,6.425-2.901
	c2.489-0.665,5.249-0.989,8.237-0.989c3.821,0,7.014,0.441,9.558,1.312c2.551,0.872,4.608,2.038,6.174,3.49
	c1.571,1.453,2.732,3.11,3.493,5.029c0.758,1.924,1.264,3.891,1.519,5.945l-10.365,1.313c-0.539-2.889-1.571-4.977-3.109-6.243
	c-1.532-1.261-3.888-1.905-7.018-1.905c-1.861,0-3.387,0.158-4.596,0.486c-1.208,0.324-2.165,0.73-2.901,1.24
	c-0.675,0.443-1.208,1.066-1.545,1.8c-0.296,0.688-0.445,1.393-0.445,2.124c0,1.958,0.555,3.428,1.661,4.403s2.968,1.74,5.612,2.281
	l7.2,1.396c5.69,1.124,9.858,2.95,12.505,5.456c2.657,2.509,3.967,6.221,3.967,10.897c0,2.294-0.427,4.42-1.283,6.357
	c-0.877,1.955-2.187,3.69-3.831,5.066c-1.862,1.538-4.023,2.685-6.343,3.373c-2.55,0.811-5.534,1.216-8.975,1.216
	c-7.154,0-12.633-1.525-16.424-4.589c-3.793-3.07-5.845-7.598-6.215-13.832h11.1L422.06,408.902z M469.737,408.902
	c0.245,3.226,1.284,5.574,3.113,7.046c1.826,1.47,4.559,2.214,8.115,2.214c1.728,0,3.166-0.19,4.36-0.555
	c1.188-0.365,2.117-0.856,2.862-1.47c0.708-0.567,1.254-1.311,1.578-2.161c0.324-0.863,0.486-1.788,0.473-2.713
	c-0.013-1.429-0.569-2.805-1.538-3.858c-1.039-1.188-2.915-2.064-5.671-2.605l-6.842-1.241c-2.759-0.482-5.064-1.128-7.126-1.905
	c-2.064-0.784-3.791-1.8-5.181-3.04c-1.396-1.244-2.455-2.776-3.199-4.589c-0.741-1.812-1.105-3.967-1.105-6.461
	c-0.046-2.29,0.474-4.563,1.506-6.605c1.006-1.907,2.408-3.502,4.188-4.839c1.783-1.333,3.939-2.236,6.425-2.901
	c2.481-0.661,5.25-0.985,8.23-0.985c3.828,0,7.011,0.443,9.562,1.313c2.544,0.87,4.596,2.037,6.177,3.486
	c1.578,1.453,2.739,3.108,3.493,5.032c0.748,1.919,1.254,3.891,1.513,5.941l-10.365,1.313c-0.539-2.889-1.571-4.975-3.104-6.238
	c-1.538-1.266-3.888-1.905-7.017-1.905c-1.869,0-3.388,0.157-4.603,0.481c-1.2,0.322-2.167,0.732-2.901,1.245
	c-0.675,0.437-1.207,1.063-1.545,1.793c-0.298,0.691-0.439,1.398-0.439,2.131c0,1.952,0.552,3.428,1.653,4.401
	c1.105,0.972,2.975,1.742,5.628,2.278l7.266,1.45c5.689,1.127,9.852,2.953,12.512,5.459c2.644,2.51,3.96,6.222,3.96,10.898
	c0.026,2.178-0.41,4.352-1.28,6.35c-0.88,1.956-2.187,3.683-3.828,5.061c-1.687,1.457-3.804,2.577-6.354,3.386
	c-2.564,0.824-5.535,1.216-8.97,1.216c-7.159,0-12.624-1.524-16.429-4.589c-3.802-3.069-5.846-7.598-6.134-13.833H469.737z"/>
</svg>
