<?xml version="1.0" encoding="UTF-8" standalone="no"?>
<svg
   xmlns:dc="http://purl.org/dc/elements/1.1/"
   xmlns:cc="http://creativecommons.org/ns#"
   xmlns:rdf="http://www.w3.org/1999/02/22-rdf-syntax-ns#"
   xmlns:svg="http://www.w3.org/2000/svg"
   xmlns="http://www.w3.org/2000/svg"
   xml:space="preserve"
   enable-background="new 0 0 566.93 566.93"
   viewBox="0 0 566.93 566.93"
   height="566.93px"
   width="566.93px"
   y="0px"
   x="0px"
   id="Слой_1"
   version="1.1"><metadata
   id="metadata16"><rdf:RDF><cc:Work
       rdf:about=""><dc:format>image/svg+xml</dc:format><dc:type
         rdf:resource="http://purl.org/dc/dcmitype/StillImage" /><dc:title></dc:title></cc:Work></rdf:RDF></metadata><defs
   id="defs14" />
<linearGradient
   gradientTransform="matrix(1 0 0 -1 -12.8623 429.5039)"
   y2="-37.2959"
   x2="441.6239"
   y1="449.5068"
   x1="149.5405"
   gradientUnits="userSpaceOnUse"
   id="SVGID_1_">
	<stop
   id="stop2"
   style="stop-color:#2583AE"
   offset="0" />
	<stop
   id="stop4"
   style="stop-color:#7AC3B0"
   offset="1" />
</linearGradient>


<path
   style="stroke-width:1.82573652;fill:#007acc;fill-opacity:1"
   id="path2"
   d="M 107.39918,249.60368 H 83.43639 V 323.6519 H 73.723472 V 249.60368 H 49.760681 v -8.86943 h 57.424889 v 8.85117 h 0.21544 z m 45.98665,14.89436 -27.20347,68.65134 c -4.966,12.30546 -11.65733,18.34865 -20.5085,18.34865 -2.37346,0 -4.5333,-0.21544 -6.262275,-0.64814 v -8.42212 c 1.942585,0.64814 3.885165,1.09544 5.612315,1.09544 4.74691,0 8.4203,-2.80615 10.79375,-8.63573 l 4.74692,-11.22828 -23.09922,-59.15386 h 10.57832 l 15.97519,45.55212 c 0.21544,0.64814 0.64814,2.15803 1.27802,4.53331 h 0.43087 c 0.21544,-0.86358 0.64814,-2.37346 1.09544,-4.31787 l 16.83877,-45.76756 h 9.71292 z m 15.97519,50.73356 h -0.19718 v 35.83921 h -9.4993 v -86.35369 h 9.4993 V 275.08 h 0.21544 c 4.74692,-7.77216 11.44189,-11.87276 20.5085,-11.87276 7.55855,0 13.60174,2.59255 17.91778,7.9876 4.31604,5.39505 6.47588,12.30546 6.47588,21.37207 0,9.93201 -2.37345,17.91778 -7.12402,23.74735 -4.75057,5.82958 -11.44189,8.85117 -19.86401,8.85117 -7.77216,0 -13.60174,-3.23885 -17.91778,-9.932 z m -0.19718,-23.96096 v 8.20303 c 0,4.966 1.51171,9.06661 4.74692,12.5209 3.2352,3.45429 7.12402,5.18144 12.09003,5.18144 5.82957,0 10.14744,-2.15802 13.60173,-6.69315 3.4543,-4.53513 4.96601,-10.57832 4.96601,-18.34865 0,-6.69315 -1.51171,-11.65733 -4.53331,-15.54432 -3.02159,-3.65147 -7.12402,-5.61232 -12.30546,-5.61232 -5.61232,0 -9.93201,1.94259 -13.38265,5.82958 -3.45064,3.88699 -5.18327,8.63208 -5.18327,14.46349 z m 103.62516,5.18144 h -41.8824 c 0.21544,6.69315 1.94258,11.65732 5.39688,15.32705 3.45429,3.66973 7.9876,5.39688 14.03261,5.39688 6.69315,0 12.73634,-2.15802 18.34865,-6.69315 v 8.85117 c -5.18144,3.88517 -12.09003,5.61232 -20.72576,5.61232 -8.4203,0 -14.89801,-2.59255 -19.64493,-7.9876 -4.74691,-5.39505 -7.12402,-12.9536 -7.12402,-22.66835 0,-9.28387 2.59255,-16.62333 7.77216,-22.45108 5.17962,-5.82775 11.65733,-8.63573 19.42949,-8.63573 7.77216,0 13.81717,2.59254 17.91778,7.55855 4.31786,4.966 6.26227,11.87276 6.26227,20.9412 v 4.74691 h 0.21544 z m -9.71292,-7.9876 c 0,-5.39688 -1.27802,-9.71292 -3.88517,-12.73634 -2.60715,-3.02342 -6.26228,-4.5333 -10.79375,-4.5333 -4.53148,0 -8.20304,1.51171 -11.44189,4.74691 -3.0216,3.23886 -4.96601,7.33946 -5.82958,12.5209 h 31.95039 z m 14.89801,32.38309 v -6.47589 c 6.02493,3.88517 11.87276,5.61231 18.13504,5.61231 6.47589,0 11.44189,-1.27801 14.67892,-4.10243 3.45429,-2.59254 4.966,-6.47588 4.966,-11.22828 0,-4.31786 -1.09544,-7.55854 -3.45429,-10.14744 -2.15802,-2.59254 -7.12402,-6.02493 -14.67892,-10.36288 -8.4203,-4.966 -13.81718,-9.06661 -15.9752,-12.30546 a 20.448249,20.448249 0 0 1 -3.45429,-11.44189 c 0,-5.82958 2.37346,-10.79376 6.90859,-14.89801 4.53513,-4.10426 10.57101,-6.04319 18.12956,-6.04319 4.966,0 9.93201,0.86357 14.89801,2.59254 v 6.02493 a 38.577812,38.577812 0 0 0 -15.54432,-3.23885 c -5.61231,0 -10.14744,1.51171 -13.38265,4.31787 -3.2352,2.80615 -4.966,6.47588 -4.966,10.79375 0,4.31787 1.09544,7.55855 3.45429,10.14744 2.15802,2.59255 7.12403,5.82958 14.67892,10.14745 7.77216,4.31786 12.9536,8.20303 15.54432,11.65732 2.59072,3.4543 3.88517,7.33946 3.88517,11.87277 0,6.26227 -2.15802,11.44189 -6.69315,15.54432 -4.31787,4.10243 -10.57832,6.02493 -18.78135,6.02493 -2.80616,0 -6.02493,-0.43087 -9.93201,-1.27802 -3.45429,-1.09544 -6.26227,-2.15802 -8.42029,-3.23885 z m 93.90858,0.21543 c -4.31787,2.59255 -9.71292,4.10243 -15.75976,4.10243 -7.98759,0 -14.46348,-2.80615 -19.42949,-8.20303 -4.966,-5.61231 -7.33946,-12.73634 -7.33946,-21.80477 0,-9.49931 2.80616,-17.05238 8.4203,-23.09922 5.61414,-6.04684 12.73634,-9.06661 21.37207,-9.06661 4.53331,0 8.85117,0.86358 13.16904,2.80616 v 6.02493 a 26.418407,26.418407 0 0 0 -14.03261,-3.88517 c -6.90859,0 -12.5209,2.59255 -16.83877,7.55855 -4.31787,4.96601 -6.50327,11.45467 -6.50327,19.46235 0,7.77216 1.94258,13.81718 5.82957,18.56774 3.887,4.75057 9.06661,6.90859 15.54432,6.90859 5.82958,0 11.0092,-1.51171 15.54433,-4.74691 v 5.39687 z m 35.83921,-50.949 c -1.72715,-1.27801 -3.88517,-1.94258 -6.26228,-1.94258 -4.74691,0 -8.63573,2.37346 -11.65733,7.12402 -3.23885,4.74692 -4.74691,11.65733 -4.74691,20.5085 v 27.84978 h -5.20152 v -59.15386 h 5.18144 v 13.16904 h 0.21543 c 1.27802,-4.5333 3.4543,-7.9876 6.47589,-10.57832 3.02159,-2.59072 6.26228,-3.65147 10.14562,-3.65147 2.15802,0 4.10243,0.43087 5.82957,1.09544 v 5.61231 z m 9.0666,-20.5085 c -1.09544,0 -2.15802,-0.43087 -3.02159,-1.27801 -0.86357,-0.84714 -1.27802,-1.94259 -1.27802,-3.23886 0,-1.29627 0.43088,-2.37346 1.27802,-3.02159 0.86357,-0.86358 1.94258,-1.09544 3.02159,-1.09544 1.27802,0 2.15802,0.43087 3.23886,1.09544 0.86357,0.86357 1.27802,1.72714 1.27802,3.02159 0,1.29445 -0.43088,2.37346 -1.27802,3.23886 -1.09544,0.86357 -1.94258,1.27801 -3.23886,1.27801 z m -2.59254,74.26366 V 264.7153 h 5.39688 v 59.15386 h -5.41514 z m 23.96279,-10.57832 h -0.21544 v 37.77997 h -5.39687 v -86.35369 h 5.39687 v 12.30547 h 0.21544 c 2.15802,-4.31787 5.18144,-7.77216 9.06661,-10.14744 3.88516,-2.37529 8.20303,-3.4543 12.9536,-3.4543 7.55855,0 13.38265,2.59255 17.70234,7.77216 4.31969,5.17962 6.26227,12.30547 6.26227,21.15664 0,9.932 -2.37345,17.91777 -7.33946,23.96279 -4.74691,6.02493 -11.22828,9.06661 -19.21405,9.06661 -8.63573,-0.21544 -15.11162,-4.10243 -19.42948,-12.09003 z m -0.21544,-22.01838 v 7.55855 c 0,6.02493 1.94259,11.00919 5.61232,15.32706 3.66973,4.31787 8.63573,6.47589 14.67892,6.47589 6.04319,0 11.00919,-2.59255 14.67892,-7.77216 3.66973,-5.17962 5.61231,-12.09003 5.61231,-20.5085 0,-7.33946 -1.72714,-13.38265 -5.18144,-17.70234 -3.45429,-4.3197 -8.20303,-6.47589 -13.81717,-6.47589 -6.90859,0 -12.30546,2.37346 -15.97519,6.90859 -3.66973,4.53513 -5.61232,9.932 -5.61232,16.19063 z m 79.22419,31.7313 c -2.80616,1.27802 -5.39688,1.94259 -7.77216,1.94259 -8.85117,0 -13.16904,-5.18144 -13.16904,-15.75976 v -39.72255 h -10.57832 v -4.966 h 10.57832 v -15.32706 c 0.86357,-0.21544 1.72715,-0.64814 2.59254,-0.86358 0.8654,-0.21543 1.72715,-0.64813 2.59255,-0.86357 v 17.27147 h 15.54432 v 4.966 h -15.54432 v 39.07441 c 0,4.10243 0.64814,7.12403 1.94258,8.85117 1.29445,1.72715 3.4543,2.80616 6.47589,2.80616 2.15802,0 4.53331,-0.64813 7.12403,-2.15802 v 4.74692 h 0.21543 z" /></svg>