<?xml version="1.0" encoding="utf-8"?>
<!-- Generator: Adobe Illustrator 14.0.0, SVG Export Plug-In . SVG Version: 6.00 Build 43363)  -->
<!DOCTYPE svg PUBLIC "-//W3C//DTD SVG 1.1//EN" "http://www.w3.org/Graphics/SVG/1.1/DTD/svg11.dtd">
<svg version="1.1" id="Слой_1" xmlns="http://www.w3.org/2000/svg" xmlns:xlink="http://www.w3.org/1999/xlink" x="0px" y="0px"
	 width="566.93px" height="566.93px" viewBox="0 0 566.93 566.93" enable-background="new 0 0 566.93 566.93" xml:space="preserve">
<path fill="#945D87" d="M118.906,156.451c4.5-10.768,15.749-18.479,27.479-18.479c88.547,0,177.092,0,265.799,0
	c7.714-0.161,15.428,2.73,21.052,7.873c6.429,5.786,10.125,14.464,9.965,23.142c0,33.907,0,67.816,0,101.884
	c-0.161,15.267-13.499,29.087-28.768,29.408c-32.299,0.162-64.601,0-96.901,0c4.339,10.768,8.678,21.373,13.017,32.141
	c-19.283-10.607-38.246-21.533-57.691-31.979c-42.424-0.322-85.01,0-127.596-0.162c-15.267-0.48-28.604-14.141-28.765-29.408
	c-0.161-33.265,0-66.529-0.161-99.634C116.335,166.253,116.817,161.111,118.906,156.451"/>
<path fill="#FFFFFF" d="M248.752,158.862c4.822-5.144,14.142-3.536,17.837,2.41c1.929,3.054,2.089,7.232,0.483,10.446
	c-6.75,13.499-9.642,28.444-12.214,43.067c-3.053,19.124-5.624,38.569-4.66,58.014c0.321,4.981-2.089,10.927-7.392,12.212
	c-4.982,1.126-9.643-2.249-12.857-5.785c-14.463-15.588-22.659-35.676-28.604-55.764c-5.946,11.731-11.891,23.623-17.677,35.354
	c-4.018,8.035-8.356,16.231-14.785,22.66c-2.731,2.73-7.392,5.143-10.927,2.41c-5.303-4.66-6.588-12.053-8.838-18.319
	c-8.517-29.408-13.338-59.781-18.32-89.992c-1.125-4.981,0.964-11.089,5.946-13.017c4.018-1.447,9.32-1.769,12.695,1.285
	c2.411,2.088,3.053,5.463,3.536,8.517c3.535,23.463,7.553,46.763,13.338,69.744c9.642-18.319,19.285-36.64,28.926-55.12
	c1.447-2.732,3.214-5.465,5.786-7.071c3.536-2.25,8.678-2.09,11.731,1.125c2.41,2.572,3.375,6.268,4.018,9.641
	c2.892,15.106,6.749,30.213,12.374,44.515c2.411-21.694,5.464-43.709,13.338-64.119C244.253,166.736,245.86,162.397,248.752,158.862
	 M303.23,170.593c10.445-1.287,21.694,2.249,28.766,10.124c5.785,6.589,8.999,15.106,10.123,23.624
	c1.768,14.623-0.963,30.05-8.035,43.066c-4.018,7.393-9.159,14.625-16.552,18.963c-10.768,6.589-25.229,5.785-35.674-1.124
	c-8.356-5.787-13.019-15.428-14.948-25.069c-3.856-22.017,2.733-46.444,19.286-61.711
	C291.016,174.127,296.963,171.396,303.23,170.593 M305.319,193.091c-4.981,1.606-8.196,6.268-10.929,10.446
	c-6.75,10.926-8.677,25.229-3.213,36.961c1.446,3.052,3.697,6.427,7.393,7.069c3.855,0.645,7.391-1.606,10.124-4.018
	c6.105-5.302,9.159-13.177,10.766-21.051c1.608-8.838,0.805-18.64-4.339-26.354C313.033,193.251,308.855,191.966,305.319,193.091
	 M386.634,170.593c10.123-1.287,21.212,1.928,28.283,9.481c6.429,6.911,9.803,16.07,10.768,25.39
	c1.446,14.143-1.126,28.926-7.876,41.46c-4.018,7.553-9.32,14.946-17.034,19.445c-10.283,6.267-24.105,5.624-34.389-0.482
	c-6.909-4.178-11.571-11.25-14.302-18.803c-7.234-22.979-1.126-49.977,15.587-67.333
	C373.136,174.932,379.724,171.396,386.634,170.593 M388.885,193.091c-5.465,1.929-8.678,7.232-11.573,11.892
	c-6.105,10.768-7.712,24.748-2.088,36.158c1.445,3.214,4.179,6.266,7.875,6.427c4.018,0.161,7.553-2.409,10.446-5.142
	c6.266-6.106,8.998-14.785,9.962-23.302c0.964-7.875-0.321-16.392-4.98-23.14C396.599,193.251,392.418,191.966,388.885,193.091"/>
<path d="M85.71,379.603c6.374-1.39,13.095-1.271,19.47,0.231c0,5.217,0,10.43,0,15.647c-5.216-1.275-11.125-2.435-16.109,0
	c-6.026,3.012-9.387,9.851-9.387,16.339c-0.348,6.489,1.855,13.793,7.648,17.498c5.331,3.479,12.168,2.783,17.962,1.162
	c0,5.213,0,10.426,0,15.643c-7.765,2.202-16.224,1.969-23.755-0.811c-9.04-3.36-16.226-11.239-19.007-20.512
	c-2.086-7.072-2.317-14.602-0.695-21.788C64.503,391.541,74.238,382.153,85.71,379.603 M132.761,378.793
	c7.88-0.925,16.456,0.348,22.83,5.333c6.143,4.748,9.154,12.514,10.315,19.929c1.041,8.229,0.809,16.805-1.739,24.685
	c-2.203,6.722-6.722,12.98-13.211,16.109c-6.606,3.129-14.371,3.36-21.439,1.74c-6.489-1.509-12.284-5.795-15.529-11.709
	c-4.521-7.878-5.331-17.264-4.983-26.188c0.347-7.646,2.318-15.646,7.417-21.556C120.593,382.383,126.618,379.486,132.761,378.793
	 M135.194,393.743c-3.361,0.81-5.331,4.173-6.142,7.303c-1.621,6.256-1.391,12.745-0.927,19.118
	c0.464,3.477,0.812,7.184,3.245,9.967c3.244,3.71,9.85,3.246,12.747-0.582c1.97-2.431,2.55-5.563,2.897-8.574
	c0.695-5.33,0.812-10.775,0-16.107c-0.579-3.245-1.507-6.604-3.825-9.04C141.105,393.743,137.976,393.047,135.194,393.743
	 M444.264,379.834c6.724-1.734,13.791-1.503,20.515-0.115c0.115,5.215,0,10.434,0.115,15.763c-5.099-1.275-10.777-2.435-15.762-0.23
	c-5.793,2.661-9.271,8.804-9.733,14.948c-0.696,6.953,1.158,14.833,7.298,18.887c5.334,3.711,12.287,3.016,18.197,1.276
	c-0.115,5.214,0.115,10.544-0.115,15.761c-8.229,2.086-17.268,1.854-25.033-1.506c-8.576-3.711-15.295-11.591-17.729-20.631
	c-1.854-6.951-2.088-14.369-0.349-21.438C424.219,391.655,433.371,382.731,444.264,379.834 M176.218,380.301
	c7.417,0,14.95,0,22.366,0c2.666,12.051,5.214,24.218,7.533,36.389c2.086-12.285,4.984-24.338,7.881-36.389
	c7.647,0,15.296,0,22.944,0c3.014,21.901,5.91,43.803,8.807,65.591c-5.793,0-11.705,0-17.498,0
	c-1.622-14.949-3.013-30.017-4.75-44.964c-3.593,14.947-7.302,30.015-10.895,44.964c-3.939,0-7.997,0-11.937,0
	c-3.824-14.949-7.532-30.017-11.473-45.081c-1.505,14.95-3.013,30.017-4.519,45.081c-5.563,0-11.126,0-16.804,0
	C170.655,424.104,173.437,402.202,176.218,380.301 M256.412,380.301c7.418,0,14.95,0,22.367,0
	c2.665,12.051,5.214,24.218,7.532,36.389c2.201-12.171,4.982-24.338,7.879-36.389h22.831c3.014,21.901,5.911,43.803,8.809,65.591
	c-5.795,0-11.705,0-17.499,0c-1.624-14.949-3.129-30.017-4.752-44.964c-3.594,14.947-7.188,30.015-10.895,44.964
	c-3.941,0-7.994,0-11.937,0c-3.824-15.064-7.648-30.017-11.473-45.081c-1.506,15.064-3.013,30.017-4.52,45.081
	c-5.562,0-11.125,0-16.804,0C250.849,424.104,253.631,402.202,256.412,380.301 M330.929,380.531c11.935-0.23,23.988,0,35.924-0.117
	c0,4.637,0,9.273,0,14.023c-6.026,0.115-12.053,0-18.079,0c0,4.056,0,7.996,0,12.054c5.216,0,10.43,0,15.645,0
	c0,4.518,0,9.035,0,13.559c-5.215,0-10.429,0-15.645,0c0,3.937,0,7.996,0,12.052c6.026,0,12.169,0,18.194,0
	c0,4.637,0,9.269,0,14.021c-11.937,0-23.989,0-35.925,0C330.929,424.219,331.159,402.434,330.929,380.531 M371.952,380.301
	c7.533,0,14.949-0.117,22.482,0c7.067,0.23,14.602,1.967,19.815,6.954c4.753,4.4,6.376,11.701,4.522,17.845
	c-1.51,4.981-5.216,9.039-9.852,11.24c4.636,9.848,9.387,19.701,14.136,29.552c-6.256,0-12.515,0-18.656,0
	c-4.868-10.084-9.618-20.165-14.604-30.131c-0.115,10.084,0,20.164,0,30.131c-5.909,0-11.819,0-17.73,0
	C371.952,424.104,371.952,402.202,371.952,380.301 M389.682,392.93c0,5.217,0,10.431,0,15.646c3.247-0.231,6.724-0.347,9.388-2.316
	c3.127-2.318,2.782-7.071,0.811-10.084C397.446,393.277,393.159,393.277,389.682,392.93 M469.875,380.414
	c11.937,0,23.872,0,35.809,0c0,4.637,0,9.389,0,14.023c-6.023,0-12.168,0-18.192,0c0,4.056,0,7.996,0,12.054
	c5.216,0,10.431,0,15.646,0c0,4.518,0,9.035,0,13.559h-15.646c0,4.054,0,7.996,0,12.052c6.141,0,12.169,0,18.311,0
	c0,4.637,0,9.269,0,14.021c-11.938,0-23.99,0-35.927,0C469.76,424.104,469.875,402.202,469.875,380.414"/>
</svg>
