<?xml version="1.0" encoding="utf-8"?>
<!-- Generator: Adobe Illustrator 14.0.0, SVG Export Plug-In . SVG Version: 6.00 Build 43363)  -->
<!DOCTYPE svg PUBLIC "-//W3C//DTD SVG 1.1//EN" "http://www.w3.org/Graphics/SVG/1.1/DTD/svg11.dtd">
<svg version="1.1" id="Слой_1" xmlns="http://www.w3.org/2000/svg" xmlns:xlink="http://www.w3.org/1999/xlink" x="0px" y="0px"
	 width="566.93px" height="566.93px" viewBox="0 0 566.93 566.93" enable-background="new 0 0 566.93 566.93" xml:space="preserve">
<g>
	<path fill="#474443" d="M177.698,220.463c0,41.175,23.929,76.758,58.628,93.622l-49.622-135.959
		C180.932,191.063,177.698,205.381,177.698,220.463z"/>
	<path fill="#474443" d="M351.949,215.213c0-12.856-4.617-21.76-8.578-28.69c-5.273-8.569-10.216-15.826-10.216-24.395
		c0-9.563,7.252-18.464,17.468-18.464c0.461,0,0.897,0.058,1.348,0.083c-18.509-16.955-43.166-27.308-70.248-27.308
		c-36.341,0-68.314,18.646-86.915,46.889c2.44,0.073,4.741,0.124,6.694,0.124c10.881,0,27.724-1.32,27.724-1.32
		c5.606-0.331,6.269,7.906,0.667,8.569c0,0-5.636,0.663-11.907,0.992l37.882,112.677l22.765-68.274l-16.208-44.407
		c-5.602-0.329-10.909-0.992-10.909-0.992c-5.606-0.328-4.949-8.899,0.657-8.569c0,0,17.181,1.32,27.4,1.32
		c10.879,0,27.725-1.32,27.725-1.32c5.609-0.331,6.271,7.906,0.665,8.569c0,0-5.646,0.663-11.905,0.992l37.593,111.825
		l10.375-34.672C348.528,234.452,351.949,224.118,351.949,215.213z"/>
	<path fill="#474443" d="M283.548,229.562l-31.21,90.695c9.319,2.739,19.176,4.237,29.386,4.237c12.115,0,23.732-2.094,34.544-5.898
		c-0.277-0.444-0.531-0.918-0.74-1.432L283.548,229.562z"/>
	<path fill="#474443" d="M373.002,170.553c0.446,3.315,0.702,6.872,0.702,10.697c0,10.556-1.972,22.423-7.91,37.261l-31.775,91.87
		c30.925-18.035,51.728-51.54,51.728-89.916C385.746,202.377,381.126,185.371,373.002,170.553z"/>
	<path fill="#474443" d="M281.723,99.203c-66.862,0-121.262,54.397-121.262,121.26c0,66.869,54.4,121.264,121.262,121.264
		c66.861,0,121.269-54.395,121.269-121.264C402.989,153.6,348.584,99.203,281.723,99.203z M281.723,336.167
		c-63.795,0-115.701-51.905-115.701-115.704c0-63.797,51.903-115.698,115.701-115.698c63.795,0,115.697,51.901,115.697,115.698
		C397.42,284.262,345.519,336.167,281.723,336.167z"/>
</g>
<path fill="#07749A" d="M259.417,394.797h-24.277v2.577c7.593,0,8.814,1.626,8.814,11.257v17.36c0,9.63-1.219,11.392-8.814,11.392
	c-5.831-0.811-9.766-3.933-15.191-9.899l-6.238-6.781c8.409-1.494,12.883-6.781,12.883-12.75c0-7.46-6.373-13.155-18.309-13.155
	h-23.87v2.577c7.593,0,8.814,1.626,8.814,11.257v17.36c0,9.63-1.221,11.392-8.814,11.392v2.578h26.988v-2.578
	c-7.594,0-8.814-1.762-8.814-11.392v-4.88h2.305l15.055,18.85h39.468c19.395,0,27.803-10.308,27.803-22.65
	C287.22,404.969,278.812,394.797,259.417,394.797z M202.589,416.902v-18.036h5.56c6.102,0,8.817,4.206,8.817,9.087
	c0,4.747-2.715,8.951-8.817,8.951h-5.56V416.902z M259.825,435.755h-0.951c-4.881,0-5.561-1.218-5.561-7.457v-29.432
	c0,0,5.968,0,6.511,0c14.105,0,16.68,10.308,16.68,18.31C276.505,425.446,273.929,435.755,259.825,435.755z"/>
<path fill="#07749A" d="M108.872,421.924l9.358-27.671c2.715-8.002,1.494-10.306-7.188-10.306v-2.714h25.498v2.714
	c-8.544,0-10.579,2.033-13.969,11.936l-15.463,46.384h-1.762L91.51,399.814l-14.103,42.452h-1.764l-15.054-46.384
	c-3.255-9.902-5.426-11.936-13.292-11.936v-2.714h30.11v2.714c-8.004,0-10.175,1.897-7.325,10.306l9.086,27.671l13.699-40.69h2.577
	L108.872,421.924z"/>
<path fill="#07749A" d="M154.983,441.723c-14.917,0-27.125-10.984-27.125-24.414c0-13.288,12.208-24.276,27.125-24.276
	c14.919,0,27.126,10.988,27.126,24.276C182.109,430.738,169.902,441.723,154.983,441.723z M154.983,397.239
	c-12.475,0-16.817,11.256-16.817,20.071c0,8.954,4.342,20.072,16.817,20.072c12.615,0,16.956-11.118,16.956-20.072
	C171.938,408.495,167.598,397.239,154.983,397.239z"/>
<path fill="#474443" d="M320.72,437.248v2.713h-31.061v-2.713c9.088,0,10.715-2.305,10.715-15.869V399.68
	c0-13.564-1.627-15.733-10.715-15.733v-2.714h28.075c13.97,0,21.702,7.188,21.702,16.819c0,9.359-7.732,16.683-21.702,16.683h-7.73
	v6.644C310.004,434.943,311.63,437.248,320.72,437.248z M317.734,386.115h-7.73v23.6h7.73c7.595,0,11.122-5.29,11.122-11.663
	C328.856,391.541,325.329,386.115,317.734,386.115z"/>
<path fill="#474443" d="M432.609,427.214l-0.678,2.438c-1.219,4.477-2.712,6.103-12.343,6.103h-1.899
	c-7.05,0-8.271-1.626-8.271-11.257v-6.236c10.579,0,11.392,0.947,11.392,8.003h2.579v-20.212h-2.579
	c0,7.053-0.813,8.002-11.392,8.002v-15.188h7.458c9.632,0,11.122,1.626,12.344,6.104l0.678,2.574h2.169l-0.948-12.748h-39.875v2.577
	c7.595,0,8.815,1.626,8.815,11.257v17.36c0,8.81-1.036,11.028-7.025,11.346c-5.69-0.87-9.597-3.975-14.943-9.854l-6.239-6.781
	c8.408-1.494,12.886-6.781,12.886-12.75c0-7.46-6.376-13.155-18.312-13.155h-23.868v2.577c7.593,0,8.814,1.626,8.814,11.257v17.36
	c0,9.63-1.221,11.392-8.814,11.392v2.578h26.99v-2.578c-7.595,0-8.815-1.762-8.815-11.392v-4.88h2.304l15.055,18.85h55.743
	l0.814-12.746L432.609,427.214L432.609,427.214z M360.73,416.902v-18.036h5.559c6.104,0,8.816,4.206,8.816,9.087
	c0,4.747-2.712,8.951-8.816,8.951h-5.559V416.902z"/>
<path fill="#474443" d="M460.143,441.723c-5.424,0-10.174-2.848-12.207-4.612c-0.679,0.68-1.899,2.715-2.169,4.612h-2.578v-18.714
	h2.713c1.085,8.95,7.323,14.239,15.324,14.239c4.342,0,7.869-2.44,7.869-6.509c0-3.524-3.119-6.241-8.681-8.815l-7.731-3.662
	c-5.426-2.579-9.494-7.056-9.494-13.022c0-6.51,6.104-12.068,14.513-12.068c4.477,0,8.273,1.627,10.58,3.526
	c0.679-0.544,1.356-2.036,1.764-3.664h2.577v16.004h-2.85c-0.95-6.374-4.477-11.662-11.663-11.662c-3.799,0-7.326,2.168-7.326,5.56
	c0,3.526,2.849,5.427,9.36,8.409l7.457,3.661c6.513,3.119,9.086,8.14,9.086,12.21C476.687,435.755,469.229,441.723,460.143,441.723z
	"/>
<path fill="#474443" d="M501.915,441.723c-5.427,0-10.175-2.848-12.205-4.612c-0.679,0.68-1.9,2.715-2.17,4.612h-2.579v-18.714
	h2.713c1.086,8.95,7.324,14.239,15.325,14.239c4.341,0,7.867-2.44,7.867-6.509c0-3.524-3.117-6.241-8.68-8.815l-7.731-3.662
	c-5.424-2.579-9.495-7.056-9.495-13.022c0-6.51,6.103-12.068,14.514-12.068c4.476,0,8.273,1.627,10.578,3.526
	c0.679-0.544,1.357-2.036,1.762-3.664h2.579v16.004h-2.848c-0.951-6.374-4.477-11.662-11.664-11.662
	c-3.797,0-7.325,2.168-7.325,5.56c0,3.526,2.849,5.427,9.359,8.409l7.457,3.661c6.513,3.119,9.088,8.14,9.088,12.21
	C518.46,435.755,511,441.723,501.915,441.723z"/>
</svg>
