<?xml version="1.0" encoding="UTF-8" standalone="no"?>
<!DOCTYPE svg  PUBLIC '-//W3C//DTD SVG 1.0//EN'  'http://www.w3.org/TR/2001/REC-SVG-20010904/DTD/svg10.dtd'>
<svg id="Layer_1" style="enable-background:new 0 0 2664.82 1606.334" xmlns="http://www.w3.org/2000/svg" xml:space="preserve" height="1606.3px" viewBox="0 0 2664.82 1606.334" width="2664.8px" version="1.0" y="0px" x="0px" xmlns:xlink="http://www.w3.org/1999/xlink">
<path d="m110.18 1279.7c-34.738 0-61.824-13.082-81.195-39.121-19.368-26.1-28.985-58.3-28.985-96.6 0-38.078 10.269-69.938 30.82-95.523 20.602-25.648 47.75-38.465 81.449-38.465 34.024 0 60.852 12.816 80.602 38.465 19.761 25.586 29.636 57.641 29.636 96.117 0 40.363-10.265 73.016-30.75 97.875-20.54 24.8-47.69 37.2-81.58 37.2zm0.39-38c17.004 0 31.332-7 43.109-21.07 11.778-14.066 17.664-39.512 17.664-76.48 0-30.027-4.906-53.582-14.585-70.586-9.691-17.082-24.796-25.586-45.214-25.586-40.43 0-60.582 32.512-60.582 97.551 0 31.531 5.101 55.48 15.441 71.766 10.27 16.3 24.989 24.4 44.161 24.4zm233.92 99.3h-44.49v-258.95h41.812v33.754c13.41-25.184 33.172-37.813 59.211-37.813 21.457 0 38.602 9.355 51.359 28.004 12.817 18.648 19.168 42.523 19.168 71.512 0 27.477-6.082 51.355-18.257 71.707-12.23 20.281-30.426 30.48-54.563 30.48-24.926 0-42.98-10.395-54.238-31.074v92.4zm0-144.7c0 14.066 4.195 25.707 12.566 34.996 8.375 9.227 17.665 13.875 27.864 13.875 13.941 0 24.148-6.086 30.621-18.316 6.418-12.176 9.617-27.68 9.617-46.457 0-19.695-3.199-35.656-9.746-48.023-6.539-12.297-16.227-18.512-29.117-18.512-11.637 0-21.524 5.039-29.637 15.18-8.113 10.074-12.168 23.285-12.168 39.645v27.6zm246.55-136.8h-43.704v-45.41h43.704v45.4zm0 216.2h-43.704v-193.59h43.704v193.6zm200.43-71.1l37.621 3.855c-4.906 24.277-14.261 42.203-28.199 53.848-13.938 11.648-30.75 17.461-50.445 17.461-26.688 0-47.234-9.746-61.563-29.234-14.39-19.504-21.585-43.383-21.585-71.645 0-29.117 7.843-53.191 23.55-72.227 15.766-19.047 36.703-28.598 62.871-28.598 42.204 0 67.325 22.246 75.371 66.734l-37.621 5.168c-3.269-24.008-15.113-36.047-35.457-36.047-14.793 0-25.586 6.473-32.254 19.492-6.742 12.957-10.078 28.664-10.078 47.043 0 19.566 3.469 34.617 10.469 45.215 6.938 10.598 16.684 15.961 29.184 15.961 19.17-0.2 31.93-12.6 38.14-37.2zm150.77-145.1h-43.703v-45.41h43.703v45.4zm0 216.2h-43.703v-193.59h43.703v193.6zm60.56 0l61.894-193.59h51.559l60.191 193.59h-45.605l-43.703-159.63-48.879 159.63h-35.5zm401.5-117.5v35.859h-96.242v-35.859h96.2zm258.6 93.1c-37.285-3.469-64.641-14.848-82.039-34.156-17.34-19.23-26.047-43.434-26.047-72.422 0-29.633 8.969-54.043 27.023-73.145 17.996-19.102 45.02-30.23 81.063-33.43v-32h41.023v32c36.832 3.332 64.051 14.586 81.648 33.754 17.668 19.168 26.438 43.445 26.438 72.82 0 28.852-8.578 52.996-25.844 72.293-17.273 19.242-44.688 30.684-82.242 34.285v32.195h-41.023v-32.3zm0-179.2c-20.086 3.273-35.266 10.73-45.605 22.313-10.328 11.582-15.504 29.051-15.504 52.41 0 40.363 20.355 63.918 61.109 70.531v-145.2zm41 145.3c20.086-3.273 35.332-10.805 45.734-22.375 10.406-11.648 15.633-29.117 15.633-52.348 0-40.367-20.473-63.918-61.367-70.531v145.2zm353.2 58.3h-41.613c-3.727-11.777-5.953-24.797-6.73-39.121-11.582 28.781-33.441 43.172-65.563 43.172-19.297 0-34.734-5.684-46.445-17.004-11.715-11.324-17.535-25.52-17.535-42.656 0-44.43 39.055-66.672 117.1-66.672 3.078 0 7.195 0.063 12.438 0.191v-14.586c0-20.082-13.68-30.09-41.023-30.09-26.566 0-41.609 10.008-45.207 30.09l-37.164-5.563c2.027-16.09 10.336-29.379 24.859-39.773 14.594-10.402 35.652-15.641 63.27-15.641 14.984 0 27.152 1.305 36.637 3.801 9.422 2.484 17.406 6.668 23.945 12.621 6.551 5.953 11.059 12.367 13.551 19.371 2.477 6.938 3.719 18.711 3.719 35.328v87.41c0 12.8 1.9 25.8 5.7 39.2zm-48.3-98.5c-56.465 0-84.727 13.484-84.727 40.441 0 8.047 2.875 14.91 8.566 20.602 5.695 5.695 14.262 8.57 25.777 8.57 16.617 0 29.184-5.297 37.688-15.828 8.438-10.535 12.695-22.508 12.695-35.914v-17.9zm175.5 163.8h-44.492v-258.95h41.813v33.754c13.41-25.184 33.168-37.813 59.211-37.813 21.457 0 38.609 9.355 51.367 28.004 12.813 18.648 19.16 42.523 19.16 71.512 0 27.477-6.078 51.355-18.258 71.707-12.23 20.281-30.422 30.48-54.563 30.48-24.918 0-42.98-10.395-54.238-31.074v92.4zm0-144.7c0 14.066 4.199 25.707 12.57 34.996 8.367 9.227 17.66 13.875 27.859 13.875 13.941 0 24.148-6.086 30.621-18.316 6.418-12.176 9.617-27.68 9.617-46.457 0-19.695-3.199-35.656-9.75-48.023-6.527-12.297-16.219-18.512-29.109-18.512-11.641 0-21.527 5.039-29.641 15.18-8.109 10.074-12.168 23.285-12.168 39.645v27.6zm202.8 79.4v-193.59h65.953l49.66 159.64 52.34-159.64h61.699v193.59h-40.43v-159.63h-2.691l-52.34 159.63h-44.621l-51.559-159.63h-2.68v159.63h-35.4z" fill="#1C5F95"/>
<path d="m1127.5 85.183h2.003v-79.286h329.64v78.93l2.016-0.008c248.91 0 421.03 179.34 421.03 401.32s-172.16 401.98-421.07 401.98l-1.977-0.008v77.059h-329.64v-76.699l-1.968 0.011c-248.91 0-421.07-180-421.07-401.98 0.1-221.98 172.22-401.32 421.17-401.32v0.003z" fill="#1C5F95"/>
<path stroke-width="11.794" d="m1127.5 85.183h2.003v-79.286h329.64v78.93l2.016-0.008c248.91 0 421.03 179.34 421.03 401.32s-172.16 401.98-421.07 401.98l-1.977-0.008v77.059h-329.64v-76.699l-1.968 0.011c-248.91 0-421.07-180-421.07-401.98 0.1-221.98 172.22-401.32 421.17-401.32v0.003z" stroke="#fff" fill="none"/>
<path d="m1127.5 85.183h2.003v-79.286h329.64v78.93l2.016-0.008c248.91 0 421.03 179.34 421.03 401.32s-172.16 401.98-421.07 401.98l-1.977-0.008v77.059h-329.64v-76.699l-1.968 0.011c-248.91 0-421.07-180-421.07-401.98 0.1-221.98 172.22-401.32 421.17-401.32v0.003z" fill="#1C5F95"/>
<path d="m1294.3 202.36c148.53 0 269 120.46 269 269 0 148.53-120.47 269-269 269-148.54 0-269-120.47-269-269 0-148.54 120.5-269 269-269z" fill="#1C5F95"/>
<path stroke-width="28.345" d="m1294.3 202.36c148.53 0 269 120.46 269 269 0 148.53-120.47 269-269 269-148.54 0-269-120.47-269-269 0-148.54 120.5-269 269-269z" stroke="#fff" fill="none"/>
<path d="m1294.3 202.36c148.53 0 269 120.46 269 269 0 148.53-120.47 269-269 269-148.54 0-269-120.47-269-269 0-148.54 120.5-269 269-269z" fill="#1C5F95"/>
<path d="m1525.1 614.09l-0.387 0.019c25.809-42.289 40.387-91.992 39.793-144.96 0 0-2.348-0.019-6.465-0.027-29.445-0.098-149.47-0.297-149.47-0.352 2.133-68.011 51.379-124.17 116.17-136.93 9.055-1.773 18.418-2.727 27.996-2.727 79.66 0 144.25 64.598 144.25 144.26 0 91.85-84.4 157.88-171.9 140.72z" fill="#fff"/>
<path stroke-width="20.884" d="m1525.1 614.09l-0.387 0.019c25.809-42.289 40.387-91.992 39.793-144.96 0 0-2.348-0.02-6.465-0.027-29.445-0.098-149.47-0.297-149.47-0.352 2.133-68.011 51.379-124.17 116.17-136.93 9.055-1.774 18.418-2.727 27.996-2.727 79.66 0 144.25 64.598 144.25 144.26 0 91.85-84.4 157.88-171.9 140.72z" stroke="#1C5F95" fill="none"/>
<path d="m1525.1 614.09l-0.387 0.019c25.809-42.289 40.387-91.992 39.793-144.96 0 0-2.348-0.019-6.465-0.027-29.445-0.098-149.47-0.297-149.47-0.352 2.133-68.011 51.379-124.17 116.17-136.93 9.055-1.773 18.418-2.727 27.996-2.727 79.66 0 144.25 64.598 144.25 144.26 0 91.85-84.4 157.88-171.9 140.72z" fill="#fff"/>
<path d="m1062.1 331.03l0.383-0.016c-25.805 42.285-40.383 91.988-39.793 144.95 0 0 2.351 0.019 6.465 0.027 29.445 0.102 149.48 0.297 149.48 0.352-2.136 68.011-51.379 124.17-116.17 136.93-9.058 1.778-18.418 2.727-27.996 2.727-79.66 0-144.25-64.598-144.25-144.26 0.01-91.84 84.42-157.87 171.85-140.71z" fill="#fff"/>
<path stroke-width="20.884" d="m1062.1 331.03l0.383-0.015c-25.805 42.285-40.383 91.988-39.793 144.95 0 0 2.351 0.02 6.465 0.027 29.445 0.102 149.48 0.297 149.48 0.352-2.136 68.011-51.379 124.17-116.17 136.93-9.058 1.778-18.418 2.727-27.996 2.727-79.66 0-144.25-64.598-144.25-144.26 0.01-91.85 84.42-157.88 171.85-140.72z" stroke="#1C5F95" fill="none"/>
<path d="m1062.1 331.03l0.383-0.016c-25.805 42.285-40.383 91.988-39.793 144.95 0 0 2.351 0.019 6.465 0.027 29.445 0.102 149.48 0.297 149.48 0.352-2.136 68.011-51.379 124.17-116.17 136.93-9.058 1.778-18.418 2.727-27.996 2.727-79.66 0-144.25-64.598-144.25-144.26 0.01-91.84 84.42-157.87 171.85-140.71z" fill="#fff"/>
<path d="m95.617 1439.2h45.055c12.273 0 20.929 1.117 25.914 3.387 4.988 2.238 9.203 6.199 12.656 11.887 3.418 5.656 5.144 12.111 5.144 19.27 0 6.613-1.468 12.59-4.41 17.926-2.941 5.336-6.742 9.297-11.406 11.852 6.676 2.367 11.887 6.426 15.656 12.176 3.801 5.719 5.688 12.719 5.688 20.961 0 9.973-2.43 18.438-7.223 25.309-4.793 6.902-10.48 11.152-17.031 12.781-4.571 1.117-15.145 1.695-31.731 1.695h-38.313v-137.4zm22.653 22.9v31.73h14.988c8.977 0 14.536-0.16 16.68-0.48 3.863-0.609 6.867-2.238 9.074-4.891 2.172-2.652 3.258-6.262 3.258-10.832 0-4.059-0.863-7.348-2.652-9.871-1.789-2.527-3.93-4.09-6.453-4.73-2.524-0.605-9.778-0.926-21.762-0.926h-13.14zm0 54.5v36.684h21.09c9.234 0 15.144-0.477 17.766-1.438 2.621-0.957 4.824-2.875 6.617-5.719 1.754-2.844 2.652-6.422 2.652-10.801 0-4.508-0.961-8.18-2.848-11.09-1.914-2.906-4.441-4.918-7.57-6.004-3.164-1.086-9.617-1.633-19.332-1.633h-18.38zm90.18 59.9v-137.24h22.652v137.24h-22.65zm131.14-23.3h9.746v53.105h-18.629v-29.875h-71.067v29.875h-18.629v-53.105h9.364c3.672-9.586 6.519-21.219 8.531-34.797 1.98-13.613 3.004-33.906 3.004-60.875v-18.34h77.68v114zm-22.66-90.8h-33.52c0 40.488-3.067 70.809-9.266 90.879h42.785v-90.9zm90.91 114.1v-137.24h22.653v137.24h-22.65zm44.44 0v-137.24h22.656v54h44.574v-54h22.75v137.24h-22.75v-60.012h-44.574v60.012h-22.66zm113.47 0v-137.24h22.656v54h44.574v-54h22.75v137.24h-22.75v-60.012h-44.57v60.012h-22.66zm108.9-67.8c0-16.363 2.395-29.816 7.254-40.391 4.824-10.578 11.152-18.469 18.949-23.648 7.797-5.176 17.254-7.762 28.375-7.762 16.102 0 29.203 6.133 39.363 18.438 10.129 12.301 15.211 29.813 15.211 52.531 0 22.941-5.367 40.902-16.105 53.809-9.426 11.441-22.207 17.129-38.375 17.129-16.297 0-29.141-5.656-38.567-16.938-10.71-12.9-16.08-30.6-16.08-53.1zm23.39-0.9c0 15.785 3.004 27.609 8.976 35.504 6.008 7.891 13.422 11.852 22.305 11.852 8.914 0 16.297-3.93 22.176-11.758s8.789-19.844 8.789-36.074c0-15.914-2.844-27.672-8.567-35.309-5.687-7.605-13.164-11.41-22.398-11.41-9.235 0-16.777 3.836-22.559 11.504-5.81 7.7-8.72 19.6-8.72 35.7zm103.44-68.6h45.055c12.269 0 20.93 1.117 25.914 3.387 4.984 2.238 9.203 6.199 12.652 11.887 3.422 5.656 5.145 12.111 5.145 19.27 0 6.613-1.469 12.59-4.41 17.926-2.938 5.336-6.743 9.297-11.407 11.852 6.68 2.367 11.887 6.426 15.657 12.176 3.804 5.719 5.691 12.719 5.691 20.961 0 9.973-2.43 18.438-7.223 25.309-4.793 6.902-10.48 11.152-17.031 12.781-4.57 1.117-15.148 1.695-31.73 1.695h-38.313v-137.4zm22.65 22.9v31.73h14.985c8.98 0 14.539-0.16 16.68-0.48 3.867-0.609 6.871-2.238 9.074-4.891 2.176-2.652 3.261-6.262 3.261-10.832 0-4.059-0.863-7.348-2.652-9.871-1.789-2.527-3.933-4.09-6.457-4.73-2.523-0.605-9.777-0.926-21.758-0.926h-13.13zm0 54.5v36.684h21.086c9.239 0 15.149-0.477 17.77-1.438 2.621-0.957 4.824-2.875 6.613-5.719 1.758-2.844 2.653-6.422 2.653-10.801 0-4.508-0.961-8.18-2.844-11.09-1.918-2.906-4.442-4.918-7.574-6.004-3.164-1.086-9.618-1.633-19.332-1.633h-18.38zm192.27 59.9h-24.703l-9.84-31.188h-44.9l-9.27 31.188h-24.156l43.808-137.24h24.063l45 137.2zm-41.8-54.3l-15.465-50.938-15.242 50.938h30.7zm143.8 31h9.266v53.105h-18.629v-29.875h-80.141v-137.24h22.657v114.01h44.285v-114.01h22.562v114zm24.2 23.3v-137.24h22.656v137.24h-22.7zm44.5 0v-137.24h21.633v91.453l45.504-91.453h22.75v137.24h-21.633v-89.504l-45.406 89.504h-22.9zm58.9-173.7h10.512c-0.574 8.723-3.067 15.465-7.446 20.16-4.41 4.73-9.875 7.063-16.421 7.063-6.582 0-12.047-2.332-16.457-7.063-4.379-4.695-6.903-11.438-7.508-20.16h10.477c0.801 8.977 5.309 13.484 13.489 13.484 8.1 0 12.5-4.5 13.3-13.5zm91.3 137v-26.297h42.403v26.297h-42.4zm189.3 13.4h9.746v53.105h-18.629v-29.875h-71.066v29.875h-18.629v-53.105h9.363c3.676-9.586 6.52-21.219 8.531-34.797 1.98-13.613 3.004-33.906 3.004-60.875v-18.34h77.68v114zm-22.6-90.8h-33.52c0 40.488-3.066 70.809-9.266 90.879h42.785v-90.9zm43.3 46.3c0-16.363 2.395-29.816 7.254-40.391 4.824-10.578 11.152-18.469 18.949-23.648 7.797-5.176 17.254-7.762 28.375-7.762 16.105 0 29.203 6.133 39.367 18.438 10.129 12.301 15.207 29.813 15.207 52.531 0 22.941-5.367 40.902-16.105 53.809-9.426 11.441-22.207 17.129-38.375 17.129-16.297 0-29.141-5.656-38.566-16.938-10.7-12.9-16.1-30.6-16.1-53.1zm23.4-0.9c0 15.785 3.004 27.609 8.977 35.504 6.008 7.891 13.422 11.852 22.305 11.852 8.914 0 16.297-3.93 22.176-11.758s8.789-19.844 8.789-36.074c0-15.914-2.844-27.672-8.563-35.309-5.691-7.605-13.168-11.41-22.402-11.41s-16.773 3.836-22.559 11.504c-5.8 7.7-8.7 19.6-8.7 35.7zm211.5 68.7v-114.1h-33.711v58.699c0 15.273-0.449 26.586-1.344 33.938-0.895 7.316-3.129 12.875-6.645 16.711-3.516 3.801-9.266 5.688-17.191 5.688-2.301 0-7.063-0.289-14.316-0.926v-21.633h4.953c4.891 0 8.086-0.801 9.621-2.367 1.531-1.598 2.266-5.559 2.266-11.855v-101.39h79.023v137.24h-22.8zm45.5 0v-137.24h22.652v137.24h-22.7zm131.1-23.3h9.746v53.105h-18.629v-29.875h-71.066v29.875h-18.629v-53.105h9.363c3.676-9.586 6.52-21.219 8.531-34.797 1.98-13.613 3.004-33.906 3.004-60.875v-18.34h77.68v114zm-22.6-90.8h-33.52c0 40.488-3.066 70.809-9.266 90.879h42.785v-90.9zm47.9 114.1v-137.24h83.523v23.23h-60.867v30.418h56.559v23.105h-56.559v37.352h62.918v23.137h-85.5zm104.8 0v-137.24h36.52c13.621 0 22.5 0.672 26.68 1.98 6.68 2.109 12.18 6.648 16.531 13.547 4.34 6.938 6.508 15.852 6.508 26.777 0 9.941-1.879 18.246-5.621 24.957-3.738 6.711-8.438 11.406-14.059 14.125-5.59 2.715-15.27 4.09-29.008 4.09h-14.891v51.766h-22.6zm22.6-114.1v38.918h12.551c8.438 0 14.156-0.574 17.188-1.758 3.012-1.18 5.5-3.324 7.422-6.422 1.949-3.098 2.91-6.871 2.91-11.375 0-4.539-0.992-8.402-2.98-11.504-2.012-3.129-4.473-5.205-7.41-6.293-2.941-1.055-9.141-1.566-18.629-1.566h-11.1zm154.3 63.6l22.008 8.5c-3.449 15.371-9.129 26.586-17.117 33.68-7.992 7.063-17.832 10.609-29.5 10.609-14.66 0-26.551-5.656-35.66-16.938-10.512-13.035-15.75-30.641-15.75-52.785 0-23.422 5.27-41.734 15.848-54.961 9.172-11.473 21.473-17.223 36.973-17.223 12.59 0 23.129 4.313 31.629 12.91 6.039 6.133 10.48 15.207 13.301 27.254l-22.473 6.551c-1.43-7.445-4.277-13.133-8.559-17.094-4.281-3.965-9.328-5.945-15.109-5.945-8.309 0-15.09 3.613-20.332 10.867-5.238 7.219-7.859 19.174-7.859 35.852 0 17.285 2.563 29.586 7.672 36.871 5.109 7.32 11.758 10.961 19.938 10.961 6.012 0 11.18-2.332 15.531-6.965 4.5-4.9 7.7-12.3 9.6-22.4zm66.7 50.5v-114.01h-33.422v-23.23h89.402v23.23h-33.332v114.01h-22.7zm70.7-137.3h45.059c12.27 0 20.93 1.117 25.91 3.387 4.992 2.238 9.199 6.199 12.652 11.887 3.418 5.656 5.148 12.111 5.148 19.27 0 6.613-1.469 12.59-4.41 17.926s-6.738 9.297-11.41 11.852c6.68 2.367 11.891 6.426 15.66 12.176 3.801 5.719 5.691 12.719 5.691 20.961 0 9.973-2.43 18.438-7.223 25.309-4.797 6.902-10.488 11.152-17.039 12.781-4.57 1.117-15.141 1.695-31.73 1.695h-38.309v-137.4zm22.7 22.9v31.73h14.98c8.98 0 14.539-0.16 16.68-0.48 3.871-0.609 6.871-2.238 9.078-4.891 2.172-2.652 3.262-6.262 3.262-10.832 0-4.059-0.871-7.348-2.66-9.871-1.781-2.527-3.93-4.09-6.449-4.73-2.52-0.605-9.781-0.926-21.762-0.926h-13.2zm0 54.5v36.684h21.09c9.23 0 15.141-0.477 17.758-1.438 2.621-0.957 4.832-2.875 6.621-5.719 1.75-2.844 2.652-6.422 2.652-10.801 0-4.508-0.961-8.18-2.852-11.09-1.91-2.906-4.441-4.918-7.57-6.004-3.16-1.086-9.621-1.633-19.328-1.633h-18.4zm192.3 59.9h-24.699l-9.84-31.188h-44.922l-9.27 31.188h-24.16l43.813-137.24h24.059l45 137.2zm-41.9-54.3l-15.469-50.938-15.242 50.938h30.7zm70.8 21.4l-5.617-69.66v-32.207h23.32v32.207l-5.523 69.66h-12.2zm-4.6 35.4v-26.301h21.531v26.301h-21.5z" fill="#1C5F95"/>
</svg>
