<?xml version="1.0" encoding="iso-8859-1"?>
<!-- Generator: Adobe Illustrator 16.0.0, SVG Export Plug-In . SVG Version: 6.00 Build 0)  -->
<!DOCTYPE svg PUBLIC "-//W3C//DTD SVG 1.1//EN" "http://www.w3.org/Graphics/SVG/1.1/DTD/svg11.dtd">
<svg version="1.1" id="Capa_1" xmlns="http://www.w3.org/2000/svg" xmlns:xlink="http://www.w3.org/1999/xlink" x="0px" y="0px"
	 width="575.969px" height="575.969px" viewBox="0 0 575.969 575.969" style="enable-background:new 0 0 575.969 575.969;"
	 xml:space="preserve">
<g>
	<g>
		<path d="M563.472,363.566c-7.456-11.369-17.657-20.234-29.382-26.146c4.009-53.108-12.074-97.496-36.568-99.644l-0.896-0.078
			c-1.153-44.898-15.597-89.487-42.517-127.657C410.748,48.562,340.953,11.86,267.407,11.86
			c-73.548,0-143.343,36.702-186.707,98.183c-26.937,38.201-41.379,82.816-42.524,127.745l-0.887,0.075
			C12.384,240.05-3.938,285.838,0.826,340.122c4.774,54.304,28.837,96.541,53.729,94.356h0.01l81.259-7.132
			c6.854-0.604,13.183-3.903,17.601-9.172c4.429-5.28,6.567-12.086,5.965-18.939l-12.724-144.934
			c-1.259-14.27-13.839-24.829-28.111-23.568l-21.495,1.891c1.938-31.081,12.427-61.645,31.567-88.783
			c32.875-46.61,83.454-73.336,138.779-73.336c55.322,0,105.904,26.728,138.779,73.336c19.128,27.11,29.599,57.645,31.556,88.687
			l-21.485-1.881c-14.271-1.261-26.851,9.296-28.111,23.568L375.421,399.15c-0.6,6.853,1.538,13.66,5.967,18.938
			c4.419,5.271,10.749,8.572,17.603,9.173l81.259,7.132h0.009c18.312,1.604,36.103-20.925,46.173-54.503
			c1.536,1.61,3.094,3.205,4.341,5.116c6.875,10.47,8,23.595,3.009,35.088l-25.804,59.359c-7.837,18.031-25.6,29.676-45.261,29.676
			h-34.728c-2.835-9.125-11.026-15.884-21.085-15.884h-64.354c-12.37,0-22.399,10.031-22.399,22.401v26.06
			c0,12.37,10.029,22.402,22.399,22.402h64.354c10.059,0,18.25-6.758,21.085-15.883h34.728c35.238,0,67.083-20.886,81.114-53.197
			l25.81-59.362C579.89,412.047,577.589,385.09,563.472,363.566z"/>
	</g>
</g>
<g>
</g>
<g>
</g>
<g>
</g>
<g>
</g>
<g>
</g>
<g>
</g>
<g>
</g>
<g>
</g>
<g>
</g>
<g>
</g>
<g>
</g>
<g>
</g>
<g>
</g>
<g>
</g>
<g>
</g>
</svg>
