<?xml version="1.0" encoding="iso-8859-1"?>
<!-- Generator: Adobe Illustrator 18.1.1, SVG Export Plug-In . SVG Version: 6.00 Build 0)  -->
<svg version="1.1" id="Capa_1" xmlns="http://www.w3.org/2000/svg" xmlns:xlink="http://www.w3.org/1999/xlink" x="0px" y="0px"
	 viewBox="0 0 267.983 267.983" style="enable-background:new 0 0 267.983 267.983;" xml:space="preserve">
<g>
	<path style="fill:#010002;" d="M87.509,232.433c-8.311,0-15.044,7.952-15.044,17.775c0,9.818,11.591,17.775,25.89,17.775h71.274
		c14.294,0,25.89-7.963,25.89-17.775c0-9.823-8.567-17.775-19.14-17.775h-19.14V113.394c0-14.299-11.591-25.89-25.89-25.89H98.36
		c-14.294,0-25.89,7.957-25.89,17.775c0,9.823,6.734,17.775,15.044,17.775h15.039v109.38
		C102.554,232.433,95.815,232.433,87.509,232.433z"/>
	<path style="fill:#010002;" d="M164.069,30.051C164.069,13.467,150.602,0,133.986,0c-16.605,0-30.073,13.473-30.073,30.051
		c0,16.622,13.467,30.089,30.073,30.089C150.602,60.14,164.069,46.667,164.069,30.051z"/>
</g>
<g>
</g>
<g>
</g>
<g>
</g>
<g>
</g>
<g>
</g>
<g>
</g>
<g>
</g>
<g>
</g>
<g>
</g>
<g>
</g>
<g>
</g>
<g>
</g>
<g>
</g>
<g>
</g>
<g>
</g>
</svg>
