<?xml version="1.0" encoding="iso-8859-1"?>
<!-- Generator: Adobe Illustrator 18.1.1, SVG Export Plug-In . SVG Version: 6.00 Build 0)  -->
<svg version="1.1" id="Capa_1" xmlns="http://www.w3.org/2000/svg" xmlns:xlink="http://www.w3.org/1999/xlink" x="0px" y="0px"
	 viewBox="0 0 463.329 463.329" style="enable-background:new 0 0 463.329 463.329;" xml:space="preserve">
<g>
	<g>
		<path style="fill:#010002;" d="M152.98,278.095c-19.712,27.556-36.392,55.242-35.392,67.638
			c12.396,1.008,40.082-15.68,67.638-35.392c9.73,5.755,20.598,9.73,32.205,11.551l14.233,39.83l14.225-39.83
			c39.391-6.17,70.369-37.408,76.148-76.929l41.041-14.656l-41.48-14.81c-1.943-10.884-5.82-21.077-11.25-30.263
			c19.712-27.556,36.392-55.242,35.392-67.638c-12.396-1.008-40.082,15.68-67.638,35.392c-9.445-5.584-19.956-9.502-31.189-11.396
			L231.664,98.9l-15.249,42.691c-37.952,6.381-67.922,36.083-74.685,73.905l-41.48,14.81l41.041,14.656
			C143.039,256.928,147.078,268.113,152.98,278.095z M156.475,231.664c0-7.909,1.244-15.526,3.52-22.687
			c7.478-23.557,26.263-42.106,49.958-49.275c6.885-2.081,14.168-3.227,21.72-3.227c7.551,0,14.835,1.146,21.72,3.227
			c3.512,1.057,6.877,2.422,10.153,3.959c-2.317,1.748-4.601,3.495-6.869,5.235c-2.569,1.975-5.056,3.918-7.535,5.869
			c-18.127,14.266-33.425,27.434-40.18,34.189c-6.544,6.544-19.094,21.094-32.831,38.456c-2.024,2.56-4.056,5.137-6.121,7.812
			c-2.105,2.731-4.227,5.503-6.34,8.307c-1.829-3.894-3.333-7.958-4.479-12.177C157.467,245.068,156.475,238.484,156.475,231.664z
			 M303.334,208.978c2.276,7.161,3.52,14.786,3.52,22.687c0,6.82-0.992,13.404-2.707,19.687
			c-6.885,25.32-26.645,45.341-51.836,52.551c-6.568,1.886-13.485,2.951-20.647,2.951c-7.161,0-14.079-1.073-20.647-2.951
			c-3.877-1.114-7.616-2.536-11.217-4.235c2.577-1.943,5.113-3.885,7.625-5.82c3.495-2.699,6.909-5.365,10.218-7.99
			c16.615-13.209,30.409-25.158,36.733-31.482c6.544-6.544,19.094-21.094,32.831-38.456c2.552-3.235,5.137-6.544,7.738-9.941
			c1.569-2.048,3.146-4.089,4.715-6.178C301.066,202.767,302.334,205.807,303.334,208.978z M219.472,231.664
			c0-6.73,5.462-12.193,12.193-12.193s12.193,5.462,12.193,12.193s-5.462,12.193-12.193,12.193S219.472,238.395,219.472,231.664z"/>
		<path style="fill:#010002;" d="M231.664,463.329c127.944,0,231.664-103.721,231.664-231.664S359.608,0,231.664,0
			S0,103.721,0,231.664S103.721,463.329,231.664,463.329z M44.065,195.801C58.68,119.189,119.181,58.688,195.801,44.065
			l35.863,35.863l35.863-35.863c76.612,14.615,137.113,75.116,151.736,151.736L383.4,231.664l35.863,35.863
			c-14.615,76.612-75.116,137.113-151.736,151.736L231.664,383.4l-35.863,35.863C119.189,404.64,58.688,344.139,44.065,267.528
			l35.863-35.863L44.065,195.801z"/>
	</g>
</g>
<g>
</g>
<g>
</g>
<g>
</g>
<g>
</g>
<g>
</g>
<g>
</g>
<g>
</g>
<g>
</g>
<g>
</g>
<g>
</g>
<g>
</g>
<g>
</g>
<g>
</g>
<g>
</g>
<g>
</g>
</svg>
