<?xml version="1.0" encoding="UTF-8" standalone="no"?>
<!-- Generator: Adobe Illustrator 14.0.0, SVG Export Plug-In . SVG Version: 6.00 Build 43363)  -->

<svg
   xmlns:dc="http://purl.org/dc/elements/1.1/"
   xmlns:cc="http://creativecommons.org/ns#"
   xmlns:rdf="http://www.w3.org/1999/02/22-rdf-syntax-ns#"
   xmlns:svg="http://www.w3.org/2000/svg"
   xmlns="http://www.w3.org/2000/svg"
   xmlns:sodipodi="http://sodipodi.sourceforge.net/DTD/sodipodi-0.dtd"
   xmlns:inkscape="http://www.inkscape.org/namespaces/inkscape"
   version="1.1"
   id="Слой_1"
   x="0px"
   y="0px"
   width="40px"
   height="40px"
   viewBox="0 0 566.93 566.93"
   enable-background="new 0 0 566.93 566.93"
   xml:space="preserve"
   sodipodi:docname="icon_opencart.svg"><metadata
   id="metadata35"><rdf:RDF><cc:Work
       rdf:about=""><dc:format>image/svg+xml</dc:format><dc:type
         rdf:resource="http://purl.org/dc/dcmitype/StillImage" /><dc:title></dc:title></cc:Work></rdf:RDF></metadata><defs
   id="defs33" /><sodipodi:namedview
   pagecolor="#ffffff"
   bordercolor="#666666"
   borderopacity="1"
   objecttolerance="10"
   gridtolerance="10"
   guidetolerance="10"
   id="namedview31"
   showgrid="false"
/>
<linearGradient
   id="SVGID_1_"
   gradientUnits="userSpaceOnUse"
   x1="147.4736"
   y1="398.0605"
   x2="514.6428"
   y2="398.0605">
	<stop
   offset="0"
   style="stop-color:#31B3E3"
   id="stop2" />
	<stop
   offset="1"
   style="stop-color:#50C1E7"
   id="stop4" />
</linearGradient>

<linearGradient
   id="SVGID_2_"
   gradientUnits="userSpaceOnUse"
   x1="210.3691"
   y1="180.6338"
   x2="408.7098"
   y2="180.6338"
   gradientTransform="matrix(1.9389236,0,0,1.9389236,-258.8307,-128.16846)">
	<stop
   offset="0"
   style="stop-color:#31B3E3"
   id="stop9" />
	<stop
   offset="1"
   style="stop-color:#50C1E7"
   id="stop11" />
</linearGradient>
<path
   d="m 533.62678,200.70983 c -0.18226,-20.44401 -37.99902,-29.72176 -135.87589,-29.72176 -229.66551,0 -287.92822,-9.79931 -350.278194,-75.344627 26.22782,39.354337 40.579733,113.176907 283.329094,109.504587 253.26609,-3.89724 98.7552,65.23508 53.80126,143.34462 C 465.6772,276.20376 533.3786,228.55859 533.62678,201.00649 Z"
   id="path14"
   style="fill:url(#SVGID_2_);stroke-width:1.9389236"
    />
<linearGradient
   id="SVGID_3_"
   gradientUnits="userSpaceOnUse"
   x1="213.9365"
   y1="277.855"
   x2="242.2625"
   y2="277.855"
   gradientTransform="matrix(1.9389236,0,0,1.9389236,-258.8307,-128.16846)">
	<stop
   offset="0"
   style="stop-color:#31B3E3"
   id="stop16" />
	<stop
   offset="1"
   style="stop-color:#50C1E7"
   id="stop18" />
</linearGradient>
<path
   d="m 210.89876,410.61383 c -0.01,19.00339 -15.65875,34.63111 -34.68153,34.63499 -19.2128,0 -34.74939,-15.51914 -34.74939,-34.63499 0,-0.008 0,-0.0194 0,-0.0272 0,-19.03635 15.67038,-34.6951 34.73,-34.6951 0.01,0 0.01,0 0.0194,0 19.14687,0.002 34.68153,15.5269 34.68153,34.72225 z"
   id="path21"
   style="fill:url(#SVGID_3_);stroke-width:1.9389236"
    />
<linearGradient
   id="SVGID_4_"
   gradientUnits="userSpaceOnUse"
   x1="295.5098"
   y1="277.855"
   x2="323.8319"
   y2="277.855"
   gradientTransform="matrix(1.9389236,0,0,1.9389236,-258.8307,-128.16846)">
	<stop
   offset="0"
   style="stop-color:#31B3E3"
   id="stop23" />
	<stop
   offset="1"
   style="stop-color:#50C1E7"
   id="stop25" />
</linearGradient>
<path
   d="m 369.05482,410.61383 c -0.004,19.00339 -15.65487,34.63111 -34.67959,34.63499 -19.19534,0 -34.74163,-15.51914 -34.74163,-34.63499 0,-0.008 0,-0.0194 0,-0.0272 0,-19.03635 15.67426,-34.6951 34.72224,-34.6951 0.0116,0 0.0116,0 0.0194,0 19.14881,0.002 34.67959,15.5269 34.67959,34.72225 z"
   id="path28"
   style="fill:url(#SVGID_4_);stroke-width:1.9389236"
    />
</svg>
