<?xml version="1.0" encoding="UTF-8" standalone="no"?>
<!-- Generator: Adobe Illustrator 14.0.0, SVG Export Plug-In . SVG Version: 6.00 Build 43363)  -->

<svg
   xmlns:dc="http://purl.org/dc/elements/1.1/"
   xmlns:cc="http://creativecommons.org/ns#"
   xmlns:rdf="http://www.w3.org/1999/02/22-rdf-syntax-ns#"
   xmlns:svg="http://www.w3.org/2000/svg"
   xmlns="http://www.w3.org/2000/svg"
   xmlns:sodipodi="http://sodipodi.sourceforge.net/DTD/sodipodi-0.dtd"
   xmlns:inkscape="http://www.inkscape.org/namespaces/inkscape"
   version="1.1"
   id="Слой_1"
   x="0px"
   y="0px"
   width="566.93px"
   height="566.93px"
   viewBox="0 0 566.93 566.93"
   enable-background="new 0 0 566.93 566.93"
   xml:space="preserve"
   sodipodi:docname="jquery.svg"
   inkscape:version="0.92.4 (5da689c313, 2019-01-14)"><metadata
   id="metadata29"><rdf:RDF><cc:Work
       rdf:about=""><dc:format>image/svg+xml</dc:format><dc:type
         rdf:resource="http://purl.org/dc/dcmitype/StillImage" /></cc:Work></rdf:RDF></metadata><defs
   id="defs27" /><sodipodi:namedview
   pagecolor="#ffffff"
   bordercolor="#666666"
   borderopacity="1"
   objecttolerance="10"
   gridtolerance="10"
   guidetolerance="10"
   inkscape:pageopacity="0"
   inkscape:pageshadow="2"
   inkscape:window-width="1310"
   inkscape:window-height="704"
   id="namedview25"
   showgrid="false"
   inkscape:zoom="0.83255429"
   inkscape:cx="206.30286"
   inkscape:cy="292.11368"
   inkscape:window-x="56"
   inkscape:window-y="27"
   inkscape:window-maximized="1"
   inkscape:current-layer="Слой_1" />
<path
   fill="#121B28"
   d="M248.927,267.044l0.001-0.005l-3.097,10.975L248.927,267.044z M264.854,290.868l-3.412-0.021  L264.854,290.868z M263.975,307.257h0.004l-20.443,0.075L263.975,307.257z M268.263,290.889l-3.414-0.021L268.263,290.889z   M265.768,305.865l3.561-13.583l-3.561,13.586V305.865z M341.037,243.319l-6.633,31.188L341.037,243.319z M323.984,243.319  l-5.036,23.299l5.036-23.3V243.319z"
   id="path2" />
<path
   fill="#121B28"
   d="M339.901,241.917h-14.186c-0.787,0-1.567,0.631-1.736,1.401l-5.037,23.3l-5.035,23.3  c-0.166,0.769-0.946,1.399-1.733,1.399h-10.041c-9.935,0-8.785-6.872-6.751-16.284l0.06-0.283l0.224-1.188l0.043-0.224l0.453-2.415  l0.485-2.589c0.148-0.782,0.372-1.923,0.519-2.639l2.29-11.186l2.29-11.186c0.158-0.771-0.357-1.405-1.145-1.405H286.04  c-0.788,0-1.567,0.634-1.729,1.404l-3.129,14.853l-3.13,14.852c-0.003,0.006-0.005,0.016-0.005,0.021l-0.292,1.381  c-3.605,16.464-2.648,32.162,16.95,32.654c0.321,0.009,0.568,0.011,0.568,0.011h30.764c0.787,0,1.565-0.63,1.731-1.401l6.633-31.185  l6.636-31.187C341.198,242.548,340.688,241.917,339.901,241.917L339.901,241.917z M396.492,291.478c0.789,0,1.304,0.632,1.146,1.402  l-1.378,6.734 M394.885,306.348l1.379-6.734l-1.379,6.737V306.348z M393.158,307.767l0.006-0.002  c-4.174,0.032-16.72,0.128-26.149,0.128C378.491,307.893,393.156,307.768,393.158,307.767z M358.553,282.806  c-0.012-0.737,0.828-2.008,1.616-2.008l-1.771-0.028C357.6,288.799,358.553,282.806,358.553,282.806z"
   id="path4" />
<path
   fill="#121B28"
   d="M368.308,307.89c-0.09,0-0.183,0-0.273,0.001C368.125,307.89,368.218,307.89,368.308,307.89z   M396.492,291.478c0.789,0,1.304,0.632,1.146,1.402l-1.378,6.734l-0.225,1.097 M375.023,307.873h-0.058H375.023z M371.541,307.885  h-0.202H371.541z M370.479,307.888c-0.114,0-0.223,0-0.334,0.002C370.257,307.888,370.365,307.888,370.479,307.888z M369.397,307.89  h-0.292H369.397z M371.338,307.885l-0.86,0.002L371.338,307.885z M374.968,307.873c-1.148,0.006-2.293,0.011-3.422,0.014  C372.675,307.884,373.821,307.879,374.968,307.873z M394.885,306.353l1.154-5.642l-1.154,5.646V306.353z M370.146,307.89h-0.749  H370.146z M368.03,307.891h-1.013H368.03z M369.103,307.89h-0.799H369.103z M161.592,282.976l2.205-9.769l-2.521,11.166  l-2.417,11.374l2.12-9.97C161.141,285.005,161.419,283.743,161.592,282.976L161.592,282.976z M187.967,241.752h-15.579  c-0.789,0-1.574,0.628-1.75,1.396l-1.479,6.52l-1.478,6.522c-0.173,0.768,0.329,1.396,1.117,1.396h15.7  c0.788,0,1.57-0.629,1.739-1.399l1.427-6.52l1.428-6.516v-0.001C189.262,242.382,188.755,241.752,187.967,241.752L187.967,241.752z   M184.577,263.442v-0.002l-4.569,21.14L184.577,263.442z M139.32,333.481c0,0,7.854,0.101,12.844,0.101  c-3.791,0-10.056-0.069-12.851-0.104L139.32,333.481z M166,263.439l-2.207,9.768L166,263.439z"
   id="path6" />
<path
   fill="#121B28"
   d="M183.449,262.041h-15.701c-0.787,0-1.574,0.629-1.748,1.398l-2.207,9.769l-2.203,9.769  c-0.174,0.769-0.451,2.028-0.615,2.801l-2.119,9.971l-2.117,9.969c-0.208,0.933-0.46,1.852-0.755,2.759c0,0-2.934,8.727-7.864,8.629  c-0.211-0.005-0.414-0.007-0.616-0.013c-2.391-0.046-4.267-0.077-4.267-0.077h-0.004c-0.786-0.014-1.576,0.601-1.76,1.364  l-1.628,6.847l-1.626,6.842c-0.182,0.765,0.311,1.396,1.094,1.41c2.796,0.032,9.06,0.103,12.852,0.103  c12.318,0,18.812-6.823,22.974-26.463l4.871-22.538l4.569-21.14C184.744,262.671,184.235,262.041,183.449,262.041L183.449,262.041z   M406.497,307.093c-0.788,0-1.299-0.631-1.133-1.404l11.813-55.325 M422.913,305.688l4.776-23.613L422.913,305.688z"
   id="path8" />
<path
   fill="#121B28"
   d="M405.537,306.393c-0.098-0.386-0.04-1.33,0.127-2.102l5.604-26.262l-5.905,27.661  c-0.166,0.771,0.345,1.403,1.132,1.403h1.436C407.143,307.093,405.63,306.777,405.537,306.393L405.537,306.393z M421.979,306.777  c-0.429,0.174-1.425,0.316-2.213,0.316h1.434c0.789,0,1.561-0.632,1.717-1.405l0.284-1.402  C423.044,305.057,422.409,306.604,421.979,306.777L421.979,306.777z M425.306,293.882l2.108-10.423  c-0.001,0.007-0.003,0.016-0.005,0.021L425.306,293.882z M471.91,254.071l0.65,2.688c0.18,0.77-0.317,1.394-1.103,1.396   M423.199,304.286l2.103-10.404L423.199,304.286z M471.263,251.317l0.643,2.753L471.263,251.317z M427.411,283.46  c0.157-0.771,0.417-2.021,0.581-2.784l2.251-10.551l-2.551,11.95L427.411,283.46L427.411,283.46z M417.37,249.458  c-0.156,0.745-0.357,1.685-0.489,2.308l-5.605,26.263l5.904-27.664L417.37,249.458z"
   id="path10" />
<path
   fill="#121B28"
   d="M472.557,256.759l-0.651-2.688l-0.643-2.753l-0.326-1.395c-1.276-4.954-5.02-7.813-13.148-7.813  l-12.656-0.015l-11.655-0.014h-13.113c-0.787,0-1.566,0.629-1.728,1.4h-0.002l-0.58,2.739l-0.684,3.236l-0.191,0.907l-5.905,27.664  l-5.606,26.261c-0.167,0.773-0.223,1.716-0.127,2.103c0.096,0.386,1.605,0.702,2.394,0.702h11.833c0.788,0,1.786-0.145,2.213-0.316  c0.43-0.172,1.064-1.721,1.222-2.492l2.103-10.403l2.104-10.402l0.005-0.021l0.279-1.384l2.553-11.951l2.252-10.556  c0.167-0.767,0.943-1.394,1.729-1.396l37.228-0.019C472.238,258.153,472.737,257.528,472.557,256.759z"
   id="path12" />
<path
   fill="#121B28"
   d="M520.482,232.452c-0.789,0.005-2.077,0.01-2.865,0.01h-11.916c-0.789,0-1.797,0.532-2.241,1.182  l-26.35,38.603c-0.445,0.652-0.951,0.554-1.127-0.212l-1.939-8.506c-0.174-0.77-0.964-1.396-1.751-1.396h-16.941  c-0.788,0-1.255,0.619-1.038,1.376l7.591,26.59c0.215,0.757,0.231,2.003,0.037,2.766l-3.308,12.868  c-0.197,0.765,0.287,1.391,1.076,1.391h16.74c0.788,0,1.594-0.626,1.789-1.391l3.31-12.868c0.195-0.763,0.742-1.903,1.217-2.534  l42.776-56.773c0.477-0.629,0.218-1.141-0.567-1.136L520.482,232.452L520.482,232.452z M385.905,265.753v-0.017  c-0.099,0.855-0.889,1.483-1.673,1.483h-21.478c-0.743,0-1.12-0.505-1.011-1.128c0.008-0.019,0.01-0.035,0.02-0.049  c0,0-0.007,0-0.015,0.006c0.006-0.026,0.006-0.048,0.013-0.073l0.098-0.365c2.052-5.454,6.23-9.033,14.082-9.033  C384.78,256.578,386.506,260.898,385.905,265.753L385.905,265.753z M379.605,240.964c-27.567,0-34.099,16.733-37.764,33.621  c-3.664,17.214-3.348,33.306,25.177,33.306h1.013c0.091-0.001,0.182-0.001,0.272-0.001h1.841c0.11-0.002,0.22-0.002,0.333-0.002  l0.86-0.001h0.201c1.129-0.003,2.275-0.008,3.423-0.012h0.058c7.533-0.03,15.088-0.088,18.147-0.11  c0.784-0.013,1.551-0.644,1.711-1.407l1.153-5.645l0.226-1.099l1.378-6.732c0.158-0.771-0.358-1.403-1.146-1.403h-25.646  c-10.199,0-13.229-2.711-12.111-10.679h40.993l-0.003,0.004c0.012,0,0.02-0.004,0.027-0.004c0.651-0.013,1.254-0.46,1.494-1.058  c0.045-0.115,0.084-0.234,0.098-0.358l-0.003,0.004c6.087-22.959,4.34-38.421-21.736-38.421L379.605,240.964z M249.315,265.665  l-0.388,1.374l-0.001,0.005l-3.095,10.97l-3.095,10.969c-0.213,0.756-1.032,1.377-1.822,1.377H224.53  c-12.426,0-15.454-9.72-12.426-24.058c3.024-14.664,8.958-23.78,21.19-24.703C250.007,240.338,253.351,252.095,249.315,265.665z   M260.551,289.516c0,0,7.725-18.755,9.48-29.59c2.391-14.503-4.87-35.535-32.916-35.535c-27.886,0-39.995,20.08-44.616,41.909  c-4.62,21.987,1.434,41.271,29.161,41.113l21.875-0.081l20.443-0.075c0.789-0.007,1.593-0.63,1.794-1.392l3.56-13.584  c0.198-0.764-0.284-1.389-1.071-1.394l-3.413-0.021l-3.412-0.02c-0.671-0.005-1.055-0.438-0.973-1.014  c0.015-0.108,0.043-0.217,0.084-0.319L260.551,289.516L260.551,289.516z"
   id="path14" />
<path
   fill="#121B28"
   d="M398.599,276.962c0,0.52-0.421,0.941-0.939,0.941c-0.521,0-0.941-0.422-0.941-0.941  c0-0.519,0.421-0.94,0.941-0.94C398.178,276.021,398.599,276.443,398.599,276.962z"
   id="path16" />
<path
   fill="#0D68AC"
   d="M47.615,252.575c-7.7,11.067-6.742,25.465-0.859,37.224c0.139,0.284,0.287,0.559,0.431,0.837  c0.092,0.176,0.178,0.356,0.275,0.529c0.055,0.104,0.115,0.206,0.172,0.305c0.1,0.188,0.203,0.366,0.307,0.548  c0.182,0.323,0.37,0.644,0.561,0.964c0.107,0.177,0.212,0.352,0.321,0.527c0.211,0.343,0.429,0.681,0.651,1.02  c0.093,0.144,0.183,0.288,0.277,0.43c0.307,0.456,0.621,0.912,0.943,1.363l0.027,0.034c0.052,0.073,0.107,0.142,0.16,0.215  c0.28,0.385,0.568,0.766,0.859,1.142c0.107,0.138,0.215,0.276,0.325,0.413c0.36,0.451,0.727,0.899,1.099,1.34  c0.369,0.438,0.745,0.864,1.129,1.289c0.016,0.019,0.029,0.027,0.042,0.047c0.77,0.835,1.565,1.645,2.386,2.432  c0.123,0.117,0.246,0.236,0.367,0.349c0.41,0.386,0.827,0.766,1.251,1.137c0.071,0.063,0.144,0.123,0.215,0.183  c0.367,0.318,0.742,0.636,1.118,0.944c0.153,0.125,0.31,0.247,0.464,0.37c0.308,0.247,0.619,0.488,0.933,0.729l0.498,0.38  c0.347,0.253,0.695,0.504,1.047,0.751c0.129,0.092,0.252,0.181,0.381,0.269c0.036,0.025,0.069,0.052,0.104,0.076  c0.333,0.229,0.675,0.45,1.016,0.671c0.146,0.098,0.292,0.199,0.44,0.294c0.523,0.332,1.055,0.658,1.592,0.974  c0.145,0.084,0.292,0.166,0.439,0.248c0.396,0.229,0.792,0.451,1.194,0.672c0.218,0.117,0.441,0.228,0.661,0.339  c0.285,0.15,0.566,0.301,0.855,0.446c0.064,0.031,0.133,0.062,0.198,0.095c0.116,0.056,0.233,0.109,0.349,0.169  c0.543,0.26,1.09,0.513,1.642,0.757c0.522,0.227,1.049,0.444,1.58,0.654c0.128,0.053,0.256,0.103,0.384,0.152  c0.556,0.215,1.115,0.42,1.678,0.616c0.55,0.193,1.104,0.37,1.663,0.545c0.133,0.039,0.267,0.08,0.402,0.12  c0.568,0.172,1.13,0.375,1.716,0.484c37.238,6.79,48.055-22.378,48.055-22.378c-9.084,11.836-25.21,14.956-40.489,11.481  c-0.579-0.132-1.139-0.312-1.705-0.479c-0.694-0.205-1.383-0.427-2.067-0.663l-0.226-0.082c-0.485-0.171-0.967-0.351-1.448-0.536  c-0.134-0.055-0.27-0.106-0.406-0.161c-0.524-0.206-1.045-0.423-1.563-0.648c-0.105-0.045-0.208-0.094-0.312-0.137  c-0.569-0.258-1.136-0.523-1.699-0.796c-0.343-0.169-0.681-0.345-1.02-0.521c-0.226-0.119-0.457-0.231-0.681-0.356  c-0.412-0.222-0.818-0.449-1.222-0.685c-0.136-0.077-0.275-0.151-0.413-0.23c-0.536-0.317-1.066-0.643-1.592-0.976  c-0.144-0.094-0.286-0.19-0.43-0.286c-0.381-0.246-0.759-0.496-1.132-0.753c-0.125-0.084-0.244-0.174-0.366-0.256  c-0.36-0.255-0.716-0.513-1.07-0.774c-0.161-0.118-0.319-0.24-0.475-0.359c-0.471-0.361-0.937-0.729-1.397-1.1  c-0.406-0.333-0.808-0.671-1.203-1.015l-0.133-0.11c-0.428-0.379-0.85-0.761-1.265-1.15c-0.122-0.116-0.239-0.227-0.357-0.344  c-0.308-0.292-0.611-0.589-0.909-0.891c-0.119-0.119-0.24-0.236-0.357-0.355c-0.378-0.388-0.75-0.782-1.114-1.181l-0.056-0.059  c-0.385-0.421-0.762-0.851-1.131-1.286c-0.099-0.121-0.198-0.235-0.296-0.352c-0.276-0.333-0.547-0.669-0.814-1.007  c-0.101-0.123-0.2-0.247-0.298-0.372c-0.32-0.417-0.633-0.831-0.94-1.252c-8.483-11.57-11.53-27.529-4.751-40.635"
   id="path18" />
<path
   fill="#0D68AC"
   d="M71.517,243.251c-5.568,8.013-5.266,18.74-0.922,27.215c0.728,1.425,1.55,2.798,2.463,4.111  c0.834,1.194,1.759,2.617,2.866,3.58c0.402,0.442,0.822,0.873,1.25,1.296c0.108,0.111,0.219,0.216,0.329,0.325  c0.416,0.405,0.838,0.801,1.277,1.187c0.019,0.015,0.034,0.031,0.051,0.045c0.006,0.005,0.011,0.007,0.013,0.013  c0.483,0.424,0.983,0.831,1.491,1.233c0.113,0.086,0.224,0.175,0.338,0.264c0.508,0.39,1.027,0.773,1.56,1.14  c0.017,0.011,0.03,0.022,0.044,0.033c0.235,0.163,0.474,0.314,0.713,0.47c0.114,0.073,0.222,0.153,0.337,0.223  c0.379,0.244,0.765,0.482,1.156,0.709c0.056,0.033,0.108,0.063,0.164,0.094c0.336,0.196,0.679,0.387,1.021,0.571  c0.121,0.066,0.241,0.126,0.364,0.188c0.236,0.125,0.474,0.25,0.714,0.369c0.036,0.02,0.073,0.035,0.107,0.051  c0.491,0.242,0.985,0.476,1.49,0.694c0.109,0.049,0.22,0.091,0.329,0.135c0.405,0.173,0.812,0.34,1.222,0.496  c0.174,0.066,0.35,0.13,0.523,0.192c0.372,0.138,0.747,0.264,1.123,0.39c0.171,0.056,0.337,0.111,0.508,0.163  c0.535,0.168,1.064,0.377,1.622,0.47c28.751,4.765,35.389-17.373,35.389-17.373c-5.984,8.618-17.571,12.729-29.935,9.52  c-0.712-0.188-1.418-0.397-2.117-0.629c-0.557-0.18-1.108-0.376-1.654-0.585c-0.412-0.158-0.82-0.323-1.226-0.494  c-0.11-0.047-0.222-0.091-0.33-0.141c-0.505-0.22-1.005-0.452-1.5-0.696c-0.254-0.123-0.504-0.254-0.752-0.383l-0.434-0.224  c-0.32-0.174-0.637-0.353-0.952-0.537c-0.075-0.042-0.152-0.083-0.228-0.127c-0.389-0.229-0.772-0.463-1.152-0.705  c-0.118-0.075-0.23-0.154-0.347-0.231c-0.251-0.163-0.5-0.327-0.748-0.494c-0.527-0.367-1.044-0.746-1.553-1.136  c-0.117-0.094-0.235-0.184-0.35-0.276c-5.413-4.272-9.703-10.112-11.742-16.734c-2.138-6.868-1.677-14.576,2.026-20.833"
   id="path20" />

</svg>