<?xml version="1.0" encoding="UTF-8" standalone="no"?>
<svg
   xmlns:dc="http://purl.org/dc/elements/1.1/"
   xmlns:cc="http://creativecommons.org/ns#"
   xmlns:rdf="http://www.w3.org/1999/02/22-rdf-syntax-ns#"
   xmlns:svg="http://www.w3.org/2000/svg"
   xmlns="http://www.w3.org/2000/svg"
   viewBox="0 0 350 350"
   height="350"
   width="350"
   version="1.1"
   id="svg2">
  <metadata
     id="metadata8">
    <rdf:RDF>
      <cc:Work
         rdf:about="">
        <dc:format>image/svg+xml</dc:format>
        <dc:type
           rdf:resource="http://purl.org/dc/dcmitype/StillImage" />
        <dc:title></dc:title>
      </cc:Work>
    </rdf:RDF>
  </metadata>
  <defs
     id="defs6">
    <clipPath
       clipPathUnits="userSpaceOnUse"
       id="clipPath3444">
      <path
         d="M 11.52,162 C 11.52,81.677 135.307,16.561 288,16.561 v 0 c 152.693,0 276.481,65.116 276.481,145.439 v 0 c 0,80.322 -123.788,145.439 -276.481,145.439 v 0 C 135.307,307.439 11.52,242.322 11.52,162"
         id="path3446" />
    </clipPath>
    <radialGradient
       cx="0"
       cy="0"
       fx="0"
       fy="0"
       gradientTransform="matrix(363.05789,0,0,-363.05789,177.52002,256.30713)"
       gradientUnits="userSpaceOnUse"
       id="radialGradient3452"
       r="1"
       spreadMethod="pad">
      <stop
         id="stop3454"
         offset="0"
         style="stop-opacity:1;stop-color:#aeb2d5" />
      <stop
         id="stop3456"
         offset="0.3"
         style="stop-opacity:1;stop-color:#aeb2d5" />
      <stop
         id="stop3458"
         offset="0.75"
         style="stop-opacity:1;stop-color:#484c89" />
      <stop
         id="stop3460"
         offset="1"
         style="stop-opacity:1;stop-color:#484c89" />
    </radialGradient>
    <clipPath
       clipPathUnits="userSpaceOnUse"
       id="clipPath3468">
      <path
         d="M 0,324 H 576 V 0 H 0 Z"
         id="path3470" />
    </clipPath>
    <clipPath
       clipPathUnits="userSpaceOnUse"
       id="clipPath3480">
      <path
         d="M 0,324 H 576 V 0 H 0 Z"
         id="path3482" />
    </clipPath>
  </defs>
  <rect
     ry="44.491524"
     y="6.1255226"
     x="1.0627624"
     height="338.77377"
     width="350.42679"
     id="rect4138"
     style="color:#000000;clip-rule:nonzero;display:inline;overflow:visible;visibility:visible;opacity:1;isolation:auto;mix-blend-mode:normal;color-interpolation:sRGB;color-interpolation-filters:linearRGB;solid-color:#000000;solid-opacity:1;fill:#6082bb;fill-opacity:1;fill-rule:evenodd;stroke:none;stroke-width:1.08637607;stroke-linecap:butt;stroke-miterlimit:10;stroke-dasharray:none;stroke-dashoffset:0;stroke-opacity:1;color-rendering:auto;image-rendering:auto;shape-rendering:auto;text-rendering:auto;enable-background:accumulate" />
  <path
     d="m 84.157415,194.13209 c 8.401133,0 14.672898,-1.57373 18.641235,-4.67589 3.92586,-3.07033 6.63734,-8.38985 8.05853,-15.81 1.3251,-6.93566 0.82027,-11.77846 -1.49987,-14.39189 -2.37238,-2.66931 -7.50148,-4.02305 -15.244595,-4.02305 H 80.68695 l -7.442984,38.90083 z m -43.912143,47.91874 c -0.6232,0 -1.215076,-0.28293 -1.611277,-0.77237 -0.396921,-0.48873 -0.557753,-1.13236 -0.438692,-1.75407 L 57.920706,136.4365 c 0.190801,-0.99656 1.050748,-1.71658 2.050657,-1.71658 H 102.4846 c 13.36103,0 23.30589,3.68497 29.55678,10.95377 6.2843,7.30699 8.22495,17.52092 5.76762,30.35748 -0.99991,5.22969 -2.71982,10.08663 -5.11169,14.43504 -2.39464,4.35336 -5.55943,8.38135 -9.408,11.97438 -4.60686,4.37952 -9.82093,7.55525 -15.4834,9.4239 -5.57268,1.8439 -12.729473,2.77894 -21.271236,2.77894 H 69.3202 l -4.916037,25.6901 c -0.190802,0.99727 -1.05006,1.7173 -2.049969,1.7173 z"
     id="path3486"
     style="opacity:1;fill:#ffffff;fill-opacity:1;fill-rule:nonzero;stroke:none;stroke-width:1.05936074" />
  <path
     d="m 190.23188,214.64343 c -0.61591,0 -1.19951,-0.28292 -1.59064,-0.77236 -0.3925,-0.48874 -0.55129,-1.13166 -0.43376,-1.75408 l 8.61379,-45.61227 c 0.8194,-4.3378 0.6173,-7.45128 -0.56847,-8.76683 -0.7259,-0.80419 -2.90631,-2.15299 -9.35342,-2.15299 h -15.60532 l -10.82996,57.34123 c -0.18836,0.99727 -1.03728,1.7173 -2.0244,1.7173 h -21.65305 c -0.61591,0 -1.1995,-0.28292 -1.59132,-0.77236 -0.39181,-0.48874 -0.55061,-1.13237 -0.43307,-1.75408 l 19.47263,-103.08788 c 0.18834,-0.99657 1.03728,-1.71659 2.02439,-1.71659 h 21.65304 c 0.61591,0 1.19953,0.28292 1.59133,0.77166 0.39183,0.48943 0.5506,1.13236 0.43307,1.75478 l -4.69906,24.88096 h 16.78764 c 12.78905,0 21.46126,2.31991 26.51227,7.09268 5.1486,4.86896 6.75506,12.65409 4.77536,23.14175 l -9.05992,47.97178 c -0.18833,0.99727 -1.03659,1.7173 -2.02438,1.7173 z"
     id="path3494"
     style="opacity:1;fill:#ffffff;fill-opacity:1;fill-rule:nonzero;stroke:none;stroke-width:1.05936074" />
  <path
     d="m 263.17108,194.13209 c 8.72346,0 15.23586,-1.57373 19.35647,-4.67589 4.07649,-3.06962 6.89201,-8.38914 8.36845,-15.81 1.37594,-6.93566 0.85175,-11.77846 -1.55814,-14.39189 -2.46341,-2.66931 -7.7893,-4.02305 -15.8295,-4.02305 h -13.94092 l -7.72855,38.90083 z m -45.59631,47.91874 c -0.64711,0 -1.26169,-0.28293 -1.6731,-0.77237 -0.41213,-0.48873 -0.57988,-1.13236 -0.45625,-1.75407 L 235.92768,136.4365 c 0.19884,-0.99656 1.09107,-1.71658 2.13008,-1.71658 h 44.1437 c 13.87439,0 24.20012,3.68497 30.69157,10.95377 6.52542,7.30628 8.5398,17.52022 5.98892,30.35748 -1.03973,5.22969 -2.82492,10.08663 -5.30854,14.43504 -2.48655,4.35336 -5.77276,8.38135 -9.76899,11.97438 -4.78363,4.37952 -10.19775,7.55525 -16.07751,9.4239 -5.78647,1.8439 -13.21786,2.77894 -22.08739,2.77894 h -17.87569 l -5.10249,25.6901 c -0.19884,0.99727 -1.09107,1.7173 -2.13007,1.7173 z"
     id="path3502"
     style="opacity:1;fill:#ffffff;fill-opacity:1;fill-rule:nonzero;stroke:none;stroke-width:1.05936074" />
</svg>
