<?xml version="1.0" encoding="UTF-8" standalone="no"?>
<svg
   xmlns:dc="http://purl.org/dc/elements/1.1/"
   xmlns:cc="http://creativecommons.org/ns#"
   xmlns:rdf="http://www.w3.org/1999/02/22-rdf-syntax-ns#"
   xmlns:svg="http://www.w3.org/2000/svg"
   xmlns="http://www.w3.org/2000/svg"
   xmlns:sodipodi="http://sodipodi.sourceforge.net/DTD/sodipodi-0.dtd"
   xmlns:inkscape="http://www.inkscape.org/namespaces/inkscape"
   xml:space="preserve"
   enable-background="new 0 0 566.93 566.93"
   viewBox="0 0 566.93 566.93"
   height="566.93px"
   width="566.93px"
   y="0px"
   x="0px"
   id="Слой_1"
   version="1.1"
   sodipodi:docname="icon_woo.svg"
   inkscape:version="0.92.4 (5da689c313, 2019-01-14)"><sodipodi:namedview
   pagecolor="#ffffff"
   bordercolor="#666666"
   borderopacity="1"
   objecttolerance="10"
   gridtolerance="10"
   guidetolerance="10"
   inkscape:pageopacity="0"
   inkscape:pageshadow="2"
   inkscape:window-width="1310"
   inkscape:window-height="704"
   id="namedview8"
   showgrid="false"
   inkscape:zoom="0.41627715"
   inkscape:cx="283.465"
   inkscape:cy="283.465"
   inkscape:window-x="56"
   inkscape:window-y="27"
   inkscape:window-maximized="1"
   inkscape:current-layer="Слой_1" /><metadata
   id="metadata13"><rdf:RDF><cc:Work
       rdf:about=""><dc:format>image/svg+xml</dc:format><dc:type
         rdf:resource="http://purl.org/dc/dcmitype/StillImage" /><dc:title /></cc:Work></rdf:RDF></metadata><defs
   id="defs11" />
<path
   id="path2"
   d="m 24.767195,183.05437 c 7.211869,-17.25721 25.239939,-29.61515 44.038878,-29.61515 141.908757,0 283.814297,0 425.979477,0 12.36274,-0.25802 24.72549,4.37521 33.73872,12.61757 10.30336,9.27286 16.22671,23.18055 15.97029,37.08824 0,54.34063 0,108.68447 0,163.28313 -0.25803,24.46747 -21.63401,46.61592 -46.10468,47.13037 -51.76359,0.25962 -103.53199,0 -155.29719,0 6.95385,17.2572 13.90769,34.25317 20.86154,51.51037 -30.90366,-16.99917 -61.29448,-34.50959 -92.45777,-51.25075 -67.9903,-0.51604 -136.24022,0 -204.490149,-0.25962 -24.467468,-0.76927 -45.841846,-22.6629 -46.09987,-47.13037 -0.258025,-53.31174 0,-106.62188 -0.258025,-159.6772 -0.0016,-7.98754 0.770869,-16.2283 4.118779,-23.69659"
   inkscape:connector-curvature="0"
   style="fill:#945d87;stroke-width:1.60263765" />
<path
   id="path4"
   d="m 232.86328,186.91832 c 7.72792,-8.24396 22.6645,-5.66692 28.58624,3.86236 3.09149,4.89446 3.34791,11.59028 0.77408,16.74115 -10.81781,21.63401 -15.45263,45.58543 -19.57462,69.0208 -4.89285,30.64884 -9.01323,61.81213 -7.46829,92.97542 0.51445,7.98273 -3.34791,17.51202 -11.8467,19.57141 -7.98434,1.80457 -15.45423,-3.60434 -20.60511,-9.27126 -23.17895,-24.98192 -36.31416,-57.1757 -45.84184,-89.36949 -9.52929,18.80055 -19.05697,37.85911 -28.32983,56.65965 -6.4394,12.8772 -13.39164,26.01242 -23.695,36.31577 -4.3768,4.3752 -11.846693,8.24237 -17.512017,3.86236 C 78.851406,379.8182 76.792017,367.9699 73.186082,357.92777 59.536418,310.7974 51.810102,262.12049 43.825761,213.70321 c -1.802967,-7.98274 1.544943,-17.77165 9.529283,-20.86154 6.439398,-2.31901 14.936583,-2.83506 20.345485,2.05939 3.863959,3.34631 4.892852,8.75521 5.666926,13.64967 5.665324,37.60268 12.104722,74.94414 21.375985,111.77435 15.45263,-29.35871 30.90686,-58.72064 46.35789,-88.33738 2.31902,-4.37841 5.15088,-8.75842 9.27286,-11.33225 5.66693,-3.60594 13.90769,-3.34951 18.80054,1.80297 3.86236,4.12198 5.40891,10.04533 6.4394,15.45103 4.63483,24.20944 10.8162,48.42049 19.83104,71.34141 3.86396,-34.76762 8.75681,-70.04969 21.37598,-102.75952 2.83186,-6.95385 5.4073,-13.90769 10.04213,-19.57302 m 87.30849,18.80055 c 16.73955,-2.0626 34.76762,3.60433 46.10147,16.2251 9.27126,10.55978 14.42214,24.20944 16.2235,37.86071 2.83347,23.43537 -1.54334,48.15926 -12.87719,69.01919 -6.4394,11.8483 -14.67856,23.43858 -26.52686,30.39082 -17.2572,10.55978 -40.43294,9.27126 -57.17249,-1.80137 -13.39164,-9.27446 -20.86474,-24.72549 -23.95623,-40.17652 -6.17977,-35.28527 4.38001,-74.4329 30.90847,-98.90037 7.72471,-6.95384 17.2556,-11.33065 27.29933,-12.61756 m 3.34791,36.05614 c -7.98274,2.57383 -13.13522,10.04533 -17.51523,16.74115 -10.8178,17.51042 -13.90608,40.43294 -5.14927,59.23509 2.31741,4.89125 5.92495,10.30015 11.8483,11.32904 6.17817,1.0337 11.84509,-2.57383 16.2251,-6.43939 9.7841,-8.49719 14.67856,-21.11796 17.254,-33.73713 2.57704,-14.16411 1.29012,-29.87316 -6.95385,-42.23591 -3.3463,-4.63643 -10.04212,-6.69582 -15.70905,-4.89285 m 130.31848,-36.05614 c 16.2235,-2.0626 33.99515,3.08988 45.3274,15.1946 10.30335,11.07583 15.71065,25.75439 17.2572,40.69097 2.31741,22.66611 -1.80457,46.3579 -12.62238,66.44536 -6.43939,12.10472 -14.93658,23.95302 -27.29932,31.16329 -16.47993,10.04373 -38.63158,9.01323 -55.11311,-0.77248 -11.07262,-6.69582 -18.54412,-18.02967 -22.92092,-30.13439 -11.59348,-36.82701 -1.80457,-80.09502 24.98031,-107.9104 8.75841,-7.72311 19.31659,-13.39004 30.39082,-14.67695 m 3.60753,36.05614 c -8.75841,3.09149 -13.90769,11.59027 -18.54732,19.05856 -9.7841,17.25721 -12.35954,39.66208 -3.34631,57.94817 2.31581,5.15088 6.69742,10.04213 12.62077,10.30016 6.4394,0.25802 12.10472,-3.86076 16.74116,-8.24077 10.04212,-9.7857 14.42053,-23.69499 15.96547,-37.34466 1.54494,-12.62077 -0.51445,-26.27043 -7.98113,-37.08503 -3.08989,-4.38001 -9.79052,-6.4394 -15.45264,-4.63643"
   inkscape:connector-curvature="0"
   style="fill:#ffffff;stroke-width:1.60263765" />

</svg>