<?xml version="1.0" encoding="UTF-8" standalone="no"?>
<svg
   xmlns:dc="http://purl.org/dc/elements/1.1/"
   xmlns:cc="http://creativecommons.org/ns#"
   xmlns:rdf="http://www.w3.org/1999/02/22-rdf-syntax-ns#"
   xmlns:svg="http://www.w3.org/2000/svg"
   xmlns="http://www.w3.org/2000/svg"
   id="svg12"
   version="1.1"
   preserveAspectRatio="xMinYMin meet"
   viewBox="0 0 256 270"
   height="40"
   width="40">
  <metadata
     id="metadata18">
    <rdf:RDF>
      <cc:Work
         rdf:about="">
        <dc:format>image/svg+xml</dc:format>
        <dc:type
           rdf:resource="http://purl.org/dc/dcmitype/StillImage" />
        <dc:title></dc:title>
      </cc:Work>
    </rdf:RDF>
  </metadata>
  <defs
     id="defs16" />
  <path
     id="path2"
     fill="#B3B3B3"
     d="M127.606.341L.849 44.95 20.88 211.022l106.86 58.732 107.412-59.528L255.175 44.16 127.606.341z" />
  <path
     style="fill:#333333"
     id="path4"
     fill="#A6120D"
     d="M242.532 53.758L127.31 14.466v241.256l96.561-53.441 18.66-148.523z" />
  <path
     style="fill:#999999"
     id="path6"
     fill="#DD1B16"
     d="M15.073 54.466l17.165 148.525 95.07 52.731V14.462L15.074 54.465z" />
  <path
     id="path8"
     fill="#F2F2F2"
     d="M159.027 142.898L127.31 157.73H93.881l-15.714 39.305-29.228.54L127.31 23.227l31.717 119.672zm-3.066-7.467l-28.44-56.303-23.329 55.334h23.117l28.652.97z" />
  <path
     id="path10"
     fill="#B3B3B3"
     d="M127.309 23.226l.21 55.902 26.47 55.377h-26.62l-.06 23.189 36.81.035 17.204 39.852 27.967.518-81.981-174.873z" />
</svg>
