<?xml version="1.0" encoding="utf-8"?>
<!-- Generator: Adobe Illustrator 14.0.0, SVG Export Plug-In . SVG Version: 6.00 Build 43363)  -->
<!DOCTYPE svg PUBLIC "-//W3C//DTD SVG 1.1//EN" "http://www.w3.org/Graphics/SVG/1.1/DTD/svg11.dtd">
<svg version="1.1" id="Слой_1" xmlns="http://www.w3.org/2000/svg" xmlns:xlink="http://www.w3.org/1999/xlink" x="0px" y="0px"
	 width="566.93px" height="566.93px" viewBox="0 0 566.93 566.93" enable-background="new 0 0 566.93 566.93" xml:space="preserve">
<radialGradient id="SVGID_1_" cx="363.625" cy="948.2607" r="29.7482" gradientTransform="matrix(4.4291 0 0 1.9267 -1331.4299 -1549.3887)" gradientUnits="userSpaceOnUse">
	<stop  offset="0" style="stop-color:#000000"/>
	<stop  offset="1" style="stop-color:#000000;stop-opacity:0"/>
</radialGradient>
<path fill="url(#SVGID_1_)" d="M410.856,277.601c0,31.479-58.875,57.127-131.741,57.127c-72.865,0-131.74-25.648-131.74-57.127
	c0-31.477,58.875-57.126,131.74-57.126C351.981,220.475,410.856,246.124,410.856,277.601z"/>
<radialGradient id="SVGID_2_" cx="208.3872" cy="616.0566" r="31.3105" gradientTransform="matrix(7.8529 0 0 5.7446 -1404.4784 -3330.8433)" gradientUnits="userSpaceOnUse">
	<stop  offset="0" style="stop-color:#857C64"/>
	<stop  offset="1" style="stop-color:#221F19"/>
</radialGradient>
<path fill="url(#SVGID_2_)" stroke="#2F3537" stroke-miterlimit="10" d="M187.306,137.118c0,0,20.693,42.845,69.367,41.678
	c101.719-2.623,119.498-55.669,122.121-63.247c2.625-7.578,6.414-6.412,7.287,0.583c33.227,300.788-229.962,171.672-239.289,120.666
	c52.172-15.156,39.639-44.594,39.639-44.594L187.306,137.118z"/>
<linearGradient id="SVGID_3_" gradientUnits="userSpaceOnUse" x1="376.7021" y1="673.2734" x2="358.5673" y2="676.8717" gradientTransform="matrix(4.4291 0 0 4.4291 -1348.9768 -2722.3909)">
	<stop  offset="0" style="stop-color:#000000"/>
	<stop  offset="1" style="stop-color:#000000;stop-opacity:0"/>
</linearGradient>
<path fill="url(#SVGID_3_)" d="M225.778,264.195c48.674,9.618,73.449,0.582,87.73-10.493c-3.789-4.955-10.492-10.492-10.492-10.492
	s16.904,4.663,23.026,12.533c5.828,7.578,2.33,12.533,0.582,22.151c-3.498-8.744-9.91-11.95-10.784-15.447
	C303.016,280.808,270.663,279.935,225.778,264.195z"/>
<linearGradient id="SVGID_4_" gradientUnits="userSpaceOnUse" x1="349.4941" y1="605.0674" x2="408.0051" y2="671.4864">
	<stop  offset="0" style="stop-color:#FFFFFF"/>
	<stop  offset="1" style="stop-color:#FFFFFF;stop-opacity:0"/>
</linearGradient>
<path opacity="0.185" fill="none" stroke="url(#SVGID_4_)" stroke-miterlimit="10" enable-background="new    " d="M379.087,132.745
	c-4.08,6.704-10.201,14.574-19.236,22.442c-18.945,15.74-50.715,30.021-102.886,31.187c-30.604,0.875-50.131-13.99-62.082-27.105
	l-0.875,32.352c0.875,2.915,2.915,9.91-0.583,19.528c-3.789,10.202-15.447,20.985-35.85,28.855
	c1.749,3.789,3.498,7.578,9.036,12.824c7.286,7.287,17.779,15.157,30.021,22.151c24.482,13.99,56.252,25.066,85.981,25.65
	c29.729,0.582,56.544-9.035,75.196-36.142C374.423,239.42,384.042,197.159,379.087,132.745L379.087,132.745z"/>
<radialGradient id="SVGID_5_" cx="268.1279" cy="576.2988" r="5.7244" gradientTransform="matrix(7.4631 0 0 7.4631 -1790.0587 -4120.0195)" gradientUnits="userSpaceOnUse">
	<stop  offset="0" style="stop-color:#FFFFFF"/>
	<stop  offset="1" style="stop-color:#BABAB1"/>
</radialGradient>
<path fill="url(#SVGID_5_)" stroke="#898A85" stroke-width="0.783" stroke-miterlimit="10" d="M240.06,201.531
	c0,16.321-13.115,29.438-29.438,29.438c-16.322,0-29.438-13.116-29.438-29.438c0-16.323,13.116-29.438,29.438-29.438
	C226.944,172.093,240.06,185.5,240.06,201.531L240.06,201.531z"/>
<radialGradient id="SVGID_6_" cx="206.1099" cy="779.4863" r="7.8659" gradientTransform="matrix(3.53 -2.0374 2.3784 4.1235 -2437.3904 -2578.3362)" gradientUnits="userSpaceOnUse">
	<stop  offset="0" style="stop-color:#5B676B"/>
	<stop  offset="1" style="stop-color:#151718"/>
</radialGradient>
<path fill="url(#SVGID_6_)" stroke="#000000" stroke-miterlimit="10" d="M181.768,212.605c14.282,19.82,14.282,43.719,0.291,53.92
	c-13.99,10.201-36.724,2.332-51.005-17.488c-14.281-19.819-14.281-43.719-0.292-53.919
	C144.752,185.208,167.486,193.078,181.768,212.605z"/>
<path fill="#2F3537" stroke="#000000" stroke-width="1.174" stroke-miterlimit="10" d="M231.899,205.902
	c0,7.87-6.412,13.99-13.99,13.99c-7.87,0-13.99-6.413-13.99-13.99c0-7.578,6.412-13.99,13.99-13.99
	C225.487,191.912,231.899,198.033,231.899,205.902z"/>
<linearGradient id="SVGID_7_" gradientUnits="userSpaceOnUse" x1="157.6543" y1="774.5293" x2="156.9033" y2="793.7493">
	<stop  offset="0" style="stop-color:#FFFFFF"/>
	<stop  offset="1" style="stop-color:#FFFFFF;stop-opacity:0"/>
</linearGradient>
<path opacity="0.281" fill="none" stroke="url(#SVGID_7_)" stroke-miterlimit="10" enable-background="new    " d="M133.094,201.821
	c-4.373,3.207-6.996,9.036-6.704,17.196c0.292,7.87,3.207,17.488,9.91,26.232c6.412,8.452,14.864,14.281,22.442,16.612
	c7.578,2.333,13.698,1.75,18.362-1.748s6.995-9.619,6.995-17.488c0-7.87-3.206-17.487-9.618-25.94
	c-6.412-8.453-14.573-14.282-22.151-16.613C144.46,197.742,137.757,198.324,133.094,201.821L133.094,201.821z"/>
<path fill="#FFFFFF" d="M154.371,214.938c0,8.452-5.83,15.156-12.825,15.156c-6.995,0-12.824-6.704-12.824-15.156
	c0-8.453,5.83-15.157,12.824-15.157C148.832,199.781,154.371,206.485,154.371,214.938z M221.989,199.49
	c0,5.538-4.372,9.91-9.91,9.91c-5.537,0-9.91-4.372-9.91-9.91c0-5.537,4.373-9.91,9.91-9.91
	C217.618,189.58,221.989,193.953,221.989,199.49z"/>
<radialGradient id="SVGID_8_" cx="241.3706" cy="558.8418" r="5.724" gradientTransform="matrix(8.7608 0 0 8.7608 -1843.0773 -4715.3584)" gradientUnits="userSpaceOnUse">
	<stop  offset="0" style="stop-color:#FFFFFF"/>
	<stop  offset="1" style="stop-color:#BABAB1"/>
</radialGradient>
<path fill="url(#SVGID_8_)" stroke="#898A85" stroke-width="0.667" stroke-miterlimit="10" d="M305.93,204.736
	c0,18.945-15.448,34.393-34.392,34.393c-18.945,0-34.393-15.447-34.393-34.393c0-18.945,15.156-34.392,34.101-34.392
	S305.93,185.792,305.93,204.736z"/>
<path fill="#2F3537" stroke="#000000" stroke-miterlimit="10" d="M296.021,209.983c0,9.035-7.287,16.614-16.613,16.614
	c-9.036,0-16.613-7.287-16.613-16.614c0-9.327,7.287-16.613,16.613-16.613C288.442,193.37,296.021,200.656,296.021,209.983z"/>
<path fill="#FFFFFF" d="M284.653,202.113c0,6.412-5.246,11.367-11.367,11.367c-6.12,0-11.367-5.247-11.367-11.367
	c0-6.412,5.247-11.367,11.367-11.367C279.407,190.747,284.653,195.992,284.653,202.113z"/>
<g transform="matrix(-.115 -.39 .39 -.115 24.715 29.689)">
	
		<linearGradient id="SVGID_9_" gradientUnits="userSpaceOnUse" x1="-5576.0732" y1="3153.3967" x2="-5591.1577" y2="3140.2771" gradientTransform="matrix(0.7322 0 0 0.7322 3273.5134 -1712.0197)">
		<stop  offset="0" style="stop-color:#6D3E17"/>
		<stop  offset="0.242" style="stop-color:#EB8215"/>
		<stop  offset="0.621" style="stop-color:#5C3514"/>
		<stop  offset="1" style="stop-color:#E07D12"/>
	</linearGradient>
	<path fill="url(#SVGID_9_)" stroke="#673A16" stroke-width="2.461" stroke-linecap="round" d="M-900.108,636.333l26.816,25.065
		c60.333-46.052,123.289-144.856,123.289-144.856c14.281-16.031-0.876-27.106-15.739-17.199
		C-765.743,499.051-859.302,571.919-900.108,636.333z"/>
	
		<linearGradient id="SVGID_10_" gradientUnits="userSpaceOnUse" x1="-5740.4502" y1="3263.906" x2="-5734.4019" y2="3269.5034" gradientTransform="matrix(0.7322 0 0 0.7322 3286.3484 -1728.3182)">
		<stop  offset="0" style="stop-color:#BEBDBE"/>
		<stop  offset="0.333" style="stop-color:#E2E2E2"/>
		<stop  offset="0.667" style="stop-color:#A4A3A4"/>
		<stop  offset="1" style="stop-color:#DDDDDD"/>
	</linearGradient>
	<path fill="url(#SVGID_10_)" stroke="#898A85" stroke-width="2.461" stroke-linecap="round" d="M-951.403,703.074l16.322,13.992
		l61.207-53.045l2.042-4.957l7.867,0.001c-3.208-11.368-21.28-31.475-34.686-31.477l0.584,7.87l-4.954,2.621L-951.403,703.074z"/>
	<path fill="none" stroke="#FFFFFF" stroke-width="2.461" stroke-linecap="round" stroke-linejoin="round" d="M-903.313,671.015
		l-31.475,37.889"/>
	
		<radialGradient id="SVGID_11_" cx="-4160.7168" cy="1886.3478" r="12.3409" gradientTransform="matrix(1.1511 -5.757914e-004 -4.207519e-004 1.1226 3832.8101 -1415.1129)" gradientUnits="userSpaceOnUse">
		<stop  offset="0" style="stop-color:#6A6969"/>
		<stop  offset="1" style="stop-color:#000000"/>
	</radialGradient>
	<path fill="url(#SVGID_11_)" d="M-1058.66,774.777c75.196-0.002,132.611,9.03,143.397-45.762
		c8.746-44.301-51.879-65.283-82.19-25.938C-1026.599,740.967-1058.66,774.777-1058.66,774.777z"/>
	<path opacity="0.528" fill="#FFFFFF" enable-background="new    " d="M-921.968,730.474c0.002,10.202-8.45,18.652-18.652,18.654
		c-10.2-0.003-18.652-8.45-18.652-18.656c-0.003-10.197,8.45-18.652,18.652-18.654C-930.42,711.82-921.969,720.272-921.968,730.474z
		"/>
	<path fill="#FFFFFF" d="M-873.583,659.94c0,6.996-5.539,12.534-12.534,12.53c-6.996,0-12.533-5.534-12.534-12.53
		c0.004-6.995,5.539-12.534,12.533-12.535C-879.123,647.409-873.583,652.944-873.583,659.94z"/>
	
		<linearGradient id="SVGID_12_" gradientUnits="userSpaceOnUse" x1="-3719.801" y1="5972.1987" x2="-3728.7307" y2="5979.5752" gradientTransform="matrix(0.5529 0.2895 -0.2895 0.5529 2828.9578 -1470.3304)">
		<stop  offset="0" style="stop-color:#FFFFFF"/>
		<stop  offset="1" style="stop-color:#FFFFFF;stop-opacity:0"/>
	</linearGradient>
	<path opacity="0.428" fill="url(#SVGID_12_)" enable-background="new    " d="M-1009.699,761.37c0,0,26.822,0.582,44.014-10.204
		c6.119-3.785,11.074,4.668,3.498,7.872C-977.925,765.741-1009.699,761.37-1009.699,761.37z"/>
</g>
<linearGradient id="SVGID_13_" gradientUnits="userSpaceOnUse" x1="368.5859" y1="674.8945" x2="365.5996" y2="675.6138" gradientTransform="matrix(4.4291 0 0 4.4291 -1331.9846 -2723.9221)">
	<stop  offset="0" style="stop-color:#000000"/>
	<stop  offset="1" style="stop-color:#000000;stop-opacity:0"/>
</linearGradient>
<path fill="url(#SVGID_13_)" d="M278.241,276.144c10.783,1.166,20.693-2.04,24.482-3.497c0.583-4.08,3.789-11.658,14.865-12.241
	l-3.789-6.705c0,0-14.282,9.618-29.438,12.532L278.241,276.144z"/>
<g>
	<path fill="#1A1A19" d="M191.968,351.051l-13.99,81.025l26.231-0.584l-2.041,7.287l-26.231,1.166l-2.624,18.07l45.76-1.457
		l18.07-105.801L191.968,351.051z M207.416,412.258l-9.036,0.291l7.287-41.68l8.744-0.291L207.416,412.258z M241.809,368.83
		l18.071-0.293l-13.699,78.404h-17.196L241.809,368.83z M254.633,445.191l16.905-94.434l71.117,0.875l-16.322,93.559l-18.07,0.293
		l13.116-73.74l-8.161,0.291l-13.407,74.906h-18.363l13.117-75.488l-8.161-0.584l-12.824,74.615L254.633,445.191z M351.981,352.217
		L333.036,458.6h18.07l2.039-11.951l26.814-0.582l17.197-93.268L351.981,352.217L351.981,352.217z M365.097,427.996l-8.744,0.291
		l10.492-57.418l8.162-0.291L365.097,427.996z M246.472,342.016h17.488l-2.04,17.486h-18.362L246.472,342.016z"/>
</g>
</svg>
