<?xml version="1.0" encoding="utf-8"?>
<!-- Generator: Adobe Illustrator 14.0.0, SVG Export Plug-In . SVG Version: 6.00 Build 43363)  -->
<!DOCTYPE svg PUBLIC "-//W3C//DTD SVG 1.1//EN" "http://www.w3.org/Graphics/SVG/1.1/DTD/svg11.dtd">
<svg version="1.1" id="Слой_1" xmlns="http://www.w3.org/2000/svg" xmlns:xlink="http://www.w3.org/1999/xlink" x="0px" y="0px"
	 width="566.93px" height="566.93px" viewBox="0 0 566.93 566.93" enable-background="new 0 0 566.93 566.93" xml:space="preserve">
<path fill="#189388" d="M393.006,166.997c-0.902-2.424-3.604-3.649-6.029-2.746c-0.043,0.011-0.084,0.037-0.134,0.05
	c-1.722,0.711-2.832,2.385-2.825,4.241c0,0.506,0.128,1.164,0.252,1.677c4.539,12.125,6.841,24.965,6.813,37.913
	c0,54.618-40.737,99.732-93.425,106.668v-50.245c3.178-0.618,6.308-1.437,9.387-2.45v42.156
	c43.311-10.537,75.433-49.608,75.433-96.129c0-37.265-20.688-69.779-51.142-86.625c-2.234-1.236-5.046-0.438-6.298,1.793
	c-0.046,0.087-0.091,0.174-0.134,0.267c-0.382,0.637-0.506,1.416-0.506,2.058c0.01,1.708,0.953,3.278,2.449,4.106
	c27.622,15.299,46.259,44.728,46.259,78.4c0,37.909-23.516,70.285-56.797,83.396v-37.402c5.773-1.798,10.146-7.197,10.146-13.615
	c0-5.271-2.701-9.894-7.066-12.33c3.346-32.256,18.124-23.784,18.124-34.064v-6.045c0-15.424-35.725-65.674-52.433-66.823H282
	c-16.708,1.149-52.44,51.399-52.44,66.823v6.036c0,10.29,14.787,1.805,18.131,34.061c-4.439,2.442-7.072,7.063-7.072,12.33
	c0,6.432,4.439,11.823,10.152,13.618v37.399c-33.282-13.109-56.798-45.488-56.798-83.397c0-33.799,18.631-63.099,46.259-78.398
	c2.191-1.158,2.956-3.798,1.93-6.167c-0.779-1.674-2.446-2.565-4.241-2.565c-0.779,0-1.547,0.122-2.188,0.631
	c-30.588,16.844-51.145,49.224-51.145,86.623c0,46.529,32.128,85.588,75.432,96.123v-42.21c3.086,1.027,6.173,1.929,9.388,2.449
	v50.242c-52.809-6.938-93.428-52.047-93.428-106.665c0.003-12.944,2.308-25.78,6.813-37.916c0.899-2.305-0.251-5.014-2.573-5.916
	c-0.564-0.247-1.178-0.372-1.795-0.372c-1.983-0.013-3.758,1.219-4.436,3.08c-4.748,12.85-7.451,26.727-7.451,41.124
	c0,62.974,49.738,114.376,112.189,116.814v-59.168c1.674,0.129,4.751,0.129,4.751,0.129s3.083,0,4.747-0.129v59.248
	c62.458-2.442,112.194-53.855,112.194-116.82c-0.084-14.075-2.604-28.038-7.455-41.259H393.006z M304.992,233.697
	c1.791-1.795,4.113-2.822,6.813-2.822c2.697,0,5.01,1.027,6.808,2.822c1.802,1.805,2.829,4.117,2.829,6.814
	c0,2.694-1.027,5.02-2.829,6.814c-1.798,1.798-4.11,2.825-6.808,2.825c-2.7,0-5.022-1.027-6.813-2.825
	c-1.802-1.795-2.824-4.12-2.824-6.814C302.284,237.981,303.284,235.576,304.992,233.697z M261.927,247.312
	c-1.792,1.802-4.114,2.829-6.814,2.829c-2.697,0-5.009-1.027-6.807-2.829c-1.802-1.792-2.829-4.116-2.829-6.814
	c0-2.694,1.027-5.009,2.829-6.814c1.798-1.795,4.11-2.822,6.807-2.822c2.701,0,5.022,1.027,6.814,2.822
	c1.801,1.805,2.824,4.12,2.824,6.814C264.741,243.058,263.728,245.5,261.927,247.312z"/>
<path d="M109.472,393.955c-1.488-2.234-2.974-4.208-5.192-5.703c-3.793-2.96-8.486-4.535-13.298-4.463
	c-11.144,0-22.277,8.421-22.277,23.517c0,15.59,11.383,23.76,22.277,23.76c5.445,0,10.145-1.493,13.614-4.207
	c3.71-2.727,6.187-6.438,7.176-10.394H86.208v-11.144h41.825c0.252,4.453-0.495,11.627-2.978,17.319
	c-6.43,14.353-21.275,20.792-33.655,20.792c-20.543,0-36.38-15.832-36.38-36.135c0-20.543,16.337-35.637,36.627-35.637
	c15.589,0,29.205,9.9,33.911,22.522h-16.084V393.955z M137.93,372.915h12.128v10.892H137.93V372.915z M137.93,390.735h12.128v51.29
	H137.93V390.735z M166.394,400.138h-8.421v-9.402h8.421v-17.82h12.128v17.82h8.66v9.402h-8.66v41.828h-12.128V400.138z
	 M197.58,372.905h13.937v31.934l22.768-31.934h14.601l-25.001,34.406l27.468,34.654h-17.077l-23.02-30.943v30.943h-13.917v-69.051
	L197.58,372.905z M257.971,390.735h11.625v6.683c2.23-4.466,6.435-8.236,14.112-8.422v12.367h-0.497
	c-8.663,0-12.86,3.958-12.86,12.87v27.716h-12.136v-51.295L257.971,390.735z M341.871,442.025h-12.186v-7.431
	c-3.218,5.942-10.143,8.912-17.322,8.912c-16.339,0-25.991-12.87-25.991-27.227c0-16.084,11.632-27.237,25.991-27.237
	c9.401,0,15.095,4.962,17.322,9.167v-7.435h12.125L341.871,442.025z M298.554,416.531c0,6.439,4.459,15.591,15.592,15.591
	c6.925,0,11.39-3.461,13.614-8.236c1.238-2.228,1.731-4.7,1.979-7.173c0.015-2.463-0.492-4.912-1.482-7.174
	c-2.228-4.948-6.928-9.151-14.359-9.151c-9.646,0-15.343,8.229-15.343,16.077V416.531z M355.231,372.915h12.125v37.372l17.57-19.552
	h14.604l-21.271,22.524l21.271,28.706H385.42l-18.372-25.488v25.488h-12.129v-69.051H355.231z M421.064,429.587
	c6.432,5.193,14.601,2.978,19.305-1.98c4.207-4.459,4.959-9.155,3.469-13.614l8.667-9.153c2.533,5.694,2.973,11.377,2.224,16.337
	c-0.741,5.189-3.214,9.894-6.925,13.61c-10.896,11.385-27.971,10.892-38.365,0.99c-10.636-9.9-12.121-26.981-1.486-38.358
	c5.198-5.455,11.881-8.422,18.806-8.422c8.911,0,16.339,3.707,22.28,10.637L421.064,429.587z M434.17,402.118
	c-3.959-2.977-12.378-3.958-18.313,2.721c-6.184,6.685-4.952,14.604-1.49,18.559L434.17,402.118z M464.885,390.735h11.377v6.93
	c2.231-3.958,6.932-8.423,15.83-8.423c16.597,0,19.808,12.861,19.808,22.031v30.941h-12.126v-27.724
	c0-7.673-2.536-13.61-11.146-13.61c-8.611,0-11.638,5.938-11.638,13.105v28.215h-12.105V390.735z"/>
</svg>
