<?xml version="1.0" encoding="utf-8"?>
<!-- Generator: Adobe Illustrator 14.0.0, SVG Export Plug-In . SVG Version: 6.00 Build 43363)  -->
<!DOCTYPE svg PUBLIC "-//W3C//DTD SVG 1.1//EN" "http://www.w3.org/Graphics/SVG/1.1/DTD/svg11.dtd">
<svg version="1.1" id="Слой_1" xmlns="http://www.w3.org/2000/svg" xmlns:xlink="http://www.w3.org/1999/xlink" x="0px" y="0px"
	 width="566.93px" height="566.93px" viewBox="0 0 566.93 566.93" enable-background="new 0 0 566.93 566.93" xml:space="preserve">
<radialGradient id="SVGID_1_" cx="-183.918" cy="238.1865" r="0.0668" gradientTransform="matrix(2291.6716 0 0 -2218.7549 421721.25 528645.3125)" gradientUnits="userSpaceOnUse">
	<stop  offset="0" style="stop-color:#433425;stop-opacity:0.98"/>
	<stop  offset="1" style="stop-color:#1A0E08"/>
</radialGradient>
<path fill="url(#SVGID_1_)" d="M175.932,124.1h201.066v195.582H175.932V124.1z"/>
<path fill="#EE7D27" d="M175.932,124.1h201.066v195.582H175.932V124.1z M166.793,328.821h219.344V114.96H166.793V328.821z
	 M310.462,191.183c0-0.731,0.274-1.097,1.098-1.097h14.35c0.73,0,1.096,0.274,1.096,1.097v72.11c0,0.73-0.182,1.096-1.096,1.096
	h-14.166c-0.914,0-1.189-0.457-1.189-1.188v-72.018H310.462L310.462,191.183z M309.458,170.436c0-5.849,4.112-9.322,9.322-9.322
	c5.574,0,9.321,3.747,9.321,9.322c0,6.032-3.93,9.322-9.504,9.322C313.296,179.758,309.458,176.468,309.458,170.436z
	 M268.331,221.251c-2.559-10.146-8.591-32.262-10.876-42.956h-0.183c-1.919,10.693-6.763,28.789-10.602,42.956H268.331z
	 M242.923,236.057l-7.22,27.418c-0.183,0.731-0.457,0.914-1.371,0.914h-13.435c-0.914,0-1.097-0.274-0.914-1.371l25.955-90.844
	c0.458-1.646,0.731-3.108,0.914-7.586c0-0.64,0.275-0.914,0.731-0.914h19.193c0.639,0,0.914,0.183,1.096,0.914l29.063,98.614
	c0.184,0.73,0,1.188-0.73,1.188h-15.172c-0.73,0-1.188-0.182-1.37-0.822l-7.495-27.51H242.923L242.923,236.057z"/>
<g transform="translate(0.000000,85.000000) scale(0.100000,-0.100000)">
	<path fill="#BF5F1E" d="M2618.286-3252.021v-366.806h54.063h54.048v366.806v366.807h-54.048h-54.063V-3252.021z"/>
	<path fill="#BF5F1E" d="M2767.978-3252.021v-366.806h54.043h54.063v366.806v366.807h-54.063h-54.043V-3252.021z"/>
	<path fill="#BF5F1E" d="M2468.608-3272.969v-345.859h54.053h54.053v345.859v345.84h-54.053h-54.053V-3272.969z"/>
	<path fill="#BF5F1E" d="M1138.076-3102.158c0-115.283-0.835-120.518-14.971-104.795c-21.621,25.156-78.994,37.725-118.916,27.256
		c-47.393-13.643-71.509-36.68-97.285-92.236c-19.131-41.924-22.461-59.736-22.461-132.041c0-73.359,3.33-90.127,23.291-134.15
		c46.563-99.56,155.498-123.662,220.361-47.158l18.296,22.002v-27.246c0-26.211,2.495-28.301,34.102-28.301h34.917l-5.815,39.834
		c-2.5,20.957-4.99,164.531-4.99,319.638v279.814h-33.267h-33.262V-3102.158z M1106.479-3271.933
		c27.441-30.391,27.441-31.436,27.441-126.816c0-95.352,0-96.416-27.441-126.787c-55.718-62.9-129.727-27.265-151.348,73.35
		C924.355-3306.513,1027.475-3182.851,1106.479-3271.933z"/>
	<path fill="#BF5F1E" d="M1620.395-3299.179v-319.648h29.102c23.281,0,29.106,4.199,29.106,20.957c0,26.211,4.16,26.211,34.927-2.09
		c30.771-27.256,93.97-36.689,133.882-19.912c37.422,15.723,84.824,81.748,96.47,134.15c23.286,103.74-2.495,237.91-53.227,279.824
		c-52.383,42.959-137.207,39.824-176.294-6.299l-19.121-22.002v126.807v127.852h-37.422h-37.422V-3299.179z M1829.121-3258.301
		c66.523-42.979,75.674-206.465,14.971-270.4c-38.262-40.859-83.989-37.715-120.581,8.389
		c-26.611,33.535-28.271,39.824-28.271,110.049c0,85.928,13.306,128.906,48.228,151.963
		C1772.573-3237.344,1798.349-3237.344,1829.121-3258.301z"/>
	<path fill="#BF5F1E" d="M3639.472-3007.832c-39.922-14.678-39.922-15.723-39.922-60.781c0-45.068,0-45.068-32.441-49.268
		c-17.451-2.1-40.732,0-51.543,3.145c-34.912,12.578-115.596,9.434-143.018-5.244c-35.762-18.857-69.033-69.16-75.684-115.273
		c-10.82-72.314,31.611-142.529,105.605-175.01c35.752-15.723,64.043-45.078,64.043-67.07c0-45.068-70.703-62.881-130.576-31.445
		c-16.621,8.379-30.752,14.678-31.602,13.613c-4.98-10.479-21.602-95.361-19.111-98.506c4.98-6.289,100.615-35.635,116.416-35.635
		c43.252,0,102.275,26.191,129.727,56.602c23.281,28.281,29.092,42.959,32.422,85.927c7.5,89.072-19.111,132.051-108.096,177.119
		c-22.451,11.523-46.572,31.445-53.223,44.014c-10.801,19.912-9.971,25.146,5,44.023c19.941,25.146,49.893,27.246,94.805,7.334
		c16.611-8.389,30.752-10.488,30.752-5.244s14.961,9.434,33.281,9.434h33.242v-146.729c0-202.256,14.131-242.08,94.814-266.191
		c12.48-4.199,39.922-4.199,59.873,0l36.592,6.279v51.367v51.347h-32.441c-49.072,0-54.043,14.678-58.213,169.775l-2.49,134.15
		h49.902c40.732,0,50.723,3.145,54.033,18.867c2.51,9.434,4.17-82.793,5.01-204.365l0.811-223.232h49.912h49.893v149.873
		c0,97.451,4.141,157.197,10.801,173.965c16.641,40.879,48.232,62.891,93.135,64.98c23.291,1.055,57.393,8.389,77.354,15.723
		c49.893,20.947,87.295,17.813,113.086-7.334c39.072-38.779,29.102-55.547-41.572-70.215
		c-111.436-22.021-164.668-79.668-164.668-179.229c0-96.406,49.072-152.998,129.736-151.953
		c37.432,1.045,54.893,7.334,81.484,29.346l33.281,27.256v-26.211c0-25.166,2.48-26.201,48.223-26.201h47.402l-1.65,81.748
		c-1.67,44.023-3.34,129.951-4.99,190.742c-2.51,134.141-20.811,186.533-76.514,220.078
		c-41.572,25.156-116.426,27.246-175.479,5.234c-22.451-8.379-41.572-15.713-42.402-15.713c-1.67,0-2.5,7.334-2.5,15.713
		c0,11.523-9.131,15.723-29.111,15.723c-37.402,0-72.344-22.002-94.795-59.736l-16.621-29.336l-0.84,39.814v38.779h-95.635h-95.635
		v62.871C3699.336-2982.676,3700.176-2983.73,3639.472-3007.832z M4229.052-3427.041c-3.311-36.68-9.971-55.537-26.592-73.359
		c-27.441-30.381-70.684-31.436-90.654-4.189c-37.422,52.402,12.48,126.807,84.824,126.807h37.412L4229.052-3427.041z"/>
	<path fill="#BF5F1E" d="M4421.162-3007.832c-39.932-14.678-39.932-14.678-39.932-61.836c0-46.113,0-46.113-29.102-46.113
		s-29.102,0-29.102-47.158s0-47.158,29.102-47.158h29.102v-151.963c0-165.586,7.5-208.554,42.422-236.845
		c27.451-23.066,67.354-31.445,111.426-23.066l37.432,6.289v50.313v51.347h-32.441c-51.543,0-59.043,22.012-59.043,175.01v128.916
		h45.732h45.752v47.158v47.158h-45.752h-45.732v62.871C4481.025-2982.676,4481.865-2983.73,4421.162-3007.832z"/>
	<path fill="#BF5F1E" d="M639.126-3037.177c-4.155-14.678-39.907-143.574-78.164-286.113
		c-39.092-143.564-73.184-268.291-76.509-277.724c-4.155-14.668,0.83-17.813,31.606-17.813h36.582l24.116,94.326l24.116,95.361
		l83.159-3.145l82.324-3.135l24.946-91.182l24.121-92.226h36.587c19.961,0,36.592,1.035,36.592,3.145
		c0,1.055-36.592,136.24-81.494,300.781l-81.499,298.691l-39.077,3.135C650.767-3009.922,646.611-3012.021,639.126-3037.177z
		 M719.79-3249.922c15.801-59.736,27.446-110.039,24.946-113.184c-1.66-3.154-31.597-4.199-65.693-2.1l-61.538,3.145l33.262,131.006
		c19.136,72.314,34.932,121.553,36.592,110.029C689.028-3132.539,703.989-3190.176,719.79-3249.922z"/>
	<path fill="#BF5F1E" d="M4676.445-3121.025c-78.164-37.715-120.576-123.652-120.576-246.279
		c0-163.477,72.354-255.713,201.24-254.668c134.736,0,216.23,135.195,194.59,320.693c-7.471,62.891-45.723,133.096-88.965,164.541
		C4817.832-3105.302,4725.527-3097.959,4676.445-3121.025z M4807.841-3228.955c53.232-58.691,51.563-208.574-3.32-273.545
		c-29.941-34.58-78.164-30.381-108.105,10.488c-27.451,36.67-35.771,82.793-30.762,157.188
		C4674.794-3223.711,4752.128-3166.074,4807.841-3228.955z"/>
	<path fill="#BF5F1E" d="M5124.677-3115.781c-9.141-4.199-27.441-23.057-39.082-41.914l-22.451-33.535v37.725v37.725h-45.752
		h-45.713v-251.523v-251.523h54.033h54.063v151.972c0,195.977,14.141,235.801,82.334,235.801h25.771v62.871
		c0,61.836,0,62.881-22.451,61.836C5152.119-3106.347,5134.648-3110.547,5124.677-3115.781z"/>
	<path fill="#BF5F1E" d="M2911.006-3301.279c4.17-206.455,10.82-241.035,54.893-288.203c48.223-51.348,131.367-47.168,183.779,8.389
		l24.951,26.201l2.49-29.346c2.48-27.256,4.98-29.346,46.563-32.5l43.242-3.135v251.523v252.568h-49.893h-49.893v-150.918
		c0-83.838-3.34-163.486-7.49-177.1c-18.281-58.701-69.023-86.982-108.936-59.746c-25.762,16.768-33.252,70.225-33.252,231.611
		v156.152h-54.902h-54.873L2911.006-3301.279z"/>
	<path fill="#BF5F1E" d="M1375.078-3177.617c-79.004-25.146-128.896-113.184-128.896-226.357
		c0-143.584,78.174-236.855,187.109-222.197c59.038,7.344,98.125,38.789,127.227,99.57c19.126,41.924,22.451,60.781,22.451,127.852
		c0,64.98-3.325,86.992-20.786,123.672C1528.086-3199.609,1444.097-3155.595,1375.078-3177.617z M1465.723-3263.535
		c32.422-31.455,46.567-74.424,46.567-137.305c0-70.225-20.796-121.563-60.703-147.763c-25.781-16.768-34.927-17.813-59.873-7.334
		c-69.858,29.336-95.64,141.474-56.553,249.424C1358.447-3243.633,1424.141-3221.621,1465.723-3263.535z"/>
	<path fill="#BF5F1E" d="M2091.904-3178.662c-104.78-24.102-160.503-206.455-105.615-345.84
		c8.315-19.922,21.621-45.058,30.771-54.492c41.582-47.178,121.406-62.9,198.75-38.799c32.427,10.488,37.417,15.732,33.262,34.6
		c-2.5,12.578-4.99,28.301-4.99,35.635c0,7.344-3.325,11.533-7.485,7.344c-4.16-3.154-25.776-9.434-48.232-14.678
		c-79.004-18.867-138.042,18.867-152.178,96.416l-6.65,38.779h119.746h119.746v54.492
		C2269.028-3233.164,2195.849-3155.595,2091.904-3178.662z M2180.049-3274.023c12.471-16.777,22.451-41.934,22.451-56.602
		c0-26.201,0-26.201-83.154-26.201c-70.688,0-83.159,2.1-83.159,16.758c0,29.355,27.437,76.533,53.218,93.291
		C2122.671-3225.82,2150.942-3234.199,2180.049-3274.023z"/>
</g>
</svg>
