<?xml version="1.0" encoding="utf-8"?>
<!-- Generator: Adobe Illustrator 14.0.0, SVG Export Plug-In . SVG Version: 6.00 Build 43363)  -->
<!DOCTYPE svg PUBLIC "-//W3C//DTD SVG 1.1//EN" "http://www.w3.org/Graphics/SVG/1.1/DTD/svg11.dtd">
<svg version="1.1" id="Слой_1" xmlns="http://www.w3.org/2000/svg" xmlns:xlink="http://www.w3.org/1999/xlink" x="0px" y="0px"
	 width="566.93px" height="566.93px" viewBox="0 0 566.93 566.93" enable-background="new 0 0 566.93 566.93" xml:space="preserve">
<radialGradient id="SVGID_1_" cx="-183.9185" cy="238.1899" r="0.0668" gradientTransform="matrix(2291.6716 0 0 -2218.7549 421721.25 528645.3125)" gradientUnits="userSpaceOnUse">
	<stop  offset="0" style="stop-color:#4C2C37;stop-opacity:0.98"/>
	<stop  offset="1" style="stop-color:#220713"/>
</radialGradient>
<path fill="url(#SVGID_1_)" d="M174.933,116.101h201.063v195.58H174.933V116.101z"/>
<path fill="#E7488A" d="M174.933,116.101h201.063v195.58H174.933V116.101z M165.793,320.82h219.343V106.96H165.793V320.82z
	 M304.527,195.794c-1.371-0.639-3.199-0.914-5.393-0.914c-11.789,0-20.015,9.048-20.015,24.128c0,17.182,8.407,24.127,18.917,24.127
	c2.285,0,4.662-0.274,6.49-1.097V195.794z M299.684,180.897c1.92,0,3.016,0,4.844,0.183v-24.31c0-0.64,0.457-0.914,0.914-0.914
	h14.805c0.73,0,0.914,0.273,0.914,0.731v85.452c0,2.559,0,5.758,0.457,9.23c0,0.64-0.184,0.731-0.822,1.097
	c-7.859,3.748-16.176,5.393-23.945,5.393c-20.197,0-34.637-12.521-34.637-38.02C262.122,197.897,276.561,180.897,299.684,180.897
	L299.684,180.897z M246.036,255.2c0,0.913-0.183,1.188-1.188,1.188h-14.074c-0.914,0-1.188-0.457-1.188-1.188v-98.157
	c0-0.914,0.457-1.188,1.188-1.188h14.166c0.73,0,1.097,0.274,1.097,1.097V255.2z"/>
<path fill="#E7488A" d="M75.332,418.829l3.46,19.6h9.802l-14.069-66.995H61.841L47.89,438.429h9.688l3.345-19.6H75.332
	L75.332,418.829z M74.177,412.139H62.071l3.115-17.066c0.921-5.535,1.843-10.954,2.651-17.412h0.461
	c0.924,6.573,1.845,11.879,2.767,17.412L74.177,412.139L74.177,412.139z M113.382,434.741v3.688h8.879v-63.076h-8.879v20.411h-0.23
	c-2.421-2.422-5.418-4.612-9.57-4.612c-8.303,0-14.299,7.727-14.299,24.215c0,15.339,4.727,24.099,14.415,24.099
	c4.842,0,7.612-2.651,9.572-4.724H113.382z M106.006,432.78c-4.497,0-7.497-5.418-7.497-17.184c0-11.876,2.767-17.643,7.497-17.643
	c2.997,0,5.534,2.771,7.379,5.537v23.18C112,429.781,109.579,432.78,106.006,432.78z M160.086,415.366
	c0-18.679-7.612-24.215-16.721-24.215s-16.606,5.536-16.606,24.215c0,16.027,5.076,24.099,16.606,24.099
	c11.188,0,16.49-8.188,16.49-24.099H160.086z M143.366,433.584c-4.267,0-7.494-4.495-7.494-18.221
	c0-13.721,3.46-18.217,7.379-18.217s7.379,4.381,7.379,18.332c0,12.915-3,18.221-7.264,18.221V433.584z M164.583,438.429h8.878
	l-0.115-3.688h0.115c2.191,2.069,4.96,4.724,9.688,4.724c10.148,0,14.297-10.027,14.297-24.099c0-16.488-5.994-24.215-14.067-24.215
	c-4.5,0-7.381,2.306-9.918,4.728h-0.115v-20.526h-8.994L164.583,438.429z M173.347,403.491c1.842-2.883,4.382-5.537,7.379-5.537
	c4.612,0,7.379,5.651,7.379,17.643c0,11.42-2.998,17.299-7.494,17.299c-3.688,0-5.997-3.228-7.379-6.109L173.347,403.491z
	 M232.387,416.866c0-8.994-1.5-15.915-4.96-20.643c-2.767-3.46-6.343-5.074-10.609-5.074c-4.845,0-8.418,1.73-11.185,4.957
	c-3.23,4.036-4.845,10.608-4.845,18.914c0,9.572,1.73,15.567,4.612,19.37c3,3.923,7.263,5.192,11.53,5.192
	c4.845,0,8.303-1.502,10.839-3.924c2.652-2.536,4.152-5.764,4.842-8.761l-9.108-0.352c-1.155,4.961-3.112,7.497-6.343,7.497
	c-3.918,0-6.917-3.918-7.148-17.178H232.387L232.387,416.866z M210.018,412.139c0.345-12.685,3.69-15.451,6.803-15.451
	c3.46,0,6.112,4.843,6.573,15.566L210.018,412.139z M235.848,397.376h1.036v-1.958h0.461l1.154,1.958h1.039l-1.154-2.073
	c0.46-0.115,1.037-0.46,1.037-1.154c0.002-0.423-0.216-0.816-0.576-1.039c-0.23-0.229-0.691-0.346-1.615-0.346h-1.385v4.612H235.848
	L235.848,397.376z M236.884,393.455h0.346c0.576,0,1.039,0.114,1.039,0.693c0,0.346-0.345,0.691-0.806,0.691h-0.579V393.455
	L236.884,393.455z M237.463,391.151c-2.306,0-4.037,1.73-4.037,3.921c0,2.188,1.73,3.918,4.037,3.918
	c2.19,0,3.921-1.729,3.921-3.918C241.384,392.881,239.653,391.151,237.463,391.151L237.463,391.151z M237.463,391.842
	c1.73,0,3.112,1.386,3.112,3.23c0,1.843-1.384,3.228-3.112,3.228c-1.742,0.043-3.188-1.336-3.23-3.078
	c-0.001-0.05-0.001-0.1,0-0.149C234.232,393.228,235.617,391.842,237.463,391.842z M268.71,438.429v-66.995h-9.457v66.995H268.71z
	 M309.067,438.429v-32.865c0-5.303-0.922-8.764-2.646-11.069c-1.846-2.306-4.73-3.345-8.192-3.345c-2.422,0-4.846,0.69-6.801,1.844
	c-1.961,1.155-3.924,2.768-5.764,4.268h-0.352l0.236-5.075h-8.996v46.24h8.996v-33.898c1.497-1.961,3.228-3.69,4.724-4.73
	c1.504-0.922,2.998-1.499,4.501-1.499c2.075,0,3.112,0.921,3.918,2.075c1.042,1.73,1.272,4.843,1.272,8.533v29.635L309.067,438.429
	L309.067,438.429z M329.939,438.429c15.911,0,22.374-10.147,22.374-33.672c0-25.368-7.957-33.323-22.603-33.323h-14.066v66.995
	H329.939L329.939,438.429z M325.102,431.859v-53.856h4.726c8.996,0,12.799,8.304,12.799,26.869c0,20.643-4.379,26.866-12.684,26.866
	L325.102,431.859z M387.367,416.866c0-8.994-1.497-15.915-4.96-20.643c-2.767-3.46-6.455-5.074-10.725-5.074
	c-4.729,0-8.418,1.73-11.068,4.957c-3.343,4.036-4.961,10.608-4.961,18.914c0,9.572,1.73,15.567,4.614,19.37
	c3.113,3.923,7.382,5.192,11.53,5.192c4.961,0,8.423-1.502,10.959-3.924c2.531-2.536,4.034-5.764,4.726-8.761l-9.106-0.352
	c-1.157,4.961-3.112,7.497-6.345,7.497c-3.918,0-6.915-3.918-7.146-17.178H387.367L387.367,416.866z M364.883,412.139
	c0.346-12.685,3.688-15.451,6.915-15.451c3.349,0,6,4.843,6.461,15.566L364.883,412.139z M413.888,400.951
	c-0.23-2.767-1.382-5.075-3.112-6.688c-2.075-1.96-5.076-3.114-8.875-3.114c-3.579,0-6.346,1.036-8.539,3.114
	c-2.186,1.96-3.458,5.19-3.458,8.879c0,2.766,0.697,5.533,2.076,7.609c1.502,2.421,3.572,4.151,6.574,6.111
	c2.767,1.618,4.61,2.882,5.649,4.614c0.921,1.497,1.496,3.228,1.496,4.84c0,2.771-0.46,4.614-1.036,5.77
	c-0.806,1.268-1.844,1.955-3.111,1.955c-2.075,0-3.578-1.728-3.924-4.955l-8.188,0.23c0.345,3.343,1.845,6.225,4.153,7.842
	c2.186,1.728,5.071,2.422,8.303,2.422c4.149,0,7.381-1.618,9.683-4.154c2.191-2.422,3.232-5.879,3.232-9.804
	c0-3.803-1.041-6.339-2.421-8.071c-1.388-2.306-3.809-4.267-6.921-6.343c-3.112-2.075-4.5-2.884-5.418-4.381
	c-1.02-1.28-1.589-2.861-1.617-4.498c0-1.96,0.466-3.46,1.155-4.496c0.576-0.691,1.613-1.27,2.653-1.27
	c2.305,0,3.456,2.306,3.688,4.497L413.888,400.951z M428.765,382.733v-7.727h-8.875v7.727H428.765z M428.765,392.188h-8.875v46.24
	h8.875V392.188z M458.975,395.304h-0.115c-2.075-2.537-5.186-4.152-8.991-4.152c-9.917,0-15.224,8.072-15.224,24.215
	c0,15.682,5.303,23.984,14.994,23.984c4.498,0,7.381-1.843,9.105-3.688h0.23v1.846c0,7.146-0.576,11.645-1.955,14.296
	c-1.272,2.191-3.343,3.228-5.304,3.228c-1.845,0-3.463-0.576-4.614-1.842c-1.152-1.158-1.846-2.772-2.307-5.654l-9.11,0.581
	c1.041,4.609,3.117,7.612,5.538,9.452c2.996,2.42,6.686,3.227,10.379,3.227c5.302,0,9.566-1.727,12.218-5.185
	c2.882-4.039,4.039-9.342,4.039-18.801v-44.853h-8.882v3.347H458.975z M443.874,415.366c0-11.991,2.651-17.524,8.303-17.524
	c2.996,0,5.303,2.076,6.686,4.497v25.483c-1.498,2.422-3.689,4.501-6.916,4.501c-5.074,0-8.188-6.23-8.188-16.955h0.115V415.366z
	 M506.37,438.429v-32.865c0-5.303-0.922-8.764-2.652-11.069c-1.843-2.306-4.724-3.345-8.188-3.345c-2.421,0-4.84,0.69-6.8,1.844
	c-1.96,1.155-3.924,2.768-5.764,4.268h-0.351l0.229-5.075h-8.99v46.24h8.99v-33.898c1.503-1.961,3.233-3.69,4.73-4.73
	c1.502-0.922,2.997-1.499,4.499-1.499c2.076,0,3.112,0.921,3.924,2.075c1.036,1.73,1.267,4.843,1.267,8.533v29.635L506.37,438.429
	L506.37,438.429z M512.484,391.382h-3.694v0.807h1.272v5.306h1.037v-5.306h1.387v-0.807H512.484z M515.711,396.224
	c-0.229-0.806-0.345-1.614-0.576-2.42l-0.58-2.422h-1.726v6.112h1.037v-2.539c0-0.807,0-1.615-0.115-2.651h0.115
	c0.23,0.921,0.345,1.845,0.576,2.651l0.696,2.539h1.151l0.576-2.539c0.229-0.807,0.466-1.615,0.696-2.651v5.19h1.036v-6.112h-1.729
	l-0.576,2.422c-0.23,0.806-0.347,1.614-0.576,2.536v-0.116H515.711L515.711,396.224z"/>
</svg>
