<?xml version="1.0" encoding="utf-8"?>
<!-- Generator: Adobe Illustrator 14.0.0, SVG Export Plug-In . SVG Version: 6.00 Build 43363)  -->
<!DOCTYPE svg PUBLIC "-//W3C//DTD SVG 1.1//EN" "http://www.w3.org/Graphics/SVG/1.1/DTD/svg11.dtd">
<svg version="1.1" id="Слой_1" xmlns="http://www.w3.org/2000/svg" xmlns:xlink="http://www.w3.org/1999/xlink" x="0px" y="0px"
	 width="566.93px" height="566.93px" viewBox="0 0 566.93 566.93" enable-background="new 0 0 566.93 566.93" xml:space="preserve">
<g id="g7498">
	<path id="path7131" d="M90.074,446.781c-0.182-7.447-0.272-11.623-0.272-19.16
		s0-11.986,0.272-19.615c0.182-7.535,1.453-7.809,7.809-8.262c0.545-0.545,0.545-1.545,0-2.09c-3.36,0.182-8.99,0.455-11.714,0.455
		s-8.899-0.273-11.805-0.455c-0.545,0.545-0.545,1.545,0,2.09c6.356,0.545,7.809,0.727,7.991,8.262
		c0.182,7.537,0.272,11.986,0.272,19.523s-0.091,11.715-0.272,19.252c-0.182,7.535-1.634,7.99-7.991,8.262
		c-0.545,0.545-0.545,1.545,0,2.09c3.542-0.182,9.081-0.455,11.805-0.455s7.991,0.182,11.714,0.455c0.545-0.545,0.545-1.545,0-2.09
		C91.526,454.771,90.255,454.316,90.074,446.781L90.074,446.781z"/>
	<path id="path7133" d="M152.563,409.006l0.091,31.51c0,1.725-0.454,2.723-1.09,2.723
		c-0.726,0-1.725-1.635-4.358-4.994l-31.146-40.135l-11.714-0.182c-0.545,0.545-0.545,1.543,0,2.088
		c4.358,0.273,6.628,3.178,7.627,6.719l-0.091,39.047c0,8.082-1.543,8.627-7.9,9.262c-0.545,0.545-0.545,1.545,0,2.09
		c4.449-0.092,5.993-0.455,9.807-0.455c3.814,0,5.176,0.363,9.716,0.455c0.545-0.545,0.545-1.545,0-2.09
		c-6.356-0.635-7.9-0.998-7.9-9.262l-0.091-28.967c0-3.088,0.454-4.449,1.18-4.449c0.545,0,1.544,0.998,3.087,2.996l31.691,40.045
		c0.999,1.363,2.179,2.18,3.632,2.18c1.271,0,1.09-1.09,1.09-2.814l0.091-45.766c0-8.082,1.543-8.627,7.9-9.262
		c0.545-0.545,0.545-1.545,0-2.09c-4.449,0.092-5.993,0.455-9.807,0.455c-3.813,0-5.176-0.363-9.716-0.455
		c-0.545,0.545-0.545,1.545,0,2.09C151.02,400.379,152.563,400.742,152.563,409.006L152.563,409.006z"/>
	<path id="path7135" d="M185.135,446.781c-0.182-7.266-0.272-11.441-0.272-18.615
		c3.178,0.09,6.356,1.543,8.263,3.904l14.256,17.979c1.816,2.361,3.087,5.086,3.269,6.539c0,0.271,0.091,0.545,0.454,0.545
		c1.816-0.092,1.634-0.455,4.358-0.455c3.542,0,5.812,0.363,10.08,0.455c0.545-0.545,0.545-1.545,0-2.09
		c-1.635-0.271-5.812-1.18-8.899-4.994l-19.886-23.609c-0.727-0.816-1.181-1.543-1.181-2.27c0-0.635,0.091-1.271,3.178-4.449
		l13.349-13.711c4.177-4.451,8.717-5.813,12.349-6.266c0.545-0.545,0.545-1.545,0-2.09c-4.268,0.092-5.902,0.455-9.534,0.455
		c-3.632,0-6.447-0.363-10.715-0.455c-0.545,0.545-0.545,1.545,0,2.09c3.269,0.271,7.174,1.814,3.451,5.902l-14.529,15.98
		c-1.907,2.088-4.903,3.723-8.263,3.996c0-6.357,0.091-10.715,0.272-17.617c0.182-7.535,1.543-7.99,7.9-8.262
		c0.545-0.545,0.545-1.545,0-2.09c-4.449,0.092-7.264,0.455-11.896,0.455c-4.54,0-7.083-0.363-11.623-0.455
		c-0.545,0.545-0.545,1.545,0,2.09c6.356,0.271,7.628,0.725,7.81,8.262c0.181,7.537,0.363,11.986,0.363,19.523
		s-0.182,11.715-0.363,19.252c-0.182,7.535-1.453,7.99-7.81,8.262c-0.545,0.545-0.545,1.545,0,2.09
		c4.45-0.092,7.174-0.455,11.805-0.455c4.541,0,7.174,0.363,11.714,0.455c0.545-0.545,0.545-1.545,0-2.09
		C186.679,454.771,185.317,454.316,185.135,446.781L185.135,446.781z"/>
	<path id="path7137" d="M262.182,399.381c-5.267-0.727-4.994-2.453-13.893-2.453
		c-9.171,0-17.253,6.084-17.253,15.709c0,8.537,5.993,12.623,13.076,15.619c5.721,2.543,15.164,4.541,15.164,14.893
		c0,7.355-4.358,12.076-11.532,12.076c-8.536,0-14.892-4.721-16.89-13.801c-1.09-0.363-1.181-0.182-1.998,0.271
		c0.363,6.992,0.726,9.354,1.816,13.803c5.721,0,8.172,2.088,16.254,2.088c4.177,0,8.082-0.998,11.26-2.906
		c5.176-3.268,8.536-8.898,8.536-14.709c0-8.627-5.902-12.713-12.531-15.529c-4.358-1.814-16.89-5.357-16.89-14.256
		c0-5.084,4.813-11.078,10.079-11.078c8.899,0,12.622,6.539,14.438,12.531c0.999,0,1.181,0.092,1.998-0.545
		C263.544,406.736,263.181,404.193,262.182,399.381L262.182,399.381z"/>
	<path id="path7139" d="M302.261,457.586c8.809,0,17.798-4.178,23.973-12.258
		c-0.454-0.818-1.09-1.363-2.089-1.363c-6.447,7.084-12.621,9.898-21.066,9.898c-14.075,0-21.157-14.256-21.157-27.514
		c0-14.801,9.443-26.969,20.885-26.969c12.531,0,17.889,8.354,20.25,16.162c0.816,0.092,1.361,0,2.088-0.453
		c-0.454-4.723-1.09-9.08-1.997-14.074c-4.632-0.455-8.718-4.088-19.887-4.088c-17.979,0-29.512,14.076-29.512,31.146
		C273.748,444.146,282.737,457.586,302.261,457.586L302.261,457.586z"/>
	<path id="path7141" d="M353.057,431.434c-1.998,0-2.634-0.727-2.271-1.635l9.535-23.518h0.271
		l8.718,25.152H353.057z M342.796,450.412l5.448-14.074c0.454-1.182,0.998-1.998,3.178-1.998H370.4l5.721,16.709
		c1.271,3.723-2.361,3.723-6.72,3.994c-0.545,0.545-0.545,1.545,0,2.09c3.359-0.092,8.354-0.455,11.896-0.455
		c3.723,0,7.628,0.363,10.987,0.455c0.545-0.545,0.545-1.545,0-2.09c-3.541-0.271-6.538-0.635-8.173-5.266l-18.978-52.85
		c-1.362,0.818-3.542,1.816-4.722,1.816l-21.067,49.58c-2.36,5.539-5.085,6.447-9.08,6.719c-0.545,0.545-0.545,1.545,0,2.09
		c3.359-0.092,5.448-0.455,8.989-0.455c3.724,0,6.447,0.363,9.807,0.455c0.545-0.545,0.545-1.545,0-2.09
		C345.61,454.861,341.343,454.227,342.796,450.412L342.796,450.412z"/>
	<path id="path7143" d="M409.92,429.799c1.998,0.637,4.632,0.818,7.719,0.818
		c16.526,0,21.248-10.352,21.248-18.07c0-5.357-3.359-15.346-20.158-15.346c-2.361,0-8.718,0.908-12.35,0.908
		c-4.54,0-7.083-0.363-11.623-0.455c-0.545,0.545-0.545,1.545,0,2.09c6.356,0.271,7.719,0.727,7.81,8.262
		c0.091,7.537,0.182,11.986,0.182,19.523s0,11.715-0.182,19.252c-0.182,7.627-1.453,7.99-7.81,8.262
		c-0.545,0.545-0.545,1.545,0,2.09c4.449-0.092,7.174-0.455,11.805-0.455c5.085,0,8.354,0.363,12.895,0.455
		c0.545-0.545,0.545-1.545,0-2.09c-6.266-0.363-9.263-0.816-9.354-6.084c-0.091-6.811-0.182-12.621-0.182-19.158V429.799z
		 M410.102,403.738c0.091-2.633,1.544-4.357,8.082-4.357c6.266,0,12.713,3.268,12.713,14.801c0,9.807-4.994,14.256-13.803,14.256
		c-2.18,0-5.993-0.182-7.174-0.453v-0.455C409.92,419.992,410.011,411.275,410.102,403.738L410.102,403.738z"/>
	<path id="path7145" d="M471.268,424.26l-10.624,0.092c0,0-0.091-12.35,0.182-19.795
		c0.091-2.18,1.181-3.996,3.359-3.996h14.166c6.811,0,8.172,4.813,10.17,11.078c1.09,0.182,1.271,0,2.18-0.453
		c-0.454-3.725-1.816-12.713-1.998-13.439c0-0.182-0.091-0.273-0.363-0.273c-1.544,0.273-2.36,0.637-4.54,0.637h-26.516
		c-2.724,0-7.264-0.363-11.805-0.455c-0.544,0.545-0.544,1.545,0,2.09c6.356,0.271,7.537,0.727,7.81,8.262
		c0.182,7.447,0.182,11.986,0.182,19.523s0,11.805-0.182,19.252c-0.272,7.535-1.453,7.99-7.81,8.262
		c-0.544,0.545-0.544,1.545,0,2.09c4.45-0.092,9.263-0.455,11.986-0.455h20.159c4.358,0,11.623,0.455,11.623,0.455
		c1.271-4.541,2.543-10.807,3.269-15.438c-0.907-0.545-0.998-0.727-2.179-0.453c-1.816,6.537-5.085,13.074-11.986,13.074h-14.166
		c-1.997,0-3.269-1.451-3.359-3.904c-0.272-7.627-0.182-23.518-0.182-23.518l10.624,0.09c7.719,0.092,8.082,1.998,8.354,6.084
		c0.544,0.545,1.452,0.545,1.997,0c-0.091-3.178-0.363-4.268-0.363-7.082c0-2.996,0.272-5.086,0.363-7.809
		c-0.545-0.545-1.453-0.545-1.997,0c-0.272,4.994-0.636,6.084-8.354,6.084V424.26z"/>
</g>
<g id="inkscape-logo" transform="matrix(0.94004622,0,0,0.94004614,211.92757,235.82724)">
	<path id="path2313" d="M50.87-121.048L-49.885-17.946C-83.928,24.212-26.718,19.306-2.193,31.449
		c8.797,8.992-33.72,15.629-24.922,24.631c8.797,8.992,53.198,17.324,62.01,26.316c8.797,8.992-18.008,18.533-9.21,27.525
		s29.145,0.474,32.955,21.234c2.715,14.835,36.667,6.374,53.272-5.776c8.798-9.001-16.829-8.153-8.032-17.145
		c21.878-22.373,42.248-8.13,49.733-30.548c3.697-11.076-32.205-17.077-23.393-26.069c25.313-14.783,112.8-24.405,71.288-65.918
		L97.07-121.048C84.297-133.31,62.982-133.446,50.87-121.048z M166.602,77.686c0,5.115,37.688,8.469,37.688-1.207
		C198.919,60.94,171.057,61.989,166.602,77.686z M-3.168,104.866c8.925,7.719,22.71-1.92,26.843-12.691
		C15.027,80.686-17.343,92.589-3.168,104.866z M161.877,88.195c-11.505,10.32,1.29,20.789,12.63,14.122
		C177.035,99.751,174.44,90.759,161.877,88.195z"/>
	<path id="path2315" fill="#FFFFFF" d="M26.757,37.029c2.693,1.673,43.418,9.945,53.37,11.595
		c3.45,0.728,1.005,4.284-3.75,6.683C65.652,58.156,13.632,37.029,26.757,37.029z"/>
	<path id="path2317" fill="#FFFFFF" d="M90.98-113.819l39.863,40.485
		c3.779,3.862,3.727,11.347,1.612,13.501l-19.793-15.833l-3.893,23.445l-16.537-8.729L65.75-44.218l-8.767-35.273L42.755-54.876
		h-21.75c-8.865,0-9.907-11.251-1.852-19.305c14.07-15.188,30.217-30.668,38.993-39.638
		C66.965-122.834,82.332-122.578,90.98-113.819z"/>
</g>
</svg>
