<?xml version="1.0" encoding="utf-8"?>
<!-- Generator: Adobe Illustrator 14.0.0, SVG Export Plug-In . SVG Version: 6.00 Build 43363)  -->
<!DOCTYPE svg PUBLIC "-//W3C//DTD SVG 1.1//EN" "http://www.w3.org/Graphics/SVG/1.1/DTD/svg11.dtd">
<svg version="1.1" id="Слой_1" xmlns="http://www.w3.org/2000/svg" xmlns:xlink="http://www.w3.org/1999/xlink" x="0px" y="0px"
	 width="566.93px" height="566.93px" viewBox="0 0 566.93 566.93" enable-background="new 0 0 566.93 566.93" xml:space="preserve">
<g id="logo" transform="matrix(0.73333333,0,0,0.73333333,517.83324,9.8337209)">
	<path id="roundel" fill="#EC7428" d="M-170.275,293.261c0,80.638-65.375,146.009-146.016,146.009s-146.007-65.371-146.007-146.009
		c0-80.641,65.366-146.012,146.007-146.012S-170.275,212.62-170.275,293.261"/>
	<path id="circle-of-friends" fill="#FFFFFF" d="M-276.391,224.152c9.324,5.384,21.24,2.191,26.626-7.129
		c5.379-9.325,2.189-21.242-7.135-26.626c-9.319-5.382-21.24-2.189-26.62,7.134C-288.905,206.854-285.713,218.771-276.391,224.152z
		 M-316.287,350.203c-8.572,0-16.696-1.906-23.99-5.297l-13.541,24.27c11.312,5.608,24.05,8.771,37.531,8.771
		c7.838,0,15.422-1.088,22.624-3.086c1.276-7.826,5.925-15.043,13.335-19.323c7.396-4.271,15.961-4.694,23.376-1.892
		c14.409-14.174,23.789-33.456,25.155-54.932l-27.784-0.403C-262.133,327.4-286.537,350.203-316.287,350.203z M-316.287,236.316
		c29.75,0,54.154,22.81,56.707,51.893l27.784-0.406c-1.366-21.473-10.747-40.755-25.161-54.927
		c-7.409,2.798-15.975,2.374-23.371-1.897c-7.415-4.279-12.06-11.493-13.335-19.325c-7.202-1.992-14.786-3.081-22.624-3.081
		c-13.481,0-26.219,3.165-37.531,8.769l13.546,24.27C-332.983,238.221-324.859,236.316-316.287,236.316z M-373.231,293.261
		c0-19.267,9.575-36.283,24.214-46.586l-14.25-23.875c-17.059,11.398-29.749,28.822-35.02,49.232
		c6.157,5.019,10.089,12.66,10.089,21.229c0,8.568-3.932,16.212-10.089,21.228c5.267,20.412,17.958,37.834,35.02,49.232
		l14.25-23.875C-363.657,329.543-373.231,312.528-373.231,293.261z M-276.387,362.367c-9.326,5.383-12.518,17.3-7.134,26.622
		c5.383,9.324,17.301,12.518,26.62,7.132c9.324-5.383,12.518-17.301,7.135-26.62C-255.146,360.18-267.067,356.985-276.387,362.367z
		 M-415.572,273.769c-10.767,0-19.496,8.724-19.496,19.492c0,10.767,8.728,19.491,19.496,19.491
		c10.763,0,19.492-8.724,19.492-19.491C-396.08,282.493-404.809,273.769-415.572,273.769"/>
</g>
<path id="text" fill="#231F20" d="M416.424,389.847v36.897c-0.001,9.396,4.55,14.638,13.652,14.638c2.437,0,4.838-0.106,7.203-0.322
	c2.364-0.216,4.372-0.538,6.02-0.969v-50.244h10.751v56.914c-3.225,1.147-6.952,1.973-11.181,2.475
	c-4.228,0.573-8.493,0.86-12.793,0.86c-8.027,0-14.118-2.554-18.276-6.57c-4.155-4.017-6.234-10.111-6.234-18.287v-35.392H416.424
	 M249.877,389.847v36.897c0,9.396,4.551,14.638,13.653,14.638c2.437,0,4.838-0.106,7.203-0.322s4.372-0.538,6.021-0.969v-50.244
	h10.75v56.914c-3.225,1.147-6.952,1.973-11.181,2.475c-4.229,0.573-8.493,0.86-12.793,0.86c-8.027,0-14.119-2.554-18.275-6.57
	c-4.157-4.017-6.235-10.111-6.235-18.287v-35.392H249.877 M372.338,370.808l-9.693,1.757l-0.022,58.678
	c0,11.259,6.095,18.64,19.496,18.64c3.298,0,9.689-0.895,13.488-1.54l-1.279-7.596c-0.074,0.299-8.553,1.158-13.076,0.912
	c-4.523-0.248-8.604-3.936-9-7.726l0.022-35.48h22.336v-8.614h-22.336L372.338,370.808L372.338,370.808z M186.274,360.608
	l-10.864,1.757v84.396c6.378,2.224,13.152,3.342,20.319,3.342c1.227,0,2.415-0.042,3.557-0.13v-0.021
	c21.191,0.102,32.159-16.701,29.322-36.2c-2.229-13.753-13.644-25.366-27.002-25.366c-5.304,0-9.533,1.434-12.687,2.582
	c-0.961,0.363-1.831,0.737-2.646,1.129V360.608L186.274,360.608L186.274,360.608L186.274,360.608z M201.498,397.107
	c11.923,0.588,16.699,11.081,17.069,21.396c0.506,14.104-9.337,24.051-22.621,22.876c-3.067-0.271-6.304-0.384-9.672-1.173v-38.825
	c1.419-1.209,3.02-2.175,4.792-2.886C193.576,397.564,197.062,396.889,201.498,397.107z M312.982,448.582h-10.858v-56.37
	c3.297-1.146,6.953-1.972,10.966-2.475c4.085-0.572,8.277-0.859,12.578-0.859c16.054,0,24.08,7.996,24.08,23.988v35.716h-10.751
	V411.36c0-9.18-4.442-13.769-13.329-13.769c-2.365,0-4.658,0.106-6.88,0.321c-2.223,0.216-4.157,0.503-5.806,0.861V448.582
	 M123.58,389.847v36.897c0,9.396,4.551,14.638,13.653,14.638c2.437,0,4.838-0.106,7.203-0.322c2.365-0.216,4.372-0.538,6.02-0.969
	v-50.244h10.75v56.914c-3.225,1.147-6.952,1.973-11.181,2.475c-4.228,0.573-8.492,0.86-12.793,0.86
	c-8.027,0-14.119-2.554-18.275-6.57s-6.235-10.111-6.235-18.287v-35.392H123.58"/>
</svg>
