<?xml version="1.0" encoding="utf-8"?>
<!-- Generator: Adobe Illustrator 14.0.0, SVG Export Plug-In . SVG Version: 6.00 Build 43363)  -->
<!DOCTYPE svg PUBLIC "-//W3C//DTD SVG 1.1//EN" "http://www.w3.org/Graphics/SVG/1.1/DTD/svg11.dtd">
<svg version="1.1" id="Слой_1" xmlns="http://www.w3.org/2000/svg" xmlns:xlink="http://www.w3.org/1999/xlink" x="0px" y="0px"
	 width="566.93px" height="566.93px" viewBox="0 0 566.93 566.93" enable-background="new 0 0 566.93 566.93" xml:space="preserve">
<g>
	<path fill="#8A272A" d="M188.606,150.871c6.635,1.717,33.009,9.682,48.849,14.523c15.84,4.843,27.7,7.965,36.909,10.544
		c9.285,2.654,8.582,9.912,1.325,9.289c-7.257-0.702-15.84-4.606-24.422-7.964c-8.587-3.282-35.583-11.166-49.471-15.849
		c-13.812-4.607-17.169-4.607-19.117-7.262C180.726,151.574,181.976,149.155,188.606,150.871L188.606,150.871z"/>
	<path fill="#8A272A" d="M287.629,179.917c5.928-0.627,6.555,5.31,5.229,8.587c-1.324,3.277-7.879,4.607-9.205,1.325
		C281.621,185.223,281.621,180.616,287.629,179.917z M365.426,132.364c-3.904,3.356-15.84,10.618-24.346,16.555
		c-8.583,5.933-24.422,16.476-29.105,19.131c-4.602,2.654-10.529,5.932-14.514,9.214c-3.9,3.357-2.575,9.289,3.357,7.262
		c5.928-1.952,11.859-5.229,15.84-9.214c3.898-3.984,7.879-6.64,11.859-9.214c3.979-2.655,34.334-25.138,40.266-29.122
		C374.711,130.416,369.406,129.086,365.426,132.364z M380.643,121.202c3.277,0,4.604,7.257,1.326,9.214
		c-3.277,1.948-7.961,1.948-7.961-4.607C374.008,119.169,377.361,121.202,380.643,121.202L380.643,121.202z M378.691,135.018
		c2.574,0,3.899,5.31,3.277,9.289c-0.703,3.904,0.627,29.67,1.324,38.884c0.627,9.289,0.627,13.27-0.702,16.551
		c-1.325,3.277,0,8.588,0,17.179c0,8.592-1.325,19.748-1.948,24.439c-0.702,4.603-1.329,7.876-3.979,7.262
		c-2.655-0.702-2.655-3.984-2.655-9.294c0-5.229,0-33.026,0.703-39.586c0.627-6.639,0.627-9.289,0.627-14.523V143.6
		C375.334,138.3,376.036,135.018,378.691,135.018L378.691,135.018z M376.663,253.856c3.979-0.627,5.306,6.635,3.277,8.591
		c-1.948,2.032-6.555,1.33-7.88-1.952C370.73,257.208,372.684,254.558,376.663,253.856z M174.563,144.934
		c3.588-0.546,4.758,5.933,1.792,8.275c-2.966,2.42-7.102,0.628-6.475-2.966C170.427,146.731,171.05,145.562,174.563,144.934z
		 M182.91,139.625c8.271-4.141,25.436-14.835,29.571-16.005c4.136-1.174,11.78-5.937,14.746-8.275
		c2.966-2.344,12.407-7.729,14.203-8.902c1.792-1.17,10.063,0,2.966,4.763c-7.102,4.763-17.165,10.619-24.271,14.754
		c-7.102,4.216-27.233,14.835-31.368,16.632C184.622,144.388,174.563,143.765,182.91,139.625L182.91,139.625z M253.294,100.51
		c1.169-0.547,4.758,2.419,2.966,4.763c-1.796,2.344-4.135,4.136-6.555,0C247.362,101.133,252.125,101.133,253.294,100.51
		L253.294,100.51z M265.154,101.133c7.644,0,26.605,2.966,32.537,4.763c5.853,1.721,17.713,3.513,20.056,4.14
		c2.419,0.547,10.69,0.547,12.487,1.174c1.716,0.547,7.102,2.967,17.711,4.141c10.69,1.169,17.165,2.339,20.131,3.513
		c2.967,1.249,1.17,8.355-3.593,7.106c-4.683-1.17-24.187-3.514-28.949-4.141c-4.758-0.547-14.203-4.14-19.509-4.683
		c-5.38-0.627-18.961-3.593-30.198-4.762c-11.237-1.17-18.961-3.514-21.927-4.141C260.943,107.617,257.43,101.133,265.154,101.133
		L265.154,101.133z M172.846,164.457c0-4.141,6.479-5.933,7.102-0.548c0.547,5.31,1.169,14.208,1.716,21.314
		c0.623,7.105,1.25,13.585,1.792,18.348c0.627,4.683,3.589,16.551,4.136,20.145c0.623,3.508,1.169,10.614,1.169,14.754
		c0,4.136,1.25,10.076,0.627,13.038c-0.627,2.971-3.593,10.624-5.305,1.797c-1.796-8.903-0.627-20.14-1.796-23.11
		s-3.588-9.449-3.588-14.207c0-4.763-2.339-17.179-2.886-20.145C175.186,192.876,172.846,168.596,172.846,164.457z M185.796,264.545
		c0.627-2.414,5.385-4.136,7.102-1.165c1.792,2.962,1.25,7.653-2.886,8.275C185.796,272.208,185.253,266.894,185.796,264.545z
		 M195.316,256.817c5.305-5.305,20.678-13.585,29.571-21.313c8.894-7.653,24.813-18.343,27.78-21.313
		c2.966-2.966,10.69-0.547,4.135,4.758c-6.479,5.314-21.847,16.556-28.402,21.869c-6.479,5.386-24.187,17.17-27.779,20.767
		C197.113,265.093,190.011,262.131,195.316,256.817L195.316,256.817z M264.532,204.118c2.339,0.623,2.339,5.386,0,6.56
		c-2.339,1.169-6.479,0.547-5.928-2.966C259.222,204.118,262.188,203.571,264.532,204.118z M203.587,270.487
		c8.271,2.335,26.61,14.208,32.538,16.546c5.928,2.344,17.165,8.275,22.475,11.246c5.309,2.971,18.339,8.902,21.927,10.623
		c3.512,1.789,6.475,2.416,8.271,4.213c1.797,1.721-0.622,8.275-5.305,5.852c-4.758-2.336-23.097-11.785-26.063-13.586
		c-2.966-1.797-14.199-7.729-17.788-10.076c-3.513-2.334-8.271-2.961-12.954-5.305c-4.763-2.344-21.305-11.238-26.686-14.208
		C194.694,272.826,195.316,268.064,203.587,270.487z M285.209,198.265c-0.547,5.857,0.627,17.099,1.25,20.069
		c0.547,2.961,2.887,15.381,2.339,24.274c-0.622,8.903,0,20.149,1.169,26.081c1.17,5.933,1.797,21.314,1.797,25.458
		c0,4.137,1.17,9.441,1.793,10.615c0.547,1.25,4.135,6.559,4.682-1.174c0.627-7.654,0-23.036,0.627-27.793
		c0.547-4.758-0.627-16.009-1.796-30.217c-1.17-14.207-1.797-26.005-1.797-29.589c0-3.518,1.175-12.415-1.169-16.009
		C292.307,194.045,285.832,192.329,285.209,198.265z M296.447,315.457c1.791-0.627,7.724,4.137,5.38,9.449
		c-2.419,5.307-5.928,2.963-8.271-1.174C291.137,319.594,294.726,316.01,296.447,315.457L296.447,315.457z M308.929,309.521
		c7.649-8.895,9.445-6.479,13.577-10.068c4.135-3.518,20.677-16.555,26.609-21.861c5.928-5.384,10.689-8.354,14.199-11.246
		c3.593-2.961,8.893,1.406,3.593,4.692c-5.31,3.272-17.169,14.915-21.928,21.313c-4.683,6.4-8.894,4.76-14.198,10.078
		c-5.306,5.305-8.271,9.439-11.238,10.689c-2.965,1.174-5.305,2.891-7.644,4.682C309.476,319.594,301.205,318.42,308.929,309.521z"
		/>
	<path fill="#8A272A" d="M275.142,208.257c3.593,1.25,18.415,6.56,28.406,11.317c10.063,4.691,34.335,14.755,39.093,17.726
		c4.758,2.97,23.644,10.076,26.063,11.863c2.34,1.722,2.887,10.624-2.419,8.276c-5.306-2.415-20.131-10.69-29.571-14.835
		c-9.445-4.136-24.271-11.237-31.368-13.038c-7.102-1.721-20.678-9.996-24.267-12.411c-3.513-2.344-7.648-2.344-9.44-5.31
		C269.837,208.88,271.633,207.083,275.142,208.257z M257.43,115.968c1.174,7.105,2.343,14.754,2.343,20.69
		s1.169,15.382,1.792,18.348c0.627,2.966,1.797,13.038,1.174,14.835c-0.547,1.717,0,15.929,0,19.521
		c0,3.514,1.169,8.276-2.343,8.276c-3.588,0-4.136-2.966-4.136-9.45c0-6.559-2.419-20.767-2.419-26.703
		c0-5.856-1.174-18.348-1.174-26.623s-1.716-17.179-2.339-19.518C249.706,113.001,256.26,108.867,257.43,115.968L257.43,115.968z"/>
</g>
<g>
	<path fill="#485984" d="M465.647,448.199c0,5.918-1.784,10.479-5.29,13.616c-3.612,3.192-8.688,4.768-15.388,4.768
		c-6.543,0-11.672-1.572-15.339-4.768s-5.501-7.644-5.501-13.356v-14.771h17.697v14.929c0,1.725,0.21,2.984,0.734,3.718
		c0.472,0.787,1.306,1.154,2.408,1.154c1.101,0,1.934-0.367,2.407-1.154c0.472-0.733,0.733-1.993,0.733-3.718v-7.178
		c0-3.246-2.879-7.172-8.741-11.841c-0.99-0.768-1.967-1.552-2.93-2.354l-0.158-0.157c-8.063-6.707-12.147-13.411-12.147-20.118
		v-7.071c0-5.289,1.834-9.377,5.447-12.308c3.666-2.934,8.741-4.349,15.284-4.349c6.596,0,11.677,1.519,15.338,4.556
		c3.613,3.091,5.448,7.388,5.448,12.94v12.15H448.11v-12.413c0-1.73-0.262-2.987-0.733-3.721s-1.307-1.097-2.407-1.097
		c-1.103,0-1.935,0.366-2.408,1.097c-0.524,0.733-0.734,1.99-0.734,3.721v4.241c0,3.613,2.775,7.543,8.375,11.893
		c1.309,0.943,2.359,1.73,3.043,2.356c5.547,4.455,9.004,7.91,10.362,10.371c1.363,2.519,2.046,5.764,2.046,9.801v9.063H465.647
		L465.647,448.199z M377.642,464.644V385.13h17.224v6.649h0.313c1.468-2.777,3.246-4.817,5.284-6.182
		c2.046-1.31,4.505-1.936,7.225-1.936c3.822,0,6.651,1.101,8.591,3.402c1.882,2.254,2.878,5.658,2.878,10.111v67.468h-17.697
		v-61.652c0-1.832-0.209-3.091-0.684-3.771c-0.471-0.629-1.307-0.942-2.459-0.942c-1.101,0-1.883,0.366-2.407,1.152
		c-0.525,0.733-0.733,1.939-0.733,3.562v61.652H377.642L377.642,464.644z M330.576,401.419c0-6.023,1.783-10.528,5.238-13.619
		c3.455-3.041,8.637-4.557,15.493-4.557c7.435,0,12.721,1.677,15.913,5.082c3.143,3.404,4.715,9.218,4.715,17.549v48.402
		c0,2.091,0.104,3.979,0.313,5.606c0.21,1.673,0.525,3.246,0.996,4.761h-17.802c-0.21-0.937-0.367-1.882-0.525-2.825
		c-0.141-0.883-0.209-1.776-0.208-2.67v-1.26h-0.264c-1.253,2.617-2.93,4.61-5.073,6.027c-2.151,1.411-4.661,2.091-7.488,2.091
		c-3.72,0-6.492-1.153-8.433-3.403c-1.882-2.202-2.878-5.553-2.878-9.953v-16.868c0-4.139,0.786-7.539,2.254-10.216
		c1.518-2.616,3.975-4.817,7.278-6.599c1.044-0.626,2.616-1.415,4.549-2.357c6.596-3.403,9.894-6.6,9.894-9.64v-5.656
		c0-1.73-0.21-2.983-0.734-3.72c-0.52-0.788-1.357-1.152-2.512-1.152c-1.103,0-1.884,0.366-2.354,1.152
		c-0.473,0.734-0.684,1.989-0.684,3.72v11.576h-17.698v-11.472H330.576L330.576,401.419z"/>
	<path fill="#FFFFFF" d="M354.556,446.731V425.62c-0.262,0.21-0.575,0.472-1.05,0.839c-3.502,2.673-5.232,5.082-5.232,7.128v13.145
		c0,1.784,0.209,2.983,0.684,3.666c0.471,0.63,1.307,0.996,2.459,0.996c1.048,0,1.888-0.366,2.406-1.154
		C354.345,449.512,354.556,448.356,354.556,446.731L354.556,446.731z"/>
	<path fill="#485984" d="M301.472,448.619c0,1.725,0.264,2.984,0.788,3.719c0.472,0.786,1.31,1.153,2.408,1.153
		c1.102,0,1.939-0.367,2.407-1.153c0.472-0.734,0.734-1.994,0.734-3.719V433.69h17.539v14.771c0,5.765-1.829,10.216-5.441,13.356
		c-3.613,3.192-8.693,4.768-15.236,4.768c-7.435,0-12.722-1.677-15.914-5.135c-3.192-3.404-4.768-9.219-4.768-17.491v-38.086
		c0-8.331,1.572-14.199,4.714-17.604c3.142-3.353,8.431-5.027,15.809-5.027c6.543,0,11.624,1.52,15.29,4.557
		c3.718,3.036,5.547,7.229,5.547,12.573V427.4h-23.873v21.219H301.472L301.472,448.619z"/>
	<path fill="#FFFFFF" d="M301.472,400.479v15.032h6.335v-15.032c0-1.73-0.264-2.987-0.734-3.721
		c-0.465-0.733-1.307-1.098-2.408-1.098c-1.095,0-1.933,0.367-2.407,1.098C301.732,397.492,301.472,398.749,301.472,400.479
		L301.472,400.479z"/>
	<path fill="#485984" d="M232.683,464.644v-99.42h23.139c7.796,0,13.56,1.415,17.331,4.243c3.821,2.778,5.704,7.069,5.704,12.78
		v11.684c0,5.344-1.101,9.272-3.351,11.788c-2.249,2.564-6.229,4.346-11.934,5.498v0.524c5.18,0.473,9.004,1.99,11.514,4.609
		c2.509,2.62,3.771,6.444,3.771,11.421v15.4c0,7.802-1.828,13.356-5.495,16.605c-3.666,3.246-10.001,4.866-18.903,4.866H232.683z"/>
	<path fill="#FFFFFF" d="M259.173,399.325v-15.821c0-2.253-0.42-3.721-1.259-4.506c-0.832-0.734-2.616-1.151-5.392-1.151v27.29
		c2.722,0,4.506-0.422,5.338-1.206C258.702,403.203,259.173,401.631,259.173,399.325z M259.173,445.052v-20.849
		c0-2.04-0.42-3.454-1.259-4.293c-0.832-0.838-2.3-1.201-4.29-1.201h-1.102v31.845h1.102c1.986,0,3.454-0.422,4.29-1.254
		C258.753,448.516,259.173,447.044,259.173,445.052z"/>
	<path fill="#485984" d="M202.16,397.859V385.13h4.452v-14.774h17.638v14.774h5.134v12.729h-5.134v48.297
		c0,2.463,0.313,4.033,0.942,4.714c0.576,0.629,1.785,0.941,3.613,0.941h0.577v12.832h-11.048c-4.294,0-7.277-0.991-9.056-2.929
		c-1.784-1.987-2.67-5.607-2.67-11.055v-52.801H202.16z M175.619,448.619c0,1.725,0.262,2.984,0.734,3.719
		c0.525,0.786,1.307,1.153,2.408,1.153s1.936-0.367,2.461-1.153c0.471-0.734,0.734-1.994,0.734-3.719V433.69h17.486v14.771
		c0,5.765-1.784,10.216-5.397,13.356c-3.607,3.192-8.688,4.768-15.284,4.768c-7.381,0-12.671-1.677-15.863-5.135
		c-3.246-3.404-4.815-9.219-4.815-17.491v-38.086c0-8.331,1.569-14.199,4.711-17.604c3.142-3.353,8.428-5.027,15.863-5.027
		c6.492,0,11.623,1.52,15.284,4.557c3.667,3.036,5.501,7.229,5.501,12.573V427.4h-23.82v21.219H175.619L175.619,448.619z"/>
	<path fill="#FFFFFF" d="M175.619,400.479v15.032h6.334v-15.032c0-1.73-0.26-2.987-0.734-3.721c-0.522-0.733-1.36-1.098-2.461-1.098
		s-1.883,0.367-2.407,1.098C175.882,397.492,175.619,398.749,175.619,400.479z"/>
	<path fill="#485984" d="M100.025,464.644v-99.42h27.224l6.963,42.117c0.626,3.825,1.152,8.018,1.623,12.677
		c0.472,4.714,0.838,10.006,1.152,16.083h0.785c-0.272-6.127-0.499-12.256-0.68-18.386c-0.158-5.239-0.263-9.011-0.263-11.313
		l-0.104-41.175h15.546v99.42h-23.297l-10.156-54.005c-0.417-2.098-0.889-5.29-1.518-9.533c-0.576-4.296-1.206-8.96-1.832-14.04
		h-0.576c0.313,4.139,0.522,7.754,0.68,10.845c0.158,3.146,0.209,5.657,0.209,7.646v59.084H100.025L100.025,464.644z"/>
</g>
</svg>
