<?xml version="1.0" encoding="utf-8"?>
<!-- Generator: Adobe Illustrator 14.0.0, SVG Export Plug-In . SVG Version: 6.00 Build 43363)  -->
<!DOCTYPE svg PUBLIC "-//W3C//DTD SVG 1.1//EN" "http://www.w3.org/Graphics/SVG/1.1/DTD/svg11.dtd">
<svg version="1.1" id="Слой_1" xmlns="http://www.w3.org/2000/svg" xmlns:xlink="http://www.w3.org/1999/xlink" x="0px" y="0px"
	 width="566.93px" height="566.93px" viewBox="0 0 566.93 566.93" enable-background="new 0 0 566.93 566.93" xml:space="preserve">
<g id="Calque_2_-_copie_5">
	<path d="M151.809,196.905v-75.191c0-18.134,12.519-30.198,30.425-30.198h180.354c5.918,0,11.001,1.745,15.174,5.995l45.601,46.511
		c4.173,4.324,5.843,10.015,5.843,16.009v143.63l7.132-0.076V156.389c0-6.298-2.429-12.217-6.829-16.693L381.404,91.44
		c-4.4-4.4-10.471-6.904-16.692-6.904H179.2c-18.817,0-34.144,15.327-34.144,34.143v81.488L151.809,196.905z M145.056,348.577
		v100.077c0,18.817,15.326,34.145,34.144,34.145h43.4v-6.981h-40.365c-17.831,0-30.425-12.139-30.425-30.197v-93.855
		L145.056,348.577z"/>
</g>
<g id="Calque_3">
	<path d="M412.512,150.849h-42.033v-43.931c0-3.262,0-5.842-3.187-5.842c-3.264,0-3.188,2.656-3.188,5.842v44.462
		c0,3.262,2.58,5.842,5.842,5.842h42.565c3.263,0,5.843,0.076,5.843-3.187C418.354,150.774,415.698,150.849,412.512,150.849z"/>
</g>
<g id="Calque_6">
	<g>
		<path fill="#231F20" d="M256.97,360.187c-10.47,0-12.671,4.477-12.671,8.194v46.358c0,3.718,2.201,8.194,12.671,8.194
			s12.671-4.477,12.671-8.194v-46.358C269.642,364.663,267.44,360.187,256.97,360.187z M250.976,370.657
			c0-3.643,1.821-5.236,5.994-5.236c4.173,0,5.994,1.594,5.994,5.236v41.883c0,3.642-1.821,5.234-5.994,5.234
			c-4.173,0-5.994-1.593-5.994-5.234V370.657z"/>
		<polygon fill="#231F20" points="289.217,315.345 282.465,315.345 282.465,352.751 277.987,352.751 277.987,357.985 
			282.465,357.985 282.465,430.446 289.217,430.446 289.217,357.985 299.688,357.985 299.688,352.751 289.217,352.751 		"/>
		<path fill="#231F20" d="M315.394,360.187c-10.471,0-12.671,4.477-12.671,8.194v46.358c0,3.718,2.2,8.194,12.671,8.194
			s12.671-4.477,12.671-8.194v-7.436h-6.753v5.236c0,3.642-1.82,5.234-5.994,5.234c-4.173,0-5.994-1.593-5.994-5.234v-12.672
			c1.67,0.454,3.643,0.682,5.994,0.682c10.471,0,12.671-4.476,12.671-8.193v-23.9C328.064,364.663,325.864,360.187,315.394,360.187z
			 M309.399,370.657c0-3.643,1.821-5.236,5.994-5.236s5.993,1.594,5.993,5.236v19.424c0,3.642-1.82,5.235-5.993,5.235
			s-5.994-1.594-5.994-5.235V370.657z"/>
		<path fill="#231F20" d="M351.055,360.187c-10.472,0-12.671,4.477-12.671,8.194v82.931h6.753v-29.06
			c1.669,0.454,3.641,0.682,5.994,0.682c10.47,0,12.67-4.477,12.67-8.194v-46.358C363.801,364.663,361.601,360.187,351.055,360.187z
			 M345.137,370.657c0-3.643,1.82-5.236,5.994-5.236c4.173,0,5.993,1.594,5.993,5.236v41.883c0,3.642-1.82,5.234-5.993,5.234
			c-4.174,0-5.994-1.593-5.994-5.234V370.657z"/>
		<path fill="#231F20" d="M386.791,360.187c-10.471,0-12.671,4.477-12.671,8.194v7.436h6.753v-5.235c0-3.643,1.82-5.236,5.994-5.236
			c4.173,0,5.994,1.594,5.994,5.236v12.67c-1.67-0.455-3.643-0.682-5.994-0.682c-10.471,0-12.671,4.477-12.671,8.193v23.9
			c0,3.719,2.2,8.194,12.671,8.194s12.672-4.476,12.672-8.194v-46.358C399.539,364.663,397.262,360.187,386.791,360.187z
			 M380.797,393.04c0-3.643,1.821-5.235,5.994-5.235s5.994,1.593,5.994,5.235v19.424c0,3.642-1.821,5.234-5.994,5.234
			s-5.994-1.593-5.994-5.234V393.04z"/>
		<path fill="#231F20" d="M429.053,360.869c-1.669-0.455-3.643-0.683-5.993-0.683c-10.472,0-12.672,4.477-12.672,8.194v46.358
			c0,3.718,2.2,8.194,12.672,8.194c10.47,0,12.67-4.477,12.67-8.194v-99.395h-6.752v45.524H429.053z M417.141,370.657
			c0-3.643,1.821-5.236,5.994-5.236s5.994,1.594,5.994,5.236v41.883c0,3.642-1.821,5.234-5.994,5.234s-5.994-1.593-5.994-5.234
			V370.657z"/>
		<polygon fill="#231F20" points="453.028,360.187 446.276,360.187 446.276,375.133 438.765,375.133 438.765,380.369 
			446.276,380.369 446.276,395.316 453.028,395.316 453.028,380.369 460.464,380.369 460.464,375.133 453.028,375.133 		"/>
		<polygon fill="#231F20" points="477.688,375.133 477.688,360.187 470.936,360.187 470.936,375.133 463.425,375.133 
			463.425,380.369 470.936,380.369 470.936,395.316 477.688,395.316 477.688,380.369 485.124,380.369 485.124,375.133 		"/>
	</g>
</g>
<g id="Calque_9">
	<path fill="#231F20" d="M228.518,315.345c-10.471,0-12.671,4.477-12.671,8.194v140.745h6.753V325.815
		c0-3.643,1.821-5.236,5.994-5.236c4.173,0,5.994,1.594,5.994,5.236v97.118h6.753v-99.395
		C241.264,319.821,239.064,315.345,228.518,315.345z"/>
</g>
<g id="Layer_1">
	<g>
		<path fill="#99CA93" d="M148.85,205.479c6.449-6.373,15.706-8.119,24.128-10.774c9.636-0.531,19.271,2.428,27.998,6.45
			c3.793,1.518,3.565,5.994,4.4,9.408c-2.731,0.607-5.463,1.138-8.194,1.821c1.214-1.897,2.352-3.718,3.49-5.615
			c-0.076-1.821-2.2-2.505-3.263-3.794c-1.441,0.987-2.883,1.973-4.325,2.959c-0.986-0.835-1.972-1.67-2.959-2.504
			c-2.655,0.379-5.538,0.759-8.042-0.683c-4.249-1.896-8.801-3.339-13.505-2.882c-2.125,0.91-3.794,2.579-5.539,4.021
			c0-0.759,0.076-2.276,0.076-3.035c-0.986,1.138-1.973,2.276-2.883,3.49c-6.525,0.683-9.56,7.436-8.118,13.278
			c-1.366,1.063-2.808,2.201-4.173,3.263c1.517-2.959,2.807-6.221,1.063-9.408c-4.856,1.442-5.236,6.753-7.436,10.547
			c-2.276,4.173-6.146,7.359-7.967,11.76c-0.152,2.428,0.228,4.78,0.455,7.208c-1.821-0.531-3.642-0.986-5.387-1.517
			C133.219,227.103,138.758,214.356,148.85,205.479L148.85,205.479z"/>
		<path fill="#6CB771" d="M163.038,203.962c1.821-1.442,3.415-3.187,5.539-4.022c4.704-0.456,9.257,0.986,13.505,2.883
			c-0.607,2.656-1.518,5.235-2.731,7.663c-3.643-1.897-7.284-3.946-10.699-6.146c0.683,1.366,1.366,2.731,2.048,4.098
			c-0.759,1.063-1.593,2.048-2.352,3.111c-1.518-1.973-3.035-3.946-4.477-5.994c-0.531,2.959-2.732,5.159-5.767,3.49
			c0.683-1.593,1.366-3.111,2.049-4.628c0.91-1.214,1.896-2.352,2.883-3.491C163.114,201.609,163.038,203.127,163.038,203.962
			L163.038,203.962z"/>
		<path fill="#81BD6C" d="M182.083,202.747c2.504,1.442,5.312,1.063,8.042,0.683c0.987,0.834,1.973,1.669,2.959,2.504
			c1.442-0.986,2.884-1.972,4.325-2.959c0.986,1.29,3.187,1.973,3.263,3.794c-1.063,1.896-2.276,3.793-3.49,5.615
			c-0.683,0.151-2.048,0.455-2.655,0.682c1.365,1.669,2.731,3.339,4.097,4.933c-5.766,0.303-9.939-3.642-14.34-6.526
			c-4.021,0.607-6.904,4.932-11.077,5.387c-2.048-0.91-3.946-2.125-5.842-3.338c-0.683,2.201-1.138,4.477-2.428,6.374
			c-1.897,1.29-4.325,1.29-6.525,1.896c0.076,0.986,0.228,2.049,0.304,3.035c-2.353-2.276-5.235-4.401-8.574-2.883
			c2.428,2.503-1.214,3.491-2.883,4.628c-3.263,1.821-6.905,4.174-7.284,8.271c-0.91,2.352,0.076,5.994-2.579,7.284
			c-3.111,0.834-6.298,0.303-9.409,0.228c0.228-0.759,0.607-2.201,0.835-2.959c1.821,0.531,3.642,0.986,5.387,1.517
			c-0.304-2.427-0.683-4.78-0.455-7.208c1.821-4.401,5.691-7.587,7.967-11.76c2.2-3.793,2.58-9.104,7.436-10.547
			c1.745,3.187,0.455,6.449-1.062,9.409c1.365-1.139,2.731-2.201,4.173-3.263c-1.441-5.842,1.593-12.595,8.118-13.278
			c-0.683,1.518-1.366,3.111-2.048,4.628c2.959,1.67,5.235-0.531,5.767-3.49c1.441,2.049,2.959,4.021,4.477,5.994
			c0.759-1.062,1.518-2.048,2.352-3.11c-0.682-1.366-1.365-2.731-2.048-4.097c3.49,2.201,7.057,4.173,10.698,6.146
			C180.565,208.059,181.476,205.479,182.083,202.747 M151.809,251.004c1.669,0.302,3.262,0.606,4.932,0.986
			c-1.897,5.083-4.552,10.243-4.249,15.858c0.986,3.642,4.021,6.374,6.297,9.332c-3.338,0.987-7.966,0.229-10.243,3.339
			c-1.365,6.07,4.174,9.56,7.739,13.278c-5.159-1.896-10.926-4.628-12.747-10.318c2.504-3.111,5.615-5.615,8.877-8.043
			C147.711,268.303,145.663,257.832,151.809,251.004 M204.39,263.826c1.214,1.062,2.504,2.125,3.718,3.111
			c0.151,2.048,0.303,4.174,0.379,6.222C206.362,270.427,204.465,267.468,204.39,263.826 M236.712,265.419
			c1.29-1.821,3.49-1.669,4.856-0.076c2.58,3.338,4.021,7.284,5.767,11.078c2.2,0.152,4.4,0.304,6.524,0.455
			c-4.325,1.594-8.421,4.022-9.029,9.03c-1.821-2.58,0.835-4.933,1.896-7.284C244.299,273.538,238.381,270.958,236.712,265.419
			 M174.798,268.682l1.291-0.683c0.227,3.415,1.821,7.36-0.683,10.243c-2.504-0.228-4.932-0.379-7.36-0.834
			C171.309,275.283,173.736,272.627,174.798,268.682 M208.487,273.234c1.821,2.428,3.869,4.553,6.146,6.525
			c2.428-2.808,7.815-7.284,10.015-1.973c-3.642,1.745-8.194,3.034-9.408,7.436c0,0.152-0.076,0.379-0.076,0.531
			c0.531,3.87,1.973,7.587,3.111,11.305C209.928,291.672,214.936,280.063,208.487,273.234 M253.859,274.296
			c3.566,0.379,7.36,1.215,10.092,3.87c-3.415-0.228-6.905-0.075-10.092-1.291C253.859,276.27,253.859,274.979,253.859,274.296
			 M244.907,293.872c4.325,1.896,8.574,3.945,13.126,5.464c2.58-1.063,6.221-6.754,8.346-2.58
			c-3.338,3.034-7.967,6.146-12.671,5.083C250.065,300.094,247.714,296.604,244.907,293.872 M124.494,294.555
			c0.834,0.152,2.428,0.38,3.338,0.455c3.642,8.423,3.794,18.21,8.802,26.101c2.883,4.705,5.235,9.637,7.966,14.417
			c2.883,4.932,7.664,8.271,12.14,11.685c9.561,7.056,25.342,5.994,32.095-4.401c4.324-9.256-1.062-19.044-4.78-27.542
			c-6.374-10.016-22.99-2.428-22.535,8.498c-1.897-10.851,11.988-20.031,21.245-14.492c6.601,4.249,8.422,12.292,11.002,19.196
			c3.035,8.27-1.442,18.058-9.257,21.7c-6.07,3.869-13.506,2.352-20.259,2.352c-9.256-0.455-15.25-7.967-21.245-13.961
			c-5.843-7.131-9.636-15.63-14.188-23.672C126.391,308.44,125.025,301.535,124.494,294.555 M173.661,322.325
			c1.062,1.214,1.896,2.58,2.959,3.87c-2.58,3.338-6.753,3.187-10.471,2.654c-1.517-1.669-3.111-3.338-4.628-5.007
			c3.641,2.2,7.739,6.677,12.292,3.87C173.661,325.892,173.661,324.146,173.661,322.325L173.661,322.325z"/>
		<path fill="#99C56C" d="M173.054,216.859c4.173-0.455,7.057-4.78,11.078-5.387c4.477,2.959,8.649,6.829,14.34,6.526
			c-1.366-1.67-2.732-3.339-4.097-4.933c0.683-0.151,2.048-0.531,2.655-0.682c2.731-0.684,5.463-1.214,8.194-1.821
			c0.683,2.58,1.366,5.235,2.201,7.815c-1.29,1.29-2.58,2.656-3.946,3.946c2.808,3.87,5.388,7.967,8.195,11.835
			c5.842-1.592,9.56,4.022,12.14,8.423c-5.235-0.303-11.153-0.379-15.251-4.173c-2.503-2.276-4.932-4.628-7.587-6.828
			c-1.593,0.455-3.187,0.91-4.78,1.365c-1.29-3.111-2.049-7.208-5.994-7.967c0.304,1.593,0.683,3.111,0.986,4.705
			c-2.352,1.366-4.932,1.973-7.587,1.214c1.063-2.2,2.201-4.325,3.338-6.525c-3.262-0.304-5.159,2.504-6.98,4.704
			c-0.38-1.137-0.759-2.276-1.063-3.414c-1.214-0.152-2.353-0.456-3.566-0.531c-1.745,0.379-2.428,2.883-4.325,2.958
			c-3.111-0.303-6.07-1.594-9.256-1.745c-3.794,0.531-7.36,2.2-11.078,3.262c-1.214-0.986-2.504-1.972-3.718-2.959
			c1.669-1.213,5.387-2.125,2.883-4.628c3.414-1.518,6.222,0.607,8.573,2.883c-0.076-0.986-0.228-2.049-0.303-3.035
			c2.2-0.531,4.553-0.607,6.525-1.897c1.29-1.897,1.745-4.249,2.428-6.373C169.108,214.735,171.005,215.95,173.054,216.859
			L173.054,216.859z"/>
		<path fill="#AECE76" d="M203.555,222.323c1.291-1.29,2.58-2.656,3.945-3.946c1.291,3.87,2.959,7.815,6.223,10.395
			c5.462,4.172,11.153,8.725,17.981,10.318c6.07,1.138,12.747,0.455,17.982-3.035c4.553-4.097,6.677-10.09,11.381-14.036
			c4.401,2.2,9.333,3.186,13.582,5.691c4.401,2.807,6.525,7.814,9.181,12.139c-2.883,0.531-5.69,1.138-8.573,1.745
			c1.062,1.821,2.2,3.718,3.338,5.539c-0.759,1.138-1.518,2.276-2.2,3.49c-1.441-2.276-2.807-4.552-4.173-6.828
			c-3.111,0.759-6.069,1.972-8.726,3.642c0.304,1.441,0.608,2.883,0.911,4.325c-6.677-3.415-13.809,0-19.803,3.338
			c-1.821,0.986-3.718,2.124-5.539,3.11c-3.793-2.049-7.512-4.172-11.533-5.766c-1.594,2.58-3.49,5.083-5.387,7.512
			c-0.683-1.973-1.441-3.946-2.048-5.994c-0.683,0.076-2.049,0.304-2.731,0.379c-0.304,2.808-0.228,5.615,0.152,8.422
			c-1.821-0.229-3.718-0.456-5.539-0.684c0.835-3.793,1.821-7.511,2.58-11.381c-0.911,0.076-2.808,0.228-3.718,0.304
			c-3.111,4.78-3.263,10.546-2.655,16.085c-1.29-1.063-2.504-2.125-3.718-3.111c0.152-3.945,0.683-7.815,0.986-11.76
			c-4.097-1.745-5.767,2.959-6.525,5.994c-2.276-0.758-4.552-1.441-6.752-2.276c-5.083-1.593-8.422-6.07-13.354-8.042
			c-2.58-1.063-4.477-3.187-6.45-5.083c-0.227,0.759-0.683,2.276-0.834,3.035c1.973,3.339,1.973,7.664-1.897,9.712
			c-1.214-0.152-3.642-0.455-4.932-0.683c4.097,4.173,10.091,4.932,15.479,6.374c-0.759,0.53-2.276,1.593-3.035,2.124
			c-5.16-1.669-10.774-1.821-15.63-4.476c-0.152-1.974-0.38-4.022-0.531-5.995c-1.442-0.303-2.808-0.531-4.249-0.835
			c-1.669-0.303-3.263-0.606-4.932-0.986c-1.214-1.442-2.58-3.945-4.78-2.655c-1.745,1.593-3.187,3.49-4.856,5.235
			c-0.986-1.365-2.048-2.731-3.035-4.097c-7.436,0.911-6.829,9.864-11.609,13.885c-3.035,2.2-2.883,6.373-5.69,8.802
			c-0.38-3.415-0.607-6.753-0.228-10.168c1.518-5.994,4.173-11.608,5.691-17.679c0.151-0.455,0.379-1.441,0.531-1.973
			c3.111,0.152,6.374,0.607,9.408-0.227c2.656-1.291,1.593-4.932,2.58-7.285c0.455-4.096,4.021-6.449,7.284-8.27
			c1.213,0.987,2.503,1.973,3.718,2.959c3.717-1.138,7.284-2.731,11.077-3.262c3.187,0.151,6.146,1.441,9.257,1.745
			c1.896-0.076,2.503-2.58,4.324-2.958c1.214,0.075,2.353,0.379,3.566,0.531c0.379,1.138,0.759,2.277,1.062,3.414
			c1.897-2.2,3.718-5.007,6.98-4.704c-1.138,2.2-2.2,4.325-3.338,6.525c2.655,0.759,5.235,0.076,7.588-1.214
			c-0.38-1.594-0.684-3.111-0.987-4.705c3.945,0.683,4.704,4.781,5.994,7.967c1.593-0.455,3.187-0.91,4.78-1.365
			c2.58,2.2,5.083,4.552,7.588,6.828c4.097,3.794,10.015,3.87,15.25,4.173c-2.503-4.325-6.297-10.015-12.14-8.423
			C209.018,230.29,206.362,226.193,203.555,222.323L203.555,222.323z"/>
		<path fill="#90C26D" d="M275.332,241.595c2.883-0.607,5.69-1.138,8.574-1.745c0.911,1.972,1.67,3.946,2.428,5.918
			c-7.891,7.891-19.5,9.94-29.895,12.368c-4.325,1.29-8.346-0.986-11.912-3.035c5.994-3.263,13.126-6.753,19.803-3.338
			c-0.303-1.442-0.606-2.883-0.911-4.325c2.732-1.67,5.69-2.883,8.726-3.642c1.366,2.276,2.807,4.552,4.173,6.828
			c0.683-1.137,1.441-2.352,2.2-3.49C277.533,245.313,276.394,243.416,275.332,241.595L275.332,241.595z"/>
		<path fill="none" d="M176.62,326.195c-1.063-1.215-1.897-2.656-2.959-3.87c0,1.821,0.076,3.566,0.152,5.388
			c-4.553,2.807-8.65-1.67-12.292-3.87c1.517,1.669,3.111,3.262,4.628,5.007C169.867,329.382,174.04,329.533,176.62,326.195z"/>
		<path fill="none" d="M139.366,283.099c-2.808-3.263-7.587-1.745-11.381-2.277c-4.097,0.228-10.623-0.682-12.216,4.325
			c7.436,0.229,14.872,0.305,22.307,0.683C138.455,285.146,139.062,283.781,139.366,283.099z"/>
		<path fill="none" d="M223.131,272.779c4.097,6.677,12.14,5.843,18.892,5.69c-2.807-2.654-6.221-4.703-8.574-7.814
			c-1.365-1.29-1.897-3.87-4.021-4.097c-4.097,0.531-8.194,1.138-12.368,0.986h-0.227c-1.062,0-3.262,0-4.325,0
			c-0.228,2.504-0.228,5.007-0.228,7.512c0.986,0.531,3.035,1.593,4.021,2.2C217.668,274.6,220.399,273.538,223.131,272.779z"/>
		<path fill="none" d="M113.113,280.746l-0.304-0.834c-0.152,0.303-0.379,0.91-0.455,1.213l-0.835,0.987
			c-0.151,0.151-0.455,0.531-0.531,0.682c-1.972,1.67-1.593,4.25-1.821,6.526c0.304,0.531,0.987,1.669,1.291,2.275
			c3.415,2.049,2.731-5.463,0.379-5.614c1.442-1.745,3.036-3.415,3.491-5.691L113.113,280.746z"/>
		<path fill="none" d="M124.494,294.555c0.531,6.904,1.897,13.886,4.249,20.41c4.552,7.967,8.346,16.466,14.188,23.673
			c6.071,5.993,12.064,13.506,21.245,13.961c6.752,0,14.265,1.517,20.258-2.353c7.815-3.642,12.292-13.43,9.257-21.7
			c-2.58-6.827-4.477-14.946-11.002-19.196c-9.256-5.538-23.142,3.643-21.244,14.493c-0.456-10.927,16.161-18.514,22.534-8.498
			c3.718,8.422,9.029,18.285,4.78,27.542c-6.829,10.396-22.535,11.456-32.095,4.401c-4.477-3.415-9.257-6.754-12.14-11.685
			c-2.731-4.705-5.159-9.712-7.967-14.417c-4.932-7.967-5.159-17.679-8.801-26.101C126.922,294.935,125.329,294.707,124.494,294.555
			z"/>
		<path fill="none" d="M117.59,289.168c0.228,0.531,0.759,1.593,1.062,2.125c8.119,0.834,16.237,0.227,24.355,0.227
			c-0.303-0.378-0.91-1.063-1.29-1.441C133.675,289.775,125.632,287.878,117.59,289.168z"/>
		<path fill="none" d="M241.568,265.343c-1.366-1.593-3.566-1.745-4.856,0.076c1.669,5.463,7.587,8.119,10.015,13.202
			c-1.062,2.276-3.718,4.704-1.897,7.284c0.683-4.933,4.78-7.436,9.029-9.03c-2.2-0.151-4.4-0.302-6.524-0.455
			C245.589,272.627,244.072,268.682,241.568,265.343z"/>
		<path fill="none" d="M103.629,279.305c-0.835,1.896-1.821,3.87-2.807,5.689c0.834,2.429,2.124,4.705,3.642,6.753
			c0.456-0.228,1.366-0.605,1.745-0.758c-3.263-3.794-0.683-8.347,1.441-11.989C106.284,279.229,104.919,279.305,103.629,279.305z"
			/>
		<path fill="none" d="M263.951,278.166c-2.656-2.58-6.374-3.414-10.016-3.794h-0.076c0,0.683,0,1.897,0,2.503
			C257.046,278.091,260.536,277.938,263.951,278.166z"/>
		<path fill="none" d="M147.484,274.145c-3.111-4.932-4.173-10.698-2.276-16.313c-1.366,0.379-2.731,0.683-4.098,0.986
			c-3.035,5.387-7.132,10.925-6.222,17.451C139.138,276.27,143.539,276.193,147.484,274.145z"/>
		<path fill="none" d="M100.897,277.56c-2.58,0.455-5.16,0.531-7.739,0.151c-1.518,2.656-3.49,5.083-6.222,6.601
			c-2.731,1.67-1.517,5.54-1.062,8.119c4.856,0.91,9.863,0.607,14.795,0.834c-1.214-2.808-2.883-5.462-3.566-8.422
			C96.724,281.732,100.746,280.518,100.897,277.56z"/>
		<path fill="none" d="M166.832,272.172c0.304-1.745,0.759-3.566,1.138-5.311c-2.808-2.656-7.056-2.58-10.546-3.566
			c-0.986,4.78,0.076,9.56,2.883,13.505C162.355,275.207,164.48,273.463,166.832,272.172z"/>
		<path fill="none" d="M267.062,288.788c-7.436,1.29-15.023,0.38-22.458,1.365c-7.967-1.593-16.085-1.819-24.204-1.213
			c0.076,0.759,0.152,2.276,0.228,3.034c7.966-0.53,16.085,0.304,23.976-1.365c6.904,1.518,13.96,0.91,20.941,0.456
			c3.565-0.381,6.829,1.821,10.319,1.44C276.546,287.65,270.097,289.017,267.062,288.788z"/>
		<path fill="none" d="M249.914,282.643c-0.303,0.532-0.911,1.669-1.214,2.275c4.477,1.367,9.257,0.533,13.809,1.139
			c5.918,0.835,12.292,1.519,17.831-1.289c-1.897-1.214-3.642-3.036-5.918-3.49C266.227,280.821,258.033,281.884,249.914,282.643z"
			/>
		<path fill="none" d="M258.033,299.336c-4.477-1.519-8.801-3.491-13.126-5.464c2.807,2.731,5.159,6.222,8.725,7.967
			c4.705,1.063,9.333-2.049,12.671-5.083C264.254,292.582,260.612,298.272,258.033,299.336z"/>
		<path fill="none" d="M227,282.263c-1.821,0.456-5.767-0.151-5.312,2.959c5.159,0.304,10.395,0.304,15.554,0.152
			c2.125,0.076,3.035-0.987,2.808-3.187C235.726,282.188,231.325,281.96,227,282.263z"/>
		<path fill="none" d="M287.472,281.049c-0.228,1.821-0.378,3.643-0.53,5.464c-0.76,0.455-2.201,1.365-2.884,1.896
			c0,1.67-0.152,3.415-0.228,5.084c6.298-0.151,12.065-2.808,18.21-4.021c0.985-1.973,0.379-4.173,0.379-6.297
			C297.336,282.719,292.555,280.821,287.472,281.049z"/>
		<path fill="none" d="M176.089,268.075l-1.291,0.683c-1.062,3.946-3.49,6.601-6.752,8.726c2.428,0.455,4.856,0.607,7.36,0.834
			C177.91,275.359,176.316,271.414,176.089,268.075z"/>
		<path fill="none" d="M207.273,279.152c-1.442-3.566-2.808-7.511-5.918-9.939c-6.601,0.304-13.202,0.076-19.803,0.304
			c-0.834,3.111-1.897,6.07-2.503,9.256C188.38,279.608,197.864,279.229,207.273,279.152z"/>
		<path fill="none" d="M215.24,285.223c1.214-4.401,5.766-5.69,9.408-7.436c-2.276-5.387-7.588-0.835-10.015,1.973
			c-1.821-1.594-3.49-3.339-5.008-5.16c4.704,6.905,0.911,17.451,8.649,22.535c-1.138-3.718-2.503-7.436-3.111-11.306
			L215.24,285.223z"/>
		<path fill="none" d="M168.35,285.299c4.552-1.366,8.877,1.669,13.43,1.669c8.726,0.228,17.451,0.228,26.177-0.152
			c-0.076-0.986-0.228-3.035-0.304-4.021c-11.608,0-23.596-1.745-34.902,1.518c-3.187-0.075-6.146-1.518-9.256-2.048
			c-2.125-2.882-7.664-0.833-11.154-1.669c0.532,1.594,0.986,3.263,1.442,4.857c2.807,0.075,5.69,0.15,8.497,0.15
			C164.101,287.575,166.377,285.451,168.35,285.299z"/>
		<path fill="none" d="M158.03,289.927c0.683,0.91,1.366,1.896,2.049,2.808c2.731,0.076,5.539,0.152,8.271,0.304
			c13.126,0.075,26.177,0.303,39.302-0.151c0.228-0.456,0.683-1.291,0.987-1.67c-13.43-0.911-26.859-1.063-40.289-1.29
			C164.935,290.002,161.521,290.002,158.03,289.927z"/>
		<path fill="#FCFDFD" d="M217.971,223.841l-0.151,0.91c6.525,6.525,16.237,10.546,25.342,7.891c3.49-1.896,6.98-4.249,8.65-7.966
			c5.69-11.761,6.677-25.646,2.807-38.09c-3.49-2.503-6.829-5.386-8.877-9.18c-4.173-5.766-11.078-11.836-18.665-9.105
			c-7.739,1.063-13.203,7.891-15.327,15.023c-2.883,9.105-3.87,19.424,0.076,28.377
			C212.584,216.177,213.418,221.715,217.971,223.841z M232.539,201.457c1.669,4.933-1.062,11.761-7.132,11.837
			c-2.731-1.897-6.525-3.643-5.918-7.587C218.427,198.422,228.29,198.65,232.539,201.457z"/>
		<path fill="#FCFDFD" d="M283.602,230.138c3.492-3.718,7.74-6.601,11.457-10.016c6.374-9.332,11.761-21.7,6.905-32.929
			c-1.669-7.436-10.319-10.016-17.071-9.181c-8.878,1.518-18.666,4.705-23.37,13.127c0.152,8.194,1.442,16.389-0.228,24.507
			C269.945,217.922,279.354,221.715,283.602,230.138z M289.976,195.615c1.745-0.379,3.566-0.834,5.312-1.365
			c1.973,3.035,1.896,7.359,0.834,10.698c-3.49,3.414-8.497-0.076-9.939-3.793C287.472,199.257,288.762,197.436,289.976,195.615z"/>
		<path fill="#231F20" d="M253.859,274.296C253.859,274.372,253.859,274.372,253.859,274.296
			C253.935,274.372,253.935,274.372,253.859,274.296C253.935,274.372,253.935,274.372,253.859,274.296z"/>
		<path fill="none" d="M283.602,230.138c3.492-3.718,7.74-6.601,11.457-10.016c6.374-9.332,11.761-21.7,6.905-32.929
			c-1.669-7.436-10.319-10.016-17.071-9.181c-8.878,1.518-18.666,4.705-23.37,13.127c0.152,8.194,1.442,16.389-0.228,24.507
			C269.945,217.922,279.354,221.715,283.602,230.138z M289.976,195.615c1.745-0.379,3.566-0.834,5.312-1.365
			c1.973,3.035,1.896,7.359,0.834,10.698c-3.49,3.414-8.497-0.076-9.939-3.793C287.472,199.257,288.762,197.436,289.976,195.615z"/>
		<path fill="none" d="M138.151,285.829c0.304-0.683,0.911-2.048,1.214-2.73c-2.808-3.263-7.587-1.745-11.381-2.277
			c-3.187,0.228-7.739-0.303-10.395,1.745v2.656C124.418,285.375,131.323,285.526,138.151,285.829z"/>
		<path fill="none" d="M145.208,257.832c-1.366,0.379-2.731,0.683-4.098,0.986c-3.035,5.387-7.132,10.925-6.222,17.451
			c4.325,0,8.726-0.076,12.595-2.125C144.373,269.213,143.311,263.447,145.208,257.832z"/>
		<path fill="none" d="M148.546,280.442c2.277-3.11,6.829-2.351,10.243-3.338c-2.276-2.959-5.387-5.615-6.297-9.333
			c-0.303-5.539,2.352-10.698,4.249-15.857c1.441,0.303,2.807,0.531,4.249,0.835c0.227,1.972,0.379,3.945,0.531,5.993
			c4.856,2.656,10.47,2.808,15.63,4.477c7.132,2.353,14.795,1.518,22.004-0.152c-0.152-1.669-0.229-3.338-0.229-5.007
			c0.759-3.035,2.428-7.739,6.525-5.995c-0.379,3.946-0.834,7.816-0.986,11.761c0.076,3.566,1.897,6.602,4.097,9.333
			c-0.076-2.048-0.228-4.173-0.379-6.222c-0.607-5.462-0.456-11.305,2.655-16.085c0.911-0.076,2.808-0.228,3.718-0.304
			c-0.759,3.794-1.745,7.588-2.58,11.382c1.821,0.228,3.718,0.455,5.539,0.683c7.436,0.835,14.947-1.062,21.548-4.552
			c1.897-0.986,3.718-2.049,5.539-3.111c3.566,2.125,7.587,4.324,11.912,3.035c10.395-2.428,22.003-4.476,29.895-12.367
			c-0.607-1.594-1.291-3.187-1.973-4.78c-0.152-0.379-0.305-0.759-0.456-1.138c-2.58-4.325-4.704-9.333-9.181-12.14
			c-4.249-2.504-9.18-3.566-13.582-5.69c-4.704,3.945-6.904,9.94-11.381,14.037c-5.235,3.49-11.912,4.172-17.981,3.035
			c-6.905-1.593-12.519-6.146-17.983-10.319c-3.338-2.58-5.007-6.525-6.222-10.395c-0.758-2.58-1.517-5.16-2.2-7.815
			c-0.834-3.339-0.606-7.815-4.4-9.409c-0.152-0.076-0.304-0.151-0.456-0.227c-8.574-3.946-17.982-6.829-27.542-6.298
			c-8.346,2.58-17.603,4.4-24.128,10.773c-10.092,8.878-15.707,21.549-20.183,33.992c-0.228,0.759-0.607,2.201-0.834,2.959
			c-0.152,0.531-0.38,1.441-0.531,1.972c-1.517,5.995-4.173,11.686-5.69,17.679c-0.38,3.415-0.152,6.829,0.228,10.167
			c0,0.607,0.076,1.897,0.152,2.58c2.049,0,4.097,0.076,6.146,0.152c4.249-7.36,6.98-15.934,14.037-21.321
			c1.669-1.669,3.11-3.566,4.856-5.235c2.2-1.214,3.642,1.29,4.78,2.655c-6.146,6.828-4.098,17.299,0.683,24.355
			c-3.187,2.353-6.373,4.856-8.877,8.042c1.746,5.691,7.512,8.422,12.747,10.319C152.72,290.002,147.181,286.513,148.546,280.442z"
			/>
		<path fill="none" d="M201.279,269.213c-6.601,0.304-13.202,0.076-19.803,0.304c-0.834,3.111-1.897,6.07-2.504,9.256
			c9.408,0.835,18.893,0.532,28.301,0.379C205.831,275.586,204.465,271.642,201.279,269.213z"/>
		<path fill="none" d="M176.62,326.195c-1.063-1.215-1.897-2.656-2.959-3.87c0,1.821,0.076,3.566,0.152,5.388
			c-4.553,2.807-8.65-1.67-12.292-3.87c1.517,1.669,3.111,3.262,4.628,5.007C169.867,329.382,174.04,329.533,176.62,326.195z"/>
		<path fill="none" d="M143.007,291.52c-0.303-0.378-0.91-1.063-1.29-1.441c-8.042-0.303-16.085-2.2-24.128-0.91
			c0.228,0.531,0.759,1.593,1.062,2.125C126.694,292.127,134.889,291.52,143.007,291.52z"/>
		<path fill="none" d="M124.494,294.555c0.531,6.904,1.897,13.886,4.249,20.41c4.552,7.967,8.346,16.466,14.188,23.673
			c6.071,5.993,12.064,13.506,21.245,13.961c6.752,0,14.265,1.517,20.258-2.353c7.815-3.642,12.292-13.43,9.257-21.7
			c-2.58-6.827-4.477-14.946-11.002-19.196c-9.256-5.538-23.142,3.643-21.244,14.493c-0.456-10.927,16.161-18.514,22.534-8.498
			c3.718,8.422,9.029,18.285,4.78,27.542c-6.829,10.396-22.535,11.456-32.095,4.401c-4.477-3.415-9.257-6.754-12.14-11.685
			c-2.731-4.705-5.159-9.712-7.967-14.417c-4.932-7.967-5.159-17.679-8.801-26.101C126.922,294.935,125.329,294.707,124.494,294.555
			z"/>
		<path fill="none" d="M227,282.263c-1.821,0.456-5.767-0.151-5.312,2.959c5.159,0.304,10.395,0.304,15.554,0.152
			c2.125,0.076,3.035-0.987,2.808-3.187C235.726,282.188,231.325,281.96,227,282.263z"/>
		<path fill="none" d="M233.449,270.655c-1.365-1.29-1.897-3.87-4.021-4.097c-4.097,0.531-8.194,1.138-12.368,0.986h-0.227
			c-1.062,0-3.262,0-4.325,0c-0.228,2.504-0.228,5.007-0.228,7.512c0.986,0.531,3.035,1.593,4.021,2.2
			c1.442-2.656,4.173-3.717,6.905-4.477c4.097,6.677,12.14,5.843,18.893,5.69C239.216,275.815,235.802,273.69,233.449,270.655z"/>
		<path fill="none" d="M217.971,223.841l-0.151,0.91c6.525,6.525,16.237,10.546,25.342,7.891c3.49-1.896,6.98-4.249,8.65-7.966
			c5.69-11.761,6.677-25.646,2.807-38.09c-3.49-2.503-6.829-5.386-8.877-9.18c-4.173-5.766-11.078-11.836-18.665-9.105
			c-7.739,1.063-13.203,7.891-15.327,15.023c-2.883,9.105-3.87,19.424,0.076,28.377
			C212.584,216.177,213.418,221.715,217.971,223.841z M232.539,201.457c1.669,4.933-1.062,11.761-7.132,11.837
			c-2.731-1.897-6.525-3.643-5.918-7.587C218.427,198.422,228.29,198.65,232.539,201.457z"/>
		<path fill="none" d="M249.914,282.643c-0.303,0.532-0.911,1.669-1.214,2.275c4.477,1.367,9.257,0.533,13.809,1.139
			c5.918,0.835,12.292,1.519,17.831-1.289c-1.897-1.214-3.642-3.036-5.918-3.49C266.227,280.821,258.033,281.884,249.914,282.643z"
			/>
		<path fill="none" d="M267.062,288.788c-7.436,1.29-15.023,0.38-22.458,1.365c-7.967-1.593-16.085-1.819-24.204-1.213
			c0.076,0.759,0.152,2.276,0.228,3.034c7.966-0.53,16.085,0.304,23.976-1.365c6.904,1.518,13.96,0.91,20.941,0.456
			c3.565-0.381,6.829,1.821,10.319,1.44C276.546,287.65,270.097,289.017,267.062,288.788z"/>
		<path fill="none" d="M258.033,299.336c-4.477-1.519-8.801-3.491-13.126-5.464c2.807,2.731,5.159,6.222,8.725,7.967
			c4.705,1.063,9.333-2.049,12.671-5.083C264.254,292.582,260.612,298.272,258.033,299.336z"/>
		<path fill="none" d="M287.472,281.049c-0.228,1.821-0.378,3.643-0.53,5.464c-0.76,0.455-2.201,1.365-2.884,1.896
			c0,1.67-0.152,3.415-0.228,5.084c6.298-0.151,12.065-2.808,18.21-4.021c0.985-1.973,0.379-4.173,0.379-6.297
			C297.336,282.719,292.555,280.821,287.472,281.049z"/>
		<path fill="none" d="M241.568,265.343c-1.366-1.593-3.566-1.745-4.856,0.076c1.669,5.463,7.587,8.119,10.015,13.202
			c-1.062,2.276-3.718,4.704-1.897,7.284c0.683-4.933,4.78-7.436,9.029-9.03c-2.2-0.151-4.4-0.302-6.524-0.455
			C245.589,272.627,244.072,268.682,241.568,265.343z"/>
		<path fill="none" d="M168.35,285.299c4.552-1.366,8.877,1.669,13.43,1.669c8.726,0.228,17.451,0.228,26.177-0.152
			c-0.076-0.986-0.228-3.035-0.304-4.021c-11.608,0-23.596-1.745-34.902,1.518c-3.187-0.075-6.146-1.518-9.256-2.048
			c-2.125-2.882-7.664-0.833-11.154-1.669c0.532,1.594,0.986,3.263,1.442,4.857c2.807,0.075,5.69,0.15,8.497,0.15
			C164.101,287.575,166.377,285.451,168.35,285.299z"/>
		<path fill="none" d="M158.03,289.927c0.683,0.91,1.366,1.896,2.049,2.808c2.731,0.076,5.539,0.152,8.271,0.304
			c13.126,0.075,26.177,0.303,39.302-0.151c0.228-0.456,0.683-1.291,0.987-1.67c-13.43-0.911-26.859-1.063-40.289-1.29
			C164.935,290.002,161.521,290.002,158.03,289.927z"/>
		<path fill="none" d="M160.231,276.875c2.125-1.668,4.249-3.337,6.525-4.628c0.304-1.745,0.759-3.566,1.138-5.311
			c-2.807-2.655-7.056-2.58-10.546-3.566C156.437,268.075,157.5,272.854,160.231,276.875z"/>
		<path fill="none" d="M168.046,277.408c2.428,0.456,4.856,0.607,7.36,0.834c2.504-2.883,0.91-6.829,0.683-10.243l-1.291,0.683
			C173.736,272.627,171.309,275.283,168.046,277.408z"/>
		<path fill="none" d="M215.24,285.223c1.214-4.401,5.766-5.69,9.408-7.436c-2.276-5.387-7.588-0.835-10.015,1.973
			c-1.821-1.594-3.49-3.339-5.008-5.16c4.704,6.905,0.911,17.451,8.649,22.535c-1.138-3.718-2.503-7.436-3.111-11.306
			L215.24,285.223z"/>
		<path fill="#FFFFFF" d="M103.629,279.305c-0.835,1.896-1.821,3.87-2.807,5.689c0.834,2.429,2.124,4.705,3.642,6.753
			c0.456-0.228,1.366-0.605,1.745-0.758c-3.263-3.794-0.683-8.347,1.441-11.989C106.284,279.229,104.919,279.305,103.629,279.305z"
			/>
		<path fill="#FFFFFF" d="M113.113,280.746l-0.304-0.834c-0.152,0.303-0.379,0.91-0.455,1.213l-0.835,0.987
			c-0.151,0.151-0.455,0.531-0.531,0.682c-1.972,1.67-1.593,4.25-1.821,6.526c0.304,0.531,0.987,1.669,1.291,2.275
			c3.415,2.049,2.731-5.463,0.379-5.614c1.442-1.745,3.036-3.415,3.491-5.691L113.113,280.746z"/>
		<path fill="#231F20" d="M225.407,213.294c6.07,0,8.726-6.904,7.132-11.837c-4.249-2.807-14.036-3.035-13.05,4.174
			C218.881,209.576,222.675,211.396,225.407,213.294z"/>
		<path fill="#231F20" d="M296.121,204.872c1.063-3.338,1.139-7.663-0.834-10.698c-1.745,0.531-3.49,0.986-5.312,1.365
			c-1.29,1.821-2.504,3.643-3.794,5.463C287.624,204.796,292.555,208.286,296.121,204.872z"/>
		<path fill="#231F20" d="M292.783,278.242c-7.815-1.367-15.707-0.076-23.521-0.228c-3.49-2.352-6.904-5.084-11.229-5.387
			c-1.366,0.607-2.731,1.139-4.098,1.669c3.566,0.379,7.284,1.215,10.016,3.794c-3.415-0.228-6.905-0.076-10.092-1.291
			c-4.324,1.593-8.421,4.021-9.029,9.029c-1.821-2.58,0.835-4.932,1.897-7.284c-2.428-5.083-8.271-7.739-10.015-13.202
			c1.29-1.82,3.49-1.669,4.856-0.076c2.58,3.339,4.021,7.284,5.767,11.077c2.2,0.152,4.4,0.304,6.524,0.456c0-0.607,0-1.897,0-2.504
			c-1.062,0.456-2.2,0.911-3.263,1.442c-1.896-4.173-3.49-8.422-4.855-12.747c2.58,0.606,5.083,1.518,7.663,2.048
			c11.836-1.821,24.507-4.173,33.764-12.367c1.974-1.973,5.463-3.718,4.856-6.981c-0.228-1.669-0.759-3.262-1.518-4.704
			c-1.29-2.731-3.111-5.235-4.249-8.119c2.655-0.986,5.387-1.973,7.967-3.187c9.257-9.029,13.885-21.927,14.871-34.674
			c-0.91-6.753-2.808-14.189-8.042-18.969c-9.562-4.781-20.79-3.263-30.502,0.227c-4.4,1.745-7.587,5.312-11.305,8.195
			c-2.959-0.684-4.78-4.098-6.753-6.374c-3.794-6.449-8.953-12.368-16.01-15.175c-5.918-0.228-12.671-1.821-17.754,1.973
			c-2.58,1.669-5.463,3.188-7.284,5.842c-4.097,7.664-6.449,16.161-7.132,24.735c-1.29-0.531-2.579-0.986-3.869-1.517
			c-9.029-3.339-18.438-5.615-28.074-5.312c-6.677,1.29-13.202,3.263-19.423,6.07c-12.671,6.601-20.714,19.5-25.418,32.625
			c-2.883,5.767-4.932,11.837-6.07,18.134c-1.062,5.691-3.262,11.229-3.566,17.071c0,3.946,0.304,7.892,0.228,11.836
			c-0.152,0.076-0.38,0.228-0.531,0.304c-4.097,2.276-8.953,2.2-13.506,2.959c-3.414-0.075-6.677-1.745-10.091-0.759h-0.076
			c-3.642,1.746-7.511,2.733-11.154,4.402c-0.834,5.159-1.669,12.291,4.553,14.264c2.2,0,4.476,0,6.677,0
			c7.891,0,15.706,0.076,23.597,0.152c0.607,0,1.213,0,1.821,0c1.897,9.863,3.794,20.029,9.029,28.756
			c6.146,9.939,12.216,20.334,21.548,27.618c8.953,5.994,20.259,6.222,30.501,4.401c3.869-0.456,6.601-3.49,10.092-4.933
			c2.124-1.29,5.311-1.593,6.069-4.324c6.98-11.381,1.669-25.417-4.704-35.813c-4.021-7.131-12.823-8.573-20.258-8.27
			c-4.4,0.683-7.132,4.4-10.698,6.677c-3.87,2.353-7.664,7.359-4.705,11.913c2.504,4.779,5.615,11.152,11.988,10.773
			c4.021-0.455,9.333-1.366,11.078-5.54c0.759-5.082-5.235-7.511-9.257-8.421c0.228,2.504,0.455,4.932,0.683,7.436
			c-2.048-1.441-4.173-2.808-6.297-4.248c1.29-6.678,8.726-6.526,13.885-8.575c5.235,8.119,10.698,18.59,6.45,28.302
			c-4.932,6.146-13.81,5.388-20.638,3.794c-8.953-1.366-14.947-9.408-18.893-16.921c-5.994-10.394-13.278-21.548-11.988-34.067
			c4.173-0.075,8.422-0.379,12.52,0.076c4.021,0.911,7.587,4.401,11.913,2.731c9.256-2.504,18.892-0.986,28.376-1.138
			c7.436-0.38,14.947-0.759,22.383-0.304c2.656,0.758,4.173,4.021,7.284,3.794c3.566,1.214,5.615-2.504,8.27-4.021
			c5.994-0.228,12.064-0.38,17.982,0c2.808,4.932,7.056,10.243,13.127,11.002c7.359,0.304,13.657-4.933,17.603-10.698
			c5.235,1.214,10.85,2.807,15.933,0.228c11.002-4.628,23.142-4.628,34.446-7.891c0-0.835,0-2.429,0-3.264
			C314.255,279.152,303.025,280.821,292.783,278.242z M242.023,278.469c-6.752,0.152-14.795,0.987-18.892-5.69
			c-2.732,0.759-5.463,1.821-6.905,4.477c-0.986-0.531-3.035-1.669-4.021-2.2c0-2.504,0-5.008,0.228-7.512c1.063,0,3.263,0,4.325,0
			h0.228c4.173,0.228,8.27-0.455,12.367-0.986c2.125,0.228,2.656,2.808,4.021,4.097C235.802,273.69,239.216,275.815,242.023,278.469
			z M237.243,285.375c-5.235,0.151-10.395,0.151-15.554-0.152c-0.531-3.111,3.414-2.504,5.312-2.959
			c4.4-0.303,8.725-0.075,13.126-0.075C240.278,284.388,239.368,285.451,237.243,285.375z M261.523,191.214
			c4.704-8.422,14.492-11.608,23.37-13.126c6.752-0.835,15.326,1.745,17.071,9.181c4.855,11.153-0.531,23.521-6.905,32.929
			c-3.717,3.49-7.965,6.297-11.457,10.016c-4.249-8.499-13.657-12.292-22.307-14.417
			C262.889,207.603,261.675,199.333,261.523,191.214z M211.75,183.323c2.124-7.132,7.588-13.96,15.327-15.023
			c7.587-2.731,14.568,3.339,18.665,9.105c2.125,3.87,5.387,6.677,8.877,9.18c3.87,12.444,2.883,26.329-2.807,38.09
			c-1.669,3.793-5.235,6.07-8.65,7.966c-9.181,2.656-18.816-1.366-25.342-7.891l0.151-0.91c-4.628-2.125-5.386-7.74-6.221-12.141
			C207.88,202.747,208.867,192.429,211.75,183.323z M93.993,293.113c-2.731-0.075-5.387-0.227-8.118-0.683
			c-0.456-2.579-1.593-6.374,1.062-8.119c2.732-1.518,4.628-3.945,6.222-6.601c0.303,0.076,0.531,0.076,0.834,0.076
			c2.276,0.304,4.628,0.228,6.905-0.228c-0.228,2.958-4.25,4.249-3.718,7.283c0.684,2.96,2.352,5.614,3.566,8.422
			C98.469,293.189,96.269,293.113,93.993,293.113z M106.208,291.065c-0.455,0.228-1.366,0.606-1.745,0.758
			c-1.518-2.124-2.731-4.324-3.642-6.753c1.062-1.821,1.972-3.793,2.807-5.689c1.29-0.076,2.655-0.152,3.945-0.304
			C105.526,282.719,102.946,287.195,106.208,291.065z M110.306,291.52c-0.304-0.53-0.987-1.668-1.29-2.275
			c0.227-2.276-0.152-4.856,1.82-6.525c0.152-0.152,0.38-0.456,0.532-0.683l0.834-0.987c0.152-0.303,0.379-0.91,0.455-1.213
			l0.304,0.834l1.062-0.456c-0.379,2.276-2.048,3.946-3.489,5.691C113.113,286.057,113.72,293.568,110.306,291.52z M115.844,285.146
			c0.38-1.139,0.986-1.972,1.746-2.58c2.656-2.048,7.208-1.518,10.395-1.745c3.794,0.532,8.498-0.985,11.381,2.277
			c-0.304,0.682-0.911,2.048-1.214,2.73c-6.829-0.303-13.733-0.454-20.562-0.606C116.983,285.223,116.451,285.223,115.844,285.146z
			 M147.484,274.145c-3.945,2.048-8.346,2.125-12.595,2.125c-0.911-6.526,3.187-12.064,6.222-17.451
			c1.366-0.304,2.731-0.607,4.098-0.986C143.311,263.447,144.373,269.213,147.484,274.145z M136.558,321.187
			c2.884,4.705,5.235,9.636,7.967,14.417c2.883,4.931,7.664,8.27,12.14,11.685c9.56,7.055,25.342,5.994,32.095-4.401
			c4.324-9.257-1.063-19.044-4.78-27.542c-6.374-10.016-22.99-2.429-22.534,8.498c3.642,2.2,7.739,6.677,12.291,3.87
			c-0.076-1.746-0.151-3.566-0.151-5.388c1.062,1.214,1.896,2.58,2.958,3.87c-2.579,3.338-6.752,3.187-10.471,2.654
			c-1.517-1.669-3.11-3.338-4.627-5.007c-1.897-10.851,11.988-20.031,21.244-14.493c6.601,4.25,8.422,12.293,11.002,19.196
			c3.035,8.271-1.442,18.059-9.257,21.7c-6.07,3.869-13.506,2.353-20.258,2.353c-9.256-0.455-15.25-7.968-21.245-13.961
			c-5.842-7.132-9.636-15.63-14.188-23.673c-2.352-6.524-3.718-13.506-4.249-20.41c0.834,0.152,2.428,0.38,3.338,0.455
			C131.399,303.508,131.626,313.22,136.558,321.187z M118.652,291.293c-0.303-0.532-0.759-1.594-1.062-2.125
			c8.042-1.29,16.085,0.607,24.128,0.91c0.303,0.379,0.911,1.063,1.29,1.441C134.889,291.52,126.694,292.127,118.652,291.293z
			 M143.614,283.402c2.504-3.111,5.615-5.615,8.877-8.043c-4.705-7.056-6.829-17.527-0.683-24.355
			c-1.214-1.442-2.58-3.946-4.78-2.656c-1.745,1.594-3.187,3.49-4.856,5.235c-7.057,5.387-9.788,13.961-14.037,21.32
			c-2.049-0.076-4.097-0.151-6.146-0.151c0-0.607-0.076-1.897-0.151-2.58c-0.38-3.415-0.607-6.753-0.228-10.167
			c1.518-5.995,4.173-11.609,5.691-17.679c0.151-0.456,0.379-1.442,0.531-1.973c0.228-0.759,0.607-2.201,0.835-2.959
			c4.552-12.368,10.167-25.038,20.183-33.992c6.449-6.373,15.706-8.118,24.128-10.774c9.484-0.531,18.968,2.353,27.542,6.297
			c0.152,0.076,0.304,0.152,0.456,0.229c3.793,1.518,3.565,5.994,4.4,9.408c0.683,2.58,1.366,5.235,2.2,7.815
			c1.291,3.87,2.959,7.815,6.222,10.395c5.463,4.172,11.154,8.725,17.982,10.318c6.07,1.138,12.747,0.455,17.982-3.035
			c4.552-4.097,6.676-10.09,11.381-14.036c4.401,2.2,9.333,3.186,13.581,5.691c4.401,2.807,6.525,7.814,9.181,12.139
			c0.152,0.379,0.303,0.759,0.456,1.138c0.684,1.594,1.289,3.187,1.973,4.78c-7.891,7.891-19.5,9.94-29.895,12.368
			c-4.325,1.29-8.346-0.986-11.912-3.035c-1.821,0.986-3.718,2.124-5.539,3.11c-6.525,3.491-14.113,5.387-21.548,4.553
			c-1.821-0.229-3.718-0.456-5.539-0.684c0.834-3.793,1.821-7.511,2.58-11.381c-0.91,0.076-2.807,0.228-3.718,0.304
			c-3.111,4.78-3.263,10.546-2.655,16.085c0.151,2.048,0.303,4.172,0.379,6.221c-2.2-2.731-4.021-5.766-4.097-9.332
			c0.151-3.945,0.683-7.815,0.986-11.76c-4.097-1.745-5.767,2.959-6.525,5.994c0,1.67,0.152,3.339,0.228,5.008
			c-7.208,1.669-14.872,2.504-22.004,0.152c-5.159-1.669-10.773-1.821-15.629-4.476c-0.152-1.974-0.38-4.022-0.531-5.995
			c-1.442-0.303-2.808-0.531-4.249-0.835c-1.897,5.084-4.552,10.244-4.25,15.858c0.986,3.643,4.021,6.374,6.298,9.333
			c-3.338,0.987-7.967,0.229-10.243,3.339c-1.365,6.07,4.173,9.559,7.739,13.278C151.126,291.823,145.359,289.093,143.614,283.402z
			 M207.273,279.152c-9.409,0.152-18.893,0.456-28.301-0.379c0.607-3.11,1.669-6.146,2.504-9.256c6.601-0.228,13.202,0,19.803-0.304
			C204.465,271.642,205.831,275.586,207.273,279.152z M175.406,278.242c-2.504-0.228-4.932-0.379-7.36-0.834
			c3.263-2.201,5.69-4.856,6.752-8.726l1.291-0.683C176.316,271.414,177.91,275.359,175.406,278.242z M167.97,266.861
			c-0.455,1.745-0.834,3.49-1.138,5.311c-2.352,1.291-4.476,3.035-6.525,4.628c-2.731-4.021-3.794-8.726-2.883-13.505
			C160.914,264.357,165.162,264.205,167.97,266.861z M153.857,285.526c-0.456-1.594-0.91-3.263-1.442-4.856
			c3.491,0.834,9.03-1.214,11.154,1.668c3.111,0.531,6.07,1.973,9.256,2.049c11.306-3.339,23.294-1.518,34.902-1.518
			c0.076,0.987,0.228,3.035,0.304,4.021c-8.726,0.304-17.451,0.38-26.177,0.152c-4.552,0-8.877-3.035-13.43-1.669
			c-1.973,0.151-4.249,2.275-5.994,0.454C159.472,285.678,156.665,285.602,153.857,285.526z M207.652,292.887
			c-13.125,0.454-26.176,0.227-39.302,0.151c-2.731-0.076-5.539-0.228-8.271-0.304c-0.683-0.911-1.366-1.897-2.049-2.808
			c3.415,0,6.829,0.075,10.319,0c13.43,0.151,26.859,0.379,40.289,1.29C208.335,291.672,207.88,292.506,207.652,292.887z
			 M209.625,274.524c1.518,1.896,3.187,3.566,5.008,5.159c2.428-2.808,7.815-7.284,10.015-1.973
			c-3.642,1.745-8.194,3.035-9.408,7.436l-0.076,0.531c0.531,3.87,1.973,7.587,3.111,11.306
			C210.459,291.975,214.329,281.505,209.625,274.524z M253.708,301.839c-3.643-1.745-5.918-5.235-8.726-7.967
			c4.325,1.896,8.574,3.945,13.126,5.464c2.58-1.063,6.222-6.754,8.346-2.58C263.041,299.79,258.412,302.901,253.708,301.839z
			 M275.863,292.506c-3.49,0.456-6.753-1.745-10.319-1.44c-6.981,0.454-14.037,1.062-20.941-0.456
			c-7.891,1.669-16.01,0.91-23.976,1.365c-0.076-0.758-0.152-2.275-0.228-3.034c8.119-0.683,16.237-0.38,24.204,1.213
			c7.436-0.985,15.023-0.075,22.458-1.365C270.097,289.017,276.546,287.65,275.863,292.506z M262.509,286.057
			c-4.552-0.605-9.333,0.229-13.809-1.139c0.303-0.53,0.911-1.668,1.214-2.275c8.119-0.682,16.237-1.821,24.508-1.365
			c2.276,0.455,4.021,2.276,5.918,3.49C274.801,287.499,268.427,286.815,262.509,286.057z M302.04,289.472
			c-6.146,1.138-11.912,3.869-18.21,4.021c0.152-1.669,0.228-3.414,0.228-5.084c0.683-0.454,2.124-1.44,2.884-1.896
			c0.152-1.821,0.379-3.643,0.53-5.464c5.083-0.228,9.864,1.67,14.871,2.201C302.419,285.223,303.025,287.499,302.04,289.472z"/>
		<path fill="#9FC86E" d="M172.371,242.733c1.973,1.896,3.87,4.021,6.45,5.083c4.856,1.897,8.27,6.45,13.354,8.043
			c-0.455,0.759-0.91,1.593-1.366,2.351c-6.904-2.2-14.265-0.531-21.169-2.731c3.87-2.048,3.87-6.373,1.897-9.712
			C171.688,245.009,172.144,243.492,172.371,242.733L172.371,242.733z"/>
		<path fill="#88BF71" d="M127.453,263.371c4.78-4.021,4.173-12.974,11.609-13.884c1.063,1.365,2.048,2.731,3.035,4.097
			c-7.057,5.387-9.788,13.961-14.037,21.32c-2.049-0.076-4.097-0.151-6.146-0.151c0-0.607-0.076-1.897-0.152-2.58
			C124.57,269.744,124.418,265.571,127.453,263.371L127.453,263.371z"/>
		<path fill="#6EB560" d="M227.455,252.445c4.021,1.594,7.74,3.717,11.533,5.766c-6.525,3.491-14.113,5.387-21.548,4.553
			c-0.38-2.808-0.456-5.615-0.152-8.422c0.683-0.076,2.049-0.228,2.731-0.379c0.683,1.973,1.366,3.946,2.048,5.994
			C223.965,257.528,225.786,255.025,227.455,252.445L227.455,252.445z"/>
		<path fill="#7CBB6C" d="M164.708,254.797c1.214,0.151,3.642,0.455,4.932,0.682c6.904,2.2,14.265,0.531,21.169,2.731
			c0.456-0.758,0.911-1.592,1.366-2.351c2.276,0.834,4.477,1.517,6.752,2.276c0,1.669,0.152,3.338,0.229,5.007
			c-7.208,1.669-14.872,2.503-22.004,0.151c0.759-0.53,2.276-1.593,3.035-2.124C174.798,259.729,168.805,258.97,164.708,254.797
			L164.708,254.797z"/>
		<path fill="#D17C85" d="M93.234,277.711c2.58,0.38,5.16,0.38,7.74-0.151c-0.228,2.958-4.25,4.249-3.718,7.283
			c0.683,2.96,2.352,5.614,3.566,8.422c-4.932-0.227-9.94,0.076-14.796-0.834c-0.455-2.579-1.593-6.374,1.063-8.119
			C89.744,282.719,91.641,280.367,93.234,277.711L93.234,277.711z"/>
		<path fill="#FFFFFF" d="M287.472,281.049c5.083-0.228,9.864,1.67,14.871,2.201c0,2.049,0.606,4.326-0.379,6.298
			c-6.146,1.137-11.912,3.869-18.21,4.021c0.152-1.669,0.229-3.415,0.229-5.084c0.682-0.454,2.124-1.44,2.883-1.896
			C287.094,284.691,287.32,282.87,287.472,281.049L287.472,281.049z"/>
		<path fill="#E1CB86" d="M152.416,280.67c3.491,0.834,9.03-1.214,11.154,1.668c-0.607-0.076-1.821-0.227-2.428-0.303
			c0.38,1.214,0.759,2.503,1.214,3.718c-2.808,0-5.69-0.152-8.498-0.152C153.402,283.933,152.872,282.263,152.416,280.67
			 M117.59,289.168c8.042-1.29,16.085,0.607,24.128,0.91c0.303,0.379,0.911,1.063,1.29,1.441c-8.119,0-16.313,0.607-24.355-0.227
			C118.349,290.761,117.817,289.699,117.59,289.168L117.59,289.168z"/>
		<path fill="#DDC377" d="M115.844,285.146c1.518-5.007,8.043-4.098,12.216-4.325c3.793,0.532,8.498-0.985,11.381,2.277
			c-0.304,0.682-0.911,2.048-1.214,2.73C130.716,285.451,123.28,285.375,115.844,285.146 M168.35,290.002
			c13.43,0.151,26.859,0.38,40.289,1.291c-0.228,0.454-0.759,1.289-0.987,1.669c-13.125,0.455-26.176,0.228-39.302,0.151
			C168.35,292.278,168.35,290.761,168.35,290.002L168.35,290.002z"/>
		<path fill="#DCC576" d="M161.141,282.036c0.607,0.076,1.821,0.228,2.428,0.303c3.111,0.531,6.07,1.973,9.256,2.049
			c11.306-3.339,23.294-1.518,34.902-1.518c0.076,0.987,0.228,3.035,0.304,4.021c-8.726,0.304-17.451,0.38-26.177,0.152
			c-4.552,0-8.877-3.036-13.43-1.669c-1.973,0.151-4.249,2.275-5.994,0.454C161.9,284.464,161.521,283.25,161.141,282.036
			 M158.03,289.927c3.415,0,6.829,0.075,10.319,0c0,0.758,0,2.352,0,3.111c-2.731-0.076-5.539-0.228-8.271-0.304
			C159.396,291.823,158.713,290.913,158.03,289.927L158.03,289.927z"/>
		<path fill="#F5D877" d="M221.689,285.223c-0.531-3.111,3.414-2.504,5.312-2.959c4.4-0.303,8.725-0.075,13.126-0.075
			c0.227,2.2-0.684,3.263-2.808,3.187C232.084,285.526,226.848,285.526,221.689,285.223 M249.914,282.643
			c8.119-0.682,16.237-1.821,24.508-1.365c2.276,0.455,4.021,2.276,5.918,3.49c-5.539,2.731-11.836,2.124-17.831,1.29
			c-4.552-0.606-9.333,0.228-13.809-1.14C249.003,284.312,249.611,283.174,249.914,282.643 M220.399,289.017
			c8.119-0.683,16.237-0.381,24.204,1.213c7.436-0.985,15.023-0.076,22.458-1.365c3.111,0.229,9.561-1.138,8.802,3.718
			c-3.49,0.456-6.753-1.745-10.319-1.44c-6.981,0.454-14.037,1.061-20.941-0.457c-7.891,1.67-16.01,0.911-23.976,1.366
			C220.551,291.293,220.475,289.775,220.399,289.017L220.399,289.017z"/>
		<path fill="#969E64" d="M215.164,285.754c0-0.152,0.076-0.379,0.076-0.531L215.164,285.754L215.164,285.754z"/>
	</g>
</g>
</svg>
