<?xml version="1.0" encoding="utf-8"?>
<!-- Generator: Adobe Illustrator 14.0.0, SVG Export Plug-In . SVG Version: 6.00 Build 43363)  -->
<!DOCTYPE svg PUBLIC "-//W3C//DTD SVG 1.1//EN" "http://www.w3.org/Graphics/SVG/1.1/DTD/svg11.dtd">
<svg version="1.1" id="Слой_1" xmlns="http://www.w3.org/2000/svg" xmlns:xlink="http://www.w3.org/1999/xlink" x="0px" y="0px"
	 width="566.93px" height="566.93px" viewBox="0 0 566.93 566.93" enable-background="new 0 0 566.93 566.93" xml:space="preserve">
<path fill="#111430" d="M56.83,421.388l3.845,18.325h9.11l-14.068-66.31H44.984L30,439.713h9.111l3.947-18.325H56.83L56.83,421.388z
	 M44.076,414l3.241-15.792c0.809-4.253,1.823-10.324,2.532-15.184h0.404c0.709,4.757,1.519,10.629,2.43,15.184L55.723,414H44.076z
	 M93.576,371.584v24.903h-0.203c-1.62-3.646-4.656-5.366-8.504-5.366c-7.59,0-14.778,7.896-14.778,24.901
	c0,14.778,5.365,24.503,14.274,24.503c4.76,0,8.402-3.245,10.022-6.583h0.302l0.61,5.774h7.895
	c-0.206-4.115-0.307-8.233-0.302-12.354v-55.779H93.576L93.576,371.584z M93.576,422.909c0,1.011-0.1,2.228-0.302,3.036
	c-1.519,5.671-4.352,6.784-6.377,6.784c-4.962,0-7.49-6.887-7.49-16.707c0-8.909,2.025-17.006,7.795-17.006
	c3.341,0,5.771,3.745,6.277,8.097c0.1,1.014,0.1,2.128,0.1,2.937v12.859H93.576z M123.339,440.525
	c7.288,0,16.602-5.87,16.602-24.805c0-16.194-6.781-24.596-16.197-24.596c-8.807,0-17.006,7.388-17.006,24.801
	c0,16.399,6.884,24.603,16.502,24.603h0.1V440.525L123.339,440.525z M123.441,433.236c-6.075,0-7.392-9.515-7.392-17.413
	c0-7.186,1.114-17.41,7.289-17.41c5.872,0,7.188,10.225,7.188,17.41c0,7.288-1.316,17.413-6.986,17.413H123.441z M143.891,427.363
	c0,3.646-0.205,9.108-0.404,12.354h7.998l0.403-5.977h0.408c2.124,4.15,4.756,6.785,9.516,6.785c7.795,0,14.778-8.402,14.778-25.511
	c0-14.68-5.061-23.89-13.261-23.89c-4.252,0-7.593,1.823-10.022,6.175h-0.202v-25.713h-9.211v55.776H143.891L143.891,427.363z
	 M153.102,409.443c0-1.015,0.099-2.33,0.302-3.341c0.709-3.444,3.139-7.086,6.174-7.086c5.568,0,7.692,7.388,7.692,16.604
	c0,9.82-2.021,17.108-7.593,17.108c-1.823,0-4.656-1.216-6.175-6.983c-0.305-0.809-0.404-1.922-0.404-2.939v-13.363H153.102
	L153.102,409.443z M210.095,417.746c0.099-1.217,0.202-2.731,0.202-5.062c0-12.048-4.657-21.563-14.576-21.563
	c-9.92,0-17.109,9.615-17.109,25.309c0,14.683,6.277,23.79,18.322,23.79c4.149,0,8.504-0.809,11.338-2.329l-1.315-6.683
	c-2.597,1.219-5.432,1.843-8.3,1.826c-5.567,0-10.934-3.042-11.036-15.395L210.095,417.746L210.095,417.746z M187.723,411.063
	c0.302-5.972,2.532-12.955,7.288-12.955c3.646,0,6.579,4.454,6.479,12.955H187.723L187.723,411.063z M213.332,391.323
	c-2.024,0-3.744,1.724-3.744,3.749c0,2.124,1.723,3.845,3.744,3.845c2.129,0,3.746-1.721,3.746-3.845
	c0.009-2.062-1.654-3.739-3.716-3.749C213.353,391.323,213.343,391.323,213.332,391.323L213.332,391.323z M213.332,392.033
	c1.647-0.031,3.009,1.278,3.04,2.925c0.001,0.038,0.001,0.076,0,0.114c0,1.819-1.316,3.241-3.04,3.136
	c-1.617,0-2.933-1.316-2.933-3.136C210.399,393.349,211.715,392.033,213.332,392.033z M212.627,395.474h0.504
	c0.507,0,0.812,0.202,0.911,0.709c0,0.606,0.103,1.014,0.202,1.113h0.812c-0.103-0.103-0.202-0.407-0.305-1.014
	c-0.1-0.61-0.302-1.015-0.606-1.015v-0.1c0.404-0.099,0.709-0.404,0.709-1.014c0-0.404-0.103-0.606-0.305-0.809
	c-0.418-0.282-0.915-0.425-1.418-0.404c-0.504,0-0.912,0.1-1.214,0.202v4.149h0.71V395.474L212.627,395.474z M212.627,393.551h0.504
	c0.709,0,1.014,0.305,1.014,0.709c0,0.508-0.507,0.71-1.014,0.71h-0.504V393.551L212.627,393.551z"/>
<path fill="#111430" d="M233.076,439.717h9.21v-26.426c1.012,0.103,1.923,0.103,3.136,0.103c5.771,0,12.15-2.227,15.896-6.986
	c2.834-3.543,4.454-7.895,4.454-14.374c0-5.771-1.62-10.831-5.061-14.073c-3.745-3.543-9.211-4.858-15.893-4.858
	c-4.454,0-8.504,0.504-11.643,1.213L233.076,439.717L233.076,439.717z M242.286,381.202c1.285-0.359,2.614-0.53,3.948-0.508
	c7.695,0,10.327,5.568,10.327,12.048c0,8.299-4.352,13.158-11.541,13.158c-1.011,0-1.822,0-2.73-0.202v-24.496H242.286
	L242.286,381.202z M269.216,439.717h9.313v-30.575c0-1.113,0.202-2.632,0.404-3.543c1.011-4.558,3.443-6.682,6.479-6.682
	c4.757,0,5.87,5.061,5.87,10.529v30.271h9.413v-30.777c0-12.15-4.555-17.814-11.537-17.814c-2.532,0-4.657,0.706-6.377,1.621
	c-1.595,1.12-2.969,2.527-4.05,4.149h-0.202v-25.309h-9.313V439.717z M321.247,440.525c7.292,0,16.599-5.87,16.599-24.805
	c0-16.194-6.785-24.596-16.197-24.596c-8.807,0-16.906,7.388-16.906,24.801c0,16.399,6.884,24.603,16.398,24.603h0.106V440.525z
	 M321.347,433.236c-5.97,0-7.388-9.515-7.388-17.413c0-7.186,1.213-17.41,7.288-17.41c5.873,0,7.186,10.225,7.186,17.41
	c0,7.288-1.313,17.413-6.986,17.413H321.347z M343.821,383.631v8.2h-5.87v6.986h5.87v25.915c0,6.983,1.011,10.324,3.238,12.654
	c1.922,2.024,4.759,2.939,8.001,2.939c2.833,0,4.958-0.305,6.479-0.815l-0.306-7.281c-1.018,0.202-2.024,0.298-3.139,0.298
	c-2.73,0-4.958-1.617-4.958-7.586v-26.127h9.211v-6.987h-9.211V380.29L343.821,383.631z"/>
<path fill="#111430" d="M378.343,440.525c7.187,0,16.599-5.87,16.599-24.805c0-16.194-6.777-24.596-16.3-24.596
	c-8.7,0-16.903,7.388-16.903,24.801c0,16.399,6.881,24.603,16.502,24.603h0.103V440.525z M378.343,433.236
	c-5.976,0-7.288-9.515-7.288-17.413c0-7.186,1.114-17.41,7.288-17.41c5.867,0,7.083,10.225,7.083,17.41
	c0,7.288-1.216,17.413-6.983,17.413H378.343z M395.959,437.585c2.019,1.617,6.168,2.738,9.82,2.738
	c8.498,0,15.282-4.862,15.282-14.48c0-6.274-3.748-10.831-9.82-14.577c-4.653-3.039-5.87-4.656-5.87-7.49
	c0-2.734,1.923-5.365,5.774-5.365c2.628,0,4.653,0.809,6.473,2.021l2.024-6.983c-2.71-1.553-5.785-2.356-8.908-2.33
	c-8.098,0-14.072,5.771-14.072,13.87c0,5.062,3.035,9.52,9.717,13.669c4.558,2.933,5.976,5.167,5.976,8.401
	c0,3.742-2.426,6.072-6.479,6.072c-3.132,0-6.273-1.419-7.994-2.427L395.959,437.585L395.959,437.585z M424.402,439.717h9.316
	v-30.575c0-1.113,0.202-2.632,0.401-3.543c1.114-4.558,3.443-6.682,6.479-6.682c4.76,0,5.869,5.061,5.869,10.529v30.271h9.413
	v-30.777c0-12.15-4.55-17.814-11.534-17.814c-2.531,0-4.659,0.706-6.383,1.621c-1.594,1.121-2.965,2.528-4.047,4.149h-0.202v-25.309
	h-9.316v68.13H424.402L424.402,439.717z M476.435,440.525c7.288,0,16.604-5.87,16.604-24.805c0-16.194-6.784-24.596-16.197-24.596
	c-8.81,0-16.91,7.388-16.91,24.801c0,16.399,6.888,24.603,16.403,24.603h0.1V440.525z M476.537,433.236
	c-5.976,0-7.391-9.515-7.391-17.413c0-7.186,1.216-17.41,7.288-17.41c5.869,0,7.191,10.225,7.191,17.41
	c0,7.288-1.319,17.413-6.983,17.413H476.537L476.537,433.236z M496.986,458.645h9.31v-23.383h0.206
	c1.209,2.629,3.947,5.264,8.097,5.264c7.689,0,15.083-7.289,15.083-24.805c0-14.878-5.061-24.596-14.168-24.596
	c-3.947,0-7.696,1.922-10.026,6.682h-0.202l-0.504-5.973h-8.097c0.097,3.745,0.305,8.203,0.305,14.984v51.826H496.986z
	 M506.296,409.648c0-1.113,0.104-2.429,0.408-3.543c0.504-3.646,3.139-7.086,6.071-7.086c5.168,0,7.594,7.086,7.594,16.906
	c0,8.807-1.923,16.807-7.594,16.807c-1.922,0-4.759-1.113-5.969-6.582c-0.407-1.113-0.511-2.426-0.511-3.947V409.648
	L506.296,409.648z M533.129,391.323c-2.131,0-3.844,1.724-3.844,3.749c0,2.124,1.716,3.845,3.844,3.845
	c2.025,0,3.742-1.721,3.742-3.845C536.871,393.044,535.154,391.323,533.129,391.323z M533.129,392.033
	c1.617,0,2.934,1.315,2.934,3.039c0,1.819-1.313,3.241-2.934,3.136c-1.723,0-3.042-1.316-3.042-3.136
	C530.087,393.349,531.406,392.033,533.129,392.033z M532.416,395.474h0.408c0.504,0,0.809,0.202,0.911,0.709
	c0.097,0.606,0.097,1.014,0.202,1.113h0.809c-0.103-0.103-0.103-0.407-0.205-1.014c-0.096-0.61-0.401-1.015-0.706-1.015v-0.1
	c0.401-0.099,0.809-0.404,0.809-1.014c0-0.404-0.202-0.606-0.407-0.809c-0.299-0.202-0.706-0.404-1.313-0.404
	s-0.904,0.1-1.313,0.202v4.149h0.809v-1.819H532.416L532.416,395.474z M532.416,393.551h0.504c0.713,0,0.912,0.305,0.912,0.709
	c0,0.508-0.408,0.71-1.012,0.71h-0.407v-1.419H532.416L532.416,393.551z"/>
<radialGradient id="SVGID_1_" cx="-183.917" cy="238.1895" r="0.067" gradientTransform="matrix(2291.6716 0 0 -2218.7549 421721.25 528645.3125)" gradientUnits="userSpaceOnUse">
	<stop  offset="0" style="stop-color:#35374E;stop-opacity:0.98"/>
	<stop  offset="1" style="stop-color:#0F0D22"/>
</radialGradient>
<path fill="url(#SVGID_1_)" d="M177.932,117.1h201.065v195.581H177.932V117.1z"/>
<path fill="#44BFEA" d="M177.932,117.1h201.065v195.581H177.932V117.1z M168.793,321.82h219.343V107.96H168.793V321.82z
	 M316.666,195.698c-7.22,0-9.687,3.656-9.687,6.671c0,3.29,1.645,5.575,11.333,10.602c14.348,6.946,18.826,13.618,18.826,23.397
	c0,14.623-11.15,22.482-26.229,22.482c-7.951,0-14.806-1.645-18.736-3.93c-0.64-0.274-0.73-0.731-0.73-1.462v-13.435
	c0-0.914,0.457-1.189,1.097-0.731c5.758,3.747,12.338,5.392,18.37,5.392c7.221,0,10.236-3.016,10.236-7.129
	c0-3.29-2.102-6.214-11.333-10.967c-12.979-6.214-18.37-12.521-18.37-23.031c0-11.79,9.23-21.569,25.224-21.569
	c7.861,0,13.345,1.188,16.361,2.559c0.73,0.457,0.912,1.188,0.912,1.828v12.52c0,0.732-0.456,1.189-1.37,0.914
	C328.547,197.252,322.607,195.698,316.666,195.698L316.666,195.698z M238.069,206.573c2.102,0.183,3.748,0.183,7.402,0.183
	c10.694,0,20.747-3.747,20.747-18.279c0-11.606-7.22-17.456-19.375-17.456c-3.655,0-7.129,0.183-8.774,0.274V206.573z
	 M221.801,158.043c0-0.64,1.28-1.097,2.011-1.097c5.85-0.274,14.532-0.457,23.579-0.457c25.316,0,35.187,13.892,35.187,31.623
	c0,23.213-16.816,33.176-37.471,33.176c-3.473,0-4.66-0.183-7.128-0.183V256.2c0,0.731-0.274,1.096-1.097,1.096h-13.982
	c-0.731,0-1.098-0.274-1.098-1.096L221.801,158.043L221.801,158.043z"/>
</svg>
