<?xml version="1.0" encoding="utf-8"?>
<!-- Generator: Adobe Illustrator 14.0.0, SVG Export Plug-In . SVG Version: 6.00 Build 43363)  -->
<!DOCTYPE svg PUBLIC "-//W3C//DTD SVG 1.1//EN" "http://www.w3.org/Graphics/SVG/1.1/DTD/svg11.dtd">
<svg version="1.1" id="Слой_1" xmlns="http://www.w3.org/2000/svg" xmlns:xlink="http://www.w3.org/1999/xlink" x="0px" y="0px"
	 width="566.93px" height="566.93px" viewBox="0 0 566.93 566.93" enable-background="new 0 0 566.93 566.93" xml:space="preserve">
<path d="M59.439,373.668h29.976c17.503,0,28.088,10.352,28.088,25.361v0.207c0,16.977-13.207,25.783-29.667,25.783H75.579v22.014
	h-16.14V373.668z M88.373,410.666c8.074,0,12.784-4.822,12.784-11.111v-0.207c0-7.229-5.029-11.109-13.104-11.109H75.579v22.428
	h12.785H88.373z M120.333,370.52h15.933v28.303c3.666-4.719,8.384-9.016,16.458-9.016c12.077,0,19.073,7.963,19.073,20.859v36.367
	h-15.933v-31.338c0-7.549-3.563-11.422-9.644-11.422c-6.082,0-9.955,3.883-9.955,11.422v31.338h-15.933V370.52L120.333,370.52z
	 M175.144,390.852h15.933v8.074c3.882-5.246,9.221-9.119,17.503-9.119c13.103,0,25.577,10.275,25.577,29.037v0.207
	c0,18.762-12.267,29.035-25.577,29.035c-8.489,0-13.733-3.881-17.503-8.385v24.111h-15.933V390.852L175.144,390.852z
	 M218.224,419.051v-0.207c0-9.326-6.289-15.527-13.733-15.527c-7.444,0-13.629,6.186-13.629,15.527v0.207
	c0,9.324,6.186,15.527,13.629,15.527C211.935,434.578,218.224,428.479,218.224,419.051L218.224,419.051z"/>
<path d="M231.74,436.346l9.532-11.422c6.601,5.453,13.518,8.912,21.902,8.912c6.599,0,10.585-2.588,10.585-6.9v-0.209
	c0-4.088-2.519-6.184-14.777-9.324c-14.776-3.77-24.317-7.857-24.317-22.428v-0.242c0-13.309,10.688-22.117,25.68-22.117
	c9.893-0.16,19.53,3.139,27.251,9.324l-8.386,12.156c-6.495-4.504-12.896-7.23-19.071-7.23c-6.177,0-9.437,2.83-9.437,6.393v0.207
	c0,4.822,3.139,6.393,15.828,9.645c14.88,3.881,23.292,9.221,23.292,22.014v0.207c0,14.57-11.111,22.748-26.94,22.748
	C251.412,448.125,240.327,443.949,231.74,436.346L231.74,436.346z"/>
<path d="M293.471,431.102V404.48h-6.711v-13.629h6.711v-14.355h15.932v14.355h13.207v13.629h-13.207v24.008
	c0,3.666,1.57,5.451,5.177,5.451c2.747,0.012,5.45-0.674,7.858-1.992v12.818c-3.804,2.244-8.163,3.371-12.576,3.252
	C300.078,447.975,293.471,444.102,293.471,431.102L293.471,431.102z"/>
<path d="M321.558,419.258v-0.207c0-16.141,13-29.244,30.502-29.244c17.504,0,30.296,12.896,30.296,29.037v0.207
	c0,16.139-13,29.242-30.502,29.242C334.351,448.293,321.558,435.396,321.558,419.258L321.558,419.258z M366.63,419.258v-0.207
	c0-8.281-5.978-15.527-14.776-15.527c-9.119,0-14.569,7.021-14.569,15.303v0.207c0,8.281,5.977,15.527,14.775,15.527
	C361.178,434.561,366.63,427.512,366.63,419.258L366.63,419.258z M384.443,390.852h15.934v11.316
	c3.252-7.764,8.487-12.783,17.924-12.369v16.666h-0.861c-10.586,0-17.091,6.393-17.091,19.84v20.756h-15.905V390.852z
	 M420.389,390.852h15.898v7.963c3.667-4.719,8.488-9.016,16.562-9.016c7.343,0,12.897,3.252,15.83,8.91
	c4.926-5.762,10.8-8.91,18.442-8.91c11.845,0,18.979,7.125,18.979,20.65v36.584h-15.898v-31.338c0-7.549-3.355-11.422-9.324-11.422
	c-5.97,0-9.646,3.883-9.646,11.422v31.338h-15.967v-31.338c0-7.549-3.355-11.422-9.324-11.422c-5.971,0-9.653,3.873-9.653,11.422
	v31.338h-15.898V390.852z"/>
<g>
	<g>
		
			<linearGradient id="SVGID_1_" gradientUnits="userSpaceOnUse" x1="180.5972" y1="172.9297" x2="276.7399" y2="299.9239" gradientTransform="matrix(1 0 0 -1 -14.1953 429.5039)">
			<stop  offset="0.0161" style="stop-color:#62599F"/>
			<stop  offset="0.3821" style="stop-color:#87559A"/>
			<stop  offset="0.7581" style="stop-color:#E63E8C"/>
			<stop  offset="0.9409" style="stop-color:#E63E8A"/>
		</linearGradient>
		<polygon fill="url(#SVGID_1_)" points="294.143,153.07 283.347,120.355 203.524,103.343 164.595,147.507 286.293,209.665 		"/>
		
			<linearGradient id="SVGID_2_" gradientUnits="userSpaceOnUse" x1="187.6558" y1="167.9443" x2="283.6476" y2="294.7393" gradientTransform="matrix(1 0 0 -1 -14.1953 429.5039)">
			<stop  offset="0.0161" style="stop-color:#62599F"/>
			<stop  offset="0.3821" style="stop-color:#87559A"/>
			<stop  offset="0.7581" style="stop-color:#E63E8C"/>
			<stop  offset="0.9409" style="stop-color:#E63E8A"/>
		</linearGradient>
		<polygon fill="url(#SVGID_2_)" points="256.195,238.782 253.904,170.733 164.595,147.507 186.514,278.691 256.195,278.039 		"/>
		
			<linearGradient id="SVGID_3_" gradientUnits="userSpaceOnUse" x1="345.1611" y1="174.3511" x2="290.9114" y2="303.1043" gradientTransform="matrix(1 0 0 -1 -14.1953 429.5039)">
			<stop  offset="0.1828" style="stop-color:#62599F"/>
			<stop  offset="0.2382" style="stop-color:#6C589D"/>
			<stop  offset="0.3449" style="stop-color:#7A569B"/>
			<stop  offset="0.4425" style="stop-color:#83559A"/>
			<stop  offset="0.5219" style="stop-color:#87559A"/>
		</linearGradient>
		<polygon fill="url(#SVGID_3_)" points="236.894,237.472 241.146,183.493 305.921,117.084 363.826,127.553 393.595,201.812 
			362.517,232.565 311.809,224.386 280.404,257.426 		"/>
		
			<linearGradient id="SVGID_4_" gradientUnits="userSpaceOnUse" x1="385.7109" y1="138.5176" x2="259.539" y2="236.0812" gradientTransform="matrix(1 0 0 -1 -14.1953 429.5039)">
			<stop  offset="0.0161" style="stop-color:#62599F"/>
			<stop  offset="0.3821" style="stop-color:#87559A"/>
		</linearGradient>
		<polygon fill="url(#SVGID_4_)" points="305.921,117.084 213.011,199.525 231.004,305.518 308.212,332.344 393.595,281.311 		"/>
	</g>
	<g>
		<rect x="208.432" y="147.182" width="141.324" height="141.322"/>
		<rect x="221.845" y="262.007" fill="#FFFFFF" width="52.998" height="8.834"/>
		<path fill="#FFFFFF" d="M221.19,165.5h23.882c14.068,0,22.572,8.179,22.572,20.283v0.326c0,13.74-10.469,20.609-23.881,20.609
			h-9.814v17.667h-12.76V165.5z M244.417,194.943c6.545,0,10.142-3.926,10.142-8.833v-0.326c0-5.888-3.926-8.833-10.469-8.833
			h-9.814v17.993H244.417z"/>
		<path fill="#FFFFFF" d="M270.916,215.881l7.524-9.162c5.236,4.255,10.794,7.197,17.667,7.197c5.232,0,8.504-1.961,8.504-5.562
			v-0.326c0-3.271-1.962-4.907-11.775-7.523c-11.779-2.945-19.629-6.217-19.629-17.993v-0.329c0-10.795,8.504-17.664,20.61-17.664
			c8.504,0,16.031,2.617,21.919,7.524l-6.872,9.814c-5.232-3.597-10.466-5.888-15.373-5.888s-7.527,2.291-7.527,5.233v0.329
			c0,3.923,2.62,5.233,12.76,7.85c11.776,3.271,18.648,7.523,18.648,17.667v0.326c0,11.778-8.834,18.321-21.594,18.321
			C286.947,225.367,278.114,222.095,270.916,215.881"/>
	</g>
</g>
</svg>
