<?xml version="1.0" encoding="utf-8"?>
<!-- Generator: Adobe Illustrator 14.0.0, SVG Export Plug-In . SVG Version: 6.00 Build 43363)  -->
<!DOCTYPE svg PUBLIC "-//W3C//DTD SVG 1.1//EN" "http://www.w3.org/Graphics/SVG/1.1/DTD/svg11.dtd">
<svg version="1.1" id="Слой_1" xmlns="http://www.w3.org/2000/svg" xmlns:xlink="http://www.w3.org/1999/xlink" x="0px" y="0px"
	 width="566.93px" height="566.93px" viewBox="0 0 566.93 566.93" enable-background="new 0 0 566.93 566.93" xml:space="preserve">
<g transform="translate(0.000000,227.000000) scale(0.100000,-0.100000)">
	<path d="M1419.121-1985.391v-288.799h30.786c19.712,0,32.026,3.076,33.872,7.998c1.23,3.691,5.542,15.4,9.233,25.254l6.162,17.236
		l24.014-21.553c28.33-25.244,73.896-38.174,120.693-33.252c78.208,8.008,123.774,60.352,139.165,159.482
		c13.55,86.826-6.772,173.652-51.108,218.613c-55.42,56.65-152.715,59.111-207.52,5.537l-22.783-22.168l0.615,109.6v109.004
		l-41.255,0.615l-41.875,0.615V-1985.391z M1661.738-1953.379c24.634-24.004,34.487-56.641,34.487-115.762
		c0-57.265-9.238-86.816-36.948-113.916c-20.938-21.553-25.864-23.398-56.655-23.398c-45.566,0-71.426,17.236-86.821,58.496
		c-16.011,43.105-12.935,144.092,5.542,175.498C1549.053-1924.433,1621.714-1914.58,1661.738-1953.379z"/>
	<path d="M1887.114-1986.006v-288.183h43.105h43.105v286.338c0,224.131-1.851,286.328-7.393,287.559
		c-4.307,0-24.014,1.24-43.105,1.24l-35.713,1.23V-1986.006z"/>
	<path d="M2109.414-1718.144c-19.092-15.4-23.403-50.488-8.623-68.359c16.626-20.313,49.878-24.014,71.431-7.383
		c21.553,17.246,23.403,54.805,3.076,73.887C2158.672-1704.599,2127.27-1703.984,2109.414-1718.144z"/>
	<path d="M608.14-1734.775c-41.255-13.545-68.35-33.857-86.211-64.033c-14.165-23.408-16.626-35.723-16.626-71.436
		c-0.615-78.818,35.098-120.078,139.78-165.029c80.054-33.867,108.999-59.736,108.999-96.67c0-77.598-107.148-94.219-250.625-39.414
		c-6.772,3.076-8.008-4.316-6.772-38.799l1.846-41.865l30.786-11.709c40.645-15.391,127.471-20.313,176.733-10.459
		c91.138,17.861,134.238,65.273,134.238,149.014c0,70.205-28.94,107.754-110.84,144.707
		c-116.382,51.729-135.474,67.734-135.474,111.455c0,64.658,73.896,85.596,177.959,49.883c18.477-6.777,33.867-11.094,35.103-10.469
		c0.615,1.23,7.388,16.621,14.78,35.098c10.469,26.475,11.084,34.482,4.922,38.799
		C789.795-1731.689,656.172-1718.76,608.14-1734.775z"/>
	<path d="M3611.308-1769.258v-36.328l78.809-1.855l78.213-1.836l1.836-232.158l1.23-232.754h43.115h43.095v233.994v233.984h80.049
		h80.674l-1.24,23.408c-0.605,12.314-2.461,28.945-3.691,36.953l-3.076,13.545H3810.81h-199.502V-1769.258z"/>
	<path d="M4967.246-1817.285c-12.939-40.02-15.381-43.721-44.326-59.111c-25.879-14.16-30.791-19.707-30.791-35.107
		c0-17.236,1.23-17.852,27.09-17.852h27.09l2.461-133.623c2.471-141.631,6.777-163.183,35.107-189.043
		c28.32-25.869,83.125-34.492,142.246-21.563l30.781,6.777v33.252c0,36.943,4.932,34.492-46.787,24.014
		c-8.633-1.846-25.879-0.615-37.578,3.691c-34.463,11.094-38.789,29.561-38.789,162.568v113.926h58.496h58.496v30.791v30.166
		l-56.641,1.855l-57.266,1.836l-1.855,44.961l-1.836,44.336h-25.879h-26.475L4967.246-1817.285z"/>
	<path d="M2472.109-1861.006c-26.479-8.008-51.733-23.408-67.739-40.645l-15.396-16.621l-6.152,27.1l-6.772,26.465h-33.257h-33.867
		v-203.203v-203.203l41.87-1.846l41.255-1.846v103.447c0,109.609,6.162,168.721,19.712,196.426
		c17.852,38.799,76.353,57.266,115.767,37.568c33.252-16.621,36.943-36.943,36.943-193.349v-143.477h42.49h42.49l2.461,137.314
		c1.841,147.783,3.691,156.406,38.184,188.428c22.158,20.322,72.661,24.639,99.756,7.998
		c28.936-18.467,33.252-43.721,33.252-197.666v-136.074h43.096h43.115v153.33c0,174.258-4.932,203.193-40.645,233.994
		c-19.707,17.236-64.043,31.396-100.376,31.396c-32.017,0-81.279-19.082-105.303-40.635l-24.014-22.168l-19.697,22.168
		C2590.337-1862.851,2520.757-1846.23,2472.109-1861.006z"/>
	<path d="M3141.465-1861.621c-35.107-9.238-54.814-20.938-81.904-50.498c-38.799-41.865-48.652-74.502-48.652-161.943
		c0-68.359,1.23-76.357,16.631-104.687c20.938-39.404,49.268-66.504,88.057-84.365c25.869-11.689,41.25-14.16,98.525-14.16
		c49.258,0,76.357,3.086,100.371,11.084l32.021,11.699v36.953c0,32.637-1.23,36.318-10.469,32.637
		c-126.24-52.344-221.055-23.398-238.311,72.656l-4.297,22.783h136.074h135.479v49.268c0,84.365-33.867,144.092-96.68,170.566
		C3240.595-1858.545,3172.246-1854.238,3141.465-1861.621z M3235.683-1934.277c22.773-12.324,41.25-42.49,44.326-72.051
		l1.846-18.477l-90.518-1.846l-91.133-1.846v17.246c0,9.844,6.152,28.32,14.16,41.25
		C3139.004-1926.894,3191.963-1911.504,3235.683-1934.277z"/>
	<path d="M4196.914-1864.707c-81.904-22.783-123.77-83.74-128.701-188.418c-4.307-95.449,21.543-157.646,82.51-195.83
		c51.123-33.242,143.477-39.404,222.91-16.006l32.021,9.854v36.338v36.328l-35.088-12.939c-24.639-8.613-52.354-12.92-88.682-13.535
		c-46.807-0.625-55.42,1.23-75.732,14.775c-25.254,16.621-43.73,46.787-49.893,81.894l-4.307,22.783h136.094h136.084v45.576
		c0,63.418-14.775,104.678-49.258,139.16C4332.988-1862.236,4262.177-1846.836,4196.914-1864.707z M4299.13-1935.517
		c22.783-13.545,36.953-37.549,39.395-67.734l2.471-21.553h-92.363h-92.373l1.846,15.391c3.701,25.869,22.793,57.891,44.346,72.666
		C4228.32-1919.502,4271.416-1918.271,4299.13-1935.517z"/>
	<path d="M933.892-2026.035c1.841-157.021,2.461-166.26,15.391-190.889c9.238-17.246,24.014-32.031,43.105-43.105
		c26.479-15.391,35.098-17.246,84.976-17.246c59.116,0,90.522,11.084,116.382,39.414c16.631,17.852,20.322,16.621,24.634-11.699
		l3.696-24.629h33.867h33.867v206.279v206.289l-43.105-0.615l-43.105-1.24l-0.615-129.932c0-149.014-5.542-174.258-41.875-198.887
		c-23.398-16.006-75.122-19.092-102.217-6.768c-33.252,15.391-36.948,31.396-38.794,191.494l-1.846,145.947h-43.105h-43.105
		L933.892-2026.035z"/>
	<path d="M2096.479-2067.91v-206.279h43.105h43.105v206.279v206.289h-43.105h-43.105V-2067.91z"/>
	<path d="M4479.55-1866.543c0-1.23,30.186-45.576,67.119-99.756l67.119-97.295l-70.195-102.226
		c-38.789-56.035-70.205-103.447-70.205-105.293s21.553-3.076,48.027-3.076h47.422l48.027,73.887
		c26.484,40.645,49.883,73.896,52.354,73.896c2.461,0,25.85-33.252,52.959-73.896l48.633-73.887h48.652
		c37.559,0,47.422,1.836,44.336,7.998c-2.471,3.691-33.867,48.652-68.975,99.756c-35.088,50.498-65.264,95.449-67.109,98.525
		c-1.23,3.701,27.09,49.258,62.803,100.381c35.723,51.719,64.668,94.824,64.668,96.67s-21.572,3.086-47.422,3.086h-48.027
		l-43.115-67.744c-23.389-36.943-44.941-67.119-46.797-67.119c-2.461-0.615-23.408,29.57-47.422,66.504l-43.096,67.119
		l-49.883,2.471C4501.708-1865.312,4479.55-1865.312,4479.55-1866.543z"/>
</g>
<path fill="#F39827" d="M202.799,167.088l154.954-49.178c0,0,11.002-5.766,8.351,4.905l0.397,47.387c0,0,1.922,6.96-7.622,8.683
	l-62.961,19.684L202.799,167.088z"/>
<path fill="#F39827" d="M202.799,167.088c0,0-6.097,1.458-4.309,11.863l-0.331,45.665c0,0-0.531,5.766,10.405,8.085l153.563,49.443
	c0,0,5.17,2.054,4.573-4.309l0.066-50.9c0,0,1.458-5.235-8.087-8.683l-62.762-19.684L202.799,167.088z"/>
<linearGradient id="SVGID_1_" gradientUnits="userSpaceOnUse" x1="61.3999" y1="466.0273" x2="89.4186" y2="475.7216" gradientTransform="matrix(5.5944 0 0 -5.5944 -136.3447 2912.1338)">
	<stop  offset="0.233" style="stop-color:#F39829"/>
	<stop  offset="1" style="stop-color:#C2791A"/>
</linearGradient>
<path fill="url(#SVGID_1_)" d="M270.467,252.583l-65.349,19.95c0,0-7.887,0.265-6.958,15.045c0.927,14.78-0.067,44.537-0.067,44.537
	s0.663,5.502,8.218,2.32l154.954-49.442c0,0,5.502-1.392,0.862-2.917C357.488,280.619,270.467,252.583,270.467,252.583z"/>
</svg>
