<?xml version="1.0" encoding="utf-8"?>
<!-- Generator: Adobe Illustrator 14.0.0, SVG Export Plug-In . SVG Version: 6.00 Build 43363)  -->
<!DOCTYPE svg PUBLIC "-//W3C//DTD SVG 1.1//EN" "http://www.w3.org/Graphics/SVG/1.1/DTD/svg11.dtd">
<svg version="1.1" id="Слой_1" xmlns="http://www.w3.org/2000/svg" xmlns:xlink="http://www.w3.org/1999/xlink" x="0px" y="0px"
	 width="566.93px" height="566.93px" viewBox="0 0 566.93 566.93" enable-background="new 0 0 566.93 566.93" xml:space="preserve">
<g id="Word_Group">
	<path d="M173.434,373.686l-21.837,77.275h-10.611l-15.917-56.517c-0.614-2.152-0.999-4.689-1.152-7.842h-0.231
		c-0.308,2.691-0.77,5.229-1.461,7.689l-15.993,56.591H95.698l-22.606-77.274h9.919l16.455,59.282
		c0.692,2.615,1.153,5.229,1.383,7.767h0.232c0.153-2.153,0.691-4.767,1.614-7.767l17.147-59.282h8.766l16.301,59.666
		c0.615,2.231,1.077,4.614,1.307,7.153h0.23c0.153-1.847,0.692-4.307,1.46-7.383l15.764-59.514h9.765V373.686z"/>
	<path d="M191.119,377.452c0,1.617-0.539,3-1.691,4.154c-1.154,1.074-2.538,1.612-4.075,1.612c-1.615,0-3-0.538-4.075-1.612
		c-1.077-1.079-1.692-2.462-1.692-4.154c0-1.537,0.538-2.844,1.615-3.998c1.076-1.153,2.461-1.692,4.152-1.692
		c1.614,0,2.999,0.539,4.151,1.692C190.504,374.53,191.119,375.837,191.119,377.452z M189.581,450.961h-8.842v-55.208h8.842V450.961
		z"/>
	<path d="M248.865,450.961h-8.844v-31.449c0-11.687-4.306-17.53-12.839-17.53c-4.383,0-7.997,1.614-10.92,4.92
		c-2.92,3.307-4.382,7.459-4.382,12.61v31.449h-8.842v-55.208h8.842v9.149h0.232c4.15-6.997,10.15-10.533,18.069-10.533
		c6.074,0,10.688,1.998,13.84,5.92c3.152,3.921,4.767,9.535,4.767,16.84v33.832H248.865z"/>
	<path d="M310.146,450.961h-8.842v-9.382h-0.231c-4.074,7.151-10.379,10.689-18.99,10.689c-6.998,0-12.533-2.537-16.688-7.535
		c-4.15-4.999-6.228-11.688-6.228-20.069c0-9.15,2.307-16.454,6.843-21.991c4.614-5.536,10.688-8.304,18.378-8.304
		c7.534,0,13.072,2.999,16.53,8.92h0.23v-34.141h8.844v81.813H310.146z M301.382,426.048v-8.149c0-4.538-1.539-8.381-4.538-11.381
		c-2.998-2.998-6.689-4.536-11.071-4.536c-5.307,0-9.534,1.999-12.688,5.921c-3.152,3.92-4.689,9.38-4.689,16.376
		c0,6.306,1.46,11.304,4.382,14.995s6.921,5.534,11.918,5.534c4.845,0,8.842-1.767,11.995-5.305
		C299.767,435.966,301.382,431.506,301.382,426.048z"/>
	<path d="M375.504,423.203c0,8.767-2.46,15.839-7.458,21.145c-4.999,5.306-11.611,7.997-19.991,7.997
		c-8.15,0-14.688-2.613-19.531-7.767c-4.844-5.229-7.306-11.994-7.306-20.529c0-9.15,2.462-16.3,7.459-21.607
		c4.999-5.305,11.842-7.918,20.607-7.918c8.227,0,14.609,2.537,19.222,7.688C373.196,407.286,375.504,414.283,375.504,423.203z
		 M366.508,423.511c0-6.92-1.539-12.226-4.614-15.916c-3.074-3.691-7.459-5.538-13.147-5.538c-5.69,0-10.15,1.924-13.457,5.692
		c-3.306,3.767-4.921,9.148-4.921,15.991c0,6.613,1.692,11.766,4.999,15.456c3.306,3.69,7.766,5.611,13.456,5.611
		c5.767,0,10.15-1.843,13.225-5.458C364.969,435.582,366.508,430.354,366.508,423.511z"/>
	<path d="M456.086,395.828l-16.532,55.208h-9.149l-11.381-39.521c-0.384-1.384-0.69-3.076-0.845-5.075h-0.23
		c-0.078,1.23-0.463,2.922-1.153,4.921l-12.303,39.6h-8.844l-16.685-55.208h9.305l11.379,41.521c0.384,1.461,0.615,3.074,0.771,4.92
		h0.46c0.077-1.383,0.385-3.075,0.999-5.074l12.688-41.367h8.075l11.455,41.597c0.385,1.386,0.614,3.078,0.769,4.922h0.461
		c0.077-1.689,0.384-3.382,0.848-4.922l11.225-41.597h8.689V395.828z"/>
	<path d="M493.839,436.198c0,4.768-1.845,8.688-5.535,11.61c-3.69,2.998-8.611,4.46-14.686,4.46c-5.23,0-9.766-1.078-13.687-3.306
		v-9.46c4.382,3.538,9.148,5.305,14.3,5.305c6.998,0,10.534-2.536,10.534-7.688c0-2.076-0.691-3.768-2.076-5.074
		c-1.384-1.309-4.459-3.077-9.304-5.306c-4.922-2.076-8.304-4.307-10.38-6.69c-2-2.384-2.999-5.535-2.999-9.533
		c0-4.538,1.845-8.381,5.46-11.457c3.69-3.077,8.304-4.615,13.916-4.615c4.385,0,8.306,0.847,11.765,2.616v8.918
		c-3.613-2.613-7.766-3.922-12.533-3.922c-2.921,0-5.229,0.692-6.997,2.153c-1.769,1.463-2.69,3.306-2.69,5.538
		c0,2.459,0.691,4.306,2.075,5.612s4.151,2.844,8.46,4.689c5.227,2.23,8.918,4.537,11.071,6.997
		C492.764,429.433,493.839,432.507,493.839,436.198z"/>
</g>
<path fill="#38A8DB" d="M172.799,145.859l89.207-12.149l0.04,86.047l-89.165,0.508L172.799,145.859z M261.964,229.672l0.069,86.123
	l-89.165-12.259l-0.005-74.442L261.964,229.672z M272.778,132.121l118.283-17.263v103.806l-118.283,0.939V132.121z M391.087,230.482
	l-0.026,103.338l-118.283-16.694l-0.166-86.838L391.087,230.482z"/>
</svg>
